<svg xmlns="http://www.w3.org/2000/svg" xmlns:xlink="http://www.w3.org/1999/xlink"
  width="520" height="433" viewBox="0 0 520 433">
<metadata>
  Created by Xiao, Yanyang (yanyangxiaoxyy@gmail.com)
  All copyrights reserved
</metadata>
<g fill="none" stroke="rgb(50.000000, 250.000000, 50.000000)" stroke-width="3.000000" stroke-linecap="round">
<line x1="10.000000" y1="423.000000" x2="260.500000" y2="423.000000"/>
<line x1="260.500000" y1="423.000000" x2="510.000000" y2="423.000000"/>
<line x1="510.000000" y1="423.000000" x2="510.000000" y2="216.500000"/>
<line x1="510.000000" y1="216.500000" x2="510.000000" y2="10.000000"/>
<line x1="510.000000" y1="10.000000" x2="260.500000" y2="10.000000"/>
<line x1="260.500000" y1="10.000000" x2="10.000000" y2="10.000000"/>
<line x1="10.000000" y1="10.000000" x2="10.000000" y2="216.500000"/>
<line x1="10.000000" y1="216.500000" x2="10.000000" y2="423.000000"/>
<line x1="258.500000" y1="183.500000" x2="236.500000" y2="161.500000"/>
<line x1="236.500000" y1="161.500000" x2="210.500000" y2="151.500000"/>
<line x1="210.500000" y1="151.500000" x2="194.500000" y2="150.500000"/>
<line x1="194.500000" y1="150.500000" x2="171.500000" y2="161.500000"/>
<line x1="171.500000" y1="161.500000" x2="136.500000" y2="195.500000"/>
<line x1="136.500000" y1="195.500000" x2="124.500000" y2="177.500000"/>
<line x1="124.500000" y1="177.500000" x2="116.500000" y2="145.500000"/>
<line x1="116.500000" y1="145.500000" x2="116.500000" y2="112.500000"/>
<line x1="116.500000" y1="112.500000" x2="126.500000" y2="82.500000"/>
<line x1="126.500000" y1="82.500000" x2="140.500000" y2="63.500000"/>
<line x1="140.500000" y1="63.500000" x2="166.500000" y2="47.500000"/>
<line x1="166.500000" y1="47.500000" x2="206.500000" y2="42.500000"/>
<line x1="206.500000" y1="42.500000" x2="228.500000" y2="50.500000"/>
<line x1="228.500000" y1="50.500000" x2="247.500000" y2="72.500000"/>
<line x1="247.500000" y1="72.500000" x2="257.500000" y2="74.500000"/>
<line x1="257.500000" y1="74.500000" x2="243.500000" y2="92.500000"/>
<line x1="243.500000" y1="92.500000" x2="260.500000" y2="107.500000"/>
<line x1="260.500000" y1="107.500000" x2="258.500000" y2="116.500000"/>
<line x1="258.500000" y1="116.500000" x2="271.500000" y2="96.500000"/>
<line x1="271.500000" y1="96.500000" x2="260.500000" y2="103.500000"/>
<line x1="260.500000" y1="103.500000" x2="250.500000" y2="92.500000"/>
<line x1="287.500000" y1="337.500000" x2="297.500000" y2="338.500000"/>
<line x1="297.500000" y1="338.500000" x2="300.500000" y2="320.500000"/>
<line x1="300.500000" y1="320.500000" x2="308.500000" y2="311.500000"/>
<line x1="308.500000" y1="311.500000" x2="304.500000" y2="284.500000"/>
<line x1="304.500000" y1="284.500000" x2="286.500000" y2="276.500000"/>
<line x1="286.500000" y1="276.500000" x2="291.500000" y2="264.500000"/>
<line x1="291.500000" y1="264.500000" x2="291.500000" y2="242.500000"/>
<line x1="291.500000" y1="242.500000" x2="282.500000" y2="221.500000"/>
<line x1="282.500000" y1="221.500000" x2="272.500000" y2="216.500000"/>
<line x1="272.500000" y1="216.500000" x2="272.500000" y2="207.500000"/>
<line x1="272.500000" y1="207.500000" x2="261.500000" y2="204.500000"/>
<line x1="261.500000" y1="204.500000" x2="249.500000" y2="210.500000"/>
<line x1="249.500000" y1="210.500000" x2="246.500000" y2="223.500000"/>
<line x1="246.500000" y1="223.500000" x2="240.500000" y2="228.500000"/>
<line x1="240.500000" y1="228.500000" x2="233.500000" y2="248.500000"/>
<line x1="233.500000" y1="248.500000" x2="226.500000" y2="241.500000"/>
<line x1="226.500000" y1="241.500000" x2="235.500000" y2="216.500000"/>
<line x1="235.500000" y1="216.500000" x2="247.500000" y2="201.500000"/>
<line x1="247.500000" y1="201.500000" x2="270.500000" y2="186.500000"/>
<line x1="270.500000" y1="186.500000" x2="294.500000" y2="174.500000"/>
<line x1="109.500000" y1="210.500000" x2="80.500000" y2="211.500000"/>
<line x1="80.500000" y1="211.500000" x2="66.500000" y2="223.500000"/>
<line x1="66.500000" y1="223.500000" x2="55.500000" y2="245.500000"/>
<line x1="55.500000" y1="245.500000" x2="54.500000" y2="280.500000"/>
<line x1="54.500000" y1="280.500000" x2="62.500000" y2="301.500000"/>
<line x1="62.500000" y1="301.500000" x2="75.500000" y2="322.500000"/>
<line x1="75.500000" y1="322.500000" x2="96.500000" y2="340.500000"/>
<line x1="96.500000" y1="340.500000" x2="118.500000" y2="355.500000"/>
<line x1="118.500000" y1="355.500000" x2="149.500000" y2="369.500000"/>
<line x1="149.500000" y1="369.500000" x2="180.500000" y2="379.500000"/>
<line x1="180.500000" y1="379.500000" x2="201.500000" y2="383.500000"/>
<line x1="201.500000" y1="383.500000" x2="222.500000" y2="384.500000"/>
<line x1="222.500000" y1="384.500000" x2="252.500000" y2="370.500000"/>
<line x1="314.500000" y1="399.500000" x2="350.500000" y2="392.500000"/>
<line x1="350.500000" y1="392.500000" x2="374.500000" y2="382.500000"/>
<line x1="374.500000" y1="382.500000" x2="399.500000" y2="367.500000"/>
<line x1="399.500000" y1="367.500000" x2="424.500000" y2="341.500000"/>
<line x1="424.500000" y1="341.500000" x2="438.500000" y2="314.500000"/>
<line x1="438.500000" y1="314.500000" x2="447.500000" y2="277.500000"/>
<line x1="447.500000" y1="277.500000" x2="442.500000" y2="238.500000"/>
<line x1="442.500000" y1="238.500000" x2="417.500000" y2="216.500000"/>
<line x1="417.500000" y1="216.500000" x2="396.500000" y2="224.500000"/>
<line x1="396.500000" y1="224.500000" x2="384.500000" y2="219.500000"/>
<line x1="257.500000" y1="66.500000" x2="222.500000" y2="39.500000"/>
<line x1="222.500000" y1="39.500000" x2="187.500000" y2="35.500000"/>
<line x1="187.500000" y1="35.500000" x2="149.500000" y2="48.500000"/>
<line x1="149.500000" y1="48.500000" x2="130.500000" y2="64.500000"/>
<line x1="130.500000" y1="64.500000" x2="115.500000" y2="89.500000"/>
<line x1="115.500000" y1="89.500000" x2="108.500000" y2="127.500000"/>
<line x1="108.500000" y1="127.500000" x2="112.500000" y2="166.500000"/>
<line x1="112.500000" y1="166.500000" x2="126.500000" y2="198.500000"/>
<line x1="363.500000" y1="198.500000" x2="381.500000" y2="173.500000"/>
<line x1="381.500000" y1="173.500000" x2="393.500000" y2="139.500000"/>
<line x1="393.500000" y1="139.500000" x2="393.500000" y2="103.500000"/>
<line x1="393.500000" y1="103.500000" x2="381.500000" y2="74.500000"/>
<line x1="381.500000" y1="74.500000" x2="361.500000" y2="55.500000"/>
<line x1="361.500000" y1="55.500000" x2="329.500000" y2="42.500000"/>
<line x1="329.500000" y1="42.500000" x2="292.500000" y2="49.500000"/>
<line x1="292.500000" y1="49.500000" x2="275.500000" y2="71.500000"/>
<line x1="394.500000" y1="162.500000" x2="401.500000" y2="138.500000"/>
<line x1="401.500000" y1="138.500000" x2="401.500000" y2="102.500000"/>
<line x1="401.500000" y1="102.500000" x2="390.500000" y2="72.500000"/>
<line x1="390.500000" y1="72.500000" x2="375.500000" y2="55.500000"/>
<line x1="375.500000" y1="55.500000" x2="355.500000" y2="45.500000"/>
<line x1="355.500000" y1="45.500000" x2="334.500000" y2="34.500000"/>
<line x1="334.500000" y1="34.500000" x2="305.500000" y2="33.500000"/>
<line x1="305.500000" y1="33.500000" x2="274.500000" y2="47.500000"/>
<line x1="274.500000" y1="47.500000" x2="257.500000" y2="66.500000"/>
<line x1="221.500000" y1="295.500000" x2="218.500000" y2="263.500000"/>
<line x1="218.500000" y1="263.500000" x2="223.500000" y2="235.500000"/>
<line x1="223.500000" y1="235.500000" x2="236.500000" y2="207.500000"/>
<line x1="236.500000" y1="207.500000" x2="258.500000" y2="183.500000"/>
<line x1="108.500000" y1="278.500000" x2="118.500000" y2="247.500000"/>
<line x1="118.500000" y1="247.500000" x2="128.500000" y2="237.500000"/>
<line x1="128.500000" y1="237.500000" x2="148.500000" y2="229.500000"/>
<line x1="148.500000" y1="229.500000" x2="157.500000" y2="232.500000"/>
<line x1="157.500000" y1="232.500000" x2="164.500000" y2="223.500000"/>
<line x1="164.500000" y1="223.500000" x2="157.500000" y2="217.500000"/>
<line x1="157.500000" y1="217.500000" x2="155.500000" y2="229.500000"/>
<line x1="363.500000" y1="198.500000" x2="333.500000" y2="175.500000"/>
<line x1="333.500000" y1="175.500000" x2="311.500000" y2="167.500000"/>
<line x1="311.500000" y1="167.500000" x2="286.500000" y2="170.500000"/>
<line x1="286.500000" y1="170.500000" x2="258.500000" y2="183.500000"/>
<line x1="81.500000" y1="223.500000" x2="102.500000" y2="218.500000"/>
<line x1="102.500000" y1="218.500000" x2="124.500000" y2="212.500000"/>
<line x1="124.500000" y1="212.500000" x2="146.500000" y2="192.500000"/>
<line x1="146.500000" y1="192.500000" x2="163.500000" y2="186.500000"/>
<line x1="97.500000" y1="294.500000" x2="77.500000" y2="284.500000"/>
<line x1="77.500000" y1="284.500000" x2="58.500000" y2="274.500000"/>
<line x1="58.500000" y1="274.500000" x2="57.500000" y2="248.500000"/>
<line x1="57.500000" y1="248.500000" x2="68.500000" y2="227.500000"/>
<line x1="412.500000" y1="215.500000" x2="373.500000" y2="204.500000"/>
<line x1="373.500000" y1="204.500000" x2="384.500000" y2="184.500000"/>
<line x1="384.500000" y1="184.500000" x2="394.500000" y2="162.500000"/>
<line x1="163.500000" y1="177.500000" x2="176.500000" y2="184.500000"/>
<line x1="176.500000" y1="184.500000" x2="175.500000" y2="206.500000"/>
<line x1="175.500000" y1="206.500000" x2="168.500000" y2="214.500000"/>
<line x1="168.500000" y1="214.500000" x2="169.500000" y2="231.500000"/>
<line x1="384.500000" y1="219.500000" x2="399.500000" y2="215.500000"/>
<line x1="399.500000" y1="215.500000" x2="373.500000" y2="215.500000"/>
<line x1="373.500000" y1="215.500000" x2="359.500000" y2="209.500000"/>
<line x1="276.500000" y1="354.500000" x2="242.500000" y2="353.500000"/>
<line x1="242.500000" y1="353.500000" x2="230.500000" y2="331.500000"/>
<line x1="262.500000" y1="376.500000" x2="269.500000" y2="375.500000"/>
<line x1="269.500000" y1="375.500000" x2="290.500000" y2="391.500000"/>
<line x1="290.500000" y1="391.500000" x2="314.500000" y2="399.500000"/>
<line x1="316.500000" y1="178.500000" x2="329.500000" y2="200.500000"/>
<line x1="329.500000" y1="200.500000" x2="341.500000" y2="208.500000"/>
<line x1="341.500000" y1="208.500000" x2="359.500000" y2="209.500000"/>
<line x1="223.500000" y1="265.500000" x2="231.500000" y2="254.500000"/>
<line x1="231.500000" y1="254.500000" x2="225.500000" y2="288.500000"/>
<line x1="230.500000" y1="331.500000" x2="232.500000" y2="320.500000"/>
<line x1="232.500000" y1="320.500000" x2="227.500000" y2="315.500000"/>
<line x1="227.500000" y1="315.500000" x2="225.500000" y2="288.500000"/>
<line x1="250.500000" y1="92.500000" x2="248.500000" y2="86.500000"/>
<line x1="248.500000" y1="86.500000" x2="273.500000" y2="92.500000"/>
<line x1="273.500000" y1="92.500000" x2="270.500000" y2="84.500000"/>
<line x1="87.500000" y1="208.500000" x2="107.500000" y2="205.500000"/>
<line x1="107.500000" y1="205.500000" x2="126.500000" y2="198.500000"/>
<line x1="269.500000" y1="375.500000" x2="254.500000" y2="362.500000"/>
<line x1="254.500000" y1="362.500000" x2="262.500000" y2="376.500000"/>
<line x1="344.500000" y1="202.500000" x2="326.500000" y2="179.500000"/>
<line x1="326.500000" y1="179.500000" x2="316.500000" y2="178.500000"/>
<line x1="296.500000" y1="399.500000" x2="275.500000" y2="389.500000"/>
<line x1="275.500000" y1="389.500000" x2="262.500000" y2="376.500000"/>
<line x1="398.500000" y1="127.500000" x2="394.500000" y2="162.500000"/>
<line x1="230.500000" y1="331.500000" x2="221.500000" y2="308.500000"/>
<line x1="221.500000" y1="308.500000" x2="221.500000" y2="295.500000"/>
<line x1="245.500000" y1="335.500000" x2="238.500000" y2="333.500000"/>
<line x1="238.500000" y1="333.500000" x2="238.500000" y2="323.500000"/>
<line x1="238.500000" y1="323.500000" x2="249.500000" y2="333.500000"/>
<line x1="352.500000" y1="214.500000" x2="384.500000" y2="219.500000"/>
<line x1="126.500000" y1="198.500000" x2="109.500000" y2="210.500000"/>
<line x1="298.500000" y1="185.500000" x2="316.500000" y2="178.500000"/>
<line x1="251.500000" y1="349.500000" x2="245.500000" y2="335.500000"/>
<line x1="275.500000" y1="71.500000" x2="257.500000" y2="66.500000"/>
<line x1="269.500000" y1="339.500000" x2="265.500000" y2="331.500000"/>
<line x1="306.500000" y1="177.500000" x2="294.500000" y2="174.500000"/>
<line x1="359.500000" y1="209.500000" x2="363.500000" y2="198.500000"/>
<line x1="145.500000" y1="261.500000" x2="141.500000" y2="259.500000"/>
<line x1="207.500000" y1="163.500000" x2="218.500000" y2="159.500000"/>
<line x1="268.500000" y1="325.500000" x2="265.500000" y2="331.500000"/>
<line x1="163.500000" y1="186.500000" x2="163.500000" y2="177.500000"/>
<line x1="68.500000" y1="227.500000" x2="81.500000" y2="223.500000"/>
</g>
<g fill="rgb(250.000000, 50.000000, 50.000000)">
<circle cx="10.000000" cy="423.000000" r="5.000000"/>
<circle cx="510.000000" cy="423.000000" r="5.000000"/>
<circle cx="510.000000" cy="10.000000" r="5.000000"/>
<circle cx="10.000000" cy="10.000000" r="5.000000"/>
<circle cx="260.500000" cy="423.000000" r="5.000000"/>
<circle cx="510.000000" cy="216.500000" r="5.000000"/>
<circle cx="260.500000" cy="10.000000" r="5.000000"/>
<circle cx="10.000000" cy="216.500000" r="5.000000"/>
<circle cx="258.500000" cy="183.500000" r="5.000000"/>
<circle cx="236.500000" cy="161.500000" r="5.000000"/>
<circle cx="210.500000" cy="151.500000" r="5.000000"/>
<circle cx="194.500000" cy="150.500000" r="5.000000"/>
<circle cx="171.500000" cy="161.500000" r="5.000000"/>
<circle cx="136.500000" cy="195.500000" r="5.000000"/>
<circle cx="124.500000" cy="177.500000" r="5.000000"/>
<circle cx="116.500000" cy="145.500000" r="5.000000"/>
<circle cx="116.500000" cy="112.500000" r="5.000000"/>
<circle cx="126.500000" cy="82.500000" r="5.000000"/>
<circle cx="140.500000" cy="63.500000" r="5.000000"/>
<circle cx="166.500000" cy="47.500000" r="5.000000"/>
<circle cx="206.500000" cy="42.500000" r="5.000000"/>
<circle cx="228.500000" cy="50.500000" r="5.000000"/>
<circle cx="247.500000" cy="72.500000" r="5.000000"/>
<circle cx="257.500000" cy="74.500000" r="5.000000"/>
<circle cx="243.500000" cy="92.500000" r="5.000000"/>
<circle cx="260.500000" cy="107.500000" r="5.000000"/>
<circle cx="258.500000" cy="116.500000" r="5.000000"/>
<circle cx="271.500000" cy="96.500000" r="5.000000"/>
<circle cx="260.500000" cy="103.500000" r="5.000000"/>
<circle cx="250.500000" cy="92.500000" r="5.000000"/>
<circle cx="287.500000" cy="337.500000" r="5.000000"/>
<circle cx="297.500000" cy="338.500000" r="5.000000"/>
<circle cx="300.500000" cy="320.500000" r="5.000000"/>
<circle cx="308.500000" cy="311.500000" r="5.000000"/>
<circle cx="304.500000" cy="284.500000" r="5.000000"/>
<circle cx="286.500000" cy="276.500000" r="5.000000"/>
<circle cx="291.500000" cy="264.500000" r="5.000000"/>
<circle cx="291.500000" cy="242.500000" r="5.000000"/>
<circle cx="282.500000" cy="221.500000" r="5.000000"/>
<circle cx="272.500000" cy="216.500000" r="5.000000"/>
<circle cx="272.500000" cy="207.500000" r="5.000000"/>
<circle cx="261.500000" cy="204.500000" r="5.000000"/>
<circle cx="249.500000" cy="210.500000" r="5.000000"/>
<circle cx="246.500000" cy="223.500000" r="5.000000"/>
<circle cx="240.500000" cy="228.500000" r="5.000000"/>
<circle cx="233.500000" cy="248.500000" r="5.000000"/>
<circle cx="226.500000" cy="241.500000" r="5.000000"/>
<circle cx="235.500000" cy="216.500000" r="5.000000"/>
<circle cx="247.500000" cy="201.500000" r="5.000000"/>
<circle cx="270.500000" cy="186.500000" r="5.000000"/>
<circle cx="294.500000" cy="174.500000" r="5.000000"/>
<circle cx="109.500000" cy="210.500000" r="5.000000"/>
<circle cx="80.500000" cy="211.500000" r="5.000000"/>
<circle cx="66.500000" cy="223.500000" r="5.000000"/>
<circle cx="55.500000" cy="245.500000" r="5.000000"/>
<circle cx="54.500000" cy="280.500000" r="5.000000"/>
<circle cx="62.500000" cy="301.500000" r="5.000000"/>
<circle cx="75.500000" cy="322.500000" r="5.000000"/>
<circle cx="96.500000" cy="340.500000" r="5.000000"/>
<circle cx="118.500000" cy="355.500000" r="5.000000"/>
<circle cx="149.500000" cy="369.500000" r="5.000000"/>
<circle cx="180.500000" cy="379.500000" r="5.000000"/>
<circle cx="201.500000" cy="383.500000" r="5.000000"/>
<circle cx="222.500000" cy="384.500000" r="5.000000"/>
<circle cx="252.500000" cy="370.500000" r="5.000000"/>
<circle cx="314.500000" cy="399.500000" r="5.000000"/>
<circle cx="350.500000" cy="392.500000" r="5.000000"/>
<circle cx="374.500000" cy="382.500000" r="5.000000"/>
<circle cx="399.500000" cy="367.500000" r="5.000000"/>
<circle cx="424.500000" cy="341.500000" r="5.000000"/>
<circle cx="438.500000" cy="314.500000" r="5.000000"/>
<circle cx="447.500000" cy="277.500000" r="5.000000"/>
<circle cx="442.500000" cy="238.500000" r="5.000000"/>
<circle cx="417.500000" cy="216.500000" r="5.000000"/>
<circle cx="396.500000" cy="224.500000" r="5.000000"/>
<circle cx="384.500000" cy="219.500000" r="5.000000"/>
<circle cx="257.500000" cy="66.500000" r="5.000000"/>
<circle cx="222.500000" cy="39.500000" r="5.000000"/>
<circle cx="187.500000" cy="35.500000" r="5.000000"/>
<circle cx="149.500000" cy="48.500000" r="5.000000"/>
<circle cx="130.500000" cy="64.500000" r="5.000000"/>
<circle cx="115.500000" cy="89.500000" r="5.000000"/>
<circle cx="108.500000" cy="127.500000" r="5.000000"/>
<circle cx="112.500000" cy="166.500000" r="5.000000"/>
<circle cx="126.500000" cy="198.500000" r="5.000000"/>
<circle cx="363.500000" cy="198.500000" r="5.000000"/>
<circle cx="381.500000" cy="173.500000" r="5.000000"/>
<circle cx="393.500000" cy="139.500000" r="5.000000"/>
<circle cx="393.500000" cy="103.500000" r="5.000000"/>
<circle cx="381.500000" cy="74.500000" r="5.000000"/>
<circle cx="361.500000" cy="55.500000" r="5.000000"/>
<circle cx="329.500000" cy="42.500000" r="5.000000"/>
<circle cx="292.500000" cy="49.500000" r="5.000000"/>
<circle cx="275.500000" cy="71.500000" r="5.000000"/>
<circle cx="394.500000" cy="162.500000" r="5.000000"/>
<circle cx="401.500000" cy="138.500000" r="5.000000"/>
<circle cx="401.500000" cy="102.500000" r="5.000000"/>
<circle cx="390.500000" cy="72.500000" r="5.000000"/>
<circle cx="375.500000" cy="55.500000" r="5.000000"/>
<circle cx="355.500000" cy="45.500000" r="5.000000"/>
<circle cx="334.500000" cy="34.500000" r="5.000000"/>
<circle cx="305.500000" cy="33.500000" r="5.000000"/>
<circle cx="274.500000" cy="47.500000" r="5.000000"/>
<circle cx="221.500000" cy="295.500000" r="5.000000"/>
<circle cx="218.500000" cy="263.500000" r="5.000000"/>
<circle cx="223.500000" cy="235.500000" r="5.000000"/>
<circle cx="236.500000" cy="207.500000" r="5.000000"/>
<circle cx="108.500000" cy="278.500000" r="5.000000"/>
<circle cx="118.500000" cy="247.500000" r="5.000000"/>
<circle cx="128.500000" cy="237.500000" r="5.000000"/>
<circle cx="148.500000" cy="229.500000" r="5.000000"/>
<circle cx="157.500000" cy="232.500000" r="5.000000"/>
<circle cx="164.500000" cy="223.500000" r="5.000000"/>
<circle cx="157.500000" cy="217.500000" r="5.000000"/>
<circle cx="155.500000" cy="229.500000" r="5.000000"/>
<circle cx="333.500000" cy="175.500000" r="5.000000"/>
<circle cx="311.500000" cy="167.500000" r="5.000000"/>
<circle cx="286.500000" cy="170.500000" r="5.000000"/>
<circle cx="81.500000" cy="223.500000" r="5.000000"/>
<circle cx="102.500000" cy="218.500000" r="5.000000"/>
<circle cx="124.500000" cy="212.500000" r="5.000000"/>
<circle cx="146.500000" cy="192.500000" r="5.000000"/>
<circle cx="163.500000" cy="186.500000" r="5.000000"/>
<circle cx="97.500000" cy="294.500000" r="5.000000"/>
<circle cx="77.500000" cy="284.500000" r="5.000000"/>
<circle cx="58.500000" cy="274.500000" r="5.000000"/>
<circle cx="57.500000" cy="248.500000" r="5.000000"/>
<circle cx="68.500000" cy="227.500000" r="5.000000"/>
<circle cx="412.500000" cy="215.500000" r="5.000000"/>
<circle cx="373.500000" cy="204.500000" r="5.000000"/>
<circle cx="384.500000" cy="184.500000" r="5.000000"/>
<circle cx="163.500000" cy="177.500000" r="5.000000"/>
<circle cx="176.500000" cy="184.500000" r="5.000000"/>
<circle cx="175.500000" cy="206.500000" r="5.000000"/>
<circle cx="168.500000" cy="214.500000" r="5.000000"/>
<circle cx="169.500000" cy="231.500000" r="5.000000"/>
<circle cx="399.500000" cy="215.500000" r="5.000000"/>
<circle cx="373.500000" cy="215.500000" r="5.000000"/>
<circle cx="359.500000" cy="209.500000" r="5.000000"/>
<circle cx="276.500000" cy="354.500000" r="5.000000"/>
<circle cx="242.500000" cy="353.500000" r="5.000000"/>
<circle cx="230.500000" cy="331.500000" r="5.000000"/>
<circle cx="262.500000" cy="376.500000" r="5.000000"/>
<circle cx="269.500000" cy="375.500000" r="5.000000"/>
<circle cx="290.500000" cy="391.500000" r="5.000000"/>
<circle cx="316.500000" cy="178.500000" r="5.000000"/>
<circle cx="329.500000" cy="200.500000" r="5.000000"/>
<circle cx="341.500000" cy="208.500000" r="5.000000"/>
<circle cx="223.500000" cy="265.500000" r="5.000000"/>
<circle cx="231.500000" cy="254.500000" r="5.000000"/>
<circle cx="225.500000" cy="288.500000" r="5.000000"/>
<circle cx="232.500000" cy="320.500000" r="5.000000"/>
<circle cx="227.500000" cy="315.500000" r="5.000000"/>
<circle cx="248.500000" cy="86.500000" r="5.000000"/>
<circle cx="273.500000" cy="92.500000" r="5.000000"/>
<circle cx="270.500000" cy="84.500000" r="5.000000"/>
<circle cx="87.500000" cy="208.500000" r="5.000000"/>
<circle cx="107.500000" cy="205.500000" r="5.000000"/>
<circle cx="254.500000" cy="362.500000" r="5.000000"/>
<circle cx="344.500000" cy="202.500000" r="5.000000"/>
<circle cx="326.500000" cy="179.500000" r="5.000000"/>
<circle cx="296.500000" cy="399.500000" r="5.000000"/>
<circle cx="275.500000" cy="389.500000" r="5.000000"/>
<circle cx="398.500000" cy="127.500000" r="5.000000"/>
<circle cx="221.500000" cy="308.500000" r="5.000000"/>
<circle cx="245.500000" cy="335.500000" r="5.000000"/>
<circle cx="238.500000" cy="333.500000" r="5.000000"/>
<circle cx="238.500000" cy="323.500000" r="5.000000"/>
<circle cx="249.500000" cy="333.500000" r="5.000000"/>
<circle cx="352.500000" cy="214.500000" r="5.000000"/>
<circle cx="298.500000" cy="185.500000" r="5.000000"/>
<circle cx="251.500000" cy="349.500000" r="5.000000"/>
<circle cx="269.500000" cy="339.500000" r="5.000000"/>
<circle cx="265.500000" cy="331.500000" r="5.000000"/>
<circle cx="306.500000" cy="177.500000" r="5.000000"/>
<circle cx="254.500000" cy="332.500000" r="5.000000"/>
<circle cx="145.500000" cy="261.500000" r="5.000000"/>
<circle cx="141.500000" cy="259.500000" r="5.000000"/>
<circle cx="207.500000" cy="163.500000" r="5.000000"/>
<circle cx="218.500000" cy="159.500000" r="5.000000"/>
<circle cx="268.500000" cy="325.500000" r="5.000000"/>
</g>
</svg>
