<svg xmlns="http://www.w3.org/2000/svg" xmlns:xlink="http://www.w3.org/1999/xlink"
  width="1044" height="1044" viewBox="0 0 1044 1044">
<metadata>
  Created by Xiao, Yanyang (yanyangxiaoxyy@gmail.com)
  All copyrights reserved
</metadata>
<g fill="none" stroke="rgb(50.000000, 50.000000, 250.000000)" stroke-width="2.000000" stroke-linecap="round">
<!--eid=0-->
<path d="M 173.752672 773.173785 Q 91.166667 655.250000 10.000000 506.955065"/>
<!--eid=1-->
<path d="M 237.338575 684.815143 Q 127.917119 602.697102 10.000000 506.955065"/>
<!--eid=2-->
<path d="M 10.000000 506.955065 Q 10.000000 770.477533 10.000000 1034.000000"/>
<!--eid=3-->
<path d="M 10.000000 1034.000000 Q 200.092262 861.281374 386.943078 680.731127"/>
<!--eid=4-->
<path d="M 272.732226 679.006702 Q 249.775998 671.380325 234.689114 653.325682"/>
<!--eid=5-->
<path d="M 272.732226 679.006702 Q 296.743795 688.550574 324.204324 686.997557"/>
<!--eid=6-->
<path d="M 324.204324 686.997557 Q 360.032907 681.608320 384.263495 645.252173"/>
<!--eid=7-->
<path d="M 272.732226 679.006702 Q 332.303261 675.051448 384.263495 645.252173"/>
<!--eid=8-->
<path d="M 504.721887 832.472422 Q 260.743146 944.535249 10.000000 1034.000000"/>
<!--eid=9-->
<path d="M 469.035988 680.479154 Q 429.942519 674.815450 386.943078 680.731127"/>
<!--eid=10-->
<path d="M 324.204324 686.997557 Q 167.104616 860.574586 10.000000 1034.000000"/>
<!--eid=11-->
<path d="M 384.263495 645.252173 Q 309.864749 656.084772 234.689114 653.325682"/>
<!--eid=12-->
<path d="M 219.970516 614.315335 Q 221.758787 636.312225 234.689114 653.325682"/>
<!--eid=13-->
<path d="M 537.805300 906.319768 Q 271.547446 960.171630 10.000000 1034.000000"/>
<!--eid=14-->
<path d="M 324.204324 686.997557 Q 244.122326 732.066162 173.752672 773.173785"/>
<!--eid=15-->
<path d="M 384.263495 645.252173 Q 302.076696 630.169123 219.970516 614.315335"/>
<!--eid=16-->
<path d="M 10.000000 506.955065 Q 97.508062 517.647566 182.652675 536.483864"/>
<!--eid=17-->
<path d="M 182.652675 536.483864 Q 157.391682 515.760249 152.958643 482.364698"/>
<!--eid=18-->
<path d="M 10.000000 506.955065 Q 83.776171 513.380242 152.958643 482.364698"/>
<!--eid=19-->
<path d="M 10.000000 506.955065 Q 112.404548 573.215423 219.970516 614.315335"/>
<!--eid=20-->
<path d="M 219.970516 614.315335 Q 213.137492 569.533799 182.652675 536.483864"/>
<!--eid=21-->
<path d="M 182.652675 536.483864 Q 205.384075 553.498610 233.809459 543.227055"/>
<!--eid=22-->
<path d="M 239.684835 378.072202 Q 190.064571 425.244481 152.958643 482.364698"/>
<!--eid=23-->
<path d="M 152.958643 482.364698 Q 146.984864 446.188139 168.587585 416.697498"/>
<!--eid=24-->
<path d="M 89.250000 469.000000 Q 49.625000 495.250000 10.000000 506.955065"/>
<!--eid=25-->
<path d="M 384.263495 645.252173 Q 299.210611 608.876067 233.809459 543.227055"/>
<!--eid=26-->
<path d="M 233.809459 543.227055 Q 217.582156 578.062245 219.970516 614.315335"/>
<!--eid=27-->
<path d="M 384.263495 645.252173 Q 399.200182 622.999282 410.338717 598.412473"/>
<!--eid=28-->
<path d="M 410.338717 598.412473 Q 325.324619 560.657308 233.809459 543.227055"/>
<!--eid=29-->
<path d="M 294.482949 374.148755 Q 223.242539 427.800533 152.958643 482.364698"/>
<!--eid=30-->
<path d="M 434.807870 541.577729 Q 334.165469 556.479425 233.809459 543.227055"/>
<!--eid=31-->
<path d="M 410.338717 598.412473 Q 422.971791 570.177622 434.807870 541.577729"/>
<!--eid=32-->
<path d="M 384.263495 645.252173 Q 422.293569 614.346660 468.124756 597.526566"/>
<!--eid=33-->
<path d="M 468.124756 597.526566 Q 451.246872 663.841288 386.943078 680.731127"/>
<!--eid=34-->
<path d="M 469.035988 680.479154 Q 465.364417 639.011165 468.124756 597.526566"/>
<!--eid=35-->
<path d="M 468.124756 597.526566 Q 439.574511 570.662548 410.338717 598.412473"/>
<!--eid=36-->
<path d="M 410.338717 598.412473 Q 441.354741 553.011947 477.500000 511.500000"/>
<!--eid=37-->
<path d="M 479.827753 667.481920 Q 471.637061 671.836453 469.035988 680.479154"/>
<!--eid=38-->
<path d="M 490.969395 749.409933 Q 480.292966 714.852179 469.035988 680.479154"/>
<!--eid=39-->
<path d="M 490.969395 749.409933 Q 482.605384 708.811017 479.827753 667.481920"/>
<!--eid=40-->
<path d="M 468.124756 597.526566 Q 474.168570 632.473275 479.827753 667.481920"/>
<!--eid=41-->
<path d="M 479.827753 667.481920 Q 478.300490 631.011796 479.500000 594.500000"/>
<!--eid=42-->
<path d="M 479.500000 594.500000 Q 473.060699 595.271971 468.124756 597.526566"/>
<!--eid=43-->
<path d="M 490.969395 749.409933 Q 483.301655 751.659839 480.500000 759.500000"/>
<!--eid=44-->
<path d="M 480.500000 759.500000 Q 492.255409 788.168663 508.500000 814.500000"/>
<!--eid=45-->
<path d="M 508.500000 814.500000 Q 498.047896 782.264597 490.969395 749.409933"/>
<!--eid=46-->
<path d="M 504.721887 832.472422 Q 489.845770 801.044090 480.500000 759.500000"/>
<!--eid=47-->
<path d="M 566.460165 643.262289 Q 521.036354 622.347490 479.500000 594.500000"/>
<!--eid=48-->
<path d="M 566.460165 643.262289 Q 522.736257 653.938831 479.827753 667.481920"/>
<!--eid=49-->
<path d="M 469.035988 680.479154 Q 472.268707 720.151131 480.500000 759.500000"/>
<!--eid=50-->
<path d="M 566.460165 643.262289 Q 513.277218 685.304308 490.969395 749.409933"/>
<!--eid=51-->
<path d="M 434.807870 541.577729 Q 453.947146 523.399786 477.500000 511.500000"/>
<!--eid=52-->
<path d="M 477.500000 511.500000 Q 476.915663 493.930959 461.500000 485.500000"/>
<!--eid=53-->
<path d="M 461.500000 485.500000 Q 447.354459 513.189826 434.807870 541.577729"/>
<!--eid=54-->
<path d="M 468.124756 597.526566 Q 470.127464 554.269758 477.500000 511.500000"/>
<!--eid=55-->
<path d="M 493.601451 440.876322 Q 491.639377 479.260866 488.905240 517.598151"/>
<!--eid=56-->
<path d="M 504.500000 445.500000 Q 495.701821 459.278131 493.601451 440.876322"/>
<!--eid=57-->
<path d="M 493.601451 440.876322 Q 484.790887 476.113999 477.500000 511.500000"/>
<!--eid=58-->
<path d="M 414.499957 392.500165 Q 326.501960 471.500078 233.809459 543.227055"/>
<!--eid=59-->
<path d="M 182.652675 536.483864 Q 297.066770 462.172330 414.499957 392.500165"/>
<!--eid=60-->
<path d="M 479.500000 594.500000 Q 494.948554 560.469836 531.953679 559.263931"/>
<!--eid=61-->
<path d="M 531.953679 559.263931 Q 494.082355 555.264535 488.905240 517.598151"/>
<!--eid=62-->
<path d="M 488.905240 517.598151 Q 483.142623 555.576561 479.500000 594.500000"/>
<!--eid=63-->
<path d="M 504.500000 445.500000 Q 495.733378 481.365274 488.905240 517.598151"/>
<!--eid=64-->
<path d="M 488.905240 517.598151 Q 497.224244 499.347010 516.500000 501.500000"/>
<!--eid=65-->
<path d="M 516.500000 501.500000 Q 512.080698 472.365550 504.500000 445.500000"/>
<!--eid=66-->
<path d="M 477.500000 511.500000 Q 480.554475 519.696154 488.905240 517.598151"/>
<!--eid=67-->
<path d="M 477.500000 511.500000 Q 480.709016 552.944746 479.500000 594.500000"/>
<!--eid=68-->
<path d="M 233.809459 543.227055 Q 354.631722 460.594550 495.497003 418.712467"/>
<!--eid=69-->
<path d="M 233.809459 543.227055 Q 347.907630 516.653929 461.500000 485.500000"/>
<!--eid=70-->
<path d="M 495.497003 418.712467 Q 498.149887 432.456776 504.500000 445.500000"/>
<!--eid=71-->
<path d="M 504.500000 445.500000 Q 517.309628 436.131725 523.748925 422.219850"/>
<!--eid=72-->
<path d="M 523.748925 422.219850 Q 519.310213 406.149153 506.883818 415.103389"/>
<!--eid=73-->
<path d="M 10.000000 1034.000000 Q 290.433937 1034.000000 570.867874 1034.000000"/>
<!--eid=74-->
<path d="M 10.000000 1034.000000 Q 253.887455 911.573585 480.500000 759.500000"/>
<!--eid=75-->
<path d="M 493.601451 440.876322 Q 474.914757 460.448057 461.500000 485.500000"/>
<!--eid=76-->
<path d="M 196.562711 344.544241 Q 187.767972 378.687324 168.587585 416.697498"/>
<!--eid=77-->
<path d="M 168.587585 416.697498 Q 195.588478 384.920221 239.684835 378.072202"/>
<!--eid=78-->
<path d="M 224.000000 305.666667 Q 235.862187 340.975243 239.684835 378.072202"/>
<!--eid=79-->
<path d="M 152.958643 482.364698 Q 249.480240 427.990403 348.469853 378.704514"/>
<!--eid=80-->
<path d="M 270.286880 325.349667 Q 291.737130 345.471642 294.482949 374.148755"/>
<!--eid=81-->
<path d="M 294.482949 374.148755 Q 308.933259 361.915939 317.506293 345.155297"/>
<!--eid=82-->
<path d="M 317.506293 345.155297 Q 292.872756 336.619295 270.286880 325.349667"/>
<!--eid=83-->
<path d="M 224.000000 305.666667 Q 252.902421 346.340191 294.482949 374.148755"/>
<!--eid=84-->
<path d="M 239.684835 378.072202 Q 266.621054 373.009450 294.482949 374.148755"/>
<!--eid=85-->
<path d="M 294.482949 374.148755 Q 321.462497 374.471885 348.469853 378.704514"/>
<!--eid=86-->
<path d="M 348.469853 378.704514 Q 331.924894 362.911146 317.506293 345.155297"/>
<!--eid=87-->
<path d="M 211.773675 255.464124 Q 263.794256 192.233248 334.881622 150.726841"/>
<!--eid=88-->
<path d="M 211.773675 255.464124 Q 225.185514 300.574013 270.286880 325.349667"/>
<!--eid=89-->
<path d="M 334.881622 150.726841 Q 302.755042 238.203387 270.286880 325.349667"/>
<!--eid=90-->
<path d="M 182.652675 536.483864 Q 266.739352 458.832293 348.469853 378.704514"/>
<!--eid=91-->
<path d="M 211.773675 255.464124 Q 165.137134 178.313238 124.574960 108.326500"/>
<!--eid=92-->
<path d="M 211.773675 255.464124 Q 204.975092 231.768934 206.086363 207.355155"/>
<!--eid=93-->
<path d="M 124.574960 108.326500 Q 58.875000 59.375000 10.000000 10.000000"/>
<!--eid=94-->
<path d="M 10.000000 10.000000 Q 10.000000 258.477533 10.000000 506.955065"/>
<!--eid=95-->
<path d="M 10.000000 10.000000 Q 81.856916 216.130045 168.587585 416.697498"/>
<!--eid=96-->
<path d="M 262.516356 147.725016 Q 226.108479 196.365735 211.773675 255.464124"/>
<!--eid=97-->
<path d="M 262.516356 147.725016 Q 227.646339 171.487552 206.086363 207.355155"/>
<!--eid=98-->
<path d="M 206.086363 207.355155 Q 207.133709 187.733832 218.293607 171.138790"/>
<!--eid=99-->
<path d="M 222.205808 10.000000 Q 171.252836 59.172268 124.574960 108.326500"/>
<!--eid=100-->
<path d="M 334.881622 150.726841 Q 269.791978 77.299808 222.205808 10.000000"/>
<!--eid=101-->
<path d="M 332.477198 86.341386 Q 260.432366 56.232678 222.205808 10.000000"/>
<!--eid=102-->
<path d="M 233.096374 135.527815 Q 167.000000 112.500000 124.574960 108.326500"/>
<!--eid=103-->
<path d="M 262.516356 147.725016 Q 235.923941 152.665878 218.293607 171.138790"/>
<!--eid=104-->
<path d="M 334.881622 150.726841 Q 298.209775 142.692840 262.516356 147.725016"/>
<!--eid=105-->
<path d="M 334.881622 150.726841 Q 313.906614 119.186734 332.477198 86.341386"/>
<!--eid=106-->
<path d="M 332.477198 86.341386 Q 351.068974 58.456058 385.728413 49.600075"/>
<!--eid=107-->
<path d="M 222.205808 10.000000 Q 116.102904 10.000000 10.000000 10.000000"/>
<!--eid=108-->
<path d="M 317.506293 345.155297 Q 336.355428 249.409363 334.881622 150.726841"/>
<!--eid=109-->
<path d="M 426.500000 380.500000 Q 426.341066 392.524055 414.499957 392.500165"/>
<!--eid=110-->
<path d="M 414.499957 392.500165 Q 455.432556 403.663110 495.497003 418.712467"/>
<!--eid=111-->
<path d="M 495.497003 418.712467 Q 463.555309 395.124165 426.500000 380.500000"/>
<!--eid=112-->
<path d="M 414.499957 392.500165 Q 381.662678 384.762948 348.469853 378.704514"/>
<!--eid=113-->
<path d="M 461.500000 485.500000 Q 478.520015 452.192473 495.497003 418.712467"/>
<!--eid=114-->
<path d="M 493.601451 440.876322 Q 491.044152 429.514810 495.497003 418.712467"/>
<!--eid=115-->
<path d="M 426.500000 380.500000 Q 399.682696 370.792481 372.507726 362.476094"/>
<!--eid=116-->
<path d="M 372.507726 362.476094 Q 395.088176 375.288637 414.499957 392.500165"/>
<!--eid=117-->
<path d="M 495.497003 418.712467 Q 498.841520 411.995663 506.883818 415.103389"/>
<!--eid=118-->
<path d="M 506.883818 415.103389 Q 507.095402 413.514186 507.500000 411.500000"/>
<!--eid=119-->
<path d="M 334.881622 150.726841 Q 417.918731 284.904019 506.883818 415.103389"/>
<!--eid=120-->
<path d="M 504.500000 445.500000 Q 504.693952 430.468507 506.883818 415.103389"/>
<!--eid=121-->
<path d="M 525.500000 348.500000 Q 520.593789 383.944271 506.883818 415.103389"/>
<!--eid=122-->
<path d="M 525.500000 348.500000 Q 523.928995 385.380423 523.748925 422.219850"/>
<!--eid=123-->
<path d="M 507.500000 411.500000 Q 439.530747 268.811933 334.881622 150.726841"/>
<!--eid=124-->
<path d="M 334.881622 150.726841 Q 404.572869 290.447224 495.497003 418.712467"/>
<!--eid=125-->
<path d="M 507.500000 411.500000 Q 515.825321 368.844185 520.500000 320.500000"/>
<!--eid=126-->
<path d="M 426.500000 380.500000 Q 380.466982 265.831683 334.881622 150.726841"/>
<!--eid=127-->
<path d="M 317.506293 345.155297 Q 344.932911 354.136269 372.507726 362.476094"/>
<!--eid=128-->
<path d="M 334.881622 150.726841 Q 344.005730 258.622609 372.507726 362.476094"/>
<!--eid=129-->
<path d="M 348.469853 378.704514 Q 358.260933 367.177655 372.507726 362.476094"/>
<!--eid=130-->
<path d="M 516.109555 176.564593 Q 421.216681 138.146253 332.477198 86.341386"/>
<!--eid=131-->
<path d="M 522.500000 233.500000 Q 432.450634 153.669607 332.477198 86.341386"/>
<!--eid=132-->
<path d="M 516.109555 176.564593 Q 512.069043 153.048641 504.040151 130.819523"/>
<!--eid=133-->
<path d="M 504.040151 130.819523 Q 420.403077 100.905563 332.477198 86.341386"/>
<!--eid=134-->
<path d="M 457.810992 63.716947 Q 424.346527 41.487527 385.728413 49.600075"/>
<!--eid=135-->
<path d="M 332.477198 86.341386 Q 393.935954 68.343711 457.810992 63.716947"/>
<!--eid=136-->
<path d="M 504.040151 130.819523 Q 490.215347 89.479022 457.810992 63.716947"/>
<!--eid=137-->
<path d="M 504.040151 130.819523 Q 528.044113 149.770016 546.953401 125.222182"/>
<!--eid=138-->
<path d="M 505.500000 88.000000 Q 527.288627 104.759383 546.953401 125.222182"/>
<!--eid=139-->
<path d="M 457.810992 63.716947 Q 472.558928 27.975859 458.519597 10.000000"/>
<!--eid=140-->
<path d="M 458.519597 10.000000 Q 455.609440 32.785642 385.728413 49.600075"/>
<!--eid=141-->
<path d="M 522.500000 233.500000 Q 427.199857 195.177677 334.881622 150.726841"/>
<!--eid=142-->
<path d="M 334.881622 150.726841 Q 423.152214 240.325023 520.500000 320.500000"/>
<!--eid=143-->
<path d="M 507.500000 411.500000 Q 516.557484 380.016420 525.500000 348.500000"/>
<!--eid=144-->
<path d="M 525.500000 348.500000 Q 521.293863 334.802594 520.500000 320.500000"/>
<!--eid=145-->
<path d="M 272.732226 679.006702 Q 247.995307 688.127992 237.338575 684.815143"/>
<!--eid=146-->
<path d="M 504.721887 832.472422 Q 505.374717 827.265405 508.500000 814.500000"/>
<!--eid=147-->
<path d="M 537.805300 906.319768 Q 538.961227 896.055961 539.500000 885.500000"/>
<!--eid=148-->
<path d="M 539.500000 885.500000 Q 522.946998 862.729606 504.721887 832.472422"/>
<!--eid=149-->
<path d="M 504.721887 832.472422 Q 518.812973 874.814382 537.805300 906.319768"/>
<!--eid=150-->
<path d="M 10.000000 1034.000000 Q 293.792916 984.777433 581.867442 970.055694"/>
<!--eid=151-->
<path d="M 570.867874 1034.000000 Q 566.504762 1006.925278 581.867442 970.055694"/>
<!--eid=152-->
<path d="M 581.867442 970.055694 Q 557.647355 939.804838 537.805300 906.319768"/>
<!--eid=153-->
<path d="M 581.867442 970.055694 Q 560.715016 927.762166 539.500000 885.500000"/>
<!--eid=154-->
<path d="M 582.836690 952.291971 Q 558.903246 920.892007 539.500000 885.500000"/>
<!--eid=155-->
<path d="M 581.867442 970.055694 Q 581.889972 961.505235 582.836690 952.291971"/>
<!--eid=156-->
<path d="M 649.546589 720.248002 Q 601.998546 807.985181 539.500000 885.500000"/>
<!--eid=157-->
<path d="M 582.836690 952.291971 Q 595.795174 830.562355 649.546589 720.248002"/>
<!--eid=158-->
<path d="M 539.500000 885.500000 Q 570.718561 789.822009 607.673647 696.194092"/>
<!--eid=159-->
<path d="M 508.500000 814.500000 Q 522.169499 850.690722 539.500000 885.500000"/>
<!--eid=160-->
<path d="M 570.867874 1034.000000 Q 573.095499 1021.192636 625.500000 1015.500000"/>
<!--eid=161-->
<path d="M 625.500000 1015.500000 Q 601.454193 995.293943 581.867442 970.055694"/>
<!--eid=162-->
<path d="M 531.953679 559.263931 Q 523.430134 530.823355 516.500000 501.500000"/>
<!--eid=163-->
<path d="M 566.460165 643.262289 Q 545.191429 603.094158 531.953679 559.263931"/>
<!--eid=164-->
<path d="M 601.523607 427.841690 Q 554.653632 487.418600 531.953679 559.263931"/>
<!--eid=165-->
<path d="M 601.523607 427.841690 Q 547.012373 451.316991 516.500000 501.500000"/>
<!--eid=166-->
<path d="M 523.748925 422.219850 Q 515.769451 461.446388 516.500000 501.500000"/>
<!--eid=167-->
<path d="M 601.523607 427.841690 Q 603.799216 562.042009 607.673647 696.194092"/>
<!--eid=168-->
<path d="M 607.673647 696.194092 Q 637.504718 559.067845 673.467534 423.224934"/>
<!--eid=169-->
<path d="M 565.203008 689.039289 Q 532.049100 749.575201 508.500000 814.500000"/>
<!--eid=170-->
<path d="M 607.673647 696.194092 Q 583.239429 673.256888 566.460165 643.262289"/>
<!--eid=171-->
<path d="M 607.673647 696.194092 Q 671.812398 556.155454 745.322167 420.910458"/>
<!--eid=172-->
<path d="M 566.460165 643.262289 Q 577.955416 534.636610 601.523607 427.841690"/>
<!--eid=173-->
<path d="M 673.467534 423.224934 Q 637.515544 426.866557 601.523607 427.841690"/>
<!--eid=174-->
<path d="M 607.673647 696.194092 Q 549.391855 748.298267 508.500000 814.500000"/>
<!--eid=175-->
<path d="M 649.546589 720.248002 Q 626.210194 713.582165 607.673647 696.194092"/>
<!--eid=176-->
<path d="M 601.523607 427.841690 Q 561.943491 429.782207 523.748925 422.219850"/>
<!--eid=177-->
<path d="M 581.867442 970.055694 Q 606.626565 990.223283 634.291075 1007.984364"/>
<!--eid=178-->
<path d="M 634.291075 1007.984364 Q 605.344524 982.540415 582.836690 952.291971"/>
<!--eid=179-->
<path d="M 655.000000 828.000000 Q 615.838728 888.554681 582.836690 952.291971"/>
<!--eid=180-->
<path d="M 655.000000 828.000000 Q 775.625000 836.125000 893.892133 843.219268"/>
<!--eid=181-->
<path d="M 634.291075 1007.984364 Q 633.852985 1015.854394 625.500000 1015.500000"/>
<!--eid=182-->
<path d="M 625.500000 1015.500000 Q 829.775985 1024.178124 1034.000000 1034.000000"/>
<!--eid=183-->
<path d="M 1034.000000 1034.000000 Q 833.613797 1022.818569 634.291075 1007.984364"/>
<!--eid=184-->
<path d="M 727.334087 703.133347 Q 692.484515 731.101956 649.546589 720.248002"/>
<!--eid=185-->
<path d="M 582.836690 952.291971 Q 807.698604 997.123195 1034.000000 1034.000000"/>
<!--eid=186-->
<path d="M 758.568839 654.049713 Q 827.188189 749.302172 893.892133 843.219268"/>
<!--eid=187-->
<path d="M 758.568839 654.049713 Q 751.061123 684.089297 727.334087 703.133347"/>
<!--eid=188-->
<path d="M 1034.000000 1034.000000 Q 1034.000000 787.404727 1034.000000 540.809453"/>
<!--eid=189-->
<path d="M 893.892133 843.219268 Q 857.815926 712.909088 807.172442 585.159515"/>
<!--eid=190-->
<path d="M 758.568839 654.049713 Q 707.070345 692.594395 649.546589 720.248002"/>
<!--eid=191-->
<path d="M 739.755499 604.237668 Q 709.197562 674.300052 649.546589 720.248002"/>
<!--eid=192-->
<path d="M 570.867874 1034.000000 Q 802.433937 1034.000000 1034.000000 1034.000000"/>
<!--eid=193-->
<path d="M 758.568839 654.049713 Q 762.521021 625.164871 739.755499 604.237668"/>
<!--eid=194-->
<path d="M 745.322167 420.910458 Q 760.737486 513.501046 739.755499 604.237668"/>
<!--eid=195-->
<path d="M 739.755499 604.237668 Q 776.727146 602.541797 807.172442 585.159515"/>
<!--eid=196-->
<path d="M 789.260958 428.893042 Q 763.136353 516.347802 739.755499 604.237668"/>
<!--eid=197-->
<path d="M 758.568839 654.049713 Q 772.348670 612.639161 807.172442 585.159515"/>
<!--eid=198-->
<path d="M 789.260958 428.893042 Q 802.256330 506.755287 807.172442 585.159515"/>
<!--eid=199-->
<path d="M 842.732732 537.809712 Q 824.059645 479.295825 789.260958 428.893042"/>
<!--eid=200-->
<path d="M 831.964711 468.607966 Q 818.701614 439.805412 789.260958 428.893042"/>
<!--eid=201-->
<path d="M 745.322167 420.910458 Q 681.784993 565.478164 649.546589 720.248002"/>
<!--eid=202-->
<path d="M 831.964711 468.607966 Q 847.319469 503.387917 842.732732 537.809712"/>
<!--eid=203-->
<path d="M 842.732732 537.809712 Q 938.340945 540.930430 1034.000000 540.809453"/>
<!--eid=204-->
<path d="M 1034.000000 540.809453 Q 937.000000 452.250000 825.699611 382.270800"/>
<!--eid=205-->
<path d="M 807.172442 585.159515 Q 834.490809 568.636630 842.732732 537.809712"/>
<!--eid=206-->
<path d="M 1034.000000 540.809453 Q 920.241691 561.222392 807.172442 585.159515"/>
<!--eid=207-->
<path d="M 789.260958 428.893042 Q 813.227703 404.299237 825.699611 382.270800"/>
<!--eid=208-->
<path d="M 825.699611 382.270800 Q 792.145518 371.714390 743.225584 382.961792"/>
<!--eid=209-->
<path d="M 825.699611 382.270800 Q 819.937948 424.956280 831.964711 468.607966"/>
<!--eid=210-->
<path d="M 1034.000000 540.809453 Q 945.901915 405.199916 846.987013 297.906599"/>
<!--eid=211-->
<path d="M 789.260958 428.893042 Q 767.813885 421.258113 745.322167 420.910458"/>
<!--eid=212-->
<path d="M 523.748925 422.219850 Q 556.393242 419.569995 588.500000 417.500000"/>
<!--eid=213-->
<path d="M 559.818130 343.192969 Q 570.477180 387.054326 523.748925 422.219850"/>
<!--eid=214-->
<path d="M 588.500000 417.500000 Q 573.369974 380.008768 559.818130 343.192969"/>
<!--eid=215-->
<path d="M 567.866267 215.385643 Q 544.732001 281.320370 525.500000 348.500000"/>
<!--eid=216-->
<path d="M 530.500000 268.500000 Q 530.344781 308.583256 525.500000 348.500000"/>
<!--eid=217-->
<path d="M 530.500000 268.500000 Q 524.616265 294.329887 520.500000 320.500000"/>
<!--eid=218-->
<path d="M 588.500000 417.500000 Q 621.029190 414.352345 652.432637 408.069105"/>
<!--eid=219-->
<path d="M 588.500000 417.500000 Q 592.560244 425.804640 601.523607 427.841690"/>
<!--eid=220-->
<path d="M 652.432637 408.069105 Q 627.969230 420.511614 601.523607 427.841690"/>
<!--eid=221-->
<path d="M 533.500000 187.500000 Q 531.993480 228.017852 530.500000 268.500000"/>
<!--eid=222-->
<path d="M 719.383030 112.870021 Q 622.381379 230.706205 525.500000 348.500000"/>
<!--eid=223-->
<path d="M 675.879485 72.046887 Q 603.310877 128.072994 533.500000 187.500000"/>
<!--eid=224-->
<path d="M 520.500000 320.500000 Q 522.433843 277.232266 522.500000 233.500000"/>
<!--eid=225-->
<path d="M 559.682303 74.870869 Q 508.431055 70.681795 457.810992 63.716947"/>
<!--eid=226-->
<path d="M 522.500000 233.500000 Q 520.450463 204.831431 516.109555 176.564593"/>
<!--eid=227-->
<path d="M 533.500000 187.500000 Q 529.496461 175.097667 516.109555 176.564593"/>
<!--eid=228-->
<path d="M 522.500000 233.500000 Q 530.416016 211.084057 533.500000 187.500000"/>
<!--eid=229-->
<path d="M 516.109555 176.564593 Q 533.169154 151.644377 546.953401 125.222182"/>
<!--eid=230-->
<path d="M 675.879485 72.046887 Q 609.936203 95.010053 546.953401 125.222182"/>
<!--eid=231-->
<path d="M 533.500000 187.500000 Q 619.193479 131.751731 719.383030 112.870021"/>
<!--eid=232-->
<path d="M 594.346758 75.752150 Q 560.280360 89.536912 546.953401 125.222182"/>
<!--eid=233-->
<path d="M 522.500000 233.500000 Q 524.230148 251.528021 530.500000 268.500000"/>
<!--eid=234-->
<path d="M 594.346758 75.752150 Q 526.173171 43.413181 458.519597 10.000000"/>
<!--eid=235-->
<path d="M 533.500000 187.500000 Q 535.942962 154.576938 546.953401 125.222182"/>
<!--eid=236-->
<path d="M 567.866267 215.385643 Q 656.858067 160.397514 719.383030 112.870021"/>
<!--eid=237-->
<path d="M 594.346758 75.752150 Q 635.646073 61.911205 675.879485 72.046887"/>
<!--eid=238-->
<path d="M 600.139935 52.933112 Q 561.000000 25.625000 458.519597 10.000000"/>
<!--eid=239-->
<path d="M 732.922594 188.376639 Q 694.661016 298.534537 652.432637 408.069105"/>
<!--eid=240-->
<path d="M 673.467534 423.224934 Q 709.384745 420.331198 745.322167 420.910458"/>
<!--eid=241-->
<path d="M 745.322167 420.910458 Q 718.509239 404.475995 743.225584 382.961792"/>
<!--eid=242-->
<path d="M 652.432637 408.069105 Q 698.814812 414.942537 745.322167 420.910458"/>
<!--eid=243-->
<path d="M 745.322167 420.910458 Q 796.999681 410.638299 825.699611 382.270800"/>
<!--eid=244-->
<path d="M 652.432637 408.069105 Q 699.794887 399.805469 743.225584 382.961792"/>
<!--eid=245-->
<path d="M 743.225584 382.961792 Q 732.188708 285.883167 732.922594 188.376639"/>
<!--eid=246-->
<path d="M 732.922594 188.376639 Q 785.360420 261.412358 806.953700 348.231670"/>
<!--eid=247-->
<path d="M 806.953700 348.231670 Q 834.229072 327.590713 846.987013 297.906599"/>
<!--eid=248-->
<path d="M 732.922594 188.376639 Q 801.573106 231.576597 846.987013 297.906599"/>
<!--eid=249-->
<path d="M 933.111595 150.492333 Q 892.896856 195.208625 852.090212 251.551857"/>
<!--eid=250-->
<path d="M 852.090212 251.551857 Q 855.619040 275.084956 846.987013 297.906599"/>
<!--eid=251-->
<path d="M 743.225584 382.961792 Q 778.343718 370.752104 806.953700 348.231670"/>
<!--eid=252-->
<path d="M 852.090212 251.551857 Q 821.188266 208.375078 781.736424 172.915237"/>
<!--eid=253-->
<path d="M 719.383030 112.870021 Q 705.315599 84.323407 675.879485 72.046887"/>
<!--eid=254-->
<path d="M 732.922594 188.376639 Q 734.918069 147.912615 719.383030 112.870021"/>
<!--eid=255-->
<path d="M 732.922594 188.376639 Q 756.165234 167.699792 781.736424 172.915237"/>
<!--eid=256-->
<path d="M 841.595822 10.000000 Q 797.582070 68.613231 719.383030 112.870021"/>
<!--eid=257-->
<path d="M 732.922594 188.376639 Q 788.451344 94.661718 841.595822 10.000000"/>
<!--eid=258-->
<path d="M 736.308714 79.531329 Q 721.993850 80.606883 675.879485 72.046887"/>
<!--eid=259-->
<path d="M 781.736424 172.915237 Q 811.551427 179.866559 831.091605 204.622801"/>
<!--eid=260-->
<path d="M 1034.000000 10.000000 Q 928.010665 75.957969 822.021330 141.915939"/>
<!--eid=261-->
<path d="M 822.021330 141.915939 Q 882.635665 136.332969 933.111595 150.492333"/>
<!--eid=262-->
<path d="M 781.736424 172.915237 Q 820.606959 232.011351 846.987013 297.906599"/>
<!--eid=263-->
<path d="M 831.091605 204.622801 Q 847.730899 225.375562 852.090212 251.551857"/>
<!--eid=264-->
<path d="M 933.111595 150.492333 Q 988.625000 70.375000 1034.000000 10.000000"/>
<!--eid=265-->
<path d="M 173.752672 773.173785 Q 199.388889 748.166667 237.338575 684.815143"/>
<!--eid=266-->
<path d="M 1034.000000 540.809453 Q 1034.000000 275.404727 1034.000000 10.000000"/>
<!--eid=267-->
<path d="M 652.432637 408.069105 Q 663.183907 415.773545 673.467534 423.224934"/>
<!--eid=268-->
<path d="M 893.892133 843.219268 Q 965.125000 939.125000 1034.000000 1034.000000"/>
<!--eid=269-->
<path d="M 893.892133 843.219268 Q 789.529065 788.701350 676.682973 746.977337"/>
<!--eid=270-->
<path d="M 1034.000000 540.809453 Q 963.946067 687.450238 893.892133 843.219268"/>
<!--eid=271-->
<path d="M 727.334087 703.133347 Q 811.792043 773.691673 893.892133 843.219268"/>
<!--eid=272-->
<path d="M 893.892133 843.219268 Q 740.399061 900.940573 582.836690 952.291971"/>
<!--eid=273-->
<path d="M 649.546589 720.248002 Q 654.654354 774.161900 655.000000 828.000000"/>
<!--eid=274-->
<path d="M 841.595822 10.000000 Q 937.797911 10.000000 1034.000000 10.000000"/>
<!--eid=275-->
<path d="M 841.595822 10.000000 Q 807.679000 86.810118 781.736424 172.915237"/>
<!--eid=276-->
<path d="M 841.595822 10.000000 Q 650.057710 10.000000 458.519597 10.000000"/>
<!--eid=277-->
<path d="M 295.104573 46.024506 Q 337.145388 56.081077 385.728413 49.600075"/>
<!--eid=278-->
<path d="M 262.516356 147.725016 Q 248.349973 71.744934 222.205808 10.000000"/>
<!--eid=279-->
<path d="M 222.205808 10.000000 Q 340.362702 10.000000 458.519597 10.000000"/>
<!--eid=280-->
<path d="M 10.000000 506.955065 Q 123.852987 584.910225 234.689114 653.325682"/>
<!--eid=281-->
<path d="M 10.000000 1034.000000 Q 91.166667 911.500000 173.752672 773.173785"/>
<!--eid=282-->
<path d="M 173.752672 773.173785 Q 226.170613 737.651329 272.732226 679.006702"/>
<!--eid=283-->
<path d="M 831.964711 468.607966 Q 856.947812 501.969685 869.475283 516.760236"/>
<!--eid=284-->
<path d="M 842.732732 537.809712 Q 867.841000 515.147192 869.475283 516.760236"/>
<!--eid=285-->
<path d="M 1034.000000 540.809453 Q 968.500000 515.500000 869.475283 516.760236"/>
<!--eid=286-->
<path d="M 469.035988 680.479154 Q 244.603480 863.934463 10.000000 1034.000000"/>
<!--eid=287-->
<path d="M 384.263495 645.252173 Q 381.387516 672.281669 386.943078 680.731127"/>
<!--eid=288-->
<path d="M 324.204324 686.997557 Q 358.196353 687.050796 386.943078 680.731127"/>
<!--eid=289-->
<path d="M 765.344844 707.269308 Q 760.263100 684.547102 758.568839 654.049713"/>
<!--eid=290-->
<path d="M 727.334087 703.133347 Q 764.262063 706.687708 765.344844 707.269308"/>
<!--eid=291-->
<path d="M 893.892133 843.219268 Q 843.597309 790.647494 765.344844 707.269308"/>
<!--eid=292-->
<path d="M 852.090212 251.551857 Q 937.557736 390.349330 1034.000000 540.809453"/>
<!--eid=293-->
<path d="M 781.736424 172.915237 Q 864.382505 161.483182 933.111595 150.492333"/>
<!--eid=294-->
<path d="M 933.111595 150.492333 Q 988.625000 326.125000 1034.000000 540.809453"/>
<!--eid=295-->
<path d="M 196.562711 344.544241 Q 198.046975 292.183232 211.773675 255.464124"/>
<!--eid=296-->
<path d="M 239.684835 378.072202 Q 205.593230 369.816262 196.562711 344.544241"/>
<!--eid=297-->
<path d="M 89.250000 469.000000 Q 49.625000 239.500000 10.000000 10.000000"/>
<!--eid=298-->
<path d="M 649.546589 720.248002 Q 669.735660 729.871546 676.682973 746.977337"/>
<!--eid=299-->
<path d="M 655.000000 828.000000 Q 659.996944 787.682216 676.682973 746.977337"/>
<!--eid=300-->
<path d="M 676.682973 746.977337 Q 701.153023 725.678153 727.334087 703.133347"/>
<!--eid=301-->
<path d="M 152.958643 482.364698 Q 88.442833 244.566868 10.000000 10.000000"/>
<!--eid=302-->
<path d="M 89.250000 469.000000 Q 121.950763 471.592114 152.958643 482.364698"/>
<!--eid=303-->
<path d="M 10.000000 10.000000 Q 100.521965 173.619647 196.562711 344.544241"/>
<!--eid=304-->
<path d="M 841.595822 10.000000 Q 839.000000 74.708333 822.021330 141.915939"/>
<!--eid=305-->
<path d="M 781.736424 172.915237 Q 807.008549 161.571471 822.021330 141.915939"/>
<!--eid=306-->
<path d="M 831.091605 204.622801 Q 883.952294 162.056712 933.111595 150.492333"/>
<!--eid=307-->
<path d="M 719.383030 112.870021 Q 695.142315 262.444652 652.432637 408.069105"/>
<!--eid=308-->
<path d="M 559.818130 343.192969 Q 555.170650 335.193387 525.500000 348.500000"/>
<!--eid=309-->
<path d="M 719.383030 112.870021 Q 668.612617 271.349764 588.500000 417.500000"/>
<!--eid=310-->
<path d="M 736.308714 79.531329 Q 811.500622 35.098146 841.595822 10.000000"/>
<!--eid=311-->
<path d="M 736.308714 79.531329 Q 736.428552 79.638273 719.383030 112.870021"/>
<!--eid=312-->
<path d="M 841.595822 10.000000 Q 729.339878 37.452319 600.139935 52.933112"/>
<!--eid=313-->
<path d="M 295.104573 46.024506 Q 244.687500 24.812500 222.205808 10.000000"/>
<!--eid=314-->
<path d="M 295.104573 46.024506 Q 408.619498 35.193581 458.519597 10.000000"/>
<!--eid=315-->
<path d="M 295.104573 46.024506 Q 318.811212 57.074397 332.477198 86.341386"/>
<!--eid=316-->
<path d="M 533.500000 187.500000 Q 556.335292 220.574956 567.866267 215.385643"/>
<!--eid=317-->
<path d="M 530.500000 268.500000 Q 547.692386 240.886411 567.866267 215.385643"/>
<!--eid=318-->
<path d="M 559.818130 343.192969 Q 664.019659 230.408314 719.383030 112.870021"/>
<!--eid=319-->
<path d="M 124.574960 108.326500 Q 155.126582 159.566990 206.086363 207.355155"/>
<!--eid=320-->
<path d="M 124.574960 108.326500 Q 148.875000 222.375000 196.562711 344.544241"/>
<!--eid=321-->
<path d="M 124.574960 108.326500 Q 159.888812 145.612439 218.293607 171.138790"/>
<!--eid=322-->
<path d="M 270.286880 325.349667 Q 247.464640 314.758355 224.000000 305.666667"/>
<!--eid=323-->
<path d="M 211.773675 255.464124 Q 217.731678 280.626021 224.000000 305.666667"/>
<!--eid=324-->
<path d="M 196.562711 344.544241 Q 201.758387 315.095569 224.000000 305.666667"/>
<!--eid=325-->
<path d="M 546.953401 125.222182 Q 554.933365 97.973130 559.682303 74.870869"/>
<!--eid=326-->
<path d="M 594.346758 75.752150 Q 573.845302 79.643840 559.682303 74.870869"/>
<!--eid=327-->
<path d="M 559.682303 74.870869 Q 511.741777 42.054461 458.519597 10.000000"/>
<!--eid=328-->
<path d="M 566.460165 643.262289 Q 575.043688 672.387702 565.203008 689.039289"/>
<!--eid=329-->
<path d="M 490.969395 749.409933 Q 522.273121 722.707600 565.203008 689.039289"/>
<!--eid=330-->
<path d="M 607.673647 696.194092 Q 581.789041 682.169963 565.203008 689.039289"/>
<!--eid=331-->
<path d="M 505.500000 88.000000 Q 534.112219 94.163669 559.682303 74.870869"/>
<!--eid=332-->
<path d="M 457.810992 63.716947 Q 480.695451 76.995205 505.500000 88.000000"/>
<!--eid=333-->
<path d="M 504.040151 130.819523 Q 500.386469 108.751705 505.500000 88.000000"/>
<!--eid=334-->
<path d="M 218.293607 171.138790 Q 226.166685 148.126145 233.096374 135.527815"/>
<!--eid=335-->
<path d="M 262.516356 147.725016 Q 239.914389 139.211401 233.096374 135.527815"/>
<!--eid=336-->
<path d="M 222.205808 10.000000 Q 212.000000 63.125000 233.096374 135.527815"/>
<!--eid=337-->
<path d="M 600.139935 52.933112 Q 636.965043 60.009264 675.879485 72.046887"/>
<!--eid=338-->
<path d="M 600.139935 52.933112 Q 618.836720 61.725355 594.346758 75.752150"/>
<!--eid=339-->
<path d="M 675.879485 72.046887 Q 761.956896 34.699651 841.595822 10.000000"/>
<!--eid=340-->
<path d="M 825.699611 382.270800 Q 835.248437 339.296397 846.987013 297.906599"/>
<!--eid=341-->
<path d="M 869.475283 516.760236 Q 843.397873 457.865825 825.699611 382.270800"/>
<!--eid=342-->
<path d="M 825.699611 382.270800 Q 830.610076 359.661697 806.953700 348.231670"/>
<!--eid=343-->
<path d="M 852.090212 251.551857 Q 851.912097 219.261910 855.165938 202.596492"/>
<!--eid=344-->
<path d="M 933.111595 150.492333 Q 909.500000 163.166667 855.165938 202.596492"/>
<!--eid=345-->
<path d="M 831.091605 204.622801 Q 854.231118 203.205810 855.165938 202.596492"/>
<!--eid=346-->
<path d="M 234.689114 653.325682 Q 244.779776 683.266034 237.338575 684.815143"/>
</g>
<g fill="none" stroke="rgb(50.000000, 250.000000, 50.000000)" stroke-width="1.000000" stroke-linecap="round">
<!--eid=0-->
<path d="M 173.752672 773.173785 L 91.166667 655.250000 L 10.000000 506.955065"/>
<!--eid=1-->
<path d="M 237.338575 684.815143 L 127.917119 602.697102 L 10.000000 506.955065"/>
<!--eid=2-->
<path d="M 10.000000 506.955065 L 10.000000 770.477533 L 10.000000 1034.000000"/>
<!--eid=3-->
<path d="M 10.000000 1034.000000 L 200.092262 861.281374 L 386.943078 680.731127"/>
<!--eid=4-->
<path d="M 272.732226 679.006702 L 249.775998 671.380325 L 234.689114 653.325682"/>
<!--eid=5-->
<path d="M 272.732226 679.006702 L 296.743795 688.550574 L 324.204324 686.997557"/>
<!--eid=6-->
<path d="M 324.204324 686.997557 L 360.032907 681.608320 L 384.263495 645.252173"/>
<!--eid=7-->
<path d="M 272.732226 679.006702 L 332.303261 675.051448 L 384.263495 645.252173"/>
<!--eid=8-->
<path d="M 504.721887 832.472422 L 260.743146 944.535249 L 10.000000 1034.000000"/>
<!--eid=9-->
<path d="M 469.035988 680.479154 L 429.942519 674.815450 L 386.943078 680.731127"/>
<!--eid=10-->
<path d="M 324.204324 686.997557 L 167.104616 860.574586 L 10.000000 1034.000000"/>
<!--eid=11-->
<path d="M 384.263495 645.252173 L 309.864749 656.084772 L 234.689114 653.325682"/>
<!--eid=12-->
<path d="M 219.970516 614.315335 L 221.758787 636.312225 L 234.689114 653.325682"/>
<!--eid=13-->
<path d="M 537.805300 906.319768 L 271.547446 960.171630 L 10.000000 1034.000000"/>
<!--eid=14-->
<path d="M 324.204324 686.997557 L 244.122326 732.066162 L 173.752672 773.173785"/>
<!--eid=15-->
<path d="M 384.263495 645.252173 L 302.076696 630.169123 L 219.970516 614.315335"/>
<!--eid=16-->
<path d="M 10.000000 506.955065 L 97.508062 517.647566 L 182.652675 536.483864"/>
<!--eid=17-->
<path d="M 182.652675 536.483864 L 157.391682 515.760249 L 152.958643 482.364698"/>
<!--eid=18-->
<path d="M 10.000000 506.955065 L 83.776171 513.380242 L 152.958643 482.364698"/>
<!--eid=19-->
<path d="M 10.000000 506.955065 L 112.404548 573.215423 L 219.970516 614.315335"/>
<!--eid=20-->
<path d="M 219.970516 614.315335 L 213.137492 569.533799 L 182.652675 536.483864"/>
<!--eid=21-->
<path d="M 182.652675 536.483864 L 205.384075 553.498610 L 233.809459 543.227055"/>
<!--eid=22-->
<path d="M 239.684835 378.072202 L 190.064571 425.244481 L 152.958643 482.364698"/>
<!--eid=23-->
<path d="M 152.958643 482.364698 L 146.984864 446.188139 L 168.587585 416.697498"/>
<!--eid=24-->
<path d="M 89.250000 469.000000 L 49.625000 495.250000 L 10.000000 506.955065"/>
<!--eid=25-->
<path d="M 384.263495 645.252173 L 299.210611 608.876067 L 233.809459 543.227055"/>
<!--eid=26-->
<path d="M 233.809459 543.227055 L 217.582156 578.062245 L 219.970516 614.315335"/>
<!--eid=27-->
<path d="M 384.263495 645.252173 L 399.200182 622.999282 L 410.338717 598.412473"/>
<!--eid=28-->
<path d="M 410.338717 598.412473 L 325.324619 560.657308 L 233.809459 543.227055"/>
<!--eid=29-->
<path d="M 294.482949 374.148755 L 223.242539 427.800533 L 152.958643 482.364698"/>
<!--eid=30-->
<path d="M 434.807870 541.577729 L 334.165469 556.479425 L 233.809459 543.227055"/>
<!--eid=31-->
<path d="M 410.338717 598.412473 L 422.971791 570.177622 L 434.807870 541.577729"/>
<!--eid=32-->
<path d="M 384.263495 645.252173 L 422.293569 614.346660 L 468.124756 597.526566"/>
<!--eid=33-->
<path d="M 468.124756 597.526566 L 451.246872 663.841288 L 386.943078 680.731127"/>
<!--eid=34-->
<path d="M 469.035988 680.479154 L 465.364417 639.011165 L 468.124756 597.526566"/>
<!--eid=35-->
<path d="M 468.124756 597.526566 L 439.574511 570.662548 L 410.338717 598.412473"/>
<!--eid=36-->
<path d="M 410.338717 598.412473 L 441.354741 553.011947 L 477.500000 511.500000"/>
<!--eid=37-->
<path d="M 479.827753 667.481920 L 471.637061 671.836453 L 469.035988 680.479154"/>
<!--eid=38-->
<path d="M 490.969395 749.409933 L 480.292966 714.852179 L 469.035988 680.479154"/>
<!--eid=39-->
<path d="M 490.969395 749.409933 L 482.605384 708.811017 L 479.827753 667.481920"/>
<!--eid=40-->
<path d="M 468.124756 597.526566 L 474.168570 632.473275 L 479.827753 667.481920"/>
<!--eid=41-->
<path d="M 479.827753 667.481920 L 478.300490 631.011796 L 479.500000 594.500000"/>
<!--eid=42-->
<path d="M 479.500000 594.500000 L 473.060699 595.271971 L 468.124756 597.526566"/>
<!--eid=43-->
<path d="M 490.969395 749.409933 L 483.301655 751.659839 L 480.500000 759.500000"/>
<!--eid=44-->
<path d="M 480.500000 759.500000 L 492.255409 788.168663 L 508.500000 814.500000"/>
<!--eid=45-->
<path d="M 508.500000 814.500000 L 498.047896 782.264597 L 490.969395 749.409933"/>
<!--eid=46-->
<path d="M 504.721887 832.472422 L 489.845770 801.044090 L 480.500000 759.500000"/>
<!--eid=47-->
<path d="M 566.460165 643.262289 L 521.036354 622.347490 L 479.500000 594.500000"/>
<!--eid=48-->
<path d="M 566.460165 643.262289 L 522.736257 653.938831 L 479.827753 667.481920"/>
<!--eid=49-->
<path d="M 469.035988 680.479154 L 472.268707 720.151131 L 480.500000 759.500000"/>
<!--eid=50-->
<path d="M 566.460165 643.262289 L 513.277218 685.304308 L 490.969395 749.409933"/>
<!--eid=51-->
<path d="M 434.807870 541.577729 L 453.947146 523.399786 L 477.500000 511.500000"/>
<!--eid=52-->
<path d="M 477.500000 511.500000 L 476.915663 493.930959 L 461.500000 485.500000"/>
<!--eid=53-->
<path d="M 461.500000 485.500000 L 447.354459 513.189826 L 434.807870 541.577729"/>
<!--eid=54-->
<path d="M 468.124756 597.526566 L 470.127464 554.269758 L 477.500000 511.500000"/>
<!--eid=55-->
<path d="M 493.601451 440.876322 L 491.639377 479.260866 L 488.905240 517.598151"/>
<!--eid=56-->
<path d="M 504.500000 445.500000 L 495.701821 459.278131 L 493.601451 440.876322"/>
<!--eid=57-->
<path d="M 493.601451 440.876322 L 484.790887 476.113999 L 477.500000 511.500000"/>
<!--eid=58-->
<path d="M 414.499957 392.500165 L 326.501960 471.500078 L 233.809459 543.227055"/>
<!--eid=59-->
<path d="M 182.652675 536.483864 L 297.066770 462.172330 L 414.499957 392.500165"/>
<!--eid=60-->
<path d="M 479.500000 594.500000 L 494.948554 560.469836 L 531.953679 559.263931"/>
<!--eid=61-->
<path d="M 531.953679 559.263931 L 494.082355 555.264535 L 488.905240 517.598151"/>
<!--eid=62-->
<path d="M 488.905240 517.598151 L 483.142623 555.576561 L 479.500000 594.500000"/>
<!--eid=63-->
<path d="M 504.500000 445.500000 L 495.733378 481.365274 L 488.905240 517.598151"/>
<!--eid=64-->
<path d="M 488.905240 517.598151 L 497.224244 499.347010 L 516.500000 501.500000"/>
<!--eid=65-->
<path d="M 516.500000 501.500000 L 512.080698 472.365550 L 504.500000 445.500000"/>
<!--eid=66-->
<path d="M 477.500000 511.500000 L 480.554475 519.696154 L 488.905240 517.598151"/>
<!--eid=67-->
<path d="M 477.500000 511.500000 L 480.709016 552.944746 L 479.500000 594.500000"/>
<!--eid=68-->
<path d="M 233.809459 543.227055 L 354.631722 460.594550 L 495.497003 418.712467"/>
<!--eid=69-->
<path d="M 233.809459 543.227055 L 347.907630 516.653929 L 461.500000 485.500000"/>
<!--eid=70-->
<path d="M 495.497003 418.712467 L 498.149887 432.456776 L 504.500000 445.500000"/>
<!--eid=71-->
<path d="M 504.500000 445.500000 L 517.309628 436.131725 L 523.748925 422.219850"/>
<!--eid=72-->
<path d="M 523.748925 422.219850 L 519.310213 406.149153 L 506.883818 415.103389"/>
<!--eid=73-->
<path d="M 10.000000 1034.000000 L 290.433937 1034.000000 L 570.867874 1034.000000"/>
<!--eid=74-->
<path d="M 10.000000 1034.000000 L 253.887455 911.573585 L 480.500000 759.500000"/>
<!--eid=75-->
<path d="M 493.601451 440.876322 L 474.914757 460.448057 L 461.500000 485.500000"/>
<!--eid=76-->
<path d="M 196.562711 344.544241 L 187.767972 378.687324 L 168.587585 416.697498"/>
<!--eid=77-->
<path d="M 168.587585 416.697498 L 195.588478 384.920221 L 239.684835 378.072202"/>
<!--eid=78-->
<path d="M 224.000000 305.666667 L 235.862187 340.975243 L 239.684835 378.072202"/>
<!--eid=79-->
<path d="M 152.958643 482.364698 L 249.480240 427.990403 L 348.469853 378.704514"/>
<!--eid=80-->
<path d="M 270.286880 325.349667 L 291.737130 345.471642 L 294.482949 374.148755"/>
<!--eid=81-->
<path d="M 294.482949 374.148755 L 308.933259 361.915939 L 317.506293 345.155297"/>
<!--eid=82-->
<path d="M 317.506293 345.155297 L 292.872756 336.619295 L 270.286880 325.349667"/>
<!--eid=83-->
<path d="M 224.000000 305.666667 L 252.902421 346.340191 L 294.482949 374.148755"/>
<!--eid=84-->
<path d="M 239.684835 378.072202 L 266.621054 373.009450 L 294.482949 374.148755"/>
<!--eid=85-->
<path d="M 294.482949 374.148755 L 321.462497 374.471885 L 348.469853 378.704514"/>
<!--eid=86-->
<path d="M 348.469853 378.704514 L 331.924894 362.911146 L 317.506293 345.155297"/>
<!--eid=87-->
<path d="M 211.773675 255.464124 L 263.794256 192.233248 L 334.881622 150.726841"/>
<!--eid=88-->
<path d="M 211.773675 255.464124 L 225.185514 300.574013 L 270.286880 325.349667"/>
<!--eid=89-->
<path d="M 334.881622 150.726841 L 302.755042 238.203387 L 270.286880 325.349667"/>
<!--eid=90-->
<path d="M 182.652675 536.483864 L 266.739352 458.832293 L 348.469853 378.704514"/>
<!--eid=91-->
<path d="M 211.773675 255.464124 L 165.137134 178.313238 L 124.574960 108.326500"/>
<!--eid=92-->
<path d="M 211.773675 255.464124 L 204.975092 231.768934 L 206.086363 207.355155"/>
<!--eid=93-->
<path d="M 124.574960 108.326500 L 58.875000 59.375000 L 10.000000 10.000000"/>
<!--eid=94-->
<path d="M 10.000000 10.000000 L 10.000000 258.477533 L 10.000000 506.955065"/>
<!--eid=95-->
<path d="M 10.000000 10.000000 L 81.856916 216.130045 L 168.587585 416.697498"/>
<!--eid=96-->
<path d="M 262.516356 147.725016 L 226.108479 196.365735 L 211.773675 255.464124"/>
<!--eid=97-->
<path d="M 262.516356 147.725016 L 227.646339 171.487552 L 206.086363 207.355155"/>
<!--eid=98-->
<path d="M 206.086363 207.355155 L 207.133709 187.733832 L 218.293607 171.138790"/>
<!--eid=99-->
<path d="M 222.205808 10.000000 L 171.252836 59.172268 L 124.574960 108.326500"/>
<!--eid=100-->
<path d="M 334.881622 150.726841 L 269.791978 77.299808 L 222.205808 10.000000"/>
<!--eid=101-->
<path d="M 332.477198 86.341386 L 260.432366 56.232678 L 222.205808 10.000000"/>
<!--eid=102-->
<path d="M 233.096374 135.527815 L 167.000000 112.500000 L 124.574960 108.326500"/>
<!--eid=103-->
<path d="M 262.516356 147.725016 L 235.923941 152.665878 L 218.293607 171.138790"/>
<!--eid=104-->
<path d="M 334.881622 150.726841 L 298.209775 142.692840 L 262.516356 147.725016"/>
<!--eid=105-->
<path d="M 334.881622 150.726841 L 313.906614 119.186734 L 332.477198 86.341386"/>
<!--eid=106-->
<path d="M 332.477198 86.341386 L 351.068974 58.456058 L 385.728413 49.600075"/>
<!--eid=107-->
<path d="M 222.205808 10.000000 L 116.102904 10.000000 L 10.000000 10.000000"/>
<!--eid=108-->
<path d="M 317.506293 345.155297 L 336.355428 249.409363 L 334.881622 150.726841"/>
<!--eid=109-->
<path d="M 426.500000 380.500000 L 426.341066 392.524055 L 414.499957 392.500165"/>
<!--eid=110-->
<path d="M 414.499957 392.500165 L 455.432556 403.663110 L 495.497003 418.712467"/>
<!--eid=111-->
<path d="M 495.497003 418.712467 L 463.555309 395.124165 L 426.500000 380.500000"/>
<!--eid=112-->
<path d="M 414.499957 392.500165 L 381.662678 384.762948 L 348.469853 378.704514"/>
<!--eid=113-->
<path d="M 461.500000 485.500000 L 478.520015 452.192473 L 495.497003 418.712467"/>
<!--eid=114-->
<path d="M 493.601451 440.876322 L 491.044152 429.514810 L 495.497003 418.712467"/>
<!--eid=115-->
<path d="M 426.500000 380.500000 L 399.682696 370.792481 L 372.507726 362.476094"/>
<!--eid=116-->
<path d="M 372.507726 362.476094 L 395.088176 375.288637 L 414.499957 392.500165"/>
<!--eid=117-->
<path d="M 495.497003 418.712467 L 498.841520 411.995663 L 506.883818 415.103389"/>
<!--eid=118-->
<path d="M 506.883818 415.103389 L 507.095402 413.514186 L 507.500000 411.500000"/>
<!--eid=119-->
<path d="M 334.881622 150.726841 L 417.918731 284.904019 L 506.883818 415.103389"/>
<!--eid=120-->
<path d="M 504.500000 445.500000 L 504.693952 430.468507 L 506.883818 415.103389"/>
<!--eid=121-->
<path d="M 525.500000 348.500000 L 520.593789 383.944271 L 506.883818 415.103389"/>
<!--eid=122-->
<path d="M 525.500000 348.500000 L 523.928995 385.380423 L 523.748925 422.219850"/>
<!--eid=123-->
<path d="M 507.500000 411.500000 L 439.530747 268.811933 L 334.881622 150.726841"/>
<!--eid=124-->
<path d="M 334.881622 150.726841 L 404.572869 290.447224 L 495.497003 418.712467"/>
<!--eid=125-->
<path d="M 507.500000 411.500000 L 515.825321 368.844185 L 520.500000 320.500000"/>
<!--eid=126-->
<path d="M 426.500000 380.500000 L 380.466982 265.831683 L 334.881622 150.726841"/>
<!--eid=127-->
<path d="M 317.506293 345.155297 L 344.932911 354.136269 L 372.507726 362.476094"/>
<!--eid=128-->
<path d="M 334.881622 150.726841 L 344.005730 258.622609 L 372.507726 362.476094"/>
<!--eid=129-->
<path d="M 348.469853 378.704514 L 358.260933 367.177655 L 372.507726 362.476094"/>
<!--eid=130-->
<path d="M 516.109555 176.564593 L 421.216681 138.146253 L 332.477198 86.341386"/>
<!--eid=131-->
<path d="M 522.500000 233.500000 L 432.450634 153.669607 L 332.477198 86.341386"/>
<!--eid=132-->
<path d="M 516.109555 176.564593 L 512.069043 153.048641 L 504.040151 130.819523"/>
<!--eid=133-->
<path d="M 504.040151 130.819523 L 420.403077 100.905563 L 332.477198 86.341386"/>
<!--eid=134-->
<path d="M 457.810992 63.716947 L 424.346527 41.487527 L 385.728413 49.600075"/>
<!--eid=135-->
<path d="M 332.477198 86.341386 L 393.935954 68.343711 L 457.810992 63.716947"/>
<!--eid=136-->
<path d="M 504.040151 130.819523 L 490.215347 89.479022 L 457.810992 63.716947"/>
<!--eid=137-->
<path d="M 504.040151 130.819523 L 528.044113 149.770016 L 546.953401 125.222182"/>
<!--eid=138-->
<path d="M 505.500000 88.000000 L 527.288627 104.759383 L 546.953401 125.222182"/>
<!--eid=139-->
<path d="M 457.810992 63.716947 L 472.558928 27.975859 L 458.519597 10.000000"/>
<!--eid=140-->
<path d="M 458.519597 10.000000 L 455.609440 32.785642 L 385.728413 49.600075"/>
<!--eid=141-->
<path d="M 522.500000 233.500000 L 427.199857 195.177677 L 334.881622 150.726841"/>
<!--eid=142-->
<path d="M 334.881622 150.726841 L 423.152214 240.325023 L 520.500000 320.500000"/>
<!--eid=143-->
<path d="M 507.500000 411.500000 L 516.557484 380.016420 L 525.500000 348.500000"/>
<!--eid=144-->
<path d="M 525.500000 348.500000 L 521.293863 334.802594 L 520.500000 320.500000"/>
<!--eid=145-->
<path d="M 272.732226 679.006702 L 247.995307 688.127992 L 237.338575 684.815143"/>
<!--eid=146-->
<path d="M 504.721887 832.472422 L 505.374717 827.265405 L 508.500000 814.500000"/>
<!--eid=147-->
<path d="M 537.805300 906.319768 L 538.961227 896.055961 L 539.500000 885.500000"/>
<!--eid=148-->
<path d="M 539.500000 885.500000 L 522.946998 862.729606 L 504.721887 832.472422"/>
<!--eid=149-->
<path d="M 504.721887 832.472422 L 518.812973 874.814382 L 537.805300 906.319768"/>
<!--eid=150-->
<path d="M 10.000000 1034.000000 L 293.792916 984.777433 L 581.867442 970.055694"/>
<!--eid=151-->
<path d="M 570.867874 1034.000000 L 566.504762 1006.925278 L 581.867442 970.055694"/>
<!--eid=152-->
<path d="M 581.867442 970.055694 L 557.647355 939.804838 L 537.805300 906.319768"/>
<!--eid=153-->
<path d="M 581.867442 970.055694 L 560.715016 927.762166 L 539.500000 885.500000"/>
<!--eid=154-->
<path d="M 582.836690 952.291971 L 558.903246 920.892007 L 539.500000 885.500000"/>
<!--eid=155-->
<path d="M 581.867442 970.055694 L 581.889972 961.505235 L 582.836690 952.291971"/>
<!--eid=156-->
<path d="M 649.546589 720.248002 L 601.998546 807.985181 L 539.500000 885.500000"/>
<!--eid=157-->
<path d="M 582.836690 952.291971 L 595.795174 830.562355 L 649.546589 720.248002"/>
<!--eid=158-->
<path d="M 539.500000 885.500000 L 570.718561 789.822009 L 607.673647 696.194092"/>
<!--eid=159-->
<path d="M 508.500000 814.500000 L 522.169499 850.690722 L 539.500000 885.500000"/>
<!--eid=160-->
<path d="M 570.867874 1034.000000 L 573.095499 1021.192636 L 625.500000 1015.500000"/>
<!--eid=161-->
<path d="M 625.500000 1015.500000 L 601.454193 995.293943 L 581.867442 970.055694"/>
<!--eid=162-->
<path d="M 531.953679 559.263931 L 523.430134 530.823355 L 516.500000 501.500000"/>
<!--eid=163-->
<path d="M 566.460165 643.262289 L 545.191429 603.094158 L 531.953679 559.263931"/>
<!--eid=164-->
<path d="M 601.523607 427.841690 L 554.653632 487.418600 L 531.953679 559.263931"/>
<!--eid=165-->
<path d="M 601.523607 427.841690 L 547.012373 451.316991 L 516.500000 501.500000"/>
<!--eid=166-->
<path d="M 523.748925 422.219850 L 515.769451 461.446388 L 516.500000 501.500000"/>
<!--eid=167-->
<path d="M 601.523607 427.841690 L 603.799216 562.042009 L 607.673647 696.194092"/>
<!--eid=168-->
<path d="M 607.673647 696.194092 L 637.504718 559.067845 L 673.467534 423.224934"/>
<!--eid=169-->
<path d="M 565.203008 689.039289 L 532.049100 749.575201 L 508.500000 814.500000"/>
<!--eid=170-->
<path d="M 607.673647 696.194092 L 583.239429 673.256888 L 566.460165 643.262289"/>
<!--eid=171-->
<path d="M 607.673647 696.194092 L 671.812398 556.155454 L 745.322167 420.910458"/>
<!--eid=172-->
<path d="M 566.460165 643.262289 L 577.955416 534.636610 L 601.523607 427.841690"/>
<!--eid=173-->
<path d="M 673.467534 423.224934 L 637.515544 426.866557 L 601.523607 427.841690"/>
<!--eid=174-->
<path d="M 607.673647 696.194092 L 549.391855 748.298267 L 508.500000 814.500000"/>
<!--eid=175-->
<path d="M 649.546589 720.248002 L 626.210194 713.582165 L 607.673647 696.194092"/>
<!--eid=176-->
<path d="M 601.523607 427.841690 L 561.943491 429.782207 L 523.748925 422.219850"/>
<!--eid=177-->
<path d="M 581.867442 970.055694 L 606.626565 990.223283 L 634.291075 1007.984364"/>
<!--eid=178-->
<path d="M 634.291075 1007.984364 L 605.344524 982.540415 L 582.836690 952.291971"/>
<!--eid=179-->
<path d="M 655.000000 828.000000 L 615.838728 888.554681 L 582.836690 952.291971"/>
<!--eid=180-->
<path d="M 655.000000 828.000000 L 775.625000 836.125000 L 893.892133 843.219268"/>
<!--eid=181-->
<path d="M 634.291075 1007.984364 L 633.852985 1015.854394 L 625.500000 1015.500000"/>
<!--eid=182-->
<path d="M 625.500000 1015.500000 L 829.775985 1024.178124 L 1034.000000 1034.000000"/>
<!--eid=183-->
<path d="M 1034.000000 1034.000000 L 833.613797 1022.818569 L 634.291075 1007.984364"/>
<!--eid=184-->
<path d="M 727.334087 703.133347 L 692.484515 731.101956 L 649.546589 720.248002"/>
<!--eid=185-->
<path d="M 582.836690 952.291971 L 807.698604 997.123195 L 1034.000000 1034.000000"/>
<!--eid=186-->
<path d="M 758.568839 654.049713 L 827.188189 749.302172 L 893.892133 843.219268"/>
<!--eid=187-->
<path d="M 758.568839 654.049713 L 751.061123 684.089297 L 727.334087 703.133347"/>
<!--eid=188-->
<path d="M 1034.000000 1034.000000 L 1034.000000 787.404727 L 1034.000000 540.809453"/>
<!--eid=189-->
<path d="M 893.892133 843.219268 L 857.815926 712.909088 L 807.172442 585.159515"/>
<!--eid=190-->
<path d="M 758.568839 654.049713 L 707.070345 692.594395 L 649.546589 720.248002"/>
<!--eid=191-->
<path d="M 739.755499 604.237668 L 709.197562 674.300052 L 649.546589 720.248002"/>
<!--eid=192-->
<path d="M 570.867874 1034.000000 L 802.433937 1034.000000 L 1034.000000 1034.000000"/>
<!--eid=193-->
<path d="M 758.568839 654.049713 L 762.521021 625.164871 L 739.755499 604.237668"/>
<!--eid=194-->
<path d="M 745.322167 420.910458 L 760.737486 513.501046 L 739.755499 604.237668"/>
<!--eid=195-->
<path d="M 739.755499 604.237668 L 776.727146 602.541797 L 807.172442 585.159515"/>
<!--eid=196-->
<path d="M 789.260958 428.893042 L 763.136353 516.347802 L 739.755499 604.237668"/>
<!--eid=197-->
<path d="M 758.568839 654.049713 L 772.348670 612.639161 L 807.172442 585.159515"/>
<!--eid=198-->
<path d="M 789.260958 428.893042 L 802.256330 506.755287 L 807.172442 585.159515"/>
<!--eid=199-->
<path d="M 842.732732 537.809712 L 824.059645 479.295825 L 789.260958 428.893042"/>
<!--eid=200-->
<path d="M 831.964711 468.607966 L 818.701614 439.805412 L 789.260958 428.893042"/>
<!--eid=201-->
<path d="M 745.322167 420.910458 L 681.784993 565.478164 L 649.546589 720.248002"/>
<!--eid=202-->
<path d="M 831.964711 468.607966 L 847.319469 503.387917 L 842.732732 537.809712"/>
<!--eid=203-->
<path d="M 842.732732 537.809712 L 938.340945 540.930430 L 1034.000000 540.809453"/>
<!--eid=204-->
<path d="M 1034.000000 540.809453 L 937.000000 452.250000 L 825.699611 382.270800"/>
<!--eid=205-->
<path d="M 807.172442 585.159515 L 834.490809 568.636630 L 842.732732 537.809712"/>
<!--eid=206-->
<path d="M 1034.000000 540.809453 L 920.241691 561.222392 L 807.172442 585.159515"/>
<!--eid=207-->
<path d="M 789.260958 428.893042 L 813.227703 404.299237 L 825.699611 382.270800"/>
<!--eid=208-->
<path d="M 825.699611 382.270800 L 792.145518 371.714390 L 743.225584 382.961792"/>
<!--eid=209-->
<path d="M 825.699611 382.270800 L 819.937948 424.956280 L 831.964711 468.607966"/>
<!--eid=210-->
<path d="M 1034.000000 540.809453 L 945.901915 405.199916 L 846.987013 297.906599"/>
<!--eid=211-->
<path d="M 789.260958 428.893042 L 767.813885 421.258113 L 745.322167 420.910458"/>
<!--eid=212-->
<path d="M 523.748925 422.219850 L 556.393242 419.569995 L 588.500000 417.500000"/>
<!--eid=213-->
<path d="M 559.818130 343.192969 L 570.477180 387.054326 L 523.748925 422.219850"/>
<!--eid=214-->
<path d="M 588.500000 417.500000 L 573.369974 380.008768 L 559.818130 343.192969"/>
<!--eid=215-->
<path d="M 567.866267 215.385643 L 544.732001 281.320370 L 525.500000 348.500000"/>
<!--eid=216-->
<path d="M 530.500000 268.500000 L 530.344781 308.583256 L 525.500000 348.500000"/>
<!--eid=217-->
<path d="M 530.500000 268.500000 L 524.616265 294.329887 L 520.500000 320.500000"/>
<!--eid=218-->
<path d="M 588.500000 417.500000 L 621.029190 414.352345 L 652.432637 408.069105"/>
<!--eid=219-->
<path d="M 588.500000 417.500000 L 592.560244 425.804640 L 601.523607 427.841690"/>
<!--eid=220-->
<path d="M 652.432637 408.069105 L 627.969230 420.511614 L 601.523607 427.841690"/>
<!--eid=221-->
<path d="M 533.500000 187.500000 L 531.993480 228.017852 L 530.500000 268.500000"/>
<!--eid=222-->
<path d="M 719.383030 112.870021 L 622.381379 230.706205 L 525.500000 348.500000"/>
<!--eid=223-->
<path d="M 675.879485 72.046887 L 603.310877 128.072994 L 533.500000 187.500000"/>
<!--eid=224-->
<path d="M 520.500000 320.500000 L 522.433843 277.232266 L 522.500000 233.500000"/>
<!--eid=225-->
<path d="M 559.682303 74.870869 L 508.431055 70.681795 L 457.810992 63.716947"/>
<!--eid=226-->
<path d="M 522.500000 233.500000 L 520.450463 204.831431 L 516.109555 176.564593"/>
<!--eid=227-->
<path d="M 533.500000 187.500000 L 529.496461 175.097667 L 516.109555 176.564593"/>
<!--eid=228-->
<path d="M 522.500000 233.500000 L 530.416016 211.084057 L 533.500000 187.500000"/>
<!--eid=229-->
<path d="M 516.109555 176.564593 L 533.169154 151.644377 L 546.953401 125.222182"/>
<!--eid=230-->
<path d="M 675.879485 72.046887 L 609.936203 95.010053 L 546.953401 125.222182"/>
<!--eid=231-->
<path d="M 533.500000 187.500000 L 619.193479 131.751731 L 719.383030 112.870021"/>
<!--eid=232-->
<path d="M 594.346758 75.752150 L 560.280360 89.536912 L 546.953401 125.222182"/>
<!--eid=233-->
<path d="M 522.500000 233.500000 L 524.230148 251.528021 L 530.500000 268.500000"/>
<!--eid=234-->
<path d="M 594.346758 75.752150 L 526.173171 43.413181 L 458.519597 10.000000"/>
<!--eid=235-->
<path d="M 533.500000 187.500000 L 535.942962 154.576938 L 546.953401 125.222182"/>
<!--eid=236-->
<path d="M 567.866267 215.385643 L 656.858067 160.397514 L 719.383030 112.870021"/>
<!--eid=237-->
<path d="M 594.346758 75.752150 L 635.646073 61.911205 L 675.879485 72.046887"/>
<!--eid=238-->
<path d="M 600.139935 52.933112 L 561.000000 25.625000 L 458.519597 10.000000"/>
<!--eid=239-->
<path d="M 732.922594 188.376639 L 694.661016 298.534537 L 652.432637 408.069105"/>
<!--eid=240-->
<path d="M 673.467534 423.224934 L 709.384745 420.331198 L 745.322167 420.910458"/>
<!--eid=241-->
<path d="M 745.322167 420.910458 L 718.509239 404.475995 L 743.225584 382.961792"/>
<!--eid=242-->
<path d="M 652.432637 408.069105 L 698.814812 414.942537 L 745.322167 420.910458"/>
<!--eid=243-->
<path d="M 745.322167 420.910458 L 796.999681 410.638299 L 825.699611 382.270800"/>
<!--eid=244-->
<path d="M 652.432637 408.069105 L 699.794887 399.805469 L 743.225584 382.961792"/>
<!--eid=245-->
<path d="M 743.225584 382.961792 L 732.188708 285.883167 L 732.922594 188.376639"/>
<!--eid=246-->
<path d="M 732.922594 188.376639 L 785.360420 261.412358 L 806.953700 348.231670"/>
<!--eid=247-->
<path d="M 806.953700 348.231670 L 834.229072 327.590713 L 846.987013 297.906599"/>
<!--eid=248-->
<path d="M 732.922594 188.376639 L 801.573106 231.576597 L 846.987013 297.906599"/>
<!--eid=249-->
<path d="M 933.111595 150.492333 L 892.896856 195.208625 L 852.090212 251.551857"/>
<!--eid=250-->
<path d="M 852.090212 251.551857 L 855.619040 275.084956 L 846.987013 297.906599"/>
<!--eid=251-->
<path d="M 743.225584 382.961792 L 778.343718 370.752104 L 806.953700 348.231670"/>
<!--eid=252-->
<path d="M 852.090212 251.551857 L 821.188266 208.375078 L 781.736424 172.915237"/>
<!--eid=253-->
<path d="M 719.383030 112.870021 L 705.315599 84.323407 L 675.879485 72.046887"/>
<!--eid=254-->
<path d="M 732.922594 188.376639 L 734.918069 147.912615 L 719.383030 112.870021"/>
<!--eid=255-->
<path d="M 732.922594 188.376639 L 756.165234 167.699792 L 781.736424 172.915237"/>
<!--eid=256-->
<path d="M 841.595822 10.000000 L 797.582070 68.613231 L 719.383030 112.870021"/>
<!--eid=257-->
<path d="M 732.922594 188.376639 L 788.451344 94.661718 L 841.595822 10.000000"/>
<!--eid=258-->
<path d="M 736.308714 79.531329 L 721.993850 80.606883 L 675.879485 72.046887"/>
<!--eid=259-->
<path d="M 781.736424 172.915237 L 811.551427 179.866559 L 831.091605 204.622801"/>
<!--eid=260-->
<path d="M 1034.000000 10.000000 L 928.010665 75.957969 L 822.021330 141.915939"/>
<!--eid=261-->
<path d="M 822.021330 141.915939 L 882.635665 136.332969 L 933.111595 150.492333"/>
<!--eid=262-->
<path d="M 781.736424 172.915237 L 820.606959 232.011351 L 846.987013 297.906599"/>
<!--eid=263-->
<path d="M 831.091605 204.622801 L 847.730899 225.375562 L 852.090212 251.551857"/>
<!--eid=264-->
<path d="M 933.111595 150.492333 L 988.625000 70.375000 L 1034.000000 10.000000"/>
<!--eid=265-->
<path d="M 173.752672 773.173785 L 199.388889 748.166667 L 237.338575 684.815143"/>
<!--eid=266-->
<path d="M 1034.000000 540.809453 L 1034.000000 275.404727 L 1034.000000 10.000000"/>
<!--eid=267-->
<path d="M 652.432637 408.069105 L 663.183907 415.773545 L 673.467534 423.224934"/>
<!--eid=268-->
<path d="M 893.892133 843.219268 L 965.125000 939.125000 L 1034.000000 1034.000000"/>
<!--eid=269-->
<path d="M 893.892133 843.219268 L 789.529065 788.701350 L 676.682973 746.977337"/>
<!--eid=270-->
<path d="M 1034.000000 540.809453 L 963.946067 687.450238 L 893.892133 843.219268"/>
<!--eid=271-->
<path d="M 727.334087 703.133347 L 811.792043 773.691673 L 893.892133 843.219268"/>
<!--eid=272-->
<path d="M 893.892133 843.219268 L 740.399061 900.940573 L 582.836690 952.291971"/>
<!--eid=273-->
<path d="M 649.546589 720.248002 L 654.654354 774.161900 L 655.000000 828.000000"/>
<!--eid=274-->
<path d="M 841.595822 10.000000 L 937.797911 10.000000 L 1034.000000 10.000000"/>
<!--eid=275-->
<path d="M 841.595822 10.000000 L 807.679000 86.810118 L 781.736424 172.915237"/>
<!--eid=276-->
<path d="M 841.595822 10.000000 L 650.057710 10.000000 L 458.519597 10.000000"/>
<!--eid=277-->
<path d="M 295.104573 46.024506 L 337.145388 56.081077 L 385.728413 49.600075"/>
<!--eid=278-->
<path d="M 262.516356 147.725016 L 248.349973 71.744934 L 222.205808 10.000000"/>
<!--eid=279-->
<path d="M 222.205808 10.000000 L 340.362702 10.000000 L 458.519597 10.000000"/>
<!--eid=280-->
<path d="M 10.000000 506.955065 L 123.852987 584.910225 L 234.689114 653.325682"/>
<!--eid=281-->
<path d="M 10.000000 1034.000000 L 91.166667 911.500000 L 173.752672 773.173785"/>
<!--eid=282-->
<path d="M 173.752672 773.173785 L 226.170613 737.651329 L 272.732226 679.006702"/>
<!--eid=283-->
<path d="M 831.964711 468.607966 L 856.947812 501.969685 L 869.475283 516.760236"/>
<!--eid=284-->
<path d="M 842.732732 537.809712 L 867.841000 515.147192 L 869.475283 516.760236"/>
<!--eid=285-->
<path d="M 1034.000000 540.809453 L 968.500000 515.500000 L 869.475283 516.760236"/>
<!--eid=286-->
<path d="M 469.035988 680.479154 L 244.603480 863.934463 L 10.000000 1034.000000"/>
<!--eid=287-->
<path d="M 384.263495 645.252173 L 381.387516 672.281669 L 386.943078 680.731127"/>
<!--eid=288-->
<path d="M 324.204324 686.997557 L 358.196353 687.050796 L 386.943078 680.731127"/>
<!--eid=289-->
<path d="M 765.344844 707.269308 L 760.263100 684.547102 L 758.568839 654.049713"/>
<!--eid=290-->
<path d="M 727.334087 703.133347 L 764.262063 706.687708 L 765.344844 707.269308"/>
<!--eid=291-->
<path d="M 893.892133 843.219268 L 843.597309 790.647494 L 765.344844 707.269308"/>
<!--eid=292-->
<path d="M 852.090212 251.551857 L 937.557736 390.349330 L 1034.000000 540.809453"/>
<!--eid=293-->
<path d="M 781.736424 172.915237 L 864.382505 161.483182 L 933.111595 150.492333"/>
<!--eid=294-->
<path d="M 933.111595 150.492333 L 988.625000 326.125000 L 1034.000000 540.809453"/>
<!--eid=295-->
<path d="M 196.562711 344.544241 L 198.046975 292.183232 L 211.773675 255.464124"/>
<!--eid=296-->
<path d="M 239.684835 378.072202 L 205.593230 369.816262 L 196.562711 344.544241"/>
<!--eid=297-->
<path d="M 89.250000 469.000000 L 49.625000 239.500000 L 10.000000 10.000000"/>
<!--eid=298-->
<path d="M 649.546589 720.248002 L 669.735660 729.871546 L 676.682973 746.977337"/>
<!--eid=299-->
<path d="M 655.000000 828.000000 L 659.996944 787.682216 L 676.682973 746.977337"/>
<!--eid=300-->
<path d="M 676.682973 746.977337 L 701.153023 725.678153 L 727.334087 703.133347"/>
<!--eid=301-->
<path d="M 152.958643 482.364698 L 88.442833 244.566868 L 10.000000 10.000000"/>
<!--eid=302-->
<path d="M 89.250000 469.000000 L 121.950763 471.592114 L 152.958643 482.364698"/>
<!--eid=303-->
<path d="M 10.000000 10.000000 L 100.521965 173.619647 L 196.562711 344.544241"/>
<!--eid=304-->
<path d="M 841.595822 10.000000 L 839.000000 74.708333 L 822.021330 141.915939"/>
<!--eid=305-->
<path d="M 781.736424 172.915237 L 807.008549 161.571471 L 822.021330 141.915939"/>
<!--eid=306-->
<path d="M 831.091605 204.622801 L 883.952294 162.056712 L 933.111595 150.492333"/>
<!--eid=307-->
<path d="M 719.383030 112.870021 L 695.142315 262.444652 L 652.432637 408.069105"/>
<!--eid=308-->
<path d="M 559.818130 343.192969 L 555.170650 335.193387 L 525.500000 348.500000"/>
<!--eid=309-->
<path d="M 719.383030 112.870021 L 668.612617 271.349764 L 588.500000 417.500000"/>
<!--eid=310-->
<path d="M 736.308714 79.531329 L 811.500622 35.098146 L 841.595822 10.000000"/>
<!--eid=311-->
<path d="M 736.308714 79.531329 L 736.428552 79.638273 L 719.383030 112.870021"/>
<!--eid=312-->
<path d="M 841.595822 10.000000 L 729.339878 37.452319 L 600.139935 52.933112"/>
<!--eid=313-->
<path d="M 295.104573 46.024506 L 244.687500 24.812500 L 222.205808 10.000000"/>
<!--eid=314-->
<path d="M 295.104573 46.024506 L 408.619498 35.193581 L 458.519597 10.000000"/>
<!--eid=315-->
<path d="M 295.104573 46.024506 L 318.811212 57.074397 L 332.477198 86.341386"/>
<!--eid=316-->
<path d="M 533.500000 187.500000 L 556.335292 220.574956 L 567.866267 215.385643"/>
<!--eid=317-->
<path d="M 530.500000 268.500000 L 547.692386 240.886411 L 567.866267 215.385643"/>
<!--eid=318-->
<path d="M 559.818130 343.192969 L 664.019659 230.408314 L 719.383030 112.870021"/>
<!--eid=319-->
<path d="M 124.574960 108.326500 L 155.126582 159.566990 L 206.086363 207.355155"/>
<!--eid=320-->
<path d="M 124.574960 108.326500 L 148.875000 222.375000 L 196.562711 344.544241"/>
<!--eid=321-->
<path d="M 124.574960 108.326500 L 159.888812 145.612439 L 218.293607 171.138790"/>
<!--eid=322-->
<path d="M 270.286880 325.349667 L 247.464640 314.758355 L 224.000000 305.666667"/>
<!--eid=323-->
<path d="M 211.773675 255.464124 L 217.731678 280.626021 L 224.000000 305.666667"/>
<!--eid=324-->
<path d="M 196.562711 344.544241 L 201.758387 315.095569 L 224.000000 305.666667"/>
<!--eid=325-->
<path d="M 546.953401 125.222182 L 554.933365 97.973130 L 559.682303 74.870869"/>
<!--eid=326-->
<path d="M 594.346758 75.752150 L 573.845302 79.643840 L 559.682303 74.870869"/>
<!--eid=327-->
<path d="M 559.682303 74.870869 L 511.741777 42.054461 L 458.519597 10.000000"/>
<!--eid=328-->
<path d="M 566.460165 643.262289 L 575.043688 672.387702 L 565.203008 689.039289"/>
<!--eid=329-->
<path d="M 490.969395 749.409933 L 522.273121 722.707600 L 565.203008 689.039289"/>
<!--eid=330-->
<path d="M 607.673647 696.194092 L 581.789041 682.169963 L 565.203008 689.039289"/>
<!--eid=331-->
<path d="M 505.500000 88.000000 L 534.112219 94.163669 L 559.682303 74.870869"/>
<!--eid=332-->
<path d="M 457.810992 63.716947 L 480.695451 76.995205 L 505.500000 88.000000"/>
<!--eid=333-->
<path d="M 504.040151 130.819523 L 500.386469 108.751705 L 505.500000 88.000000"/>
<!--eid=334-->
<path d="M 218.293607 171.138790 L 226.166685 148.126145 L 233.096374 135.527815"/>
<!--eid=335-->
<path d="M 262.516356 147.725016 L 239.914389 139.211401 L 233.096374 135.527815"/>
<!--eid=336-->
<path d="M 222.205808 10.000000 L 212.000000 63.125000 L 233.096374 135.527815"/>
<!--eid=337-->
<path d="M 600.139935 52.933112 L 636.965043 60.009264 L 675.879485 72.046887"/>
<!--eid=338-->
<path d="M 600.139935 52.933112 L 618.836720 61.725355 L 594.346758 75.752150"/>
<!--eid=339-->
<path d="M 675.879485 72.046887 L 761.956896 34.699651 L 841.595822 10.000000"/>
<!--eid=340-->
<path d="M 825.699611 382.270800 L 835.248437 339.296397 L 846.987013 297.906599"/>
<!--eid=341-->
<path d="M 869.475283 516.760236 L 843.397873 457.865825 L 825.699611 382.270800"/>
<!--eid=342-->
<path d="M 825.699611 382.270800 L 830.610076 359.661697 L 806.953700 348.231670"/>
<!--eid=343-->
<path d="M 852.090212 251.551857 L 851.912097 219.261910 L 855.165938 202.596492"/>
<!--eid=344-->
<path d="M 933.111595 150.492333 L 909.500000 163.166667 L 855.165938 202.596492"/>
<!--eid=345-->
<path d="M 831.091605 204.622801 L 854.231118 203.205810 L 855.165938 202.596492"/>
<!--eid=346-->
<path d="M 234.689114 653.325682 L 244.779776 683.266034 L 237.338575 684.815143"/>
</g>
<g fill="none" stroke="rgb(250.000000, 50.000000, 250.000000)" stroke-width="1.000000" stroke-linecap="round">
</g>
<g fill="rgb(250.000000, 50.000000, 50.000000)">
<!--vid=0-->
<circle cx="10.000000" cy="1034.000000" r="4.000000"/>
<!--vid=1-->
<circle cx="1034.000000" cy="1034.000000" r="4.000000"/>
<!--vid=2-->
<circle cx="1034.000000" cy="10.000000" r="4.000000"/>
<!--vid=3-->
<circle cx="10.000000" cy="10.000000" r="4.000000"/>
<!--vid=4-->
<circle cx="570.867874" cy="1034.000000" r="4.000000"/>
<!--vid=5-->
<circle cx="1034.000000" cy="540.809453" r="4.000000"/>
<!--vid=6-->
<circle cx="458.519597" cy="10.000000" r="4.000000"/>
<!--vid=7-->
<circle cx="10.000000" cy="506.955065" r="4.000000"/>
<!--vid=8-->
<circle cx="506.883818" cy="415.103389" r="4.000000"/>
<!--vid=9-->
<circle cx="525.500000" cy="348.500000" r="4.000000"/>
<!--vid=10-->
<circle cx="530.500000" cy="268.500000" r="4.000000"/>
<!--vid=11-->
<circle cx="533.500000" cy="187.500000" r="4.000000"/>
<!--vid=12-->
<circle cx="546.953401" cy="125.222182" r="4.000000"/>
<!--vid=13-->
<circle cx="594.346758" cy="75.752150" r="4.000000"/>
<!--vid=14-->
<circle cx="675.879485" cy="72.046887" r="4.000000"/>
<!--vid=15-->
<circle cx="719.383030" cy="112.870021" r="4.000000"/>
<!--vid=16-->
<circle cx="732.922594" cy="188.376639" r="4.000000"/>
<!--vid=17-->
<circle cx="781.736424" cy="172.915237" r="4.000000"/>
<!--vid=18-->
<circle cx="831.091605" cy="204.622801" r="4.000000"/>
<!--vid=19-->
<circle cx="852.090212" cy="251.551857" r="4.000000"/>
<!--vid=20-->
<circle cx="846.987013" cy="297.906599" r="4.000000"/>
<!--vid=21-->
<circle cx="806.953700" cy="348.231670" r="4.000000"/>
<!--vid=22-->
<circle cx="743.225584" cy="382.961792" r="4.000000"/>
<!--vid=23-->
<circle cx="652.432637" cy="408.069105" r="4.000000"/>
<!--vid=24-->
<circle cx="588.500000" cy="417.500000" r="4.000000"/>
<!--vid=25-->
<circle cx="523.748925" cy="422.219850" r="4.000000"/>
<!--vid=26-->
<circle cx="601.523607" cy="427.841690" r="4.000000"/>
<!--vid=27-->
<circle cx="673.467534" cy="423.224934" r="4.000000"/>
<!--vid=28-->
<circle cx="745.322167" cy="420.910458" r="4.000000"/>
<!--vid=29-->
<circle cx="789.260958" cy="428.893042" r="4.000000"/>
<!--vid=30-->
<circle cx="831.964711" cy="468.607966" r="4.000000"/>
<!--vid=31-->
<circle cx="842.732732" cy="537.809712" r="4.000000"/>
<!--vid=32-->
<circle cx="807.172442" cy="585.159515" r="4.000000"/>
<!--vid=33-->
<circle cx="739.755499" cy="604.237668" r="4.000000"/>
<!--vid=34-->
<circle cx="758.568839" cy="654.049713" r="4.000000"/>
<!--vid=35-->
<circle cx="727.334087" cy="703.133347" r="4.000000"/>
<!--vid=36-->
<circle cx="649.546589" cy="720.248002" r="4.000000"/>
<!--vid=37-->
<circle cx="607.673647" cy="696.194092" r="4.000000"/>
<!--vid=38-->
<circle cx="566.460165" cy="643.262289" r="4.000000"/>
<!--vid=39-->
<circle cx="531.953679" cy="559.263931" r="4.000000"/>
<!--vid=40-->
<circle cx="516.500000" cy="501.500000" r="4.000000"/>
<!--vid=41-->
<circle cx="504.500000" cy="445.500000" r="4.000000"/>
<!--vid=42-->
<circle cx="488.905240" cy="517.598151" r="4.000000"/>
<!--vid=43-->
<circle cx="479.500000" cy="594.500000" r="4.000000"/>
<!--vid=44-->
<circle cx="479.827753" cy="667.481920" r="4.000000"/>
<!--vid=45-->
<circle cx="490.969395" cy="749.409933" r="4.000000"/>
<!--vid=46-->
<circle cx="508.500000" cy="814.500000" r="4.000000"/>
<!--vid=47-->
<circle cx="539.500000" cy="885.500000" r="4.000000"/>
<!--vid=48-->
<circle cx="582.836690" cy="952.291971" r="4.000000"/>
<!--vid=49-->
<circle cx="634.291075" cy="1007.984364" r="4.000000"/>
<!--vid=50-->
<circle cx="625.500000" cy="1015.500000" r="4.000000"/>
<!--vid=51-->
<circle cx="581.867442" cy="970.055694" r="4.000000"/>
<!--vid=52-->
<circle cx="537.805300" cy="906.319768" r="4.000000"/>
<!--vid=53-->
<circle cx="504.721887" cy="832.472422" r="4.000000"/>
<!--vid=54-->
<circle cx="480.500000" cy="759.500000" r="4.000000"/>
<!--vid=55-->
<circle cx="469.035988" cy="680.479154" r="4.000000"/>
<!--vid=56-->
<circle cx="468.124756" cy="597.526566" r="4.000000"/>
<!--vid=57-->
<circle cx="477.500000" cy="511.500000" r="4.000000"/>
<!--vid=58-->
<circle cx="493.601451" cy="440.876322" r="4.000000"/>
<!--vid=59-->
<circle cx="461.500000" cy="485.500000" r="4.000000"/>
<!--vid=60-->
<circle cx="434.807870" cy="541.577729" r="4.000000"/>
<!--vid=61-->
<circle cx="410.338717" cy="598.412473" r="4.000000"/>
<!--vid=62-->
<circle cx="384.263495" cy="645.252173" r="4.000000"/>
<!--vid=63-->
<circle cx="324.204324" cy="686.997557" r="4.000000"/>
<!--vid=64-->
<circle cx="272.732226" cy="679.006702" r="4.000000"/>
<!--vid=65-->
<circle cx="234.689114" cy="653.325682" r="4.000000"/>
<!--vid=66-->
<circle cx="219.970516" cy="614.315335" r="4.000000"/>
<!--vid=67-->
<circle cx="233.809459" cy="543.227055" r="4.000000"/>
<!--vid=68-->
<circle cx="182.652675" cy="536.483864" r="4.000000"/>
<!--vid=69-->
<circle cx="152.958643" cy="482.364698" r="4.000000"/>
<!--vid=70-->
<circle cx="168.587585" cy="416.697498" r="4.000000"/>
<!--vid=71-->
<circle cx="239.684835" cy="378.072202" r="4.000000"/>
<!--vid=72-->
<circle cx="294.482949" cy="374.148755" r="4.000000"/>
<!--vid=73-->
<circle cx="348.469853" cy="378.704514" r="4.000000"/>
<!--vid=74-->
<circle cx="414.499957" cy="392.500165" r="4.000000"/>
<!--vid=75-->
<circle cx="495.497003" cy="418.712467" r="4.000000"/>
<!--vid=76-->
<circle cx="426.500000" cy="380.500000" r="4.000000"/>
<!--vid=77-->
<circle cx="372.507726" cy="362.476094" r="4.000000"/>
<!--vid=78-->
<circle cx="317.506293" cy="345.155297" r="4.000000"/>
<!--vid=79-->
<circle cx="270.286880" cy="325.349667" r="4.000000"/>
<!--vid=80-->
<circle cx="211.773675" cy="255.464124" r="4.000000"/>
<!--vid=81-->
<circle cx="206.086363" cy="207.355155" r="4.000000"/>
<!--vid=82-->
<circle cx="218.293607" cy="171.138790" r="4.000000"/>
<!--vid=83-->
<circle cx="262.516356" cy="147.725016" r="4.000000"/>
<!--vid=84-->
<circle cx="334.881622" cy="150.726841" r="4.000000"/>
<!--vid=85-->
<circle cx="332.477198" cy="86.341386" r="4.000000"/>
<!--vid=86-->
<circle cx="385.728413" cy="49.600075" r="4.000000"/>
<!--vid=87-->
<circle cx="457.810992" cy="63.716947" r="4.000000"/>
<!--vid=88-->
<circle cx="504.040151" cy="130.819523" r="4.000000"/>
<!--vid=89-->
<circle cx="516.109555" cy="176.564593" r="4.000000"/>
<!--vid=90-->
<circle cx="522.500000" cy="233.500000" r="4.000000"/>
<!--vid=91-->
<circle cx="520.500000" cy="320.500000" r="4.000000"/>
<!--vid=92-->
<circle cx="507.500000" cy="411.500000" r="4.000000"/>
<!--vid=93-->
<circle cx="893.892133" cy="843.219268" r="4.000000"/>
<!--vid=94-->
<circle cx="655.000000" cy="828.000000" r="4.000000"/>
<!--vid=95-->
<circle cx="841.595822" cy="10.000000" r="4.000000"/>
<!--vid=96-->
<circle cx="222.205808" cy="10.000000" r="4.000000"/>
<!--vid=97-->
<circle cx="173.752672" cy="773.173785" r="4.000000"/>
<!--vid=98-->
<circle cx="869.475283" cy="516.760236" r="4.000000"/>
<!--vid=99-->
<circle cx="386.943078" cy="680.731127" r="4.000000"/>
<!--vid=100-->
<circle cx="765.344844" cy="707.269308" r="4.000000"/>
<!--vid=101-->
<circle cx="933.111595" cy="150.492333" r="4.000000"/>
<!--vid=102-->
<circle cx="196.562711" cy="344.544241" r="4.000000"/>
<!--vid=103-->
<circle cx="676.682973" cy="746.977337" r="4.000000"/>
<!--vid=104-->
<circle cx="89.250000" cy="469.000000" r="4.000000"/>
<!--vid=105-->
<circle cx="822.021330" cy="141.915939" r="4.000000"/>
<!--vid=106-->
<circle cx="559.818130" cy="343.192969" r="4.000000"/>
<!--vid=107-->
<circle cx="736.308714" cy="79.531329" r="4.000000"/>
<!--vid=108-->
<circle cx="295.104573" cy="46.024506" r="4.000000"/>
<!--vid=109-->
<circle cx="567.866267" cy="215.385643" r="4.000000"/>
<!--vid=110-->
<circle cx="124.574960" cy="108.326500" r="4.000000"/>
<!--vid=111-->
<circle cx="224.000000" cy="305.666667" r="4.000000"/>
<!--vid=112-->
<circle cx="559.682303" cy="74.870869" r="4.000000"/>
<!--vid=113-->
<circle cx="565.203008" cy="689.039289" r="4.000000"/>
<!--vid=114-->
<circle cx="505.500000" cy="88.000000" r="4.000000"/>
<!--vid=115-->
<circle cx="233.096374" cy="135.527815" r="4.000000"/>
<!--vid=116-->
<circle cx="600.139935" cy="52.933112" r="4.000000"/>
<!--vid=117-->
<circle cx="825.699611" cy="382.270800" r="4.000000"/>
<!--vid=118-->
<circle cx="855.165938" cy="202.596492" r="4.000000"/>
<!--vid=119-->
<circle cx="237.338575" cy="684.815143" r="4.000000"/>
</g>
</svg>
