<svg xmlns="http://www.w3.org/2000/svg" xmlns:xlink="http://www.w3.org/1999/xlink"
  width="1024" height="1024" viewBox="0 0 1024 1024">
<metadata>
  Created by Xiao, Yanyang (yanyangxiaoxyy@gmail.com)
  All copyrights reserved
</metadata>
<g fill="rgb(255.000000, 255.000000, 255.000000)">
<!--fid=0-->
<path d="M 163.752672 763.173785 Q 81.166667 645.250000 0.000000 496.955065 Q 0.000000 760.477533 0.000000 1024.000000 Q 81.166667 901.500000 163.752672 763.173785 Z" />
</g>
<g fill="rgb(248.269808, 252.550321, 244.357602)">
<!--fid=1-->
<path d="M 262.732226 669.006702 Q 239.775998 661.380325 224.689114 643.325682 Q 234.779776 673.266034 227.338575 674.815143 Q 237.995307 678.127992 262.732226 669.006702 Z" />
</g>
<g fill="rgb(68.515393, 169.900215, 0.883579)">
<!--fid=2-->
<path d="M 374.263495 635.252173 Q 289.210611 598.876067 223.809459 533.227055 Q 207.582156 568.062245 209.970516 604.315335 Q 292.076696 620.169123 374.263495 635.252173 Z" />
</g>
<g fill="rgb(254.958730, 254.997460, 254.923175)">
<!--fid=3-->
<path d="M 163.752672 763.173785 Q 216.170613 727.651329 262.732226 669.006702 Q 237.995307 678.127992 227.338575 674.815143 Q 189.388889 738.166667 163.752672 763.173785 Z" />
</g>
<g fill="rgb(253.545909, 254.598636, 252.632727)">
<!--fid=4-->
<path d="M 262.732226 669.006702 Q 216.170613 727.651329 163.752672 763.173785 Q 234.122326 722.066162 314.204324 676.997557 Q 286.743795 678.550574 262.732226 669.006702 Z" />
</g>
<g fill="rgb(68.394014, 169.909576, 0.792132)">
<!--fid=5-->
<path d="M 374.263495 635.252173 Q 292.076696 620.169123 209.970516 604.315335 Q 211.758787 626.312225 224.689114 643.325682 Q 299.864749 646.084772 374.263495 635.252173 Z" />
</g>
<g fill="rgb(254.978280, 254.987644, 254.972488)">
<!--fid=6-->
<path d="M 314.204324 676.997557 Q 157.104616 850.574586 0.000000 1024.000000 Q 190.092262 851.281374 376.943078 670.731127 Q 348.196353 677.050796 314.204324 676.997557 Z" />
</g>
<g fill="rgb(71.920195, 169.746214, 6.699122)">
<!--fid=7-->
<path d="M 374.263495 635.252173 Q 322.303261 665.051448 262.732226 669.006702 Q 286.743795 678.550574 314.204324 676.997557 Q 350.032907 671.608320 374.263495 635.252173 Z" />
</g>
<g fill="rgb(254.945592, 254.984909, 254.919778)">
<!--fid=8-->
<path d="M 0.000000 496.955065 Q 73.776171 503.380242 142.958643 472.364698 Q 111.950763 461.592114 79.250000 459.000000 Q 39.625000 485.250000 0.000000 496.955065 Z" />
</g>
<g fill="rgb(254.957750, 254.979581, 254.908951)">
<!--fid=9-->
<path d="M 209.970516 604.315335 Q 203.137492 559.533799 172.652675 526.483864 Q 87.508062 507.647566 0.000000 496.955065 Q 102.404548 563.215423 209.970516 604.315335 Z" />
</g>
<g fill="rgb(68.273276, 169.889109, 0.522740)">
<!--fid=10-->
<path d="M 404.499957 382.500165 Q 287.066770 452.172330 172.652675 526.483864 Q 195.384075 543.498610 223.809459 533.227055 Q 316.501960 461.500078 404.499957 382.500165 Z" />
</g>
<g fill="rgb(254.226166, 254.790536, 253.686152)">
<!--fid=11-->
<path d="M 142.958643 472.364698 Q 73.776171 503.380242 0.000000 496.955065 Q 87.508062 507.647566 172.652675 526.483864 Q 147.391682 505.760249 142.958643 472.364698 Z" />
</g>
<g fill="rgb(68.920088, 169.975904, 1.590698)">
<!--fid=12-->
<path d="M 374.263495 635.252173 Q 299.864749 646.084772 224.689114 643.325682 Q 239.775998 661.380325 262.732226 669.006702 Q 322.303261 665.051448 374.263495 635.252173 Z" />
</g>
<g fill="rgb(68.279489, 169.941262, 0.530659)">
<!--fid=13-->
<path d="M 223.809459 533.227055 Q 289.210611 598.876067 374.263495 635.252173 Q 389.200182 612.999282 400.338717 588.412473 Q 315.324619 550.657308 223.809459 533.227055 Z" />
</g>
<g fill="rgb(70.902851, 170.004611, 4.911223)">
<!--fid=14-->
<path d="M 142.958643 472.364698 Q 180.064571 415.244481 229.684835 368.072202 Q 185.588478 374.920221 158.587585 406.697498 Q 136.984864 436.188139 142.958643 472.364698 Z" />
</g>
<g fill="rgb(247.100761, 252.439164, 243.005704)">
<!--fid=15-->
<path d="M 172.652675 526.483864 Q 203.137492 559.533799 209.970516 604.315335 Q 207.582156 568.062245 223.809459 533.227055 Q 195.384075 543.498610 172.652675 526.483864 Z" />
</g>
<g fill="rgb(254.909144, 254.946952, 254.792497)">
<!--fid=16-->
<path d="M 0.000000 496.955065 Q 117.917119 592.697102 227.338575 674.815143 Q 234.779776 673.266034 224.689114 643.325682 Q 113.852987 574.910225 0.000000 496.955065 Z" />
</g>
<g fill="rgb(68.767962, 169.978975, 1.282845)">
<!--fid=17-->
<path d="M 223.809459 533.227055 Q 315.324619 550.657308 400.338717 588.412473 Q 412.971791 560.177622 424.807870 531.577729 Q 324.165469 546.479425 223.809459 533.227055 Z" />
</g>
<g fill="rgb(254.998430, 254.998692, 254.997842)">
<!--fid=18-->
<path d="M 0.000000 1024.000000 Q 234.603480 853.934463 459.035988 670.479154 Q 419.942519 664.815450 376.943078 670.731127 Q 190.092262 851.281374 0.000000 1024.000000 Z" />
</g>
<g fill="rgb(253.238034, 254.441785, 252.108668)">
<!--fid=19-->
<path d="M 374.263495 635.252173 Q 412.293569 604.346660 458.124756 587.526566 Q 429.574511 560.662548 400.338717 588.412473 Q 389.200182 612.999282 374.263495 635.252173 Z" />
</g>
<g fill="rgb(249.061744, 252.762712, 245.841405)">
<!--fid=20-->
<path d="M 400.338717 588.412473 Q 431.354741 543.011947 467.500000 501.500000 Q 443.947146 513.399786 424.807870 531.577729 Q 412.971791 560.177622 400.338717 588.412473 Z" />
</g>
<g fill="rgb(77.066543, 170.844111, 14.479088)">
<!--fid=21-->
<path d="M 480.969395 739.409933 Q 470.292966 704.852179 459.035988 670.479154 Q 462.268707 710.151131 470.500000 749.500000 Q 473.301655 741.659839 480.969395 739.409933 Z" />
</g>
<g fill="rgb(87.108800, 175.606486, 27.650464)">
<!--fid=22-->
<path d="M 458.124756 587.526566 Q 464.168570 622.473275 469.827753 657.481920 Q 468.300490 621.011796 469.500000 584.500000 Q 463.060699 585.271971 458.124756 587.526566 Z" />
</g>
<g fill="rgb(74.768185, 169.354551, 11.443182)">
<!--fid=23-->
<path d="M 498.500000 804.500000 Q 488.047896 772.264597 480.969395 739.409933 Q 473.301655 741.659839 470.500000 749.500000 Q 482.255409 778.168663 498.500000 804.500000 Z" />
</g>
<g fill="rgb(254.997031, 254.999258, 254.993155)">
<!--fid=24-->
<path d="M 0.000000 1024.000000 Q 157.104616 850.574586 314.204324 676.997557 Q 234.122326 722.066162 163.752672 763.173785 Q 81.166667 901.500000 0.000000 1024.000000 Z" />
</g>
<g fill="rgb(253.991223, 254.705956, 253.213793)">
<!--fid=25-->
<path d="M 469.500000 584.500000 Q 511.036354 612.347490 556.460165 633.262289 Q 535.191429 593.094158 521.953679 549.263931 Q 484.948554 550.469836 469.500000 584.500000 Z" />
</g>
<g fill="rgb(77.716521, 170.676344, 16.044643)">
<!--fid=26-->
<path d="M 459.035988 670.479154 Q 470.292966 704.852179 480.969395 739.409933 Q 472.605384 698.811017 469.827753 657.481920 Q 461.637061 661.836453 459.035988 670.479154 Z" />
</g>
<g fill="rgb(81.062060, 171.989367, 19.604610)">
<!--fid=27-->
<path d="M 469.827753 657.481920 Q 464.168570 622.473275 458.124756 587.526566 Q 455.364417 629.011165 459.035988 670.479154 Q 461.637061 661.836453 469.827753 657.481920 Z" />
</g>
<g fill="rgb(254.192321, 254.850455, 253.526103)">
<!--fid=28-->
<path d="M 480.969395 739.409933 Q 503.277218 675.304308 556.460165 633.262289 Q 512.736257 643.938831 469.827753 657.481920 Q 472.605384 698.811017 480.969395 739.409933 Z" />
</g>
<g fill="rgb(248.760282, 252.654524, 245.303173)">
<!--fid=29-->
<path d="M 424.807870 531.577729 Q 443.947146 513.399786 467.500000 501.500000 Q 466.915663 483.930959 451.500000 475.500000 Q 437.354459 503.189826 424.807870 531.577729 Z" />
</g>
<g fill="rgb(251.713864, 253.789577, 250.026549)">
<!--fid=30-->
<path d="M 467.500000 501.500000 Q 431.354741 543.011947 400.338717 588.412473 Q 429.574511 560.662548 458.124756 587.526566 Q 460.127464 544.269758 467.500000 501.500000 Z" />
</g>
<g fill="rgb(85.476889, 174.306574, 25.854015)">
<!--fid=31-->
<path d="M 483.601451 430.876322 Q 481.639377 469.260866 478.905240 507.598151 Q 485.733378 471.365274 494.500000 435.500000 Q 485.701821 449.278131 483.601451 430.876322 Z" />
</g>
<g fill="rgb(68.352805, 169.924620, 0.609744)">
<!--fid=32-->
<path d="M 223.809459 533.227055 Q 324.165469 546.479425 424.807870 531.577729 Q 437.354459 503.189826 451.500000 475.500000 Q 337.907630 506.653929 223.809459 533.227055 Z" />
</g>
<g fill="rgb(247.782359, 252.098754, 244.226271)">
<!--fid=33-->
<path d="M 521.953679 549.263931 Q 484.082355 545.264535 478.905240 507.598151 Q 473.142623 545.576561 469.500000 584.500000 Q 484.948554 550.469836 521.953679 549.263931 Z" />
</g>
<g fill="rgb(242.392087, 250.196643, 236.177459)">
<!--fid=34-->
<path d="M 506.500000 491.500000 Q 502.080698 462.365550 494.500000 435.500000 Q 485.733378 471.365274 478.905240 507.598151 Q 487.224244 489.347010 506.500000 491.500000 Z" />
</g>
<g fill="rgb(78.739134, 171.932976, 16.945653)">
<!--fid=35-->
<path d="M 478.905240 507.598151 Q 481.639377 469.260866 483.601451 430.876322 Q 474.790887 466.113999 467.500000 501.500000 Q 470.554475 509.696154 478.905240 507.598151 Z" />
</g>
<g fill="rgb(86.260667, 174.627967, 27.379148)">
<!--fid=36-->
<path d="M 467.500000 501.500000 Q 470.709016 542.944746 469.500000 584.500000 Q 473.142623 545.576561 478.905240 507.598151 Q 470.554475 509.696154 467.500000 501.500000 Z" />
</g>
<g fill="rgb(83.343616, 174.283412, 22.230544)">
<!--fid=37-->
<path d="M 469.500000 584.500000 Q 470.709016 542.944746 467.500000 501.500000 Q 460.127464 544.269758 458.124756 587.526566 Q 463.060699 585.271971 469.500000 584.500000 Z" />
</g>
<g fill="rgb(87.273080, 174.480774, 27.646154)">
<!--fid=38-->
<path d="M 485.497003 408.712467 Q 468.520015 442.192473 451.500000 475.500000 Q 464.914757 450.448057 483.601451 430.876322 Q 481.044152 419.514810 485.497003 408.712467 Z" />
</g>
<g fill="rgb(68.753492, 169.572098, 2.265116)">
<!--fid=39-->
<path d="M 494.500000 435.500000 Q 494.693952 420.468507 496.883818 405.103389 Q 488.841520 401.995663 485.497003 408.712467 Q 488.149887 422.456776 494.500000 435.500000 Z" />
</g>
<g fill="rgb(252.110582, 254.023280, 250.478836)">
<!--fid=40-->
<path d="M 458.124756 587.526566 Q 441.246872 653.841288 376.943078 670.731127 Q 419.942519 664.815450 459.035988 670.479154 Q 455.364417 629.011165 458.124756 587.526566 Z" />
</g>
<g fill="rgb(254.966201, 254.987456, 254.935905)">
<!--fid=41-->
<path d="M 459.035988 670.479154 Q 234.603480 853.934463 0.000000 1024.000000 Q 243.887455 901.573585 470.500000 749.500000 Q 462.268707 710.151131 459.035988 670.479154 Z" />
</g>
<g fill="rgb(242.437095, 250.322957, 236.040208)">
<!--fid=42-->
<path d="M 483.601451 430.876322 Q 464.914757 450.448057 451.500000 475.500000 Q 466.915663 483.930959 467.500000 501.500000 Q 474.790887 466.113999 483.601451 430.876322 Z" />
</g>
<g fill="rgb(254.683248, 254.792246, 254.441843)">
<!--fid=43-->
<path d="M 214.000000 295.666667 Q 242.902421 336.340191 284.482949 364.148755 Q 281.737130 335.471642 260.286880 315.349667 Q 237.464640 304.758355 214.000000 295.666667 Z" />
</g>
<g fill="rgb(68.201020, 169.939590, 0.372511)">
<!--fid=44-->
<path d="M 172.652675 526.483864 Q 256.739352 448.832293 338.469853 368.704514 Q 239.480240 417.990403 142.958643 472.364698 Q 147.391682 505.760249 172.652675 526.483864 Z" />
</g>
<g fill="rgb(249.476821, 252.925828, 246.557616)">
<!--fid=45-->
<path d="M 260.286880 315.349667 Q 281.737130 335.471642 284.482949 364.148755 Q 298.933259 351.915939 307.506293 335.155297 Q 282.872756 326.619295 260.286880 315.349667 Z" />
</g>
<g fill="rgb(252.840127, 254.363694, 251.615924)">
<!--fid=46-->
<path d="M 284.482949 364.148755 Q 242.902421 336.340191 214.000000 295.666667 Q 225.862187 330.975243 229.684835 368.072202 Q 256.621054 363.009450 284.482949 364.148755 Z" />
</g>
<g fill="rgb(249.195767, 252.789683, 245.886244)">
<!--fid=47-->
<path d="M 338.469853 368.704514 Q 321.924894 352.911146 307.506293 335.155297 Q 298.933259 351.915939 284.482949 364.148755 Q 311.462497 364.471885 338.469853 368.704514 Z" />
</g>
<g fill="rgb(68.345356, 169.916838, 0.623301)">
<!--fid=48-->
<path d="M 324.881622 140.726841 Q 292.755042 228.203387 260.286880 315.349667 Q 282.872756 326.619295 307.506293 335.155297 Q 326.355428 239.409363 324.881622 140.726841 Z" />
</g>
<g fill="rgb(68.561377, 169.975354, 0.927576)">
<!--fid=49-->
<path d="M 338.469853 368.704514 Q 256.739352 448.832293 172.652675 526.483864 Q 287.066770 452.172330 404.499957 382.500165 Q 371.662678 374.762948 338.469853 368.704514 Z" />
</g>
<g fill="rgb(251.304485, 253.719119, 249.350905)">
<!--fid=50-->
<path d="M 229.684835 368.072202 Q 195.593230 359.816262 186.562711 334.544241 Q 177.767972 368.687324 158.587585 406.697498 Q 185.588478 374.920221 229.684835 368.072202 Z" />
</g>
<g fill="rgb(255.000000, 255.000000, 255.000000)">
<!--fid=51-->
<path d="M 79.250000 459.000000 Q 39.625000 229.500000 0.000000 0.000000 Q 0.000000 248.477533 0.000000 496.955065 Q 39.625000 485.250000 79.250000 459.000000 Z" />
</g>
<g fill="rgb(254.363804, 254.762553, 253.974251)">
<!--fid=52-->
<path d="M 0.000000 0.000000 Q 78.442833 234.566868 142.958643 472.364698 Q 136.984864 436.188139 158.587585 406.697498 Q 71.856916 206.130045 0.000000 0.000000 Z" />
</g>
<g fill="rgb(69.726021, 169.787796, 2.760901)">
<!--fid=53-->
<path d="M 201.773675 245.464124 Q 216.108479 186.365735 252.516356 137.725016 Q 217.646339 161.487552 196.086363 197.355155 Q 194.975092 221.768934 201.773675 245.464124 Z" />
</g>
<g fill="rgb(254.965954, 254.988772, 254.951829)">
<!--fid=54-->
<path d="M 208.293607 161.138790 Q 216.166685 138.126145 223.096374 125.527815 Q 157.000000 102.500000 114.574960 98.326500 Q 149.888812 135.612439 208.293607 161.138790 Z" />
</g>
<g fill="rgb(254.997526, 254.997526, 254.998763)">
<!--fid=55-->
<path d="M 212.205808 0.000000 Q 250.432366 46.232678 322.477198 76.341386 Q 308.811212 47.074397 285.104573 36.024506 Q 234.687500 14.812500 212.205808 0.000000 Z" />
</g>
<g fill="rgb(76.072119, 170.458338, 13.149039)">
<!--fid=56-->
<path d="M 196.086363 197.355155 Q 217.646339 161.487552 252.516356 137.725016 Q 225.923941 142.665878 208.293607 161.138790 Q 197.133709 177.733832 196.086363 197.355155 Z" />
</g>
<g fill="rgb(68.467429, 169.859777, 0.851296)">
<!--fid=57-->
<path d="M 324.881622 140.726841 Q 326.355428 239.409363 307.506293 335.155297 Q 334.932911 344.136269 362.507726 352.476094 Q 334.005730 248.622609 324.881622 140.726841 Z" />
</g>
<g fill="rgb(255.000000, 255.000000, 255.000000)">
<!--fid=58-->
<path d="M 212.205808 0.000000 Q 161.252836 49.172268 114.574960 98.326500 Q 157.000000 102.500000 223.096374 125.527815 Q 202.000000 53.125000 212.205808 0.000000 Z" />
</g>
<g fill="rgb(253.066743, 254.281166, 252.070196)">
<!--fid=59-->
<path d="M 212.205808 0.000000 Q 259.791978 67.299808 324.881622 140.726841 Q 303.906614 109.186734 322.477198 76.341386 Q 250.432366 46.232678 212.205808 0.000000 Z" />
</g>
<g fill="rgb(255.000000, 255.000000, 255.000000)">
<!--fid=60-->
<path d="M 114.574960 98.326500 Q 161.252836 49.172268 212.205808 0.000000 Q 106.102904 0.000000 0.000000 0.000000 Q 48.875000 49.375000 114.574960 98.326500 Z" />
</g>
<g fill="rgb(68.845418, 170.014294, 1.397246)">
<!--fid=61-->
<path d="M 252.516356 137.725016 Q 216.108479 186.365735 201.773675 245.464124 Q 253.794256 182.233248 324.881622 140.726841 Q 288.209775 132.692840 252.516356 137.725016 Z" />
</g>
<g fill="rgb(254.980726, 254.993326, 254.967309)">
<!--fid=62-->
<path d="M 142.958643 472.364698 Q 78.442833 234.566868 0.000000 0.000000 Q 39.625000 229.500000 79.250000 459.000000 Q 111.950763 461.592114 142.958643 472.364698 Z" />
</g>
<g fill="rgb(240.350705, 250.156338, 232.643663)">
<!--fid=63-->
<path d="M 485.497003 408.712467 Q 453.555309 385.124165 416.500000 370.500000 Q 416.341066 382.524055 404.499957 382.500165 Q 445.432556 393.663110 485.497003 408.712467 Z" />
</g>
<g fill="rgb(69.270912, 170.218437, 1.895704)">
<!--fid=64-->
<path d="M 142.958643 472.364698 Q 239.480240 417.990403 338.469853 368.704514 Q 311.462497 364.471885 284.482949 364.148755 Q 213.242539 417.800533 142.958643 472.364698 Z" />
</g>
<g fill="rgb(68.582177, 169.961295, 1.050424)">
<!--fid=65-->
<path d="M 223.809459 533.227055 Q 344.631722 450.594550 485.497003 408.712467 Q 445.432556 393.663110 404.499957 382.500165 Q 316.501960 461.500078 223.809459 533.227055 Z" />
</g>
<g fill="rgb(243.665958, 250.731915, 238.197873)">
<!--fid=66-->
<path d="M 362.507726 352.476094 Q 385.088176 365.288637 404.499957 382.500165 Q 416.341066 382.524055 416.500000 370.500000 Q 389.682696 360.792481 362.507726 352.476094 Z" />
</g>
<g fill="rgb(68.496032, 169.903347, 0.848194)">
<!--fid=67-->
<path d="M 510.500000 310.500000 Q 413.152214 230.325023 324.881622 140.726841 Q 429.530747 258.811933 497.500000 401.500000 Q 505.825321 358.844185 510.500000 310.500000 Z" />
</g>
<g fill="rgb(70.811930, 170.651381, 4.555046)">
<!--fid=68-->
<path d="M 494.500000 435.500000 Q 488.149887 422.456776 485.497003 408.712467 Q 481.044152 419.514810 483.601451 430.876322 Q 485.701821 449.278131 494.500000 435.500000 Z" />
</g>
<g fill="rgb(68.152554, 169.745907, 0.418033)">
<!--fid=69-->
<path d="M 513.748925 412.219850 Q 560.477180 377.054326 549.818130 333.192969 Q 545.170650 325.193387 515.500000 338.500000 Q 513.928995 375.380423 513.748925 412.219850 Z" />
</g>
<g fill="rgb(68.396778, 169.893553, 0.748387)">
<!--fid=70-->
<path d="M 485.497003 408.712467 Q 394.572869 280.447224 324.881622 140.726841 Q 370.466982 255.831683 416.500000 370.500000 Q 453.555309 385.124165 485.497003 408.712467 Z" />
</g>
<g fill="rgb(68.575543, 169.458039, 1.702638)">
<!--fid=71-->
<path d="M 496.883818 405.103389 Q 494.693952 420.468507 494.500000 435.500000 Q 507.309628 426.131725 513.748925 412.219850 Q 509.310213 396.149153 496.883818 405.103389 Z" />
</g>
<g fill="rgb(68.628066, 169.931137, 1.056487)">
<!--fid=72-->
<path d="M 322.477198 76.341386 Q 422.450634 143.669607 512.500000 223.500000 Q 510.450463 194.831431 506.109555 166.564593 Q 411.216681 128.146253 322.477198 76.341386 Z" />
</g>
<g fill="rgb(68.359748, 169.812724, 0.719284)">
<!--fid=73-->
<path d="M 447.810992 53.716947 Q 383.935954 58.343711 322.477198 76.341386 Q 410.403077 90.905563 494.040151 120.819523 Q 480.215347 79.479022 447.810992 53.716947 Z" />
</g>
<g fill="rgb(249.679128, 253.415888, 246.528038)">
<!--fid=74-->
<path d="M 307.506293 335.155297 Q 321.924894 352.911146 338.469853 368.704514 Q 348.260933 357.177655 362.507726 352.476094 Q 334.932911 344.136269 307.506293 335.155297 Z" />
</g>
<g fill="rgb(249.258146, 253.134085, 245.933584)">
<!--fid=75-->
<path d="M 404.499957 382.500165 Q 385.088176 365.288637 362.507726 352.476094 Q 348.260933 357.177655 338.469853 368.704514 Q 371.662678 374.762948 404.499957 382.500165 Z" />
</g>
<g fill="rgb(68.205823, 169.895927, 0.429269)">
<!--fid=76-->
<path d="M 494.040151 120.819523 Q 410.403077 90.905563 322.477198 76.341386 Q 411.216681 128.146253 506.109555 166.564593 Q 502.069043 143.048641 494.040151 120.819523 Z" />
</g>
<g fill="rgb(68.253490, 169.900392, 0.444275)">
<!--fid=77-->
<path d="M 512.500000 223.500000 Q 417.199857 185.177677 324.881622 140.726841 Q 413.152214 230.325023 510.500000 310.500000 Q 512.433843 267.232266 512.500000 223.500000 Z" />
</g>
<g fill="rgb(71.474496, 170.101045, 5.720654)">
<!--fid=78-->
<path d="M 322.477198 76.341386 Q 383.935954 58.343711 447.810992 53.716947 Q 414.346527 31.487527 375.728413 39.600075 Q 341.068974 48.456058 322.477198 76.341386 Z" />
</g>
<g fill="rgb(254.681905, 254.850476, 254.537143)">
<!--fid=79-->
<path d="M 495.500000 78.000000 Q 517.288627 94.759383 536.953401 115.222182 Q 544.933365 87.973130 549.682303 64.870869 Q 524.112219 84.163669 495.500000 78.000000 Z" />
</g>
<g fill="rgb(251.044140, 253.491629, 249.033486)">
<!--fid=80-->
<path d="M 448.519597 0.000000 Q 445.609440 22.785642 375.728413 39.600075 Q 414.346527 31.487527 447.810992 53.716947 Q 462.558928 17.975859 448.519597 0.000000 Z" />
</g>
<g fill="rgb(68.276886, 169.903758, 0.533272)">
<!--fid=81-->
<path d="M 324.881622 140.726841 Q 253.794256 182.233248 201.773675 245.464124 Q 215.185514 290.574013 260.286880 315.349667 Q 292.755042 228.203387 324.881622 140.726841 Z" />
</g>
<g fill="rgb(68.235224, 169.925586, 0.449993)">
<!--fid=82-->
<path d="M 324.881622 140.726841 Q 417.199857 185.177677 512.500000 223.500000 Q 422.450634 143.669607 322.477198 76.341386 Q 303.906614 109.186734 324.881622 140.726841 Z" />
</g>
<g fill="rgb(228.411617, 244.073233, 217.037880)">
<!--fid=83-->
<path d="M 515.500000 338.500000 Q 511.293863 324.802594 510.500000 310.500000 Q 505.825321 358.844185 497.500000 401.500000 Q 506.557484 370.016420 515.500000 338.500000 Z" />
</g>
<g fill="rgb(68.636397, 169.842475, 1.108322)">
<!--fid=84-->
<path d="M 142.958643 472.364698 Q 213.242539 417.800533 284.482949 364.148755 Q 256.621054 363.009450 229.684835 368.072202 Q 180.064571 415.244481 142.958643 472.364698 Z" />
</g>
<g fill="rgb(68.031381, 169.970674, 0.082992)">
<!--fid=85-->
<path d="M 451.500000 475.500000 Q 468.520015 442.192473 485.497003 408.712467 Q 344.631722 450.594550 223.809459 533.227055 Q 337.907630 506.653929 451.500000 475.500000 Z" />
</g>
<g fill="rgb(254.948790, 254.983901, 254.900757)">
<!--fid=86-->
<path d="M 470.500000 749.500000 Q 243.887455 901.573585 0.000000 1024.000000 Q 250.743146 934.535249 494.721887 822.472422 Q 479.845770 791.044090 470.500000 749.500000 Z" />
</g>
<g fill="rgb(76.872600, 171.050486, 14.038462)">
<!--fid=87-->
<path d="M 470.500000 749.500000 Q 479.845770 791.044090 494.721887 822.472422 Q 495.374717 817.265405 498.500000 804.500000 Q 482.255409 778.168663 470.500000 749.500000 Z" />
</g>
<g fill="rgb(74.041180, 169.790201, 9.921569)">
<!--fid=88-->
<path d="M 494.721887 822.472422 Q 508.812973 864.814382 527.805300 896.319768 Q 528.961227 886.055961 529.500000 875.500000 Q 512.946998 852.729606 494.721887 822.472422 Z" />
</g>
<g fill="rgb(254.936903, 254.977976, 254.879355)">
<!--fid=89-->
<path d="M 0.000000 1024.000000 Q 283.792916 974.777433 571.867442 960.055694 Q 547.647355 929.804838 527.805300 896.319768 Q 261.547446 950.171630 0.000000 1024.000000 Z" />
</g>
<g fill="rgb(72.737934, 169.274143, 8.729311)">
<!--fid=90-->
<path d="M 571.867442 960.055694 Q 550.715016 917.762166 529.500000 875.500000 Q 528.961227 886.055961 527.805300 896.319768 Q 547.647355 929.804838 571.867442 960.055694 Z" />
</g>
<g fill="rgb(77.153618, 169.626511, 15.156627)">
<!--fid=91-->
<path d="M 529.500000 875.500000 Q 550.715016 917.762166 571.867442 960.055694 Q 571.889972 951.505235 572.836690 942.291971 Q 548.903246 910.892007 529.500000 875.500000 Z" />
</g>
<g fill="rgb(254.394197, 254.813857, 254.005527)">
<!--fid=92-->
<path d="M 572.836690 942.291971 Q 585.795174 820.562355 639.546589 710.248002 Q 591.998546 797.985181 529.500000 875.500000 Q 548.903246 910.892007 572.836690 942.291971 Z" />
</g>
<g fill="rgb(254.875573, 254.954198, 254.822137)">
<!--fid=93-->
<path d="M 639.546589 710.248002 Q 644.654354 764.161900 645.000000 818.000000 Q 649.996944 777.682216 666.682973 736.977337 Q 659.735660 719.871546 639.546589 710.248002 Z" />
</g>
<g fill="rgb(253.206112, 254.481795, 251.912224)">
<!--fid=94-->
<path d="M 571.867442 960.055694 Q 556.504762 996.925278 560.867874 1024.000000 Q 563.095499 1011.192636 615.500000 1005.500000 Q 591.454193 985.293943 571.867442 960.055694 Z" />
</g>
<g fill="rgb(76.344476, 169.946020, 13.814910)">
<!--fid=95-->
<path d="M 498.500000 804.500000 Q 495.374717 817.265405 494.721887 822.472422 Q 512.946998 852.729606 529.500000 875.500000 Q 512.169499 840.690722 498.500000 804.500000 Z" />
</g>
<g fill="rgb(252.902307, 254.364315, 251.428087)">
<!--fid=96-->
<path d="M 478.905240 507.598151 Q 484.082355 545.264535 521.953679 549.263931 Q 513.430134 520.823355 506.500000 491.500000 Q 487.224244 489.347010 478.905240 507.598151 Z" />
</g>
<g fill="rgb(253.329572, 254.528709, 252.356124)">
<!--fid=97-->
<path d="M 556.460165 633.262289 Q 511.036354 612.347490 469.500000 584.500000 Q 468.300490 621.011796 469.827753 657.481920 Q 512.736257 643.938831 556.460165 633.262289 Z" />
</g>
<g fill="rgb(68.013895, 170.002817, 0.024203)">
<!--fid=98-->
<path d="M 735.322167 410.910458 Q 671.784993 555.478164 639.546589 710.248002 Q 699.197562 664.300052 729.755499 594.237668 Q 750.737486 503.501046 735.322167 410.910458 Z" />
</g>
<g fill="rgb(69.871077, 169.987765, 2.852713)">
<!--fid=99-->
<path d="M 513.748925 412.219850 Q 505.769451 451.446388 506.500000 491.500000 Q 537.012373 441.316991 591.523607 417.841690 Q 551.943491 419.782207 513.748925 412.219850 Z" />
</g>
<g fill="rgb(68.182325, 169.908583, 0.353882)">
<!--fid=100-->
<path d="M 597.673647 686.194092 Q 661.812398 546.155454 735.322167 410.910458 Q 699.384745 410.331198 663.467534 413.224934 Q 627.504718 549.067845 597.673647 686.194092 Z" />
</g>
<g fill="rgb(247.694669, 252.502423, 244.006463)">
<!--fid=101-->
<path d="M 597.673647 686.194092 Q 573.239429 663.256888 556.460165 633.262289 Q 565.043688 662.387702 555.203008 679.039289 Q 571.789041 672.169963 597.673647 686.194092 Z" />
</g>
<g fill="rgb(68.275008, 169.879680, 0.556439)">
<!--fid=102-->
<path d="M 597.673647 686.194092 Q 593.799216 552.042009 591.523607 417.841690 Q 567.955416 524.636610 556.460165 633.262289 Q 573.239429 663.256888 597.673647 686.194092 Z" />
</g>
<g fill="rgb(68.191324, 169.912158, 0.369444)">
<!--fid=103-->
<path d="M 591.523607 417.841690 Q 593.799216 552.042009 597.673647 686.194092 Q 627.504718 549.067845 663.467534 413.224934 Q 627.515544 416.866557 591.523607 417.841690 Z" />
</g>
<g fill="rgb(254.150596, 254.756230, 253.577104)">
<!--fid=104-->
<path d="M 498.500000 804.500000 Q 522.049100 739.575201 555.203008 679.039289 Q 512.273121 712.707600 480.969395 739.409933 Q 488.047896 772.264597 498.500000 804.500000 Z" />
</g>
<g fill="rgb(74.803439, 170.977104, 10.267176)">
<!--fid=105-->
<path d="M 506.500000 491.500000 Q 505.769451 451.446388 513.748925 412.219850 Q 507.309628 426.131725 494.500000 435.500000 Q 502.080698 462.365550 506.500000 491.500000 Z" />
</g>
<g fill="rgb(74.794396, 169.584117, 12.060748)">
<!--fid=106-->
<path d="M 571.867442 960.055694 Q 596.626565 980.223283 624.291075 997.984364 Q 595.344524 972.540415 572.836690 942.291971 Q 571.889972 951.505235 571.867442 960.055694 Z" />
</g>
<g fill="rgb(254.908291, 254.968407, 254.820598)">
<!--fid=107-->
<path d="M 494.721887 822.472422 Q 250.743146 934.535249 0.000000 1024.000000 Q 261.547446 950.171630 527.805300 896.319768 Q 508.812973 864.814382 494.721887 822.472422 Z" />
</g>
<g fill="rgb(254.854251, 254.949200, 254.734432)">
<!--fid=108-->
<path d="M 1024.000000 1024.000000 Q 797.698604 987.123195 572.836690 942.291971 Q 595.344524 972.540415 624.291075 997.984364 Q 823.613797 1012.818569 1024.000000 1024.000000 Z" />
</g>
<g fill="rgb(254.391098, 254.707418, 254.142433)">
<!--fid=109-->
<path d="M 1024.000000 1024.000000 Q 823.613797 1012.818569 624.291075 997.984364 Q 623.852985 1005.854394 615.500000 1005.500000 Q 819.775985 1014.178124 1024.000000 1024.000000 Z" />
</g>
<g fill="rgb(254.629714, 254.899791, 254.347067)">
<!--fid=110-->
<path d="M 597.673647 686.194092 Q 539.391855 738.298267 498.500000 804.500000 Q 512.169499 840.690722 529.500000 875.500000 Q 560.718561 779.822009 597.673647 686.194092 Z" />
</g>
<g fill="rgb(77.220933, 170.100005, 15.076745)">
<!--fid=111-->
<path d="M 624.291075 997.984364 Q 596.626565 980.223283 571.867442 960.055694 Q 591.454193 985.293943 615.500000 1005.500000 Q 623.852985 1005.854394 624.291075 997.984364 Z" />
</g>
<g fill="rgb(254.998067, 254.999000, 254.996100)">
<!--fid=112-->
<path d="M 1024.000000 530.809453 Q 910.241691 551.222392 797.172442 575.159515 Q 847.815926 702.909088 883.892133 833.219268 Q 953.946067 677.450238 1024.000000 530.809453 Z" />
</g>
<g fill="rgb(254.943046, 254.977925, 254.902870)">
<!--fid=113-->
<path d="M 717.334087 693.133347 Q 801.792043 763.691673 883.892133 833.219268 Q 833.597309 780.647494 755.344844 697.269308 Q 754.262063 696.687708 717.334087 693.133347 Z" />
</g>
<g fill="rgb(254.982316, 254.986987, 254.981982)">
<!--fid=114-->
<path d="M 883.892133 833.219268 Q 817.188189 739.302172 748.568839 644.049713 Q 750.263100 674.547102 755.344844 697.269308 Q 833.597309 780.647494 883.892133 833.219268 Z" />
</g>
<g fill="rgb(71.460404, 169.977104, 5.531489)">
<!--fid=115-->
<path d="M 748.568839 644.049713 Q 697.070345 682.594395 639.546589 710.248002 Q 682.484515 721.101956 717.334087 693.133347 Q 741.061123 674.089297 748.568839 644.049713 Z" />
</g>
<g fill="rgb(254.833192, 254.925793, 254.756237)">
<!--fid=116-->
<path d="M 1024.000000 1024.000000 Q 819.775985 1014.178124 615.500000 1005.500000 Q 563.095499 1011.192636 560.867874 1024.000000 Q 792.433937 1024.000000 1024.000000 1024.000000 Z" />
</g>
<g fill="rgb(68.863687, 169.911193, 1.450602)">
<!--fid=117-->
<path d="M 639.546589 710.248002 Q 697.070345 682.594395 748.568839 644.049713 Q 752.521021 615.164871 729.755499 594.237668 Q 699.197562 664.300052 639.546589 710.248002 Z" />
</g>
<g fill="rgb(72.232911, 170.009021, 7.133734)">
<!--fid=118-->
<path d="M 779.260958 418.893042 Q 814.059645 469.295825 832.732732 527.809712 Q 837.319469 493.387917 821.964711 458.607966 Q 808.701614 429.805412 779.260958 418.893042 Z" />
</g>
<g fill="rgb(248.576888, 252.939422, 244.901212)">
<!--fid=119-->
<path d="M 797.172442 575.159515 Q 766.727146 592.541797 729.755499 594.237668 Q 752.521021 615.164871 748.568839 644.049713 Q 762.348670 602.639161 797.172442 575.159515 Z" />
</g>
<g fill="rgb(68.983144, 170.140170, 1.562975)">
<!--fid=120-->
<path d="M 729.755499 594.237668 Q 753.136353 506.347802 779.260958 418.893042 Q 757.813885 411.258113 735.322167 410.910458 Q 750.737486 503.501046 729.755499 594.237668 Z" />
</g>
<g fill="rgb(68.701324, 169.842249, 1.184158)">
<!--fid=121-->
<path d="M 521.953679 549.263931 Q 544.653632 477.418600 591.523607 417.841690 Q 537.012373 441.316991 506.500000 491.500000 Q 513.430134 520.823355 521.953679 549.263931 Z" />
</g>
<g fill="rgb(255.000000, 255.000000, 255.000000)">
<!--fid=122-->
<path d="M 1024.000000 530.809453 Q 927.000000 442.250000 815.699611 372.270800 Q 833.397873 447.865825 859.475283 506.760236 Q 958.500000 505.500000 1024.000000 530.809453 Z" />
</g>
<g fill="rgb(68.344233, 169.907334, 0.682393)">
<!--fid=123-->
<path d="M 797.172442 575.159515 Q 792.256330 496.755287 779.260958 418.893042 Q 753.136353 506.347802 729.755499 594.237668 Q 766.727146 592.541797 797.172442 575.159515 Z" />
</g>
<g fill="rgb(255.000000, 255.000000, 255.000000)">
<!--fid=124-->
<path d="M 1024.000000 530.809453 Q 953.946067 677.450238 883.892133 833.219268 Q 955.125000 929.125000 1024.000000 1024.000000 Q 1024.000000 777.404727 1024.000000 530.809453 Z" />
</g>
<g fill="rgb(252.271930, 254.187970, 250.512532)">
<!--fid=125-->
<path d="M 815.699611 372.270800 Q 786.999681 400.638299 735.322167 410.910458 Q 757.813885 411.258113 779.260958 418.893042 Q 803.227703 394.299237 815.699611 372.270800 Z" />
</g>
<g fill="rgb(254.974841, 254.991050, 254.971161)">
<!--fid=126-->
<path d="M 748.568839 644.049713 Q 817.188189 739.302172 883.892133 833.219268 Q 847.815926 702.909088 797.172442 575.159515 Q 762.348670 602.639161 748.568839 644.049713 Z" />
</g>
<g fill="rgb(254.981730, 254.987696, 254.976696)">
<!--fid=127-->
<path d="M 815.699611 372.270800 Q 927.000000 442.250000 1024.000000 530.809453 Q 935.901915 395.199916 836.987013 287.906599 Q 825.248437 329.296397 815.699611 372.270800 Z" />
</g>
<g fill="rgb(68.526366, 169.892409, 0.915996)">
<!--fid=128-->
<path d="M 556.460165 633.262289 Q 567.955416 524.636610 591.523607 417.841690 Q 544.653632 477.418600 521.953679 549.263931 Q 535.191429 593.094158 556.460165 633.262289 Z" />
</g>
<g fill="rgb(68.574041, 169.894156, 1.045364)">
<!--fid=129-->
<path d="M 832.732732 527.809712 Q 814.059645 469.295825 779.260958 418.893042 Q 792.256330 496.755287 797.172442 575.159515 Q 824.490809 558.636630 832.732732 527.809712 Z" />
</g>
<g fill="rgb(68.079925, 169.966934, 0.144488)">
<!--fid=130-->
<path d="M 496.883818 405.103389 Q 407.918731 274.904019 324.881622 140.726841 Q 394.572869 280.447224 485.497003 408.712467 Q 488.841520 401.995663 496.883818 405.103389 Z" />
</g>
<g fill="rgb(193.994537, 223.437160, 180.852461)">
<!--fid=131-->
<path d="M 497.500000 401.500000 Q 497.095402 403.514186 496.883818 405.103389 Q 510.593789 373.944271 515.500000 338.500000 Q 506.557484 370.016420 497.500000 401.500000 Z" />
</g>
<g fill="rgb(69.955039, 169.253602, 4.718825)">
<!--fid=132-->
<path d="M 549.818130 333.192969 Q 560.477180 377.054326 513.748925 412.219850 Q 546.393242 409.569995 578.500000 407.500000 Q 563.369974 370.008768 549.818130 333.192969 Z" />
</g>
<g fill="rgb(68.003337, 169.990561, 0.012667)">
<!--fid=133-->
<path d="M 578.500000 407.500000 Q 658.612617 261.349764 709.383030 102.870021 Q 654.019659 220.408314 549.818130 333.192969 Q 563.369974 370.008768 578.500000 407.500000 Z" />
</g>
<g fill="rgb(233.286397, 244.062053, 227.677805)">
<!--fid=134-->
<path d="M 510.500000 310.500000 Q 511.293863 324.802594 515.500000 338.500000 Q 520.344781 298.583256 520.500000 258.500000 Q 514.616265 284.329887 510.500000 310.500000 Z" />
</g>
<g fill="rgb(68.013480, 169.987452, 0.012553)">
<!--fid=135-->
<path d="M 709.383030 102.870021 Q 612.381379 220.706205 515.500000 338.500000 Q 545.170650 325.193387 549.818130 333.192969 Q 654.019659 220.408314 709.383030 102.870021 Z" />
</g>
<g fill="rgb(246.290323, 251.943973, 241.629882)">
<!--fid=136-->
<path d="M 642.432637 398.069105 Q 617.969230 410.511614 591.523607 417.841690 Q 627.515544 416.866557 663.467534 413.224934 Q 653.183907 405.773545 642.432637 398.069105 Z" />
</g>
<g fill="rgb(69.551858, 168.094440, 5.257589)">
<!--fid=137-->
<path d="M 536.953401 115.222182 Q 599.936203 85.010053 665.879485 62.046887 Q 625.646073 51.911205 584.346758 65.752150 Q 550.280360 79.536912 536.953401 115.222182 Z" />
</g>
<g fill="rgb(232.778204, 245.728490, 224.260039)">
<!--fid=138-->
<path d="M 513.748925 412.219850 Q 551.943491 419.782207 591.523607 417.841690 Q 582.560244 415.804640 578.500000 407.500000 Q 546.393242 409.569995 513.748925 412.219850 Z" />
</g>
<g fill="rgb(68.013117, 169.994961, 0.010760)">
<!--fid=139-->
<path d="M 497.500000 401.500000 Q 429.530747 258.811933 324.881622 140.726841 Q 407.918731 274.904019 496.883818 405.103389 Q 497.095402 403.514186 497.500000 401.500000 Z" />
</g>
<g fill="rgb(254.934211, 254.925752, 254.832707)">
<!--fid=140-->
<path d="M 584.346758 65.752150 Q 516.173171 33.413181 448.519597 0.000000 Q 501.741777 32.054461 549.682303 64.870869 Q 563.845302 69.643840 584.346758 65.752150 Z" />
</g>
<g fill="rgb(68.273073, 169.920887, 0.513500)">
<!--fid=141-->
<path d="M 416.500000 370.500000 Q 370.466982 255.831683 324.881622 140.726841 Q 334.005730 248.622609 362.507726 352.476094 Q 389.682696 360.792481 416.500000 370.500000 Z" />
</g>
<g fill="rgb(248.937173, 253.122164, 245.174521)">
<!--fid=142-->
<path d="M 512.500000 223.500000 Q 520.416016 201.084057 523.500000 177.500000 Q 519.496461 165.097667 506.109555 166.564593 Q 510.450463 194.831431 512.500000 223.500000 Z" />
</g>
<g fill="rgb(251.911171, 254.144011, 250.049798)">
<!--fid=143-->
<path d="M 506.109555 166.564593 Q 523.169154 141.644377 536.953401 115.222182 Q 518.044113 139.770016 494.040151 120.819523 Q 502.069043 143.048641 506.109555 166.564593 Z" />
</g>
<g fill="rgb(68.192727, 169.540185, 0.944048)">
<!--fid=144-->
<path d="M 523.500000 177.500000 Q 609.193479 121.751731 709.383030 102.870021 Q 695.315599 74.323407 665.879485 62.046887 Q 593.310877 118.072994 523.500000 177.500000 Z" />
</g>
<g fill="rgb(237.057008, 246.408552, 232.767222)">
<!--fid=145-->
<path d="M 520.500000 258.500000 Q 521.993480 218.017852 523.500000 177.500000 Q 520.416016 201.084057 512.500000 223.500000 Q 514.230148 241.528021 520.500000 258.500000 Z" />
</g>
<g fill="rgb(254.732373, 254.858226, 254.617892)">
<!--fid=146-->
<path d="M 536.953401 115.222182 Q 517.288627 94.759383 495.500000 78.000000 Q 490.386469 98.751705 494.040151 120.819523 Q 518.044113 139.770016 536.953401 115.222182 Z" />
</g>
<g fill="rgb(242.617711, 249.004320, 239.764579)">
<!--fid=147-->
<path d="M 536.953401 115.222182 Q 523.169154 141.644377 506.109555 166.564593 Q 519.496461 165.097667 523.500000 177.500000 Q 525.942962 144.576938 536.953401 115.222182 Z" />
</g>
<g fill="rgb(68.279738, 169.339577, 1.219404)">
<!--fid=148-->
<path d="M 709.383030 102.870021 Q 685.142315 252.444652 642.432637 398.069105 Q 684.661016 288.534537 722.922594 178.376639 Q 724.918069 137.912615 709.383030 102.870021 Z" />
</g>
<g fill="rgb(254.969719, 254.977381, 254.962058)">
<!--fid=149-->
<path d="M 448.519597 0.000000 Q 516.173171 33.413181 584.346758 65.752150 Q 608.836720 51.725355 590.139935 42.933112 Q 551.000000 15.625000 448.519597 0.000000 Z" />
</g>
<g fill="rgb(73.921804, 169.996056, 11.293049)">
<!--fid=150-->
<path d="M 520.500000 258.500000 Q 537.692386 230.886411 557.866267 205.385643 Q 546.335292 210.574956 523.500000 177.500000 Q 521.993480 218.017852 520.500000 258.500000 Z" />
</g>
<g fill="rgb(227.635469, 242.817735, 215.770937)">
<!--fid=151-->
<path d="M 510.500000 310.500000 Q 514.616265 284.329887 520.500000 258.500000 Q 514.230148 241.528021 512.500000 223.500000 Q 512.433843 267.232266 510.500000 310.500000 Z" />
</g>
<g fill="rgb(253.044935, 254.469916, 252.143184)">
<!--fid=152-->
<path d="M 642.432637 398.069105 Q 688.814812 404.942537 735.322167 410.910458 Q 708.509239 394.475995 733.225584 372.961792 Q 689.794887 389.805469 642.432637 398.069105 Z" />
</g>
<g fill="rgb(68.150261, 169.924330, 0.303792)">
<!--fid=153-->
<path d="M 639.546589 710.248002 Q 671.784993 555.478164 735.322167 410.910458 Q 661.812398 546.155454 597.673647 686.194092 Q 616.210194 703.582165 639.546589 710.248002 Z" />
</g>
<g fill="rgb(252.208403, 254.126891, 250.510084)">
<!--fid=154-->
<path d="M 815.699611 372.270800 Q 803.227703 394.299237 779.260958 418.893042 Q 808.701614 429.805412 821.964711 458.607966 Q 809.937948 414.956280 815.699611 372.270800 Z" />
</g>
<g fill="rgb(68.137943, 169.780231, 0.555926)">
<!--fid=155-->
<path d="M 709.383030 102.870021 Q 658.612617 261.349764 578.500000 407.500000 Q 611.029190 404.352345 642.432637 398.069105 Q 685.142315 252.444652 709.383030 102.870021 Z" />
</g>
<g fill="rgb(71.027517, 166.447624, 9.826455)">
<!--fid=156-->
<path d="M 771.736424 162.915237 Q 811.188266 198.375078 842.090212 241.551857 Q 837.730899 215.375562 821.091605 194.622801 Q 801.551427 169.866559 771.736424 162.915237 Z" />
</g>
<g fill="rgb(252.615194, 254.066887, 252.014038)">
<!--fid=157-->
<path d="M 733.225584 372.961792 Q 782.145518 361.714390 815.699611 372.270800 Q 820.610076 349.661697 796.953700 338.231670 Q 768.343718 360.752104 733.225584 372.961792 Z" />
</g>
<g fill="rgb(254.461630, 254.828904, 254.308749)">
<!--fid=158-->
<path d="M 1024.000000 530.809453 Q 927.557736 380.349330 842.090212 241.551857 Q 845.619040 265.084956 836.987013 287.906599 Q 935.901915 395.199916 1024.000000 530.809453 Z" />
</g>
<g fill="rgb(68.179527, 169.706839, 0.650919)">
<!--fid=159-->
<path d="M 722.922594 178.376639 Q 722.188708 275.883167 733.225584 372.961792 Q 768.343718 360.752104 796.953700 338.231670 Q 775.360420 251.412358 722.922594 178.376639 Z" />
</g>
<g fill="rgb(254.820220, 254.891031, 254.683714)">
<!--fid=160-->
<path d="M 735.322167 410.910458 Q 786.999681 400.638299 815.699611 372.270800 Q 782.145518 361.714390 733.225584 372.961792 Q 708.509239 394.475995 735.322167 410.910458 Z" />
</g>
<g fill="rgb(68.748880, 168.919668, 2.375843)">
<!--fid=161-->
<path d="M 771.736424 162.915237 Q 810.606959 222.011351 836.987013 287.906599 Q 845.619040 265.084956 842.090212 241.551857 Q 811.188266 198.375078 771.736424 162.915237 Z" />
</g>
<g fill="rgb(68.614232, 169.541482, 1.785235)">
<!--fid=162-->
<path d="M 665.879485 62.046887 Q 599.936203 85.010053 536.953401 115.222182 Q 525.942962 144.576938 523.500000 177.500000 Q 593.310877 118.072994 665.879485 62.046887 Z" />
</g>
<g fill="rgb(68.005862, 169.981697, 0.028012)">
<!--fid=163-->
<path d="M 709.383030 102.870021 Q 609.193479 121.751731 523.500000 177.500000 Q 546.335292 210.574956 557.866267 205.385643 Q 646.858067 150.397514 709.383030 102.870021 Z" />
</g>
<g fill="rgb(254.622236, 254.933034, 254.474848)">
<!--fid=164-->
<path d="M 831.595822 0.000000 Q 778.451344 84.661718 722.922594 178.376639 Q 746.165234 157.699792 771.736424 162.915237 Q 797.679000 76.810118 831.595822 0.000000 Z" />
</g>
<g fill="rgb(252.762670, 254.184178, 251.745365)">
<!--fid=165-->
<path d="M 726.308714 69.531329 Q 711.993850 70.606883 665.879485 62.046887 Q 695.315599 74.323407 709.383030 102.870021 Q 726.428552 69.638273 726.308714 69.531329 Z" />
</g>
<g fill="rgb(253.935215, 254.568718, 253.486812)">
<!--fid=166-->
<path d="M 923.111595 140.492333 Q 854.382505 151.483182 771.736424 162.915237 Q 801.551427 169.866559 821.091605 194.622801 Q 873.952294 152.056712 923.111595 140.492333 Z" />
</g>
<g fill="rgb(68.131246, 169.552143, 0.844786)">
<!--fid=167-->
<path d="M 836.987013 287.906599 Q 791.573106 221.576597 722.922594 178.376639 Q 775.360420 251.412358 796.953700 338.231670 Q 824.229072 317.590713 836.987013 287.906599 Z" />
</g>
<g fill="rgb(254.980839, 254.995438, 254.975821)">
<!--fid=168-->
<path d="M 771.736424 162.915237 Q 854.382505 151.483182 923.111595 140.492333 Q 872.635665 126.332969 812.021330 131.915939 Q 797.008549 151.571471 771.736424 162.915237 Z" />
</g>
<g fill="rgb(255.000000, 255.000000, 255.000000)">
<!--fid=169-->
<path d="M 812.021330 131.915939 Q 918.010665 65.957969 1024.000000 0.000000 Q 927.797911 0.000000 831.595822 0.000000 Q 829.000000 64.708333 812.021330 131.915939 Z" />
</g>
<g fill="rgb(68.220391, 169.409977, 1.131788)">
<!--fid=170-->
<path d="M 836.987013 287.906599 Q 810.606959 222.011351 771.736424 162.915237 Q 746.165234 157.699792 722.922594 178.376639 Q 791.573106 221.576597 836.987013 287.906599 Z" />
</g>
<g fill="rgb(254.873840, 254.933998, 254.777931)">
<!--fid=171-->
<path d="M 665.879485 62.046887 Q 751.956896 24.699651 831.595822 0.000000 Q 719.339878 27.452319 590.139935 42.933112 Q 626.965043 50.009264 665.879485 62.046887 Z" />
</g>
<g fill="rgb(255.000000, 255.000000, 255.000000)">
<!--fid=172-->
<path d="M 1024.000000 0.000000 Q 978.625000 60.375000 923.111595 140.492333 Q 978.625000 316.125000 1024.000000 530.809453 Q 1024.000000 265.404727 1024.000000 0.000000 Z" />
</g>
<g fill="rgb(244.384886, 251.627417, 238.688929)">
<!--fid=173-->
<path d="M 735.322167 410.910458 Q 688.814812 404.942537 642.432637 398.069105 Q 653.183907 405.773545 663.467534 413.224934 Q 699.384745 410.331198 735.322167 410.910458 Z" />
</g>
<g fill="rgb(251.437923, 254.386005, 250.058691)">
<!--fid=174-->
<path d="M 591.523607 417.841690 Q 617.969230 410.511614 642.432637 398.069105 Q 611.029190 404.352345 578.500000 407.500000 Q 582.560244 415.804640 591.523607 417.841690 Z" />
</g>
<g fill="rgb(254.897952, 254.934823, 254.823464)">
<!--fid=175-->
<path d="M 498.500000 804.500000 Q 539.391855 738.298267 597.673647 686.194092 Q 571.789041 672.169963 555.203008 679.039289 Q 522.049100 739.575201 498.500000 804.500000 Z" />
</g>
<g fill="rgb(255.000000, 255.000000, 255.000000)">
<!--fid=176-->
<path d="M 883.892133 833.219268 Q 779.529065 778.701350 666.682973 736.977337 Q 649.996944 777.682216 645.000000 818.000000 Q 765.625000 826.125000 883.892133 833.219268 Z" />
</g>
<g fill="rgb(254.986738, 254.983896, 254.970950)">
<!--fid=177-->
<path d="M 832.732732 527.809712 Q 928.340945 530.930430 1024.000000 530.809453 Q 958.500000 505.500000 859.475283 506.760236 Q 857.841000 505.147192 832.732732 527.809712 Z" />
</g>
<g fill="rgb(254.999919, 254.999704, 254.999784)">
<!--fid=178-->
<path d="M 883.892133 833.219268 Q 730.399061 890.940573 572.836690 942.291971 Q 797.698604 987.123195 1024.000000 1024.000000 Q 955.125000 929.125000 883.892133 833.219268 Z" />
</g>
<g fill="rgb(254.999366, 254.999937, 254.999240)">
<!--fid=179-->
<path d="M 572.836690 942.291971 Q 730.399061 890.940573 883.892133 833.219268 Q 765.625000 826.125000 645.000000 818.000000 Q 605.838728 878.554681 572.836690 942.291971 Z" />
</g>
<g fill="rgb(254.273856, 254.793330, 254.026290)">
<!--fid=180-->
<path d="M 722.922594 178.376639 Q 778.451344 84.661718 831.595822 0.000000 Q 787.582070 58.613231 709.383030 102.870021 Q 724.918069 137.912615 722.922594 178.376639 Z" />
</g>
<g fill="rgb(254.546768, 254.915589, 254.125095)">
<!--fid=181-->
<path d="M 0.000000 496.955065 Q 113.852987 574.910225 224.689114 643.325682 Q 211.758787 626.312225 209.970516 604.315335 Q 102.404548 563.215423 0.000000 496.955065 Z" />
</g>
<g fill="rgb(252.572869, 254.377635, 251.088909)">
<!--fid=182-->
<path d="M 375.728413 39.600075 Q 327.145388 46.081077 285.104573 36.024506 Q 308.811212 47.074397 322.477198 76.341386 Q 341.068974 48.456058 375.728413 39.600075 Z" />
</g>
<g fill="rgb(254.812931, 254.944886, 254.577107)">
<!--fid=183-->
<path d="M 285.104573 36.024506 Q 327.145388 46.081077 375.728413 39.600075 Q 445.609440 22.785642 448.519597 0.000000 Q 398.619498 25.193581 285.104573 36.024506 Z" />
</g>
<g fill="rgb(255.000000, 255.000000, 255.000000)">
<!--fid=184-->
<path d="M 227.338575 674.815143 Q 117.917119 592.697102 0.000000 496.955065 Q 81.166667 645.250000 163.752672 763.173785 Q 189.388889 738.166667 227.338575 674.815143 Z" />
</g>
<g fill="rgb(254.995257, 254.997242, 254.991870)">
<!--fid=185-->
<path d="M 571.867442 960.055694 Q 283.792916 974.777433 0.000000 1024.000000 Q 280.433937 1024.000000 560.867874 1024.000000 Q 556.504762 996.925278 571.867442 960.055694 Z" />
</g>
<g fill="rgb(247.145078, 251.953368, 243.148964)">
<!--fid=186-->
<path d="M 821.964711 458.607966 Q 837.319469 493.387917 832.732732 527.809712 Q 857.841000 505.147192 859.475283 506.760236 Q 846.947812 491.969685 821.964711 458.607966 Z" />
</g>
<g fill="rgb(254.290980, 254.794374, 253.873666)">
<!--fid=187-->
<path d="M 797.172442 575.159515 Q 910.241691 551.222392 1024.000000 530.809453 Q 928.340945 530.930430 832.732732 527.809712 Q 824.490809 558.636630 797.172442 575.159515 Z" />
</g>
<g fill="rgb(254.862080, 254.924857, 254.753963)">
<!--fid=188-->
<path d="M 376.943078 670.731127 Q 441.246872 653.841288 458.124756 587.526566 Q 412.293569 604.346660 374.263495 635.252173 Q 371.387516 662.281669 376.943078 670.731127 Z" />
</g>
<g fill="rgb(248.895288, 253.009162, 245.537959)">
<!--fid=189-->
<path d="M 374.263495 635.252173 Q 350.032907 671.608320 314.204324 676.997557 Q 348.196353 677.050796 376.943078 670.731127 Q 371.387516 662.281669 374.263495 635.252173 Z" />
</g>
<g fill="rgb(248.615578, 252.444724, 245.462312)">
<!--fid=190-->
<path d="M 755.344844 697.269308 Q 750.263100 674.547102 748.568839 644.049713 Q 741.061123 674.089297 717.334087 693.133347 Q 754.262063 696.687708 755.344844 697.269308 Z" />
</g>
<g fill="rgb(243.462665, 250.408492, 238.456809)">
<!--fid=191-->
<path d="M 666.682973 736.977337 Q 691.153023 715.678153 717.334087 693.133347 Q 682.484515 721.101956 639.546589 710.248002 Q 659.735660 719.871546 666.682973 736.977337 Z" />
</g>
<g fill="rgb(250.235546, 253.263383, 248.880086)">
<!--fid=192-->
<path d="M 821.091605 194.622801 Q 837.730899 215.375562 842.090212 241.551857 Q 841.912097 209.261910 845.165938 192.596492 Q 844.231118 193.205810 821.091605 194.622801 Z" />
</g>
<g fill="rgb(254.995694, 254.997280, 254.993881)">
<!--fid=193-->
<path d="M 842.090212 241.551857 Q 927.557736 380.349330 1024.000000 530.809453 Q 978.625000 316.125000 923.111595 140.492333 Q 882.896856 185.208625 842.090212 241.551857 Z" />
</g>
<g fill="rgb(254.953880, 254.986978, 254.926750)">
<!--fid=194-->
<path d="M 229.684835 368.072202 Q 225.862187 330.975243 214.000000 295.666667 Q 191.758387 305.095569 186.562711 334.544241 Q 195.593230 359.816262 229.684835 368.072202 Z" />
</g>
<g fill="rgb(252.875304, 254.425911, 251.626721)">
<!--fid=195-->
<path d="M 114.574960 98.326500 Q 155.137134 168.313238 201.773675 245.464124 Q 194.975092 221.768934 196.086363 197.355155 Q 145.126582 149.566990 114.574960 98.326500 Z" />
</g>
<g fill="rgb(254.729916, 254.943475, 254.531625)">
<!--fid=196-->
<path d="M 597.673647 686.194092 Q 560.718561 779.822009 529.500000 875.500000 Q 591.998546 797.985181 639.546589 710.248002 Q 616.210194 703.582165 597.673647 686.194092 Z" />
</g>
<g fill="rgb(254.949069, 254.977915, 254.909105)">
<!--fid=197-->
<path d="M 883.892133 833.219268 Q 801.792043 763.691673 717.334087 693.133347 Q 691.153023 715.678153 666.682973 736.977337 Q 779.529065 778.701350 883.892133 833.219268 Z" />
</g>
<g fill="rgb(255.000000, 255.000000, 255.000000)">
<!--fid=198-->
<path d="M 0.000000 0.000000 Q 90.521965 163.619647 186.562711 334.544241 Q 138.875000 212.375000 114.574960 98.326500 Q 48.875000 49.375000 0.000000 0.000000 Z" />
</g>
<g fill="rgb(254.992669, 254.994706, 254.986886)">
<!--fid=199-->
<path d="M 186.562711 334.544241 Q 90.521965 163.619647 0.000000 0.000000 Q 71.856916 206.130045 158.587585 406.697498 Q 177.767972 368.687324 186.562711 334.544241 Z" />
</g>
<g fill="rgb(254.992091, 254.998102, 254.991458)">
<!--fid=200-->
<path d="M 831.595822 0.000000 Q 797.679000 76.810118 771.736424 162.915237 Q 797.008549 151.571471 812.021330 131.915939 Q 829.000000 64.708333 831.595822 0.000000 Z" />
</g>
<g fill="rgb(254.931106, 254.967641, 254.850731)">
<!--fid=201-->
<path d="M 923.111595 140.492333 Q 873.952294 152.056712 821.091605 194.622801 Q 844.231118 193.205810 845.165938 192.596492 Q 899.500000 153.166667 923.111595 140.492333 Z" />
</g>
<g fill="rgb(73.442831, 166.272354, 15.106030)">
<!--fid=202-->
<path d="M 513.748925 412.219850 Q 513.928995 375.380423 515.500000 338.500000 Q 510.593789 373.944271 496.883818 405.103389 Q 509.310213 396.149153 513.748925 412.219850 Z" />
</g>
<g fill="rgb(68.051286, 169.729598, 0.435780)">
<!--fid=203-->
<path d="M 722.922594 178.376639 Q 684.661016 288.534537 642.432637 398.069105 Q 689.794887 389.805469 733.225584 372.961792 Q 722.188708 275.883167 722.922594 178.376639 Z" />
</g>
<g fill="rgb(254.971616, 254.990721, 254.930677)">
<!--fid=204-->
<path d="M 709.383030 102.870021 Q 787.582070 58.613231 831.595822 0.000000 Q 801.500622 25.098146 726.308714 69.531329 Q 726.428552 69.638273 709.383030 102.870021 Z" />
</g>
<g fill="rgb(255.000000, 255.000000, 255.000000)">
<!--fid=205-->
<path d="M 590.139935 42.933112 Q 719.339878 27.452319 831.595822 0.000000 Q 640.057710 0.000000 448.519597 0.000000 Q 551.000000 15.625000 590.139935 42.933112 Z" />
</g>
<g fill="rgb(255.000000, 255.000000, 255.000000)">
<!--fid=206-->
<path d="M 448.519597 0.000000 Q 330.362702 0.000000 212.205808 0.000000 Q 234.687500 14.812500 285.104573 36.024506 Q 398.619498 25.193581 448.519597 0.000000 Z" />
</g>
<g fill="rgb(254.100123, 254.740321, 253.476202)">
<!--fid=207-->
<path d="M 324.881622 140.726841 Q 259.791978 67.299808 212.205808 0.000000 Q 238.349973 61.744934 252.516356 137.725016 Q 288.209775 132.692840 324.881622 140.726841 Z" />
</g>
<g fill="rgb(71.408089, 168.965680, 7.946606)">
<!--fid=208-->
<path d="M 515.500000 338.500000 Q 534.732001 271.320370 557.866267 205.385643 Q 537.692386 230.886411 520.500000 258.500000 Q 520.344781 298.583256 515.500000 338.500000 Z" />
</g>
<g fill="rgb(68.007254, 169.980715, 0.029001)">
<!--fid=209-->
<path d="M 515.500000 338.500000 Q 612.381379 220.706205 709.383030 102.870021 Q 646.858067 150.397514 557.866267 205.385643 Q 534.732001 271.320370 515.500000 338.500000 Z" />
</g>
<g fill="rgb(254.968283, 254.986539, 254.946893)">
<!--fid=210-->
<path d="M 201.773675 245.464124 Q 155.137134 168.313238 114.574960 98.326500 Q 138.875000 212.375000 186.562711 334.544241 Q 188.046975 282.183232 201.773675 245.464124 Z" />
</g>
<g fill="rgb(253.945408, 254.671939, 253.390816)">
<!--fid=211-->
<path d="M 196.086363 197.355155 Q 197.133709 177.733832 208.293607 161.138790 Q 149.888812 135.612439 114.574960 98.326500 Q 145.126582 149.566990 196.086363 197.355155 Z" />
</g>
<g fill="rgb(242.463266, 250.597959, 236.022450)">
<!--fid=212-->
<path d="M 260.286880 315.349667 Q 215.185514 290.574013 201.773675 245.464124 Q 207.731678 270.626021 214.000000 295.666667 Q 237.464640 304.758355 260.286880 315.349667 Z" />
</g>
<g fill="rgb(254.725888, 254.826396, 254.372589)">
<!--fid=213-->
<path d="M 201.773675 245.464124 Q 188.046975 282.183232 186.562711 334.544241 Q 191.758387 305.095569 214.000000 295.666667 Q 207.731678 270.626021 201.773675 245.464124 Z" />
</g>
<g fill="rgb(246.734654, 251.649505, 244.663367)">
<!--fid=214-->
<path d="M 584.346758 65.752150 Q 563.845302 69.643840 549.682303 64.870869 Q 544.933365 87.973130 536.953401 115.222182 Q 550.280360 79.536912 584.346758 65.752150 Z" />
</g>
<g fill="rgb(254.964625, 254.966527, 254.922784)">
<!--fid=215-->
<path d="M 549.682303 64.870869 Q 501.741777 32.054461 448.519597 0.000000 Q 462.558928 17.975859 447.810992 53.716947 Q 498.431055 60.681795 549.682303 64.870869 Z" />
</g>
<g fill="rgb(254.937090, 254.989965, 254.905056)">
<!--fid=216-->
<path d="M 556.460165 633.262289 Q 503.277218 675.304308 480.969395 739.409933 Q 512.273121 712.707600 555.203008 679.039289 Q 565.043688 662.387702 556.460165 633.262289 Z" />
</g>
<g fill="rgb(254.993225, 254.997629, 254.982554)">
<!--fid=217-->
<path d="M 639.546589 710.248002 Q 585.795174 820.562355 572.836690 942.291971 Q 605.838728 878.554681 645.000000 818.000000 Q 644.654354 764.161900 639.546589 710.248002 Z" />
</g>
<g fill="rgb(254.881384, 254.928336, 254.782537)">
<!--fid=218-->
<path d="M 549.682303 64.870869 Q 498.431055 60.681795 447.810992 53.716947 Q 470.695451 66.995205 495.500000 78.000000 Q 524.112219 84.163669 549.682303 64.870869 Z" />
</g>
<g fill="rgb(247.942458, 252.790047, 243.889581)">
<!--fid=219-->
<path d="M 447.810992 53.716947 Q 480.215347 79.479022 494.040151 120.819523 Q 490.386469 98.751705 495.500000 78.000000 Q 470.695451 66.995205 447.810992 53.716947 Z" />
</g>
<g fill="rgb(249.056000, 253.006000, 245.780000)">
<!--fid=220-->
<path d="M 223.096374 125.527815 Q 216.166685 138.126145 208.293607 161.138790 Q 225.923941 142.665878 252.516356 137.725016 Q 229.914389 129.211401 223.096374 125.527815 Z" />
</g>
<g fill="rgb(254.962719, 254.990132, 254.952120)">
<!--fid=221-->
<path d="M 252.516356 137.725016 Q 238.349973 61.744934 212.205808 0.000000 Q 202.000000 53.125000 223.096374 125.527815 Q 229.914389 129.211401 252.516356 137.725016 Z" />
</g>
<g fill="rgb(238.284672, 246.105840, 234.516424)">
<!--fid=222-->
<path d="M 584.346758 65.752150 Q 625.646073 51.911205 665.879485 62.046887 Q 626.965043 50.009264 590.139935 42.933112 Q 608.836720 51.725355 584.346758 65.752150 Z" />
</g>
<g fill="rgb(254.979021, 254.987013, 254.959374)">
<!--fid=223-->
<path d="M 831.595822 0.000000 Q 751.956896 24.699651 665.879485 62.046887 Q 711.993850 70.606883 726.308714 69.531329 Q 801.500622 25.098146 831.595822 0.000000 Z" />
</g>
<g fill="rgb(254.812894, 254.887877, 254.606868)">
<!--fid=224-->
<path d="M 859.475283 506.760236 Q 833.397873 447.865825 815.699611 372.270800 Q 809.937948 414.956280 821.964711 458.607966 Q 846.947812 491.969685 859.475283 506.760236 Z" />
</g>
<g fill="rgb(250.515504, 253.129199, 249.381137)">
<!--fid=225-->
<path d="M 836.987013 287.906599 Q 824.229072 317.590713 796.953700 338.231670 Q 820.610076 349.661697 815.699611 372.270800 Q 825.248437 329.296397 836.987013 287.906599 Z" />
</g>
<g fill="rgb(254.896325, 254.951179, 254.845858)">
<!--fid=226-->
<path d="M 842.090212 241.551857 Q 882.896856 185.208625 923.111595 140.492333 Q 899.500000 153.166667 845.165938 192.596492 Q 841.912097 209.261910 842.090212 241.551857 Z" />
</g>
<g fill="rgb(255.000000, 255.000000, 255.000000)">
<!--fid=227-->
<path d="M 1024.000000 0.000000 Q 918.010665 65.957969 812.021330 131.915939 Q 872.635665 126.332969 923.111595 140.492333 Q 978.625000 60.375000 1024.000000 0.000000 Z" />
</g>
</svg>
