<svg xmlns="http://www.w3.org/2000/svg" xmlns:xlink="http://www.w3.org/1999/xlink"
  width="1044" height="1044" viewBox="0 0 1044 1044">
<metadata>
  Created by Xiao, Yanyang (yanyangxiaoxyy@gmail.com)
  All copyrights reserved
</metadata>
<g fill="none" stroke="rgb(50.000000, 50.000000, 250.000000)" stroke-width="2.000000" stroke-linecap="round">
<!--eid=0-->
<path d="M 172.333333 789.000000 Q 91.166667 655.250000 10.000000 521.500000"/>
<!--eid=1-->
<path d="M 219.500000 614.500000 Q 195.916667 701.750000 172.333333 789.000000"/>
<!--eid=2-->
<path d="M 10.000000 521.500000 Q 10.000000 777.750000 10.000000 1034.000000"/>
<!--eid=3-->
<path d="M 322.500000 687.500000 Q 247.416667 738.250000 172.333333 789.000000"/>
<!--eid=4-->
<path d="M 272.500000 679.500000 Q 253.500000 666.500000 234.500000 653.500000"/>
<!--eid=5-->
<path d="M 272.500000 679.500000 Q 297.500000 683.500000 322.500000 687.500000"/>
<!--eid=6-->
<path d="M 322.500000 687.500000 Q 353.500000 666.500000 384.500000 645.500000"/>
<!--eid=7-->
<path d="M 384.500000 645.500000 Q 328.500000 662.500000 272.500000 679.500000"/>
<!--eid=8-->
<path d="M 505.500000 840.500000 Q 338.916667 814.750000 172.333333 789.000000"/>
<!--eid=9-->
<path d="M 468.500000 680.500000 Q 432.166667 689.000000 395.833333 697.500000"/>
<!--eid=10-->
<path d="M 505.500000 840.500000 Q 450.666667 769.000000 395.833333 697.500000"/>
<!--eid=11-->
<path d="M 272.500000 679.500000 Q 246.000000 647.000000 219.500000 614.500000"/>
<!--eid=12-->
<path d="M 219.500000 614.500000 Q 227.000000 634.000000 234.500000 653.500000"/>
<!--eid=13-->
<path d="M 522.500000 1034.000000 Q 347.416667 911.500000 172.333333 789.000000"/>
<!--eid=14-->
<path d="M 505.500000 840.500000 Q 414.000000 764.000000 322.500000 687.500000"/>
<!--eid=15-->
<path d="M 384.500000 645.500000 Q 302.000000 630.000000 219.500000 614.500000"/>
<!--eid=16-->
<path d="M 10.000000 521.500000 Q 96.250000 529.000000 182.500000 536.500000"/>
<!--eid=17-->
<path d="M 182.500000 536.500000 Q 167.500000 510.000000 152.500000 483.500000"/>
<!--eid=18-->
<path d="M 89.250000 469.000000 Q 135.875000 502.750000 182.500000 536.500000"/>
<!--eid=19-->
<path d="M 10.000000 521.500000 Q 114.750000 568.000000 219.500000 614.500000"/>
<!--eid=20-->
<path d="M 219.500000 614.500000 Q 201.000000 575.500000 182.500000 536.500000"/>
<!--eid=21-->
<path d="M 182.500000 536.500000 Q 208.000000 540.500000 233.500000 544.500000"/>
<!--eid=22-->
<path d="M 233.500000 544.500000 Q 193.000000 514.000000 152.500000 483.500000"/>
<!--eid=23-->
<path d="M 152.500000 483.500000 Q 160.500000 450.000000 168.500000 416.500000"/>
<!--eid=24-->
<path d="M 89.250000 469.000000 Q 49.625000 495.250000 10.000000 521.500000"/>
<!--eid=25-->
<path d="M 384.500000 645.500000 Q 309.000000 595.000000 233.500000 544.500000"/>
<!--eid=26-->
<path d="M 233.500000 544.500000 Q 226.500000 579.500000 219.500000 614.500000"/>
<!--eid=27-->
<path d="M 384.500000 645.500000 Q 397.500000 622.000000 410.500000 598.500000"/>
<!--eid=28-->
<path d="M 410.500000 598.500000 Q 322.000000 571.500000 233.500000 544.500000"/>
<!--eid=29-->
<path d="M 233.500000 544.500000 Q 201.000000 480.500000 168.500000 416.500000"/>
<!--eid=30-->
<path d="M 434.500000 541.500000 Q 334.000000 543.000000 233.500000 544.500000"/>
<!--eid=31-->
<path d="M 410.500000 598.500000 Q 422.500000 570.000000 434.500000 541.500000"/>
<!--eid=32-->
<path d="M 384.500000 645.500000 Q 426.500000 663.000000 468.500000 680.500000"/>
<!--eid=33-->
<path d="M 468.500000 680.500000 Q 439.500000 639.500000 410.500000 598.500000"/>
<!--eid=34-->
<path d="M 468.500000 680.500000 Q 468.000000 639.000000 467.500000 597.500000"/>
<!--eid=35-->
<path d="M 467.500000 597.500000 Q 439.000000 598.000000 410.500000 598.500000"/>
<!--eid=36-->
<path d="M 467.500000 597.500000 Q 451.000000 569.500000 434.500000 541.500000"/>
<!--eid=37-->
<path d="M 479.500000 667.500000 Q 474.000000 674.000000 468.500000 680.500000"/>
<!--eid=38-->
<path d="M 468.500000 680.500000 Q 479.500000 715.000000 490.500000 749.500000"/>
<!--eid=39-->
<path d="M 490.500000 749.500000 Q 485.000000 708.500000 479.500000 667.500000"/>
<!--eid=40-->
<path d="M 467.500000 597.500000 Q 473.500000 632.500000 479.500000 667.500000"/>
<!--eid=41-->
<path d="M 479.500000 667.500000 Q 479.500000 631.000000 479.500000 594.500000"/>
<!--eid=42-->
<path d="M 479.500000 594.500000 Q 473.500000 596.000000 467.500000 597.500000"/>
<!--eid=43-->
<path d="M 490.500000 749.500000 Q 485.500000 754.500000 480.500000 759.500000"/>
<!--eid=44-->
<path d="M 480.500000 759.500000 Q 494.500000 787.000000 508.500000 814.500000"/>
<!--eid=45-->
<path d="M 508.500000 814.500000 Q 499.500000 782.000000 490.500000 749.500000"/>
<!--eid=46-->
<path d="M 505.500000 840.500000 Q 493.000000 800.000000 480.500000 759.500000"/>
<!--eid=47-->
<path d="M 479.500000 667.500000 Q 523.000000 655.500000 566.500000 643.500000"/>
<!--eid=48-->
<path d="M 566.500000 643.500000 Q 523.000000 619.000000 479.500000 594.500000"/>
<!--eid=49-->
<path d="M 468.500000 680.500000 Q 474.500000 720.000000 480.500000 759.500000"/>
<!--eid=50-->
<path d="M 554.833333 696.500000 Q 517.166667 682.000000 479.500000 667.500000"/>
<!--eid=51-->
<path d="M 434.500000 541.500000 Q 456.000000 526.500000 477.500000 511.500000"/>
<!--eid=52-->
<path d="M 477.500000 511.500000 Q 469.500000 498.500000 461.500000 485.500000"/>
<!--eid=53-->
<path d="M 461.500000 485.500000 Q 448.000000 513.500000 434.500000 541.500000"/>
<!--eid=54-->
<path d="M 467.500000 597.500000 Q 472.500000 554.500000 477.500000 511.500000"/>
<!--eid=55-->
<path d="M 477.500000 511.500000 Q 491.000000 478.500000 504.500000 445.500000"/>
<!--eid=56-->
<path d="M 504.500000 445.500000 Q 499.500000 443.500000 494.500000 441.500000"/>
<!--eid=57-->
<path d="M 494.500000 441.500000 Q 486.000000 476.500000 477.500000 511.500000"/>
<!--eid=58-->
<path d="M 434.500000 541.500000 Q 391.500000 460.000000 348.500000 378.500000"/>
<!--eid=59-->
<path d="M 348.500000 378.500000 Q 291.000000 461.500000 233.500000 544.500000"/>
<!--eid=60-->
<path d="M 479.500000 594.500000 Q 505.500000 577.000000 531.500000 559.500000"/>
<!--eid=61-->
<path d="M 531.500000 559.500000 Q 510.000000 538.500000 488.500000 517.500000"/>
<!--eid=62-->
<path d="M 488.500000 517.500000 Q 484.000000 556.000000 479.500000 594.500000"/>
<!--eid=63-->
<path d="M 504.500000 445.500000 Q 496.500000 481.500000 488.500000 517.500000"/>
<!--eid=64-->
<path d="M 488.500000 517.500000 Q 502.500000 509.500000 516.500000 501.500000"/>
<!--eid=65-->
<path d="M 516.500000 501.500000 Q 510.500000 473.500000 504.500000 445.500000"/>
<!--eid=66-->
<path d="M 477.500000 511.500000 Q 483.000000 514.500000 488.500000 517.500000"/>
<!--eid=67-->
<path d="M 467.500000 597.500000 Q 478.000000 557.500000 488.500000 517.500000"/>
<!--eid=68-->
<path d="M 461.500000 485.500000 Q 438.000000 439.000000 414.500000 392.500000"/>
<!--eid=69-->
<path d="M 414.500000 392.500000 Q 424.500000 467.000000 434.500000 541.500000"/>
<!--eid=70-->
<path d="M 506.500000 415.500000 Q 505.500000 430.500000 504.500000 445.500000"/>
<!--eid=71-->
<path d="M 504.500000 445.500000 Q 514.500000 434.000000 524.500000 422.500000"/>
<!--eid=72-->
<path d="M 524.500000 422.500000 Q 515.500000 419.000000 506.500000 415.500000"/>
<!--eid=73-->
<path d="M 10.000000 1034.000000 Q 266.250000 1034.000000 522.500000 1034.000000"/>
<!--eid=74-->
<path d="M 522.500000 1034.000000 Q 514.000000 937.250000 505.500000 840.500000"/>
<!--eid=75-->
<path d="M 494.500000 441.500000 Q 478.000000 463.500000 461.500000 485.500000"/>
<!--eid=76-->
<path d="M 190.000000 336.000000 Q 179.250000 376.250000 168.500000 416.500000"/>
<!--eid=77-->
<path d="M 168.500000 416.500000 Q 204.000000 397.000000 239.500000 377.500000"/>
<!--eid=78-->
<path d="M 224.000000 305.666667 Q 231.750000 341.583333 239.500000 377.500000"/>
<!--eid=79-->
<path d="M 233.500000 544.500000 Q 236.500000 461.000000 239.500000 377.500000"/>
<!--eid=80-->
<path d="M 270.500000 325.500000 Q 282.500000 349.500000 294.500000 373.500000"/>
<!--eid=81-->
<path d="M 294.500000 373.500000 Q 306.000000 359.500000 317.500000 345.500000"/>
<!--eid=82-->
<path d="M 317.500000 345.500000 Q 294.000000 335.500000 270.500000 325.500000"/>
<!--eid=83-->
<path d="M 270.500000 325.500000 Q 255.000000 351.500000 239.500000 377.500000"/>
<!--eid=84-->
<path d="M 239.500000 377.500000 Q 267.000000 375.500000 294.500000 373.500000"/>
<!--eid=85-->
<path d="M 294.500000 373.500000 Q 321.500000 376.000000 348.500000 378.500000"/>
<!--eid=86-->
<path d="M 348.500000 378.500000 Q 333.000000 362.000000 317.500000 345.500000"/>
<!--eid=87-->
<path d="M 333.500000 151.500000 Q 272.500000 203.500000 211.500000 255.500000"/>
<!--eid=88-->
<path d="M 211.500000 255.500000 Q 241.000000 290.500000 270.500000 325.500000"/>
<!--eid=89-->
<path d="M 270.500000 325.500000 Q 302.000000 238.500000 333.500000 151.500000"/>
<!--eid=90-->
<path d="M 233.500000 544.500000 Q 264.000000 459.000000 294.500000 373.500000"/>
<!--eid=91-->
<path d="M 211.500000 255.500000 Q 159.625000 182.125000 107.750000 108.750000"/>
<!--eid=92-->
<path d="M 211.500000 255.500000 Q 208.500000 231.500000 205.500000 207.500000"/>
<!--eid=93-->
<path d="M 107.750000 108.750000 Q 58.875000 59.375000 10.000000 10.000000"/>
<!--eid=94-->
<path d="M 10.000000 10.000000 Q 10.000000 265.750000 10.000000 521.500000"/>
<!--eid=95-->
<path d="M 107.750000 108.750000 Q 98.500000 288.875000 89.250000 469.000000"/>
<!--eid=96-->
<path d="M 211.500000 255.500000 Q 237.000000 201.500000 262.500000 147.500000"/>
<!--eid=97-->
<path d="M 262.500000 147.500000 Q 234.000000 177.500000 205.500000 207.500000"/>
<!--eid=98-->
<path d="M 205.500000 207.500000 Q 212.000000 189.500000 218.500000 171.500000"/>
<!--eid=99-->
<path d="M 197.750000 10.000000 Q 152.750000 59.375000 107.750000 108.750000"/>
<!--eid=100-->
<path d="M 262.500000 147.500000 Q 297.500000 117.000000 332.500000 86.500000"/>
<!--eid=101-->
<path d="M 226.250000 116.250000 Q 258.937500 77.937500 291.625000 39.625000"/>
<!--eid=102-->
<path d="M 226.250000 116.250000 Q 167.000000 112.500000 107.750000 108.750000"/>
<!--eid=103-->
<path d="M 262.500000 147.500000 Q 240.500000 159.500000 218.500000 171.500000"/>
<!--eid=104-->
<path d="M 333.500000 151.500000 Q 298.000000 149.500000 262.500000 147.500000"/>
<!--eid=105-->
<path d="M 333.500000 151.500000 Q 333.000000 119.000000 332.500000 86.500000"/>
<!--eid=106-->
<path d="M 332.500000 86.500000 Q 359.000000 68.000000 385.500000 49.500000"/>
<!--eid=107-->
<path d="M 197.750000 10.000000 Q 103.875000 10.000000 10.000000 10.000000"/>
<!--eid=108-->
<path d="M 317.500000 345.500000 Q 325.500000 248.500000 333.500000 151.500000"/>
<!--eid=109-->
<path d="M 426.500000 380.500000 Q 420.500000 386.500000 414.500000 392.500000"/>
<!--eid=110-->
<path d="M 414.500000 392.500000 Q 455.000000 405.000000 495.500000 417.500000"/>
<!--eid=111-->
<path d="M 495.500000 417.500000 Q 461.000000 399.000000 426.500000 380.500000"/>
<!--eid=112-->
<path d="M 414.500000 392.500000 Q 381.500000 385.500000 348.500000 378.500000"/>
<!--eid=113-->
<path d="M 414.500000 392.500000 Q 454.500000 417.000000 494.500000 441.500000"/>
<!--eid=114-->
<path d="M 494.500000 441.500000 Q 495.000000 429.500000 495.500000 417.500000"/>
<!--eid=115-->
<path d="M 426.500000 380.500000 Q 399.500000 371.500000 372.500000 362.500000"/>
<!--eid=116-->
<path d="M 372.500000 362.500000 Q 393.500000 377.500000 414.500000 392.500000"/>
<!--eid=117-->
<path d="M 495.500000 417.500000 Q 501.000000 416.500000 506.500000 415.500000"/>
<!--eid=118-->
<path d="M 506.500000 415.500000 Q 507.000000 413.500000 507.500000 411.500000"/>
<!--eid=119-->
<path d="M 507.500000 411.500000 Q 501.500000 414.500000 495.500000 417.500000"/>
<!--eid=120-->
<path d="M 494.500000 441.500000 Q 500.500000 428.500000 506.500000 415.500000"/>
<!--eid=121-->
<path d="M 525.500000 348.500000 Q 516.000000 382.000000 506.500000 415.500000"/>
<!--eid=122-->
<path d="M 524.500000 422.500000 Q 525.000000 385.500000 525.500000 348.500000"/>
<!--eid=123-->
<path d="M 520.500000 320.500000 Q 473.500000 350.500000 426.500000 380.500000"/>
<!--eid=124-->
<path d="M 426.500000 380.500000 Q 467.000000 396.000000 507.500000 411.500000"/>
<!--eid=125-->
<path d="M 507.500000 411.500000 Q 514.000000 366.000000 520.500000 320.500000"/>
<!--eid=126-->
<path d="M 520.500000 320.500000 Q 446.500000 341.500000 372.500000 362.500000"/>
<!--eid=127-->
<path d="M 317.500000 345.500000 Q 345.000000 354.000000 372.500000 362.500000"/>
<!--eid=128-->
<path d="M 372.500000 362.500000 Q 353.000000 257.000000 333.500000 151.500000"/>
<!--eid=129-->
<path d="M 348.500000 378.500000 Q 360.500000 370.500000 372.500000 362.500000"/>
<!--eid=130-->
<path d="M 504.500000 130.500000 Q 419.000000 141.000000 333.500000 151.500000"/>
<!--eid=131-->
<path d="M 333.500000 151.500000 Q 425.000000 164.000000 516.500000 176.500000"/>
<!--eid=132-->
<path d="M 516.500000 176.500000 Q 510.500000 153.500000 504.500000 130.500000"/>
<!--eid=133-->
<path d="M 333.500000 151.500000 Q 395.500000 107.500000 457.500000 63.500000"/>
<!--eid=134-->
<path d="M 457.500000 63.500000 Q 421.500000 56.500000 385.500000 49.500000"/>
<!--eid=135-->
<path d="M 385.500000 49.500000 Q 359.500000 100.500000 333.500000 151.500000"/>
<!--eid=136-->
<path d="M 504.500000 130.500000 Q 481.000000 97.000000 457.500000 63.500000"/>
<!--eid=137-->
<path d="M 504.500000 130.500000 Q 525.500000 127.500000 546.500000 124.500000"/>
<!--eid=138-->
<path d="M 505.500000 88.000000 Q 526.000000 106.250000 546.500000 124.500000"/>
<!--eid=139-->
<path d="M 457.500000 63.500000 Q 490.000000 36.750000 522.500000 10.000000"/>
<!--eid=140-->
<path d="M 522.500000 10.000000 Q 454.000000 29.750000 385.500000 49.500000"/>
<!--eid=141-->
<path d="M 522.500000 233.500000 Q 428.000000 192.500000 333.500000 151.500000"/>
<!--eid=142-->
<path d="M 372.500000 362.500000 Q 447.500000 298.000000 522.500000 233.500000"/>
<!--eid=143-->
<path d="M 507.500000 411.500000 Q 516.500000 380.000000 525.500000 348.500000"/>
<!--eid=144-->
<path d="M 525.500000 348.500000 Q 523.000000 334.500000 520.500000 320.500000"/>
<!--eid=145-->
<path d="M 272.500000 679.500000 Q 249.472222 693.416667 226.444444 707.333333"/>
<!--eid=146-->
<path d="M 505.500000 840.500000 Q 507.000000 827.500000 508.500000 814.500000"/>
<!--eid=147-->
<path d="M 537.500000 906.500000 Q 538.500000 896.000000 539.500000 885.500000"/>
<!--eid=148-->
<path d="M 539.500000 885.500000 Q 522.500000 863.000000 505.500000 840.500000"/>
<!--eid=149-->
<path d="M 505.500000 840.500000 Q 521.500000 873.500000 537.500000 906.500000"/>
<!--eid=150-->
<path d="M 537.500000 906.500000 Q 530.000000 970.250000 522.500000 1034.000000"/>
<!--eid=151-->
<path d="M 522.500000 1034.000000 Q 552.000000 1002.250000 581.500000 970.500000"/>
<!--eid=152-->
<path d="M 581.500000 970.500000 Q 559.500000 938.500000 537.500000 906.500000"/>
<!--eid=153-->
<path d="M 537.500000 906.500000 Q 560.000000 929.500000 582.500000 952.500000"/>
<!--eid=154-->
<path d="M 582.500000 952.500000 Q 561.000000 919.000000 539.500000 885.500000"/>
<!--eid=155-->
<path d="M 581.500000 970.500000 Q 582.000000 961.500000 582.500000 952.500000"/>
<!--eid=156-->
<path d="M 508.500000 814.500000 Q 581.750000 821.250000 655.000000 828.000000"/>
<!--eid=157-->
<path d="M 655.000000 828.000000 Q 597.250000 856.750000 539.500000 885.500000"/>
<!--eid=158-->
<path d="M 607.500000 696.500000 Q 631.250000 762.250000 655.000000 828.000000"/>
<!--eid=159-->
<path d="M 508.500000 814.500000 Q 524.000000 850.000000 539.500000 885.500000"/>
<!--eid=160-->
<path d="M 522.500000 1034.000000 Q 574.000000 1024.750000 625.500000 1015.500000"/>
<!--eid=161-->
<path d="M 625.500000 1015.500000 Q 603.500000 993.000000 581.500000 970.500000"/>
<!--eid=162-->
<path d="M 531.500000 559.500000 Q 524.000000 530.500000 516.500000 501.500000"/>
<!--eid=163-->
<path d="M 566.500000 643.500000 Q 549.000000 601.500000 531.500000 559.500000"/>
<!--eid=164-->
<path d="M 531.500000 559.500000 Q 566.500000 494.000000 601.500000 428.500000"/>
<!--eid=165-->
<path d="M 601.500000 428.500000 Q 559.000000 465.000000 516.500000 501.500000"/>
<!--eid=166-->
<path d="M 516.500000 501.500000 Q 520.500000 462.000000 524.500000 422.500000"/>
<!--eid=167-->
<path d="M 740.500000 605.500000 Q 636.000000 582.500000 531.500000 559.500000"/>
<!--eid=168-->
<path d="M 566.500000 643.500000 Q 653.500000 624.500000 740.500000 605.500000"/>
<!--eid=169-->
<path d="M 508.500000 814.500000 Q 531.666667 755.500000 554.833333 696.500000"/>
<!--eid=170-->
<path d="M 607.500000 696.500000 Q 587.000000 670.000000 566.500000 643.500000"/>
<!--eid=171-->
<path d="M 607.500000 696.500000 Q 674.000000 651.000000 740.500000 605.500000"/>
<!--eid=172-->
<path d="M 531.500000 559.500000 Q 602.500000 491.500000 673.500000 423.500000"/>
<!--eid=173-->
<path d="M 673.500000 423.500000 Q 637.500000 426.000000 601.500000 428.500000"/>
<!--eid=174-->
<path d="M 607.500000 696.500000 Q 558.000000 755.500000 508.500000 814.500000"/>
<!--eid=175-->
<path d="M 649.500000 720.500000 Q 628.500000 708.500000 607.500000 696.500000"/>
<!--eid=176-->
<path d="M 601.500000 428.500000 Q 563.000000 425.500000 524.500000 422.500000"/>
<!--eid=177-->
<path d="M 581.500000 970.500000 Q 607.500000 989.000000 633.500000 1007.500000"/>
<!--eid=178-->
<path d="M 633.500000 1007.500000 Q 608.000000 980.000000 582.500000 952.500000"/>
<!--eid=179-->
<path d="M 655.000000 828.000000 Q 618.750000 890.250000 582.500000 952.500000"/>
<!--eid=180-->
<path d="M 896.250000 844.250000 Q 775.625000 836.125000 655.000000 828.000000"/>
<!--eid=181-->
<path d="M 633.500000 1007.500000 Q 629.500000 1011.500000 625.500000 1015.500000"/>
<!--eid=182-->
<path d="M 625.500000 1015.500000 Q 829.750000 1024.750000 1034.000000 1034.000000"/>
<!--eid=183-->
<path d="M 1034.000000 1034.000000 Q 833.750000 1020.750000 633.500000 1007.500000"/>
<!--eid=184-->
<path d="M 727.500000 703.500000 Q 688.500000 712.000000 649.500000 720.500000"/>
<!--eid=185-->
<path d="M 633.500000 1007.500000 Q 764.875000 925.875000 896.250000 844.250000"/>
<!--eid=186-->
<path d="M 807.500000 585.500000 Q 800.791667 659.791667 794.083333 734.083333"/>
<!--eid=187-->
<path d="M 758.500000 654.500000 Q 743.000000 679.000000 727.500000 703.500000"/>
<!--eid=188-->
<path d="M 1034.000000 1034.000000 Q 1034.000000 777.750000 1034.000000 521.500000"/>
<!--eid=189-->
<path d="M 794.083333 734.083333 Q 914.041667 627.791667 1034.000000 521.500000"/>
<!--eid=190-->
<path d="M 727.500000 703.500000 Q 734.000000 654.500000 740.500000 605.500000"/>
<!--eid=191-->
<path d="M 740.500000 605.500000 Q 695.000000 663.000000 649.500000 720.500000"/>
<!--eid=192-->
<path d="M 522.500000 1034.000000 Q 778.250000 1034.000000 1034.000000 1034.000000"/>
<!--eid=193-->
<path d="M 758.500000 654.500000 Q 749.500000 630.000000 740.500000 605.500000"/>
<!--eid=194-->
<path d="M 745.500000 420.500000 Q 743.000000 513.000000 740.500000 605.500000"/>
<!--eid=195-->
<path d="M 740.500000 605.500000 Q 774.000000 595.500000 807.500000 585.500000"/>
<!--eid=196-->
<path d="M 807.500000 585.500000 Q 776.500000 503.000000 745.500000 420.500000"/>
<!--eid=197-->
<path d="M 758.500000 654.500000 Q 783.000000 620.000000 807.500000 585.500000"/>
<!--eid=198-->
<path d="M 788.500000 428.500000 Q 798.000000 507.000000 807.500000 585.500000"/>
<!--eid=199-->
<path d="M 807.500000 585.500000 Q 820.000000 527.000000 832.500000 468.500000"/>
<!--eid=200-->
<path d="M 832.500000 468.500000 Q 810.500000 448.500000 788.500000 428.500000"/>
<!--eid=201-->
<path d="M 740.500000 605.500000 Q 707.000000 514.500000 673.500000 423.500000"/>
<!--eid=202-->
<path d="M 832.500000 468.500000 Q 837.500000 503.500000 842.500000 538.500000"/>
<!--eid=203-->
<path d="M 807.500000 585.500000 Q 855.250000 547.500000 903.000000 509.500000"/>
<!--eid=204-->
<path d="M 840.000000 383.000000 Q 937.000000 452.250000 1034.000000 521.500000"/>
<!--eid=205-->
<path d="M 807.500000 585.500000 Q 825.000000 562.000000 842.500000 538.500000"/>
<!--eid=206-->
<path d="M 807.500000 585.500000 Q 920.750000 553.500000 1034.000000 521.500000"/>
<!--eid=207-->
<path d="M 840.000000 383.000000 Q 814.250000 405.750000 788.500000 428.500000"/>
<!--eid=208-->
<path d="M 807.500000 348.500000 Q 798.000000 388.500000 788.500000 428.500000"/>
<!--eid=209-->
<path d="M 840.000000 383.000000 Q 836.250000 425.750000 832.500000 468.500000"/>
<!--eid=210-->
<path d="M 1034.000000 521.500000 Q 940.750000 409.500000 847.500000 297.500000"/>
<!--eid=211-->
<path d="M 788.500000 428.500000 Q 767.000000 424.500000 745.500000 420.500000"/>
<!--eid=212-->
<path d="M 524.500000 422.500000 Q 556.500000 420.000000 588.500000 417.500000"/>
<!--eid=213-->
<path d="M 588.500000 417.500000 Q 557.000000 383.000000 525.500000 348.500000"/>
<!--eid=214-->
<path d="M 588.500000 417.500000 Q 590.000000 378.000000 591.500000 338.500000"/>
<!--eid=215-->
<path d="M 591.500000 338.500000 Q 561.000000 303.500000 530.500000 268.500000"/>
<!--eid=216-->
<path d="M 530.500000 268.500000 Q 528.000000 308.500000 525.500000 348.500000"/>
<!--eid=217-->
<path d="M 530.500000 268.500000 Q 525.500000 294.500000 520.500000 320.500000"/>
<!--eid=218-->
<path d="M 588.500000 417.500000 Q 620.500000 413.000000 652.500000 408.500000"/>
<!--eid=219-->
<path d="M 588.500000 417.500000 Q 595.000000 423.000000 601.500000 428.500000"/>
<!--eid=220-->
<path d="M 601.500000 428.500000 Q 627.000000 418.500000 652.500000 408.500000"/>
<!--eid=221-->
<path d="M 533.500000 187.500000 Q 532.000000 228.000000 530.500000 268.500000"/>
<!--eid=222-->
<path d="M 591.500000 338.500000 Q 595.500000 276.500000 599.500000 214.500000"/>
<!--eid=223-->
<path d="M 546.500000 124.500000 Q 573.000000 169.500000 599.500000 214.500000"/>
<!--eid=224-->
<path d="M 520.500000 320.500000 Q 521.500000 277.000000 522.500000 233.500000"/>
<!--eid=225-->
<path d="M 522.500000 10.000000 Q 514.000000 49.000000 505.500000 88.000000"/>
<!--eid=226-->
<path d="M 522.500000 233.500000 Q 519.500000 205.000000 516.500000 176.500000"/>
<!--eid=227-->
<path d="M 533.500000 187.500000 Q 525.000000 182.000000 516.500000 176.500000"/>
<!--eid=228-->
<path d="M 522.500000 233.500000 Q 528.000000 210.500000 533.500000 187.500000"/>
<!--eid=229-->
<path d="M 516.500000 176.500000 Q 531.500000 150.500000 546.500000 124.500000"/>
<!--eid=230-->
<path d="M 599.500000 214.500000 Q 597.000000 145.000000 594.500000 75.500000"/>
<!--eid=231-->
<path d="M 676.500000 72.500000 Q 638.000000 143.500000 599.500000 214.500000"/>
<!--eid=232-->
<path d="M 594.500000 75.500000 Q 570.500000 100.000000 546.500000 124.500000"/>
<!--eid=233-->
<path d="M 522.500000 233.500000 Q 526.500000 251.000000 530.500000 268.500000"/>
<!--eid=234-->
<path d="M 599.500000 41.250000 Q 577.000000 55.625000 554.500000 70.000000"/>
<!--eid=235-->
<path d="M 533.500000 187.500000 Q 540.000000 156.000000 546.500000 124.500000"/>
<!--eid=236-->
<path d="M 719.500000 112.500000 Q 659.500000 163.500000 599.500000 214.500000"/>
<!--eid=237-->
<path d="M 594.500000 75.500000 Q 635.500000 74.000000 676.500000 72.500000"/>
<!--eid=238-->
<path d="M 599.500000 41.250000 Q 561.000000 25.625000 522.500000 10.000000"/>
<!--eid=239-->
<path d="M 743.500000 383.500000 Q 667.500000 361.000000 591.500000 338.500000"/>
<!--eid=240-->
<path d="M 673.500000 423.500000 Q 709.500000 422.000000 745.500000 420.500000"/>
<!--eid=241-->
<path d="M 745.500000 420.500000 Q 744.500000 402.000000 743.500000 383.500000"/>
<!--eid=242-->
<path d="M 743.500000 383.500000 Q 708.500000 403.500000 673.500000 423.500000"/>
<!--eid=243-->
<path d="M 788.500000 428.500000 Q 766.000000 406.000000 743.500000 383.500000"/>
<!--eid=244-->
<path d="M 652.500000 408.500000 Q 698.000000 396.000000 743.500000 383.500000"/>
<!--eid=245-->
<path d="M 743.500000 383.500000 Q 739.000000 285.500000 734.500000 187.500000"/>
<!--eid=246-->
<path d="M 734.500000 187.500000 Q 771.000000 268.000000 807.500000 348.500000"/>
<!--eid=247-->
<path d="M 807.500000 348.500000 Q 827.500000 323.000000 847.500000 297.500000"/>
<!--eid=248-->
<path d="M 847.500000 297.500000 Q 791.000000 242.500000 734.500000 187.500000"/>
<!--eid=249-->
<path d="M 943.250000 130.750000 Q 895.375000 214.125000 847.500000 297.500000"/>
<!--eid=250-->
<path d="M 852.500000 251.500000 Q 850.000000 274.500000 847.500000 297.500000"/>
<!--eid=251-->
<path d="M 743.500000 383.500000 Q 775.500000 366.000000 807.500000 348.500000"/>
<!--eid=252-->
<path d="M 852.500000 251.500000 Q 793.500000 219.500000 734.500000 187.500000"/>
<!--eid=253-->
<path d="M 719.500000 112.500000 Q 698.000000 92.500000 676.500000 72.500000"/>
<!--eid=254-->
<path d="M 734.500000 187.500000 Q 727.000000 150.000000 719.500000 112.500000"/>
<!--eid=255-->
<path d="M 734.500000 187.500000 Q 758.000000 180.000000 781.500000 172.500000"/>
<!--eid=256-->
<path d="M 781.500000 172.500000 Q 750.500000 142.500000 719.500000 112.500000"/>
<!--eid=257-->
<path d="M 822.750000 139.416667 Q 771.125000 125.958333 719.500000 112.500000"/>
<!--eid=258-->
<path d="M 765.875000 56.875000 Q 721.187500 64.687500 676.500000 72.500000"/>
<!--eid=259-->
<path d="M 781.500000 172.500000 Q 806.500000 188.500000 831.500000 204.500000"/>
<!--eid=260-->
<path d="M 943.250000 130.750000 Q 899.250000 70.375000 855.250000 10.000000"/>
<!--eid=261-->
<path d="M 822.750000 139.416667 Q 883.000000 135.083333 943.250000 130.750000"/>
<!--eid=262-->
<path d="M 734.500000 187.500000 Q 783.000000 196.000000 831.500000 204.500000"/>
<!--eid=263-->
<path d="M 831.500000 204.500000 Q 842.000000 228.000000 852.500000 251.500000"/>
<!--eid=264-->
<path d="M 943.250000 130.750000 Q 988.625000 70.375000 1034.000000 10.000000"/>
<!--eid=265-->
<path d="M 172.333333 789.000000 Q 199.388889 748.166667 226.444444 707.333333"/>
<!--eid=266-->
<path d="M 1034.000000 521.500000 Q 1034.000000 265.750000 1034.000000 10.000000"/>
<!--eid=267-->
<path d="M 652.500000 408.500000 Q 663.000000 416.000000 673.500000 423.500000"/>
<!--eid=268-->
<path d="M 896.250000 844.250000 Q 965.125000 939.125000 1034.000000 1034.000000"/>
<!--eid=269-->
<path d="M 794.083333 734.083333 Q 724.541667 781.041667 655.000000 828.000000"/>
<!--eid=270-->
<path d="M 896.250000 844.250000 Q 965.125000 682.875000 1034.000000 521.500000"/>
<!--eid=271-->
<path d="M 794.083333 734.083333 Q 735.708333 742.375000 677.333333 750.666667"/>
<!--eid=272-->
<path d="M 655.000000 828.000000 Q 644.250000 917.750000 633.500000 1007.500000"/>
<!--eid=273-->
<path d="M 655.000000 828.000000 Q 652.250000 774.250000 649.500000 720.500000"/>
<!--eid=274-->
<path d="M 855.250000 10.000000 Q 944.625000 10.000000 1034.000000 10.000000"/>
<!--eid=275-->
<path d="M 765.875000 56.875000 Q 794.312500 98.145833 822.750000 139.416667"/>
<!--eid=276-->
<path d="M 855.250000 10.000000 Q 688.875000 10.000000 522.500000 10.000000"/>
<!--eid=277-->
<path d="M 291.625000 39.625000 Q 338.562500 44.562500 385.500000 49.500000"/>
<!--eid=278-->
<path d="M 332.500000 86.500000 Q 279.375000 101.375000 226.250000 116.250000"/>
<!--eid=279-->
<path d="M 197.750000 10.000000 Q 360.125000 10.000000 522.500000 10.000000"/>
<!--eid=280-->
<path d="M 219.500000 614.500000 Q 222.972222 660.916667 226.444444 707.333333"/>
<!--eid=281-->
<path d="M 10.000000 1034.000000 Q 91.166667 911.500000 172.333333 789.000000"/>
<!--eid=282-->
<path d="M 226.444444 707.333333 Q 274.472222 697.416667 322.500000 687.500000"/>
<!--eid=283-->
<path d="M 832.500000 468.500000 Q 867.750000 489.000000 903.000000 509.500000"/>
<!--eid=284-->
<path d="M 842.500000 538.500000 Q 872.750000 524.000000 903.000000 509.500000"/>
<!--eid=285-->
<path d="M 1034.000000 521.500000 Q 968.500000 515.500000 903.000000 509.500000"/>
<!--eid=286-->
<path d="M 480.500000 759.500000 Q 438.166667 728.500000 395.833333 697.500000"/>
<!--eid=287-->
<path d="M 384.500000 645.500000 Q 390.166667 671.500000 395.833333 697.500000"/>
<!--eid=288-->
<path d="M 322.500000 687.500000 Q 359.166667 692.500000 395.833333 697.500000"/>
<!--eid=289-->
<path d="M 758.500000 654.500000 Q 776.291667 694.291667 794.083333 734.083333"/>
<!--eid=290-->
<path d="M 727.500000 703.500000 Q 760.791667 718.791667 794.083333 734.083333"/>
<!--eid=291-->
<path d="M 896.250000 844.250000 Q 845.166667 789.166667 794.083333 734.083333"/>
<!--eid=292-->
<path d="M 875.750000 195.583333 Q 861.625000 246.541667 847.500000 297.500000"/>
<!--eid=293-->
<path d="M 822.750000 139.416667 Q 849.250000 167.500000 875.750000 195.583333"/>
<!--eid=294-->
<path d="M 943.250000 130.750000 Q 988.625000 326.125000 1034.000000 521.500000"/>
<!--eid=295-->
<path d="M 190.000000 336.000000 Q 200.750000 295.750000 211.500000 255.500000"/>
<!--eid=296-->
<path d="M 190.000000 336.000000 Q 214.750000 356.750000 239.500000 377.500000"/>
<!--eid=297-->
<path d="M 10.000000 521.500000 Q 58.875000 315.125000 107.750000 108.750000"/>
<!--eid=298-->
<path d="M 649.500000 720.500000 Q 663.416667 735.583333 677.333333 750.666667"/>
<!--eid=299-->
<path d="M 655.000000 828.000000 Q 666.166667 789.333333 677.333333 750.666667"/>
<!--eid=300-->
<path d="M 727.500000 703.500000 Q 702.416667 727.083333 677.333333 750.666667"/>
<!--eid=301-->
<path d="M 89.250000 469.000000 Q 128.875000 442.750000 168.500000 416.500000"/>
<!--eid=302-->
<path d="M 89.250000 469.000000 Q 120.875000 476.250000 152.500000 483.500000"/>
<!--eid=303-->
<path d="M 89.250000 469.000000 Q 139.625000 402.500000 190.000000 336.000000"/>
<!--eid=304-->
<path d="M 855.250000 10.000000 Q 839.000000 74.708333 822.750000 139.416667"/>
<!--eid=305-->
<path d="M 781.500000 172.500000 Q 802.125000 155.958333 822.750000 139.416667"/>
<!--eid=306-->
<path d="M 831.500000 204.500000 Q 827.125000 171.958333 822.750000 139.416667"/>
<!--eid=307-->
<path d="M 591.500000 338.500000 Q 622.000000 373.500000 652.500000 408.500000"/>
<!--eid=308-->
<path d="M 591.500000 338.500000 Q 558.500000 343.500000 525.500000 348.500000"/>
<!--eid=309-->
<path d="M 591.500000 338.500000 Q 663.000000 263.000000 734.500000 187.500000"/>
<!--eid=310-->
<path d="M 765.875000 56.875000 Q 810.562500 33.437500 855.250000 10.000000"/>
<!--eid=311-->
<path d="M 765.875000 56.875000 Q 742.687500 84.687500 719.500000 112.500000"/>
<!--eid=312-->
<path d="M 765.875000 56.875000 Q 644.187500 33.437500 522.500000 10.000000"/>
<!--eid=313-->
<path d="M 291.625000 39.625000 Q 244.687500 24.812500 197.750000 10.000000"/>
<!--eid=314-->
<path d="M 291.625000 39.625000 Q 407.062500 24.812500 522.500000 10.000000"/>
<!--eid=315-->
<path d="M 291.625000 39.625000 Q 312.062500 63.062500 332.500000 86.500000"/>
<!--eid=316-->
<path d="M 533.500000 187.500000 Q 566.500000 201.000000 599.500000 214.500000"/>
<!--eid=317-->
<path d="M 530.500000 268.500000 Q 565.000000 241.500000 599.500000 214.500000"/>
<!--eid=318-->
<path d="M 734.500000 187.500000 Q 667.000000 201.000000 599.500000 214.500000"/>
<!--eid=319-->
<path d="M 107.750000 108.750000 Q 156.625000 158.125000 205.500000 207.500000"/>
<!--eid=320-->
<path d="M 107.750000 108.750000 Q 148.875000 222.375000 190.000000 336.000000"/>
<!--eid=321-->
<path d="M 107.750000 108.750000 Q 163.125000 140.125000 218.500000 171.500000"/>
<!--eid=322-->
<path d="M 270.500000 325.500000 Q 247.250000 315.583333 224.000000 305.666667"/>
<!--eid=323-->
<path d="M 211.500000 255.500000 Q 217.750000 280.583333 224.000000 305.666667"/>
<!--eid=324-->
<path d="M 190.000000 336.000000 Q 207.000000 320.833333 224.000000 305.666667"/>
<!--eid=325-->
<path d="M 546.500000 124.500000 Q 550.500000 97.250000 554.500000 70.000000"/>
<!--eid=326-->
<path d="M 594.500000 75.500000 Q 574.500000 72.750000 554.500000 70.000000"/>
<!--eid=327-->
<path d="M 522.500000 10.000000 Q 538.500000 40.000000 554.500000 70.000000"/>
<!--eid=328-->
<path d="M 566.500000 643.500000 Q 560.666667 670.000000 554.833333 696.500000"/>
<!--eid=329-->
<path d="M 490.500000 749.500000 Q 522.666667 723.000000 554.833333 696.500000"/>
<!--eid=330-->
<path d="M 607.500000 696.500000 Q 581.166667 696.500000 554.833333 696.500000"/>
<!--eid=331-->
<path d="M 554.500000 70.000000 Q 530.000000 79.000000 505.500000 88.000000"/>
<!--eid=332-->
<path d="M 457.500000 63.500000 Q 481.500000 75.750000 505.500000 88.000000"/>
<!--eid=333-->
<path d="M 504.500000 130.500000 Q 505.000000 109.250000 505.500000 88.000000"/>
<!--eid=334-->
<path d="M 218.500000 171.500000 Q 222.375000 143.875000 226.250000 116.250000"/>
<!--eid=335-->
<path d="M 262.500000 147.500000 Q 244.375000 131.875000 226.250000 116.250000"/>
<!--eid=336-->
<path d="M 197.750000 10.000000 Q 212.000000 63.125000 226.250000 116.250000"/>
<!--eid=337-->
<path d="M 599.500000 41.250000 Q 638.000000 56.875000 676.500000 72.500000"/>
<!--eid=338-->
<path d="M 599.500000 41.250000 Q 597.000000 58.375000 594.500000 75.500000"/>
<!--eid=339-->
<path d="M 599.500000 41.250000 Q 682.687500 49.062500 765.875000 56.875000"/>
<!--eid=340-->
<path d="M 840.000000 383.000000 Q 843.750000 340.250000 847.500000 297.500000"/>
<!--eid=341-->
<path d="M 840.000000 383.000000 Q 871.500000 446.250000 903.000000 509.500000"/>
<!--eid=342-->
<path d="M 840.000000 383.000000 Q 823.750000 365.750000 807.500000 348.500000"/>
<!--eid=343-->
<path d="M 852.500000 251.500000 Q 864.125000 223.541667 875.750000 195.583333"/>
<!--eid=344-->
<path d="M 943.250000 130.750000 Q 909.500000 163.166667 875.750000 195.583333"/>
<!--eid=345-->
<path d="M 831.500000 204.500000 Q 853.625000 200.041667 875.750000 195.583333"/>
<!--eid=346-->
<path d="M 234.500000 653.500000 Q 230.472222 680.416667 226.444444 707.333333"/>
</g>
<g fill="none" stroke="rgb(50.000000, 250.000000, 50.000000)" stroke-width="1.000000" stroke-linecap="round">
<!--eid=0-->
<path d="M 172.333333 789.000000 L 91.166667 655.250000 L 10.000000 521.500000"/>
<!--eid=1-->
<path d="M 219.500000 614.500000 L 195.916667 701.750000 L 172.333333 789.000000"/>
<!--eid=2-->
<path d="M 10.000000 521.500000 L 10.000000 777.750000 L 10.000000 1034.000000"/>
<!--eid=3-->
<path d="M 322.500000 687.500000 L 247.416667 738.250000 L 172.333333 789.000000"/>
<!--eid=4-->
<path d="M 272.500000 679.500000 L 253.500000 666.500000 L 234.500000 653.500000"/>
<!--eid=5-->
<path d="M 272.500000 679.500000 L 297.500000 683.500000 L 322.500000 687.500000"/>
<!--eid=6-->
<path d="M 322.500000 687.500000 L 353.500000 666.500000 L 384.500000 645.500000"/>
<!--eid=7-->
<path d="M 384.500000 645.500000 L 328.500000 662.500000 L 272.500000 679.500000"/>
<!--eid=8-->
<path d="M 505.500000 840.500000 L 338.916667 814.750000 L 172.333333 789.000000"/>
<!--eid=9-->
<path d="M 468.500000 680.500000 L 432.166667 689.000000 L 395.833333 697.500000"/>
<!--eid=10-->
<path d="M 505.500000 840.500000 L 450.666667 769.000000 L 395.833333 697.500000"/>
<!--eid=11-->
<path d="M 272.500000 679.500000 L 246.000000 647.000000 L 219.500000 614.500000"/>
<!--eid=12-->
<path d="M 219.500000 614.500000 L 227.000000 634.000000 L 234.500000 653.500000"/>
<!--eid=13-->
<path d="M 522.500000 1034.000000 L 347.416667 911.500000 L 172.333333 789.000000"/>
<!--eid=14-->
<path d="M 505.500000 840.500000 L 414.000000 764.000000 L 322.500000 687.500000"/>
<!--eid=15-->
<path d="M 384.500000 645.500000 L 302.000000 630.000000 L 219.500000 614.500000"/>
<!--eid=16-->
<path d="M 10.000000 521.500000 L 96.250000 529.000000 L 182.500000 536.500000"/>
<!--eid=17-->
<path d="M 182.500000 536.500000 L 167.500000 510.000000 L 152.500000 483.500000"/>
<!--eid=18-->
<path d="M 89.250000 469.000000 L 135.875000 502.750000 L 182.500000 536.500000"/>
<!--eid=19-->
<path d="M 10.000000 521.500000 L 114.750000 568.000000 L 219.500000 614.500000"/>
<!--eid=20-->
<path d="M 219.500000 614.500000 L 201.000000 575.500000 L 182.500000 536.500000"/>
<!--eid=21-->
<path d="M 182.500000 536.500000 L 208.000000 540.500000 L 233.500000 544.500000"/>
<!--eid=22-->
<path d="M 233.500000 544.500000 L 193.000000 514.000000 L 152.500000 483.500000"/>
<!--eid=23-->
<path d="M 152.500000 483.500000 L 160.500000 450.000000 L 168.500000 416.500000"/>
<!--eid=24-->
<path d="M 89.250000 469.000000 L 49.625000 495.250000 L 10.000000 521.500000"/>
<!--eid=25-->
<path d="M 384.500000 645.500000 L 309.000000 595.000000 L 233.500000 544.500000"/>
<!--eid=26-->
<path d="M 233.500000 544.500000 L 226.500000 579.500000 L 219.500000 614.500000"/>
<!--eid=27-->
<path d="M 384.500000 645.500000 L 397.500000 622.000000 L 410.500000 598.500000"/>
<!--eid=28-->
<path d="M 410.500000 598.500000 L 322.000000 571.500000 L 233.500000 544.500000"/>
<!--eid=29-->
<path d="M 233.500000 544.500000 L 201.000000 480.500000 L 168.500000 416.500000"/>
<!--eid=30-->
<path d="M 434.500000 541.500000 L 334.000000 543.000000 L 233.500000 544.500000"/>
<!--eid=31-->
<path d="M 410.500000 598.500000 L 422.500000 570.000000 L 434.500000 541.500000"/>
<!--eid=32-->
<path d="M 384.500000 645.500000 L 426.500000 663.000000 L 468.500000 680.500000"/>
<!--eid=33-->
<path d="M 468.500000 680.500000 L 439.500000 639.500000 L 410.500000 598.500000"/>
<!--eid=34-->
<path d="M 468.500000 680.500000 L 468.000000 639.000000 L 467.500000 597.500000"/>
<!--eid=35-->
<path d="M 467.500000 597.500000 L 439.000000 598.000000 L 410.500000 598.500000"/>
<!--eid=36-->
<path d="M 467.500000 597.500000 L 451.000000 569.500000 L 434.500000 541.500000"/>
<!--eid=37-->
<path d="M 479.500000 667.500000 L 474.000000 674.000000 L 468.500000 680.500000"/>
<!--eid=38-->
<path d="M 468.500000 680.500000 L 479.500000 715.000000 L 490.500000 749.500000"/>
<!--eid=39-->
<path d="M 490.500000 749.500000 L 485.000000 708.500000 L 479.500000 667.500000"/>
<!--eid=40-->
<path d="M 467.500000 597.500000 L 473.500000 632.500000 L 479.500000 667.500000"/>
<!--eid=41-->
<path d="M 479.500000 667.500000 L 479.500000 631.000000 L 479.500000 594.500000"/>
<!--eid=42-->
<path d="M 479.500000 594.500000 L 473.500000 596.000000 L 467.500000 597.500000"/>
<!--eid=43-->
<path d="M 490.500000 749.500000 L 485.500000 754.500000 L 480.500000 759.500000"/>
<!--eid=44-->
<path d="M 480.500000 759.500000 L 494.500000 787.000000 L 508.500000 814.500000"/>
<!--eid=45-->
<path d="M 508.500000 814.500000 L 499.500000 782.000000 L 490.500000 749.500000"/>
<!--eid=46-->
<path d="M 505.500000 840.500000 L 493.000000 800.000000 L 480.500000 759.500000"/>
<!--eid=47-->
<path d="M 479.500000 667.500000 L 523.000000 655.500000 L 566.500000 643.500000"/>
<!--eid=48-->
<path d="M 566.500000 643.500000 L 523.000000 619.000000 L 479.500000 594.500000"/>
<!--eid=49-->
<path d="M 468.500000 680.500000 L 474.500000 720.000000 L 480.500000 759.500000"/>
<!--eid=50-->
<path d="M 554.833333 696.500000 L 517.166667 682.000000 L 479.500000 667.500000"/>
<!--eid=51-->
<path d="M 434.500000 541.500000 L 456.000000 526.500000 L 477.500000 511.500000"/>
<!--eid=52-->
<path d="M 477.500000 511.500000 L 469.500000 498.500000 L 461.500000 485.500000"/>
<!--eid=53-->
<path d="M 461.500000 485.500000 L 448.000000 513.500000 L 434.500000 541.500000"/>
<!--eid=54-->
<path d="M 467.500000 597.500000 L 472.500000 554.500000 L 477.500000 511.500000"/>
<!--eid=55-->
<path d="M 477.500000 511.500000 L 491.000000 478.500000 L 504.500000 445.500000"/>
<!--eid=56-->
<path d="M 504.500000 445.500000 L 499.500000 443.500000 L 494.500000 441.500000"/>
<!--eid=57-->
<path d="M 494.500000 441.500000 L 486.000000 476.500000 L 477.500000 511.500000"/>
<!--eid=58-->
<path d="M 434.500000 541.500000 L 391.500000 460.000000 L 348.500000 378.500000"/>
<!--eid=59-->
<path d="M 348.500000 378.500000 L 291.000000 461.500000 L 233.500000 544.500000"/>
<!--eid=60-->
<path d="M 479.500000 594.500000 L 505.500000 577.000000 L 531.500000 559.500000"/>
<!--eid=61-->
<path d="M 531.500000 559.500000 L 510.000000 538.500000 L 488.500000 517.500000"/>
<!--eid=62-->
<path d="M 488.500000 517.500000 L 484.000000 556.000000 L 479.500000 594.500000"/>
<!--eid=63-->
<path d="M 504.500000 445.500000 L 496.500000 481.500000 L 488.500000 517.500000"/>
<!--eid=64-->
<path d="M 488.500000 517.500000 L 502.500000 509.500000 L 516.500000 501.500000"/>
<!--eid=65-->
<path d="M 516.500000 501.500000 L 510.500000 473.500000 L 504.500000 445.500000"/>
<!--eid=66-->
<path d="M 477.500000 511.500000 L 483.000000 514.500000 L 488.500000 517.500000"/>
<!--eid=67-->
<path d="M 467.500000 597.500000 L 478.000000 557.500000 L 488.500000 517.500000"/>
<!--eid=68-->
<path d="M 461.500000 485.500000 L 438.000000 439.000000 L 414.500000 392.500000"/>
<!--eid=69-->
<path d="M 414.500000 392.500000 L 424.500000 467.000000 L 434.500000 541.500000"/>
<!--eid=70-->
<path d="M 506.500000 415.500000 L 505.500000 430.500000 L 504.500000 445.500000"/>
<!--eid=71-->
<path d="M 504.500000 445.500000 L 514.500000 434.000000 L 524.500000 422.500000"/>
<!--eid=72-->
<path d="M 524.500000 422.500000 L 515.500000 419.000000 L 506.500000 415.500000"/>
<!--eid=73-->
<path d="M 10.000000 1034.000000 L 266.250000 1034.000000 L 522.500000 1034.000000"/>
<!--eid=74-->
<path d="M 522.500000 1034.000000 L 514.000000 937.250000 L 505.500000 840.500000"/>
<!--eid=75-->
<path d="M 494.500000 441.500000 L 478.000000 463.500000 L 461.500000 485.500000"/>
<!--eid=76-->
<path d="M 190.000000 336.000000 L 179.250000 376.250000 L 168.500000 416.500000"/>
<!--eid=77-->
<path d="M 168.500000 416.500000 L 204.000000 397.000000 L 239.500000 377.500000"/>
<!--eid=78-->
<path d="M 224.000000 305.666667 L 231.750000 341.583333 L 239.500000 377.500000"/>
<!--eid=79-->
<path d="M 233.500000 544.500000 L 236.500000 461.000000 L 239.500000 377.500000"/>
<!--eid=80-->
<path d="M 270.500000 325.500000 L 282.500000 349.500000 L 294.500000 373.500000"/>
<!--eid=81-->
<path d="M 294.500000 373.500000 L 306.000000 359.500000 L 317.500000 345.500000"/>
<!--eid=82-->
<path d="M 317.500000 345.500000 L 294.000000 335.500000 L 270.500000 325.500000"/>
<!--eid=83-->
<path d="M 270.500000 325.500000 L 255.000000 351.500000 L 239.500000 377.500000"/>
<!--eid=84-->
<path d="M 239.500000 377.500000 L 267.000000 375.500000 L 294.500000 373.500000"/>
<!--eid=85-->
<path d="M 294.500000 373.500000 L 321.500000 376.000000 L 348.500000 378.500000"/>
<!--eid=86-->
<path d="M 348.500000 378.500000 L 333.000000 362.000000 L 317.500000 345.500000"/>
<!--eid=87-->
<path d="M 333.500000 151.500000 L 272.500000 203.500000 L 211.500000 255.500000"/>
<!--eid=88-->
<path d="M 211.500000 255.500000 L 241.000000 290.500000 L 270.500000 325.500000"/>
<!--eid=89-->
<path d="M 270.500000 325.500000 L 302.000000 238.500000 L 333.500000 151.500000"/>
<!--eid=90-->
<path d="M 233.500000 544.500000 L 264.000000 459.000000 L 294.500000 373.500000"/>
<!--eid=91-->
<path d="M 211.500000 255.500000 L 159.625000 182.125000 L 107.750000 108.750000"/>
<!--eid=92-->
<path d="M 211.500000 255.500000 L 208.500000 231.500000 L 205.500000 207.500000"/>
<!--eid=93-->
<path d="M 107.750000 108.750000 L 58.875000 59.375000 L 10.000000 10.000000"/>
<!--eid=94-->
<path d="M 10.000000 10.000000 L 10.000000 265.750000 L 10.000000 521.500000"/>
<!--eid=95-->
<path d="M 107.750000 108.750000 L 98.500000 288.875000 L 89.250000 469.000000"/>
<!--eid=96-->
<path d="M 211.500000 255.500000 L 237.000000 201.500000 L 262.500000 147.500000"/>
<!--eid=97-->
<path d="M 262.500000 147.500000 L 234.000000 177.500000 L 205.500000 207.500000"/>
<!--eid=98-->
<path d="M 205.500000 207.500000 L 212.000000 189.500000 L 218.500000 171.500000"/>
<!--eid=99-->
<path d="M 197.750000 10.000000 L 152.750000 59.375000 L 107.750000 108.750000"/>
<!--eid=100-->
<path d="M 262.500000 147.500000 L 297.500000 117.000000 L 332.500000 86.500000"/>
<!--eid=101-->
<path d="M 226.250000 116.250000 L 258.937500 77.937500 L 291.625000 39.625000"/>
<!--eid=102-->
<path d="M 226.250000 116.250000 L 167.000000 112.500000 L 107.750000 108.750000"/>
<!--eid=103-->
<path d="M 262.500000 147.500000 L 240.500000 159.500000 L 218.500000 171.500000"/>
<!--eid=104-->
<path d="M 333.500000 151.500000 L 298.000000 149.500000 L 262.500000 147.500000"/>
<!--eid=105-->
<path d="M 333.500000 151.500000 L 333.000000 119.000000 L 332.500000 86.500000"/>
<!--eid=106-->
<path d="M 332.500000 86.500000 L 359.000000 68.000000 L 385.500000 49.500000"/>
<!--eid=107-->
<path d="M 197.750000 10.000000 L 103.875000 10.000000 L 10.000000 10.000000"/>
<!--eid=108-->
<path d="M 317.500000 345.500000 L 325.500000 248.500000 L 333.500000 151.500000"/>
<!--eid=109-->
<path d="M 426.500000 380.500000 L 420.500000 386.500000 L 414.500000 392.500000"/>
<!--eid=110-->
<path d="M 414.500000 392.500000 L 455.000000 405.000000 L 495.500000 417.500000"/>
<!--eid=111-->
<path d="M 495.500000 417.500000 L 461.000000 399.000000 L 426.500000 380.500000"/>
<!--eid=112-->
<path d="M 414.500000 392.500000 L 381.500000 385.500000 L 348.500000 378.500000"/>
<!--eid=113-->
<path d="M 414.500000 392.500000 L 454.500000 417.000000 L 494.500000 441.500000"/>
<!--eid=114-->
<path d="M 494.500000 441.500000 L 495.000000 429.500000 L 495.500000 417.500000"/>
<!--eid=115-->
<path d="M 426.500000 380.500000 L 399.500000 371.500000 L 372.500000 362.500000"/>
<!--eid=116-->
<path d="M 372.500000 362.500000 L 393.500000 377.500000 L 414.500000 392.500000"/>
<!--eid=117-->
<path d="M 495.500000 417.500000 L 501.000000 416.500000 L 506.500000 415.500000"/>
<!--eid=118-->
<path d="M 506.500000 415.500000 L 507.000000 413.500000 L 507.500000 411.500000"/>
<!--eid=119-->
<path d="M 507.500000 411.500000 L 501.500000 414.500000 L 495.500000 417.500000"/>
<!--eid=120-->
<path d="M 494.500000 441.500000 L 500.500000 428.500000 L 506.500000 415.500000"/>
<!--eid=121-->
<path d="M 525.500000 348.500000 L 516.000000 382.000000 L 506.500000 415.500000"/>
<!--eid=122-->
<path d="M 524.500000 422.500000 L 525.000000 385.500000 L 525.500000 348.500000"/>
<!--eid=123-->
<path d="M 520.500000 320.500000 L 473.500000 350.500000 L 426.500000 380.500000"/>
<!--eid=124-->
<path d="M 426.500000 380.500000 L 467.000000 396.000000 L 507.500000 411.500000"/>
<!--eid=125-->
<path d="M 507.500000 411.500000 L 514.000000 366.000000 L 520.500000 320.500000"/>
<!--eid=126-->
<path d="M 520.500000 320.500000 L 446.500000 341.500000 L 372.500000 362.500000"/>
<!--eid=127-->
<path d="M 317.500000 345.500000 L 345.000000 354.000000 L 372.500000 362.500000"/>
<!--eid=128-->
<path d="M 372.500000 362.500000 L 353.000000 257.000000 L 333.500000 151.500000"/>
<!--eid=129-->
<path d="M 348.500000 378.500000 L 360.500000 370.500000 L 372.500000 362.500000"/>
<!--eid=130-->
<path d="M 504.500000 130.500000 L 419.000000 141.000000 L 333.500000 151.500000"/>
<!--eid=131-->
<path d="M 333.500000 151.500000 L 425.000000 164.000000 L 516.500000 176.500000"/>
<!--eid=132-->
<path d="M 516.500000 176.500000 L 510.500000 153.500000 L 504.500000 130.500000"/>
<!--eid=133-->
<path d="M 333.500000 151.500000 L 395.500000 107.500000 L 457.500000 63.500000"/>
<!--eid=134-->
<path d="M 457.500000 63.500000 L 421.500000 56.500000 L 385.500000 49.500000"/>
<!--eid=135-->
<path d="M 385.500000 49.500000 L 359.500000 100.500000 L 333.500000 151.500000"/>
<!--eid=136-->
<path d="M 504.500000 130.500000 L 481.000000 97.000000 L 457.500000 63.500000"/>
<!--eid=137-->
<path d="M 504.500000 130.500000 L 525.500000 127.500000 L 546.500000 124.500000"/>
<!--eid=138-->
<path d="M 505.500000 88.000000 L 526.000000 106.250000 L 546.500000 124.500000"/>
<!--eid=139-->
<path d="M 457.500000 63.500000 L 490.000000 36.750000 L 522.500000 10.000000"/>
<!--eid=140-->
<path d="M 522.500000 10.000000 L 454.000000 29.750000 L 385.500000 49.500000"/>
<!--eid=141-->
<path d="M 522.500000 233.500000 L 428.000000 192.500000 L 333.500000 151.500000"/>
<!--eid=142-->
<path d="M 372.500000 362.500000 L 447.500000 298.000000 L 522.500000 233.500000"/>
<!--eid=143-->
<path d="M 507.500000 411.500000 L 516.500000 380.000000 L 525.500000 348.500000"/>
<!--eid=144-->
<path d="M 525.500000 348.500000 L 523.000000 334.500000 L 520.500000 320.500000"/>
<!--eid=145-->
<path d="M 272.500000 679.500000 L 249.472222 693.416667 L 226.444444 707.333333"/>
<!--eid=146-->
<path d="M 505.500000 840.500000 L 507.000000 827.500000 L 508.500000 814.500000"/>
<!--eid=147-->
<path d="M 537.500000 906.500000 L 538.500000 896.000000 L 539.500000 885.500000"/>
<!--eid=148-->
<path d="M 539.500000 885.500000 L 522.500000 863.000000 L 505.500000 840.500000"/>
<!--eid=149-->
<path d="M 505.500000 840.500000 L 521.500000 873.500000 L 537.500000 906.500000"/>
<!--eid=150-->
<path d="M 537.500000 906.500000 L 530.000000 970.250000 L 522.500000 1034.000000"/>
<!--eid=151-->
<path d="M 522.500000 1034.000000 L 552.000000 1002.250000 L 581.500000 970.500000"/>
<!--eid=152-->
<path d="M 581.500000 970.500000 L 559.500000 938.500000 L 537.500000 906.500000"/>
<!--eid=153-->
<path d="M 537.500000 906.500000 L 560.000000 929.500000 L 582.500000 952.500000"/>
<!--eid=154-->
<path d="M 582.500000 952.500000 L 561.000000 919.000000 L 539.500000 885.500000"/>
<!--eid=155-->
<path d="M 581.500000 970.500000 L 582.000000 961.500000 L 582.500000 952.500000"/>
<!--eid=156-->
<path d="M 508.500000 814.500000 L 581.750000 821.250000 L 655.000000 828.000000"/>
<!--eid=157-->
<path d="M 655.000000 828.000000 L 597.250000 856.750000 L 539.500000 885.500000"/>
<!--eid=158-->
<path d="M 607.500000 696.500000 L 631.250000 762.250000 L 655.000000 828.000000"/>
<!--eid=159-->
<path d="M 508.500000 814.500000 L 524.000000 850.000000 L 539.500000 885.500000"/>
<!--eid=160-->
<path d="M 522.500000 1034.000000 L 574.000000 1024.750000 L 625.500000 1015.500000"/>
<!--eid=161-->
<path d="M 625.500000 1015.500000 L 603.500000 993.000000 L 581.500000 970.500000"/>
<!--eid=162-->
<path d="M 531.500000 559.500000 L 524.000000 530.500000 L 516.500000 501.500000"/>
<!--eid=163-->
<path d="M 566.500000 643.500000 L 549.000000 601.500000 L 531.500000 559.500000"/>
<!--eid=164-->
<path d="M 531.500000 559.500000 L 566.500000 494.000000 L 601.500000 428.500000"/>
<!--eid=165-->
<path d="M 601.500000 428.500000 L 559.000000 465.000000 L 516.500000 501.500000"/>
<!--eid=166-->
<path d="M 516.500000 501.500000 L 520.500000 462.000000 L 524.500000 422.500000"/>
<!--eid=167-->
<path d="M 740.500000 605.500000 L 636.000000 582.500000 L 531.500000 559.500000"/>
<!--eid=168-->
<path d="M 566.500000 643.500000 L 653.500000 624.500000 L 740.500000 605.500000"/>
<!--eid=169-->
<path d="M 508.500000 814.500000 L 531.666667 755.500000 L 554.833333 696.500000"/>
<!--eid=170-->
<path d="M 607.500000 696.500000 L 587.000000 670.000000 L 566.500000 643.500000"/>
<!--eid=171-->
<path d="M 607.500000 696.500000 L 674.000000 651.000000 L 740.500000 605.500000"/>
<!--eid=172-->
<path d="M 531.500000 559.500000 L 602.500000 491.500000 L 673.500000 423.500000"/>
<!--eid=173-->
<path d="M 673.500000 423.500000 L 637.500000 426.000000 L 601.500000 428.500000"/>
<!--eid=174-->
<path d="M 607.500000 696.500000 L 558.000000 755.500000 L 508.500000 814.500000"/>
<!--eid=175-->
<path d="M 649.500000 720.500000 L 628.500000 708.500000 L 607.500000 696.500000"/>
<!--eid=176-->
<path d="M 601.500000 428.500000 L 563.000000 425.500000 L 524.500000 422.500000"/>
<!--eid=177-->
<path d="M 581.500000 970.500000 L 607.500000 989.000000 L 633.500000 1007.500000"/>
<!--eid=178-->
<path d="M 633.500000 1007.500000 L 608.000000 980.000000 L 582.500000 952.500000"/>
<!--eid=179-->
<path d="M 655.000000 828.000000 L 618.750000 890.250000 L 582.500000 952.500000"/>
<!--eid=180-->
<path d="M 896.250000 844.250000 L 775.625000 836.125000 L 655.000000 828.000000"/>
<!--eid=181-->
<path d="M 633.500000 1007.500000 L 629.500000 1011.500000 L 625.500000 1015.500000"/>
<!--eid=182-->
<path d="M 625.500000 1015.500000 L 829.750000 1024.750000 L 1034.000000 1034.000000"/>
<!--eid=183-->
<path d="M 1034.000000 1034.000000 L 833.750000 1020.750000 L 633.500000 1007.500000"/>
<!--eid=184-->
<path d="M 727.500000 703.500000 L 688.500000 712.000000 L 649.500000 720.500000"/>
<!--eid=185-->
<path d="M 633.500000 1007.500000 L 764.875000 925.875000 L 896.250000 844.250000"/>
<!--eid=186-->
<path d="M 807.500000 585.500000 L 800.791667 659.791667 L 794.083333 734.083333"/>
<!--eid=187-->
<path d="M 758.500000 654.500000 L 743.000000 679.000000 L 727.500000 703.500000"/>
<!--eid=188-->
<path d="M 1034.000000 1034.000000 L 1034.000000 777.750000 L 1034.000000 521.500000"/>
<!--eid=189-->
<path d="M 794.083333 734.083333 L 914.041667 627.791667 L 1034.000000 521.500000"/>
<!--eid=190-->
<path d="M 727.500000 703.500000 L 734.000000 654.500000 L 740.500000 605.500000"/>
<!--eid=191-->
<path d="M 740.500000 605.500000 L 695.000000 663.000000 L 649.500000 720.500000"/>
<!--eid=192-->
<path d="M 522.500000 1034.000000 L 778.250000 1034.000000 L 1034.000000 1034.000000"/>
<!--eid=193-->
<path d="M 758.500000 654.500000 L 749.500000 630.000000 L 740.500000 605.500000"/>
<!--eid=194-->
<path d="M 745.500000 420.500000 L 743.000000 513.000000 L 740.500000 605.500000"/>
<!--eid=195-->
<path d="M 740.500000 605.500000 L 774.000000 595.500000 L 807.500000 585.500000"/>
<!--eid=196-->
<path d="M 807.500000 585.500000 L 776.500000 503.000000 L 745.500000 420.500000"/>
<!--eid=197-->
<path d="M 758.500000 654.500000 L 783.000000 620.000000 L 807.500000 585.500000"/>
<!--eid=198-->
<path d="M 788.500000 428.500000 L 798.000000 507.000000 L 807.500000 585.500000"/>
<!--eid=199-->
<path d="M 807.500000 585.500000 L 820.000000 527.000000 L 832.500000 468.500000"/>
<!--eid=200-->
<path d="M 832.500000 468.500000 L 810.500000 448.500000 L 788.500000 428.500000"/>
<!--eid=201-->
<path d="M 740.500000 605.500000 L 707.000000 514.500000 L 673.500000 423.500000"/>
<!--eid=202-->
<path d="M 832.500000 468.500000 L 837.500000 503.500000 L 842.500000 538.500000"/>
<!--eid=203-->
<path d="M 807.500000 585.500000 L 855.250000 547.500000 L 903.000000 509.500000"/>
<!--eid=204-->
<path d="M 840.000000 383.000000 L 937.000000 452.250000 L 1034.000000 521.500000"/>
<!--eid=205-->
<path d="M 807.500000 585.500000 L 825.000000 562.000000 L 842.500000 538.500000"/>
<!--eid=206-->
<path d="M 807.500000 585.500000 L 920.750000 553.500000 L 1034.000000 521.500000"/>
<!--eid=207-->
<path d="M 840.000000 383.000000 L 814.250000 405.750000 L 788.500000 428.500000"/>
<!--eid=208-->
<path d="M 807.500000 348.500000 L 798.000000 388.500000 L 788.500000 428.500000"/>
<!--eid=209-->
<path d="M 840.000000 383.000000 L 836.250000 425.750000 L 832.500000 468.500000"/>
<!--eid=210-->
<path d="M 1034.000000 521.500000 L 940.750000 409.500000 L 847.500000 297.500000"/>
<!--eid=211-->
<path d="M 788.500000 428.500000 L 767.000000 424.500000 L 745.500000 420.500000"/>
<!--eid=212-->
<path d="M 524.500000 422.500000 L 556.500000 420.000000 L 588.500000 417.500000"/>
<!--eid=213-->
<path d="M 588.500000 417.500000 L 557.000000 383.000000 L 525.500000 348.500000"/>
<!--eid=214-->
<path d="M 588.500000 417.500000 L 590.000000 378.000000 L 591.500000 338.500000"/>
<!--eid=215-->
<path d="M 591.500000 338.500000 L 561.000000 303.500000 L 530.500000 268.500000"/>
<!--eid=216-->
<path d="M 530.500000 268.500000 L 528.000000 308.500000 L 525.500000 348.500000"/>
<!--eid=217-->
<path d="M 530.500000 268.500000 L 525.500000 294.500000 L 520.500000 320.500000"/>
<!--eid=218-->
<path d="M 588.500000 417.500000 L 620.500000 413.000000 L 652.500000 408.500000"/>
<!--eid=219-->
<path d="M 588.500000 417.500000 L 595.000000 423.000000 L 601.500000 428.500000"/>
<!--eid=220-->
<path d="M 601.500000 428.500000 L 627.000000 418.500000 L 652.500000 408.500000"/>
<!--eid=221-->
<path d="M 533.500000 187.500000 L 532.000000 228.000000 L 530.500000 268.500000"/>
<!--eid=222-->
<path d="M 591.500000 338.500000 L 595.500000 276.500000 L 599.500000 214.500000"/>
<!--eid=223-->
<path d="M 546.500000 124.500000 L 573.000000 169.500000 L 599.500000 214.500000"/>
<!--eid=224-->
<path d="M 520.500000 320.500000 L 521.500000 277.000000 L 522.500000 233.500000"/>
<!--eid=225-->
<path d="M 522.500000 10.000000 L 514.000000 49.000000 L 505.500000 88.000000"/>
<!--eid=226-->
<path d="M 522.500000 233.500000 L 519.500000 205.000000 L 516.500000 176.500000"/>
<!--eid=227-->
<path d="M 533.500000 187.500000 L 525.000000 182.000000 L 516.500000 176.500000"/>
<!--eid=228-->
<path d="M 522.500000 233.500000 L 528.000000 210.500000 L 533.500000 187.500000"/>
<!--eid=229-->
<path d="M 516.500000 176.500000 L 531.500000 150.500000 L 546.500000 124.500000"/>
<!--eid=230-->
<path d="M 599.500000 214.500000 L 597.000000 145.000000 L 594.500000 75.500000"/>
<!--eid=231-->
<path d="M 676.500000 72.500000 L 638.000000 143.500000 L 599.500000 214.500000"/>
<!--eid=232-->
<path d="M 594.500000 75.500000 L 570.500000 100.000000 L 546.500000 124.500000"/>
<!--eid=233-->
<path d="M 522.500000 233.500000 L 526.500000 251.000000 L 530.500000 268.500000"/>
<!--eid=234-->
<path d="M 599.500000 41.250000 L 577.000000 55.625000 L 554.500000 70.000000"/>
<!--eid=235-->
<path d="M 533.500000 187.500000 L 540.000000 156.000000 L 546.500000 124.500000"/>
<!--eid=236-->
<path d="M 719.500000 112.500000 L 659.500000 163.500000 L 599.500000 214.500000"/>
<!--eid=237-->
<path d="M 594.500000 75.500000 L 635.500000 74.000000 L 676.500000 72.500000"/>
<!--eid=238-->
<path d="M 599.500000 41.250000 L 561.000000 25.625000 L 522.500000 10.000000"/>
<!--eid=239-->
<path d="M 743.500000 383.500000 L 667.500000 361.000000 L 591.500000 338.500000"/>
<!--eid=240-->
<path d="M 673.500000 423.500000 L 709.500000 422.000000 L 745.500000 420.500000"/>
<!--eid=241-->
<path d="M 745.500000 420.500000 L 744.500000 402.000000 L 743.500000 383.500000"/>
<!--eid=242-->
<path d="M 743.500000 383.500000 L 708.500000 403.500000 L 673.500000 423.500000"/>
<!--eid=243-->
<path d="M 788.500000 428.500000 L 766.000000 406.000000 L 743.500000 383.500000"/>
<!--eid=244-->
<path d="M 652.500000 408.500000 L 698.000000 396.000000 L 743.500000 383.500000"/>
<!--eid=245-->
<path d="M 743.500000 383.500000 L 739.000000 285.500000 L 734.500000 187.500000"/>
<!--eid=246-->
<path d="M 734.500000 187.500000 L 771.000000 268.000000 L 807.500000 348.500000"/>
<!--eid=247-->
<path d="M 807.500000 348.500000 L 827.500000 323.000000 L 847.500000 297.500000"/>
<!--eid=248-->
<path d="M 847.500000 297.500000 L 791.000000 242.500000 L 734.500000 187.500000"/>
<!--eid=249-->
<path d="M 943.250000 130.750000 L 895.375000 214.125000 L 847.500000 297.500000"/>
<!--eid=250-->
<path d="M 852.500000 251.500000 L 850.000000 274.500000 L 847.500000 297.500000"/>
<!--eid=251-->
<path d="M 743.500000 383.500000 L 775.500000 366.000000 L 807.500000 348.500000"/>
<!--eid=252-->
<path d="M 852.500000 251.500000 L 793.500000 219.500000 L 734.500000 187.500000"/>
<!--eid=253-->
<path d="M 719.500000 112.500000 L 698.000000 92.500000 L 676.500000 72.500000"/>
<!--eid=254-->
<path d="M 734.500000 187.500000 L 727.000000 150.000000 L 719.500000 112.500000"/>
<!--eid=255-->
<path d="M 734.500000 187.500000 L 758.000000 180.000000 L 781.500000 172.500000"/>
<!--eid=256-->
<path d="M 781.500000 172.500000 L 750.500000 142.500000 L 719.500000 112.500000"/>
<!--eid=257-->
<path d="M 822.750000 139.416667 L 771.125000 125.958333 L 719.500000 112.500000"/>
<!--eid=258-->
<path d="M 765.875000 56.875000 L 721.187500 64.687500 L 676.500000 72.500000"/>
<!--eid=259-->
<path d="M 781.500000 172.500000 L 806.500000 188.500000 L 831.500000 204.500000"/>
<!--eid=260-->
<path d="M 943.250000 130.750000 L 899.250000 70.375000 L 855.250000 10.000000"/>
<!--eid=261-->
<path d="M 822.750000 139.416667 L 883.000000 135.083333 L 943.250000 130.750000"/>
<!--eid=262-->
<path d="M 734.500000 187.500000 L 783.000000 196.000000 L 831.500000 204.500000"/>
<!--eid=263-->
<path d="M 831.500000 204.500000 L 842.000000 228.000000 L 852.500000 251.500000"/>
<!--eid=264-->
<path d="M 943.250000 130.750000 L 988.625000 70.375000 L 1034.000000 10.000000"/>
<!--eid=265-->
<path d="M 172.333333 789.000000 L 199.388889 748.166667 L 226.444444 707.333333"/>
<!--eid=266-->
<path d="M 1034.000000 521.500000 L 1034.000000 265.750000 L 1034.000000 10.000000"/>
<!--eid=267-->
<path d="M 652.500000 408.500000 L 663.000000 416.000000 L 673.500000 423.500000"/>
<!--eid=268-->
<path d="M 896.250000 844.250000 L 965.125000 939.125000 L 1034.000000 1034.000000"/>
<!--eid=269-->
<path d="M 794.083333 734.083333 L 724.541667 781.041667 L 655.000000 828.000000"/>
<!--eid=270-->
<path d="M 896.250000 844.250000 L 965.125000 682.875000 L 1034.000000 521.500000"/>
<!--eid=271-->
<path d="M 794.083333 734.083333 L 735.708333 742.375000 L 677.333333 750.666667"/>
<!--eid=272-->
<path d="M 655.000000 828.000000 L 644.250000 917.750000 L 633.500000 1007.500000"/>
<!--eid=273-->
<path d="M 655.000000 828.000000 L 652.250000 774.250000 L 649.500000 720.500000"/>
<!--eid=274-->
<path d="M 855.250000 10.000000 L 944.625000 10.000000 L 1034.000000 10.000000"/>
<!--eid=275-->
<path d="M 765.875000 56.875000 L 794.312500 98.145833 L 822.750000 139.416667"/>
<!--eid=276-->
<path d="M 855.250000 10.000000 L 688.875000 10.000000 L 522.500000 10.000000"/>
<!--eid=277-->
<path d="M 291.625000 39.625000 L 338.562500 44.562500 L 385.500000 49.500000"/>
<!--eid=278-->
<path d="M 332.500000 86.500000 L 279.375000 101.375000 L 226.250000 116.250000"/>
<!--eid=279-->
<path d="M 197.750000 10.000000 L 360.125000 10.000000 L 522.500000 10.000000"/>
<!--eid=280-->
<path d="M 219.500000 614.500000 L 222.972222 660.916667 L 226.444444 707.333333"/>
<!--eid=281-->
<path d="M 10.000000 1034.000000 L 91.166667 911.500000 L 172.333333 789.000000"/>
<!--eid=282-->
<path d="M 226.444444 707.333333 L 274.472222 697.416667 L 322.500000 687.500000"/>
<!--eid=283-->
<path d="M 832.500000 468.500000 L 867.750000 489.000000 L 903.000000 509.500000"/>
<!--eid=284-->
<path d="M 842.500000 538.500000 L 872.750000 524.000000 L 903.000000 509.500000"/>
<!--eid=285-->
<path d="M 1034.000000 521.500000 L 968.500000 515.500000 L 903.000000 509.500000"/>
<!--eid=286-->
<path d="M 480.500000 759.500000 L 438.166667 728.500000 L 395.833333 697.500000"/>
<!--eid=287-->
<path d="M 384.500000 645.500000 L 390.166667 671.500000 L 395.833333 697.500000"/>
<!--eid=288-->
<path d="M 322.500000 687.500000 L 359.166667 692.500000 L 395.833333 697.500000"/>
<!--eid=289-->
<path d="M 758.500000 654.500000 L 776.291667 694.291667 L 794.083333 734.083333"/>
<!--eid=290-->
<path d="M 727.500000 703.500000 L 760.791667 718.791667 L 794.083333 734.083333"/>
<!--eid=291-->
<path d="M 896.250000 844.250000 L 845.166667 789.166667 L 794.083333 734.083333"/>
<!--eid=292-->
<path d="M 875.750000 195.583333 L 861.625000 246.541667 L 847.500000 297.500000"/>
<!--eid=293-->
<path d="M 822.750000 139.416667 L 849.250000 167.500000 L 875.750000 195.583333"/>
<!--eid=294-->
<path d="M 943.250000 130.750000 L 988.625000 326.125000 L 1034.000000 521.500000"/>
<!--eid=295-->
<path d="M 190.000000 336.000000 L 200.750000 295.750000 L 211.500000 255.500000"/>
<!--eid=296-->
<path d="M 190.000000 336.000000 L 214.750000 356.750000 L 239.500000 377.500000"/>
<!--eid=297-->
<path d="M 10.000000 521.500000 L 58.875000 315.125000 L 107.750000 108.750000"/>
<!--eid=298-->
<path d="M 649.500000 720.500000 L 663.416667 735.583333 L 677.333333 750.666667"/>
<!--eid=299-->
<path d="M 655.000000 828.000000 L 666.166667 789.333333 L 677.333333 750.666667"/>
<!--eid=300-->
<path d="M 727.500000 703.500000 L 702.416667 727.083333 L 677.333333 750.666667"/>
<!--eid=301-->
<path d="M 89.250000 469.000000 L 128.875000 442.750000 L 168.500000 416.500000"/>
<!--eid=302-->
<path d="M 89.250000 469.000000 L 120.875000 476.250000 L 152.500000 483.500000"/>
<!--eid=303-->
<path d="M 89.250000 469.000000 L 139.625000 402.500000 L 190.000000 336.000000"/>
<!--eid=304-->
<path d="M 855.250000 10.000000 L 839.000000 74.708333 L 822.750000 139.416667"/>
<!--eid=305-->
<path d="M 781.500000 172.500000 L 802.125000 155.958333 L 822.750000 139.416667"/>
<!--eid=306-->
<path d="M 831.500000 204.500000 L 827.125000 171.958333 L 822.750000 139.416667"/>
<!--eid=307-->
<path d="M 591.500000 338.500000 L 622.000000 373.500000 L 652.500000 408.500000"/>
<!--eid=308-->
<path d="M 591.500000 338.500000 L 558.500000 343.500000 L 525.500000 348.500000"/>
<!--eid=309-->
<path d="M 591.500000 338.500000 L 663.000000 263.000000 L 734.500000 187.500000"/>
<!--eid=310-->
<path d="M 765.875000 56.875000 L 810.562500 33.437500 L 855.250000 10.000000"/>
<!--eid=311-->
<path d="M 765.875000 56.875000 L 742.687500 84.687500 L 719.500000 112.500000"/>
<!--eid=312-->
<path d="M 765.875000 56.875000 L 644.187500 33.437500 L 522.500000 10.000000"/>
<!--eid=313-->
<path d="M 291.625000 39.625000 L 244.687500 24.812500 L 197.750000 10.000000"/>
<!--eid=314-->
<path d="M 291.625000 39.625000 L 407.062500 24.812500 L 522.500000 10.000000"/>
<!--eid=315-->
<path d="M 291.625000 39.625000 L 312.062500 63.062500 L 332.500000 86.500000"/>
<!--eid=316-->
<path d="M 533.500000 187.500000 L 566.500000 201.000000 L 599.500000 214.500000"/>
<!--eid=317-->
<path d="M 530.500000 268.500000 L 565.000000 241.500000 L 599.500000 214.500000"/>
<!--eid=318-->
<path d="M 734.500000 187.500000 L 667.000000 201.000000 L 599.500000 214.500000"/>
<!--eid=319-->
<path d="M 107.750000 108.750000 L 156.625000 158.125000 L 205.500000 207.500000"/>
<!--eid=320-->
<path d="M 107.750000 108.750000 L 148.875000 222.375000 L 190.000000 336.000000"/>
<!--eid=321-->
<path d="M 107.750000 108.750000 L 163.125000 140.125000 L 218.500000 171.500000"/>
<!--eid=322-->
<path d="M 270.500000 325.500000 L 247.250000 315.583333 L 224.000000 305.666667"/>
<!--eid=323-->
<path d="M 211.500000 255.500000 L 217.750000 280.583333 L 224.000000 305.666667"/>
<!--eid=324-->
<path d="M 190.000000 336.000000 L 207.000000 320.833333 L 224.000000 305.666667"/>
<!--eid=325-->
<path d="M 546.500000 124.500000 L 550.500000 97.250000 L 554.500000 70.000000"/>
<!--eid=326-->
<path d="M 594.500000 75.500000 L 574.500000 72.750000 L 554.500000 70.000000"/>
<!--eid=327-->
<path d="M 522.500000 10.000000 L 538.500000 40.000000 L 554.500000 70.000000"/>
<!--eid=328-->
<path d="M 566.500000 643.500000 L 560.666667 670.000000 L 554.833333 696.500000"/>
<!--eid=329-->
<path d="M 490.500000 749.500000 L 522.666667 723.000000 L 554.833333 696.500000"/>
<!--eid=330-->
<path d="M 607.500000 696.500000 L 581.166667 696.500000 L 554.833333 696.500000"/>
<!--eid=331-->
<path d="M 554.500000 70.000000 L 530.000000 79.000000 L 505.500000 88.000000"/>
<!--eid=332-->
<path d="M 457.500000 63.500000 L 481.500000 75.750000 L 505.500000 88.000000"/>
<!--eid=333-->
<path d="M 504.500000 130.500000 L 505.000000 109.250000 L 505.500000 88.000000"/>
<!--eid=334-->
<path d="M 218.500000 171.500000 L 222.375000 143.875000 L 226.250000 116.250000"/>
<!--eid=335-->
<path d="M 262.500000 147.500000 L 244.375000 131.875000 L 226.250000 116.250000"/>
<!--eid=336-->
<path d="M 197.750000 10.000000 L 212.000000 63.125000 L 226.250000 116.250000"/>
<!--eid=337-->
<path d="M 599.500000 41.250000 L 638.000000 56.875000 L 676.500000 72.500000"/>
<!--eid=338-->
<path d="M 599.500000 41.250000 L 597.000000 58.375000 L 594.500000 75.500000"/>
<!--eid=339-->
<path d="M 599.500000 41.250000 L 682.687500 49.062500 L 765.875000 56.875000"/>
<!--eid=340-->
<path d="M 840.000000 383.000000 L 843.750000 340.250000 L 847.500000 297.500000"/>
<!--eid=341-->
<path d="M 840.000000 383.000000 L 871.500000 446.250000 L 903.000000 509.500000"/>
<!--eid=342-->
<path d="M 840.000000 383.000000 L 823.750000 365.750000 L 807.500000 348.500000"/>
<!--eid=343-->
<path d="M 852.500000 251.500000 L 864.125000 223.541667 L 875.750000 195.583333"/>
<!--eid=344-->
<path d="M 943.250000 130.750000 L 909.500000 163.166667 L 875.750000 195.583333"/>
<!--eid=345-->
<path d="M 831.500000 204.500000 L 853.625000 200.041667 L 875.750000 195.583333"/>
<!--eid=346-->
<path d="M 234.500000 653.500000 L 230.472222 680.416667 L 226.444444 707.333333"/>
</g>
<g fill="none" stroke="rgb(250.000000, 50.000000, 250.000000)" stroke-width="1.000000" stroke-linecap="round">
</g>
<g fill="rgb(250.000000, 50.000000, 50.000000)">
<!--vid=0-->
<circle cx="10.000000" cy="1034.000000" r="4.000000"/>
<!--vid=1-->
<circle cx="1034.000000" cy="1034.000000" r="4.000000"/>
<!--vid=2-->
<circle cx="1034.000000" cy="10.000000" r="4.000000"/>
<!--vid=3-->
<circle cx="10.000000" cy="10.000000" r="4.000000"/>
<!--vid=4-->
<circle cx="522.500000" cy="1034.000000" r="4.000000"/>
<!--vid=5-->
<circle cx="1034.000000" cy="521.500000" r="4.000000"/>
<!--vid=6-->
<circle cx="522.500000" cy="10.000000" r="4.000000"/>
<!--vid=7-->
<circle cx="10.000000" cy="521.500000" r="4.000000"/>
<!--vid=8-->
<circle cx="506.500000" cy="415.500000" r="4.000000"/>
<!--vid=9-->
<circle cx="525.500000" cy="348.500000" r="4.000000"/>
<!--vid=10-->
<circle cx="530.500000" cy="268.500000" r="4.000000"/>
<!--vid=11-->
<circle cx="533.500000" cy="187.500000" r="4.000000"/>
<!--vid=12-->
<circle cx="546.500000" cy="124.500000" r="4.000000"/>
<!--vid=13-->
<circle cx="594.500000" cy="75.500000" r="4.000000"/>
<!--vid=14-->
<circle cx="676.500000" cy="72.500000" r="4.000000"/>
<!--vid=15-->
<circle cx="719.500000" cy="112.500000" r="4.000000"/>
<!--vid=16-->
<circle cx="734.500000" cy="187.500000" r="4.000000"/>
<!--vid=17-->
<circle cx="781.500000" cy="172.500000" r="4.000000"/>
<!--vid=18-->
<circle cx="831.500000" cy="204.500000" r="4.000000"/>
<!--vid=19-->
<circle cx="852.500000" cy="251.500000" r="4.000000"/>
<!--vid=20-->
<circle cx="847.500000" cy="297.500000" r="4.000000"/>
<!--vid=21-->
<circle cx="807.500000" cy="348.500000" r="4.000000"/>
<!--vid=22-->
<circle cx="743.500000" cy="383.500000" r="4.000000"/>
<!--vid=23-->
<circle cx="652.500000" cy="408.500000" r="4.000000"/>
<!--vid=24-->
<circle cx="588.500000" cy="417.500000" r="4.000000"/>
<!--vid=25-->
<circle cx="524.500000" cy="422.500000" r="4.000000"/>
<!--vid=26-->
<circle cx="601.500000" cy="428.500000" r="4.000000"/>
<!--vid=27-->
<circle cx="673.500000" cy="423.500000" r="4.000000"/>
<!--vid=28-->
<circle cx="745.500000" cy="420.500000" r="4.000000"/>
<!--vid=29-->
<circle cx="788.500000" cy="428.500000" r="4.000000"/>
<!--vid=30-->
<circle cx="832.500000" cy="468.500000" r="4.000000"/>
<!--vid=31-->
<circle cx="842.500000" cy="538.500000" r="4.000000"/>
<!--vid=32-->
<circle cx="807.500000" cy="585.500000" r="4.000000"/>
<!--vid=33-->
<circle cx="740.500000" cy="605.500000" r="4.000000"/>
<!--vid=34-->
<circle cx="758.500000" cy="654.500000" r="4.000000"/>
<!--vid=35-->
<circle cx="727.500000" cy="703.500000" r="4.000000"/>
<!--vid=36-->
<circle cx="649.500000" cy="720.500000" r="4.000000"/>
<!--vid=37-->
<circle cx="607.500000" cy="696.500000" r="4.000000"/>
<!--vid=38-->
<circle cx="566.500000" cy="643.500000" r="4.000000"/>
<!--vid=39-->
<circle cx="531.500000" cy="559.500000" r="4.000000"/>
<!--vid=40-->
<circle cx="516.500000" cy="501.500000" r="4.000000"/>
<!--vid=41-->
<circle cx="504.500000" cy="445.500000" r="4.000000"/>
<!--vid=42-->
<circle cx="488.500000" cy="517.500000" r="4.000000"/>
<!--vid=43-->
<circle cx="479.500000" cy="594.500000" r="4.000000"/>
<!--vid=44-->
<circle cx="479.500000" cy="667.500000" r="4.000000"/>
<!--vid=45-->
<circle cx="490.500000" cy="749.500000" r="4.000000"/>
<!--vid=46-->
<circle cx="508.500000" cy="814.500000" r="4.000000"/>
<!--vid=47-->
<circle cx="539.500000" cy="885.500000" r="4.000000"/>
<!--vid=48-->
<circle cx="582.500000" cy="952.500000" r="4.000000"/>
<!--vid=49-->
<circle cx="633.500000" cy="1007.500000" r="4.000000"/>
<!--vid=50-->
<circle cx="625.500000" cy="1015.500000" r="4.000000"/>
<!--vid=51-->
<circle cx="581.500000" cy="970.500000" r="4.000000"/>
<!--vid=52-->
<circle cx="537.500000" cy="906.500000" r="4.000000"/>
<!--vid=53-->
<circle cx="505.500000" cy="840.500000" r="4.000000"/>
<!--vid=54-->
<circle cx="480.500000" cy="759.500000" r="4.000000"/>
<!--vid=55-->
<circle cx="468.500000" cy="680.500000" r="4.000000"/>
<!--vid=56-->
<circle cx="467.500000" cy="597.500000" r="4.000000"/>
<!--vid=57-->
<circle cx="477.500000" cy="511.500000" r="4.000000"/>
<!--vid=58-->
<circle cx="494.500000" cy="441.500000" r="4.000000"/>
<!--vid=59-->
<circle cx="461.500000" cy="485.500000" r="4.000000"/>
<!--vid=60-->
<circle cx="434.500000" cy="541.500000" r="4.000000"/>
<!--vid=61-->
<circle cx="410.500000" cy="598.500000" r="4.000000"/>
<!--vid=62-->
<circle cx="384.500000" cy="645.500000" r="4.000000"/>
<!--vid=63-->
<circle cx="322.500000" cy="687.500000" r="4.000000"/>
<!--vid=64-->
<circle cx="272.500000" cy="679.500000" r="4.000000"/>
<!--vid=65-->
<circle cx="234.500000" cy="653.500000" r="4.000000"/>
<!--vid=66-->
<circle cx="219.500000" cy="614.500000" r="4.000000"/>
<!--vid=67-->
<circle cx="233.500000" cy="544.500000" r="4.000000"/>
<!--vid=68-->
<circle cx="182.500000" cy="536.500000" r="4.000000"/>
<!--vid=69-->
<circle cx="152.500000" cy="483.500000" r="4.000000"/>
<!--vid=70-->
<circle cx="168.500000" cy="416.500000" r="4.000000"/>
<!--vid=71-->
<circle cx="239.500000" cy="377.500000" r="4.000000"/>
<!--vid=72-->
<circle cx="294.500000" cy="373.500000" r="4.000000"/>
<!--vid=73-->
<circle cx="348.500000" cy="378.500000" r="4.000000"/>
<!--vid=74-->
<circle cx="414.500000" cy="392.500000" r="4.000000"/>
<!--vid=75-->
<circle cx="495.500000" cy="417.500000" r="4.000000"/>
<!--vid=76-->
<circle cx="426.500000" cy="380.500000" r="4.000000"/>
<!--vid=77-->
<circle cx="372.500000" cy="362.500000" r="4.000000"/>
<!--vid=78-->
<circle cx="317.500000" cy="345.500000" r="4.000000"/>
<!--vid=79-->
<circle cx="270.500000" cy="325.500000" r="4.000000"/>
<!--vid=80-->
<circle cx="211.500000" cy="255.500000" r="4.000000"/>
<!--vid=81-->
<circle cx="205.500000" cy="207.500000" r="4.000000"/>
<!--vid=82-->
<circle cx="218.500000" cy="171.500000" r="4.000000"/>
<!--vid=83-->
<circle cx="262.500000" cy="147.500000" r="4.000000"/>
<!--vid=84-->
<circle cx="333.500000" cy="151.500000" r="4.000000"/>
<!--vid=85-->
<circle cx="332.500000" cy="86.500000" r="4.000000"/>
<!--vid=86-->
<circle cx="385.500000" cy="49.500000" r="4.000000"/>
<!--vid=87-->
<circle cx="457.500000" cy="63.500000" r="4.000000"/>
<!--vid=88-->
<circle cx="504.500000" cy="130.500000" r="4.000000"/>
<!--vid=89-->
<circle cx="516.500000" cy="176.500000" r="4.000000"/>
<!--vid=90-->
<circle cx="522.500000" cy="233.500000" r="4.000000"/>
<!--vid=91-->
<circle cx="520.500000" cy="320.500000" r="4.000000"/>
<!--vid=92-->
<circle cx="507.500000" cy="411.500000" r="4.000000"/>
<!--vid=93-->
<circle cx="896.250000" cy="844.250000" r="4.000000"/>
<!--vid=94-->
<circle cx="655.000000" cy="828.000000" r="4.000000"/>
<!--vid=95-->
<circle cx="855.250000" cy="10.000000" r="4.000000"/>
<!--vid=96-->
<circle cx="197.750000" cy="10.000000" r="4.000000"/>
<!--vid=97-->
<circle cx="172.333333" cy="789.000000" r="4.000000"/>
<!--vid=98-->
<circle cx="903.000000" cy="509.500000" r="4.000000"/>
<!--vid=99-->
<circle cx="395.833333" cy="697.500000" r="4.000000"/>
<!--vid=100-->
<circle cx="794.083333" cy="734.083333" r="4.000000"/>
<!--vid=101-->
<circle cx="943.250000" cy="130.750000" r="4.000000"/>
<!--vid=102-->
<circle cx="190.000000" cy="336.000000" r="4.000000"/>
<!--vid=103-->
<circle cx="677.333333" cy="750.666667" r="4.000000"/>
<!--vid=104-->
<circle cx="89.250000" cy="469.000000" r="4.000000"/>
<!--vid=105-->
<circle cx="822.750000" cy="139.416667" r="4.000000"/>
<!--vid=106-->
<circle cx="591.500000" cy="338.500000" r="4.000000"/>
<!--vid=107-->
<circle cx="765.875000" cy="56.875000" r="4.000000"/>
<!--vid=108-->
<circle cx="291.625000" cy="39.625000" r="4.000000"/>
<!--vid=109-->
<circle cx="599.500000" cy="214.500000" r="4.000000"/>
<!--vid=110-->
<circle cx="107.750000" cy="108.750000" r="4.000000"/>
<!--vid=111-->
<circle cx="224.000000" cy="305.666667" r="4.000000"/>
<!--vid=112-->
<circle cx="554.500000" cy="70.000000" r="4.000000"/>
<!--vid=113-->
<circle cx="554.833333" cy="696.500000" r="4.000000"/>
<!--vid=114-->
<circle cx="505.500000" cy="88.000000" r="4.000000"/>
<!--vid=115-->
<circle cx="226.250000" cy="116.250000" r="4.000000"/>
<!--vid=116-->
<circle cx="599.500000" cy="41.250000" r="4.000000"/>
<!--vid=117-->
<circle cx="840.000000" cy="383.000000" r="4.000000"/>
<!--vid=118-->
<circle cx="875.750000" cy="195.583333" r="4.000000"/>
<!--vid=119-->
<circle cx="226.444444" cy="707.333333" r="4.000000"/>
</g>
</svg>
