<svg xmlns="http://www.w3.org/2000/svg" xmlns:xlink="http://www.w3.org/1999/xlink"
  width="1044" height="1044" viewBox="0 0 1044 1044">
<metadata>
  Created by Xiao, Yanyang (yanyangxiaoxyy@gmail.com)
  All copyrights reserved
</metadata>
<g fill="none" stroke="rgb(50.000000, 250.000000, 50.000000)" stroke-width="3.000000" stroke-linecap="round">
<line x1="10.000000" y1="1034.000000" x2="522.500000" y2="1034.000000"/>
<line x1="522.500000" y1="1034.000000" x2="1034.000000" y2="1034.000000"/>
<line x1="1034.000000" y1="1034.000000" x2="1034.000000" y2="521.500000"/>
<line x1="1034.000000" y1="521.500000" x2="1034.000000" y2="10.000000"/>
<line x1="1034.000000" y1="10.000000" x2="522.500000" y2="10.000000"/>
<line x1="522.500000" y1="10.000000" x2="10.000000" y2="10.000000"/>
<line x1="10.000000" y1="10.000000" x2="10.000000" y2="521.500000"/>
<line x1="10.000000" y1="521.500000" x2="10.000000" y2="1034.000000"/>
<line x1="506.500000" y1="415.500000" x2="525.500000" y2="348.500000"/>
<line x1="525.500000" y1="348.500000" x2="530.500000" y2="268.500000"/>
<line x1="530.500000" y1="268.500000" x2="533.500000" y2="187.500000"/>
<line x1="533.500000" y1="187.500000" x2="546.500000" y2="124.500000"/>
<line x1="546.500000" y1="124.500000" x2="594.500000" y2="75.500000"/>
<line x1="594.500000" y1="75.500000" x2="676.500000" y2="72.500000"/>
<line x1="676.500000" y1="72.500000" x2="719.500000" y2="112.500000"/>
<line x1="719.500000" y1="112.500000" x2="734.500000" y2="187.500000"/>
<line x1="734.500000" y1="187.500000" x2="781.500000" y2="172.500000"/>
<line x1="781.500000" y1="172.500000" x2="831.500000" y2="204.500000"/>
<line x1="831.500000" y1="204.500000" x2="852.500000" y2="251.500000"/>
<line x1="852.500000" y1="251.500000" x2="847.500000" y2="297.500000"/>
<line x1="847.500000" y1="297.500000" x2="807.500000" y2="348.500000"/>
<line x1="807.500000" y1="348.500000" x2="743.500000" y2="383.500000"/>
<line x1="743.500000" y1="383.500000" x2="652.500000" y2="408.500000"/>
<line x1="652.500000" y1="408.500000" x2="588.500000" y2="417.500000"/>
<line x1="588.500000" y1="417.500000" x2="524.500000" y2="422.500000"/>
<line x1="524.500000" y1="422.500000" x2="601.500000" y2="428.500000"/>
<line x1="601.500000" y1="428.500000" x2="673.500000" y2="423.500000"/>
<line x1="673.500000" y1="423.500000" x2="745.500000" y2="420.500000"/>
<line x1="745.500000" y1="420.500000" x2="788.500000" y2="428.500000"/>
<line x1="788.500000" y1="428.500000" x2="832.500000" y2="468.500000"/>
<line x1="832.500000" y1="468.500000" x2="842.500000" y2="538.500000"/>
<line x1="842.500000" y1="538.500000" x2="807.500000" y2="585.500000"/>
<line x1="807.500000" y1="585.500000" x2="740.500000" y2="605.500000"/>
<line x1="740.500000" y1="605.500000" x2="758.500000" y2="654.500000"/>
<line x1="758.500000" y1="654.500000" x2="727.500000" y2="703.500000"/>
<line x1="727.500000" y1="703.500000" x2="649.500000" y2="720.500000"/>
<line x1="649.500000" y1="720.500000" x2="607.500000" y2="696.500000"/>
<line x1="607.500000" y1="696.500000" x2="566.500000" y2="643.500000"/>
<line x1="566.500000" y1="643.500000" x2="531.500000" y2="559.500000"/>
<line x1="531.500000" y1="559.500000" x2="516.500000" y2="501.500000"/>
<line x1="516.500000" y1="501.500000" x2="504.500000" y2="445.500000"/>
<line x1="504.500000" y1="445.500000" x2="488.500000" y2="517.500000"/>
<line x1="488.500000" y1="517.500000" x2="479.500000" y2="594.500000"/>
<line x1="479.500000" y1="594.500000" x2="479.500000" y2="667.500000"/>
<line x1="479.500000" y1="667.500000" x2="490.500000" y2="749.500000"/>
<line x1="490.500000" y1="749.500000" x2="508.500000" y2="814.500000"/>
<line x1="508.500000" y1="814.500000" x2="539.500000" y2="885.500000"/>
<line x1="539.500000" y1="885.500000" x2="582.500000" y2="952.500000"/>
<line x1="582.500000" y1="952.500000" x2="633.500000" y2="1007.500000"/>
<line x1="633.500000" y1="1007.500000" x2="625.500000" y2="1015.500000"/>
<line x1="625.500000" y1="1015.500000" x2="581.500000" y2="970.500000"/>
<line x1="581.500000" y1="970.500000" x2="537.500000" y2="906.500000"/>
<line x1="537.500000" y1="906.500000" x2="505.500000" y2="840.500000"/>
<line x1="505.500000" y1="840.500000" x2="480.500000" y2="759.500000"/>
<line x1="480.500000" y1="759.500000" x2="468.500000" y2="680.500000"/>
<line x1="468.500000" y1="680.500000" x2="467.500000" y2="597.500000"/>
<line x1="467.500000" y1="597.500000" x2="477.500000" y2="511.500000"/>
<line x1="477.500000" y1="511.500000" x2="494.500000" y2="441.500000"/>
<line x1="494.500000" y1="441.500000" x2="461.500000" y2="485.500000"/>
<line x1="461.500000" y1="485.500000" x2="434.500000" y2="541.500000"/>
<line x1="434.500000" y1="541.500000" x2="410.500000" y2="598.500000"/>
<line x1="410.500000" y1="598.500000" x2="384.500000" y2="645.500000"/>
<line x1="384.500000" y1="645.500000" x2="322.500000" y2="687.500000"/>
<line x1="322.500000" y1="687.500000" x2="272.500000" y2="679.500000"/>
<line x1="272.500000" y1="679.500000" x2="234.500000" y2="653.500000"/>
<line x1="234.500000" y1="653.500000" x2="219.500000" y2="614.500000"/>
<line x1="219.500000" y1="614.500000" x2="233.500000" y2="544.500000"/>
<line x1="233.500000" y1="544.500000" x2="182.500000" y2="536.500000"/>
<line x1="182.500000" y1="536.500000" x2="152.500000" y2="483.500000"/>
<line x1="152.500000" y1="483.500000" x2="168.500000" y2="416.500000"/>
<line x1="168.500000" y1="416.500000" x2="239.500000" y2="377.500000"/>
<line x1="239.500000" y1="377.500000" x2="294.500000" y2="373.500000"/>
<line x1="294.500000" y1="373.500000" x2="348.500000" y2="378.500000"/>
<line x1="348.500000" y1="378.500000" x2="414.500000" y2="392.500000"/>
<line x1="414.500000" y1="392.500000" x2="495.500000" y2="417.500000"/>
<line x1="495.500000" y1="417.500000" x2="426.500000" y2="380.500000"/>
<line x1="426.500000" y1="380.500000" x2="372.500000" y2="362.500000"/>
<line x1="372.500000" y1="362.500000" x2="317.500000" y2="345.500000"/>
<line x1="317.500000" y1="345.500000" x2="270.500000" y2="325.500000"/>
<line x1="270.500000" y1="325.500000" x2="211.500000" y2="255.500000"/>
<line x1="211.500000" y1="255.500000" x2="205.500000" y2="207.500000"/>
<line x1="205.500000" y1="207.500000" x2="218.500000" y2="171.500000"/>
<line x1="218.500000" y1="171.500000" x2="262.500000" y2="147.500000"/>
<line x1="262.500000" y1="147.500000" x2="333.500000" y2="151.500000"/>
<line x1="333.500000" y1="151.500000" x2="332.500000" y2="86.500000"/>
<line x1="332.500000" y1="86.500000" x2="385.500000" y2="49.500000"/>
<line x1="385.500000" y1="49.500000" x2="457.500000" y2="63.500000"/>
<line x1="457.500000" y1="63.500000" x2="504.500000" y2="130.500000"/>
<line x1="504.500000" y1="130.500000" x2="516.500000" y2="176.500000"/>
<line x1="516.500000" y1="176.500000" x2="522.500000" y2="233.500000"/>
<line x1="522.500000" y1="233.500000" x2="520.500000" y2="320.500000"/>
<line x1="520.500000" y1="320.500000" x2="507.500000" y2="411.500000"/>
</g>
<g fill="rgb(250.000000, 50.000000, 50.000000)">
<circle cx="10.000000" cy="1034.000000" r="5.000000"/>
<circle cx="1034.000000" cy="1034.000000" r="5.000000"/>
<circle cx="1034.000000" cy="10.000000" r="5.000000"/>
<circle cx="10.000000" cy="10.000000" r="5.000000"/>
<circle cx="522.500000" cy="1034.000000" r="5.000000"/>
<circle cx="1034.000000" cy="521.500000" r="5.000000"/>
<circle cx="522.500000" cy="10.000000" r="5.000000"/>
<circle cx="10.000000" cy="521.500000" r="5.000000"/>
<circle cx="506.500000" cy="415.500000" r="5.000000"/>
<circle cx="525.500000" cy="348.500000" r="5.000000"/>
<circle cx="530.500000" cy="268.500000" r="5.000000"/>
<circle cx="533.500000" cy="187.500000" r="5.000000"/>
<circle cx="546.500000" cy="124.500000" r="5.000000"/>
<circle cx="594.500000" cy="75.500000" r="5.000000"/>
<circle cx="676.500000" cy="72.500000" r="5.000000"/>
<circle cx="719.500000" cy="112.500000" r="5.000000"/>
<circle cx="734.500000" cy="187.500000" r="5.000000"/>
<circle cx="781.500000" cy="172.500000" r="5.000000"/>
<circle cx="831.500000" cy="204.500000" r="5.000000"/>
<circle cx="852.500000" cy="251.500000" r="5.000000"/>
<circle cx="847.500000" cy="297.500000" r="5.000000"/>
<circle cx="807.500000" cy="348.500000" r="5.000000"/>
<circle cx="743.500000" cy="383.500000" r="5.000000"/>
<circle cx="652.500000" cy="408.500000" r="5.000000"/>
<circle cx="588.500000" cy="417.500000" r="5.000000"/>
<circle cx="524.500000" cy="422.500000" r="5.000000"/>
<circle cx="601.500000" cy="428.500000" r="5.000000"/>
<circle cx="673.500000" cy="423.500000" r="5.000000"/>
<circle cx="745.500000" cy="420.500000" r="5.000000"/>
<circle cx="788.500000" cy="428.500000" r="5.000000"/>
<circle cx="832.500000" cy="468.500000" r="5.000000"/>
<circle cx="842.500000" cy="538.500000" r="5.000000"/>
<circle cx="807.500000" cy="585.500000" r="5.000000"/>
<circle cx="740.500000" cy="605.500000" r="5.000000"/>
<circle cx="758.500000" cy="654.500000" r="5.000000"/>
<circle cx="727.500000" cy="703.500000" r="5.000000"/>
<circle cx="649.500000" cy="720.500000" r="5.000000"/>
<circle cx="607.500000" cy="696.500000" r="5.000000"/>
<circle cx="566.500000" cy="643.500000" r="5.000000"/>
<circle cx="531.500000" cy="559.500000" r="5.000000"/>
<circle cx="516.500000" cy="501.500000" r="5.000000"/>
<circle cx="504.500000" cy="445.500000" r="5.000000"/>
<circle cx="488.500000" cy="517.500000" r="5.000000"/>
<circle cx="479.500000" cy="594.500000" r="5.000000"/>
<circle cx="479.500000" cy="667.500000" r="5.000000"/>
<circle cx="490.500000" cy="749.500000" r="5.000000"/>
<circle cx="508.500000" cy="814.500000" r="5.000000"/>
<circle cx="539.500000" cy="885.500000" r="5.000000"/>
<circle cx="582.500000" cy="952.500000" r="5.000000"/>
<circle cx="633.500000" cy="1007.500000" r="5.000000"/>
<circle cx="625.500000" cy="1015.500000" r="5.000000"/>
<circle cx="581.500000" cy="970.500000" r="5.000000"/>
<circle cx="537.500000" cy="906.500000" r="5.000000"/>
<circle cx="505.500000" cy="840.500000" r="5.000000"/>
<circle cx="480.500000" cy="759.500000" r="5.000000"/>
<circle cx="468.500000" cy="680.500000" r="5.000000"/>
<circle cx="467.500000" cy="597.500000" r="5.000000"/>
<circle cx="477.500000" cy="511.500000" r="5.000000"/>
<circle cx="494.500000" cy="441.500000" r="5.000000"/>
<circle cx="461.500000" cy="485.500000" r="5.000000"/>
<circle cx="434.500000" cy="541.500000" r="5.000000"/>
<circle cx="410.500000" cy="598.500000" r="5.000000"/>
<circle cx="384.500000" cy="645.500000" r="5.000000"/>
<circle cx="322.500000" cy="687.500000" r="5.000000"/>
<circle cx="272.500000" cy="679.500000" r="5.000000"/>
<circle cx="234.500000" cy="653.500000" r="5.000000"/>
<circle cx="219.500000" cy="614.500000" r="5.000000"/>
<circle cx="233.500000" cy="544.500000" r="5.000000"/>
<circle cx="182.500000" cy="536.500000" r="5.000000"/>
<circle cx="152.500000" cy="483.500000" r="5.000000"/>
<circle cx="168.500000" cy="416.500000" r="5.000000"/>
<circle cx="239.500000" cy="377.500000" r="5.000000"/>
<circle cx="294.500000" cy="373.500000" r="5.000000"/>
<circle cx="348.500000" cy="378.500000" r="5.000000"/>
<circle cx="414.500000" cy="392.500000" r="5.000000"/>
<circle cx="495.500000" cy="417.500000" r="5.000000"/>
<circle cx="426.500000" cy="380.500000" r="5.000000"/>
<circle cx="372.500000" cy="362.500000" r="5.000000"/>
<circle cx="317.500000" cy="345.500000" r="5.000000"/>
<circle cx="270.500000" cy="325.500000" r="5.000000"/>
<circle cx="211.500000" cy="255.500000" r="5.000000"/>
<circle cx="205.500000" cy="207.500000" r="5.000000"/>
<circle cx="218.500000" cy="171.500000" r="5.000000"/>
<circle cx="262.500000" cy="147.500000" r="5.000000"/>
<circle cx="333.500000" cy="151.500000" r="5.000000"/>
<circle cx="332.500000" cy="86.500000" r="5.000000"/>
<circle cx="385.500000" cy="49.500000" r="5.000000"/>
<circle cx="457.500000" cy="63.500000" r="5.000000"/>
<circle cx="504.500000" cy="130.500000" r="5.000000"/>
<circle cx="516.500000" cy="176.500000" r="5.000000"/>
<circle cx="522.500000" cy="233.500000" r="5.000000"/>
<circle cx="520.500000" cy="320.500000" r="5.000000"/>
<circle cx="507.500000" cy="411.500000" r="5.000000"/>
</g>
</svg>
