<svg xmlns="http://www.w3.org/2000/svg" xmlns:xlink="http://www.w3.org/1999/xlink"
  width="1024" height="1024" viewBox="0 0 1024 1024">
<metadata>
  Created by Xiao, Yanyang (yanyangxiaoxyy@gmail.com)
  All copyrights reserved
</metadata>
<g fill="rgb(255.000000, 255.000000, 255.000000)">
<!--fid=0-->
<path d="M 162.333333 779.000000 Q 81.166667 645.250000 0.000000 511.500000 Q 0.000000 767.750000 0.000000 1024.000000 Q 81.166667 901.500000 162.333333 779.000000 Z" />
</g>
<g fill="rgb(240.291019, 247.966322, 234.635579)">
<!--fid=1-->
<path d="M 262.500000 669.500000 Q 243.500000 656.500000 224.500000 643.500000 Q 220.472222 670.416667 216.444444 697.333333 Q 239.472222 683.416667 262.500000 669.500000 Z" />
</g>
<g fill="rgb(68.923739, 169.873157, 1.499611)">
<!--fid=2-->
<path d="M 374.500000 635.500000 Q 318.500000 652.500000 262.500000 669.500000 Q 287.500000 673.500000 312.500000 677.500000 Q 343.500000 656.500000 374.500000 635.500000 Z" />
</g>
<g fill="rgb(236.693947, 246.458521, 229.938341)">
<!--fid=3-->
<path d="M 216.444444 697.333333 Q 264.472222 687.416667 312.500000 677.500000 Q 287.500000 673.500000 262.500000 669.500000 Q 239.472222 683.416667 216.444444 697.333333 Z" />
</g>
<g fill="rgb(254.962385, 254.981620, 254.937380)">
<!--fid=4-->
<path d="M 495.500000 830.500000 Q 440.666667 759.000000 385.833333 687.500000 Q 349.166667 682.500000 312.500000 677.500000 Q 404.000000 754.000000 495.500000 830.500000 Z" />
</g>
<g fill="rgb(70.062033, 170.206772, 3.490602)">
<!--fid=5-->
<path d="M 209.500000 604.500000 Q 217.000000 624.000000 224.500000 643.500000 Q 243.500000 656.500000 262.500000 669.500000 Q 236.000000 637.000000 209.500000 604.500000 Z" />
</g>
<g fill="rgb(254.995059, 254.996561, 254.991862)">
<!--fid=6-->
<path d="M 162.333333 779.000000 Q 328.916667 804.750000 495.500000 830.500000 Q 404.000000 754.000000 312.500000 677.500000 Q 237.416667 728.250000 162.333333 779.000000 Z" />
</g>
<g fill="rgb(68.061811, 169.991365, 0.145104)">
<!--fid=7-->
<path d="M 374.500000 635.500000 Q 292.000000 620.000000 209.500000 604.500000 Q 236.000000 637.000000 262.500000 669.500000 Q 318.500000 652.500000 374.500000 635.500000 Z" />
</g>
<g fill="rgb(227.885522, 242.290236, 217.983165)">
<!--fid=8-->
<path d="M 79.250000 459.000000 Q 125.875000 492.750000 172.500000 526.500000 Q 157.500000 500.000000 142.500000 473.500000 Q 110.875000 466.250000 79.250000 459.000000 Z" />
</g>
<g fill="rgb(254.970788, 254.986090, 254.930757)">
<!--fid=9-->
<path d="M 209.500000 604.500000 Q 191.000000 565.500000 172.500000 526.500000 Q 86.250000 519.000000 0.000000 511.500000 Q 104.750000 558.000000 209.500000 604.500000 Z" />
</g>
<g fill="rgb(68.813508, 170.081195, 1.331190)">
<!--fid=10-->
<path d="M 223.500000 534.500000 Q 183.000000 504.000000 142.500000 473.500000 Q 157.500000 500.000000 172.500000 526.500000 Q 198.000000 530.500000 223.500000 534.500000 Z" />
</g>
<g fill="rgb(254.960876, 254.968701, 254.932707)">
<!--fid=11-->
<path d="M 172.500000 526.500000 Q 125.875000 492.750000 79.250000 459.000000 Q 39.625000 485.250000 0.000000 511.500000 Q 86.250000 519.000000 172.500000 526.500000 Z" />
</g>
<g fill="rgb(68.053213, 169.954904, 0.125000)">
<!--fid=12-->
<path d="M 209.500000 604.500000 Q 292.000000 620.000000 374.500000 635.500000 Q 299.000000 585.000000 223.500000 534.500000 Q 216.500000 569.500000 209.500000 604.500000 Z" />
</g>
<g fill="rgb(68.250408, 169.912626, 0.524474)">
<!--fid=13-->
<path d="M 400.500000 588.500000 Q 312.000000 561.500000 223.500000 534.500000 Q 299.000000 585.000000 374.500000 635.500000 Q 387.500000 612.000000 400.500000 588.500000 Z" />
</g>
<g fill="rgb(68.223733, 170.016730, 0.366677)">
<!--fid=14-->
<path d="M 223.500000 534.500000 Q 191.000000 470.500000 158.500000 406.500000 Q 150.500000 440.000000 142.500000 473.500000 Q 183.000000 504.000000 223.500000 534.500000 Z" />
</g>
<g fill="rgb(210.722404, 234.172620, 194.595780)">
<!--fid=15-->
<path d="M 172.500000 526.500000 Q 191.000000 565.500000 209.500000 604.500000 Q 216.500000 569.500000 223.500000 534.500000 Q 198.000000 530.500000 172.500000 526.500000 Z" />
</g>
<g fill="rgb(254.999704, 255.000000, 254.999210)">
<!--fid=16-->
<path d="M 162.333333 779.000000 Q 185.916667 691.750000 209.500000 604.500000 Q 104.750000 558.000000 0.000000 511.500000 Q 81.166667 645.250000 162.333333 779.000000 Z" />
</g>
<g fill="rgb(68.329175, 169.882940, 0.614291)">
<!--fid=17-->
<path d="M 400.500000 588.500000 Q 412.500000 560.000000 424.500000 531.500000 Q 324.000000 533.000000 223.500000 534.500000 Q 312.000000 561.500000 400.500000 588.500000 Z" />
</g>
<g fill="rgb(252.541443, 253.978144, 251.403711)">
<!--fid=18-->
<path d="M 400.500000 588.500000 Q 387.500000 612.000000 374.500000 635.500000 Q 416.500000 653.000000 458.500000 670.500000 Q 429.500000 629.500000 400.500000 588.500000 Z" />
</g>
<g fill="rgb(249.524885, 252.370556, 247.280218)">
<!--fid=19-->
<path d="M 400.500000 588.500000 Q 429.500000 629.500000 458.500000 670.500000 Q 458.000000 629.000000 457.500000 587.500000 Q 429.000000 588.000000 400.500000 588.500000 Z" />
</g>
<g fill="rgb(251.477064, 253.554129, 249.724771)">
<!--fid=20-->
<path d="M 400.500000 588.500000 Q 429.000000 588.000000 457.500000 587.500000 Q 441.000000 559.500000 424.500000 531.500000 Q 412.500000 560.000000 400.500000 588.500000 Z" />
</g>
<g fill="rgb(89.263972, 176.720621, 30.874760)">
<!--fid=21-->
<path d="M 480.500000 739.500000 Q 475.000000 698.500000 469.500000 657.500000 Q 464.000000 664.000000 458.500000 670.500000 Q 469.500000 705.000000 480.500000 739.500000 Z" />
</g>
<g fill="rgb(90.340960, 177.490649, 31.665281)">
<!--fid=22-->
<path d="M 469.500000 584.500000 Q 463.500000 586.000000 457.500000 587.500000 Q 463.500000 622.500000 469.500000 657.500000 Q 469.500000 621.000000 469.500000 584.500000 Z" />
</g>
<g fill="rgb(82.427188, 173.016995, 21.742719)">
<!--fid=23-->
<path d="M 498.500000 804.500000 Q 489.500000 772.000000 480.500000 739.500000 Q 475.500000 744.500000 470.500000 749.500000 Q 484.500000 777.000000 498.500000 804.500000 Z" />
</g>
<g fill="rgb(251.021170, 253.235181, 249.222479)">
<!--fid=24-->
<path d="M 385.833333 687.500000 Q 440.666667 759.000000 495.500000 830.500000 Q 483.000000 790.000000 470.500000 749.500000 Q 428.166667 718.500000 385.833333 687.500000 Z" />
</g>
<g fill="rgb(253.095938, 254.384375, 252.066250)">
<!--fid=25-->
<path d="M 556.500000 633.500000 Q 513.000000 609.000000 469.500000 584.500000 Q 469.500000 621.000000 469.500000 657.500000 Q 513.000000 645.500000 556.500000 633.500000 Z" />
</g>
<g fill="rgb(73.646292, 170.045857, 9.124454)">
<!--fid=26-->
<path d="M 458.500000 670.500000 Q 464.500000 710.000000 470.500000 749.500000 Q 475.500000 744.500000 480.500000 739.500000 Q 469.500000 705.000000 458.500000 670.500000 Z" />
</g>
<g fill="rgb(77.135732, 170.872261, 13.998004)">
<!--fid=27-->
<path d="M 458.500000 670.500000 Q 464.000000 664.000000 469.500000 657.500000 Q 463.500000 622.500000 457.500000 587.500000 Q 458.000000 629.000000 458.500000 670.500000 Z" />
</g>
<g fill="rgb(254.267394, 254.788540, 253.750682)">
<!--fid=28-->
<path d="M 544.833333 686.500000 Q 507.166667 672.000000 469.500000 657.500000 Q 475.000000 698.500000 480.500000 739.500000 Q 512.666667 713.000000 544.833333 686.500000 Z" />
</g>
<g fill="rgb(250.030525, 253.289377, 247.052503)">
<!--fid=29-->
<path d="M 451.500000 475.500000 Q 438.000000 503.500000 424.500000 531.500000 Q 446.000000 516.500000 467.500000 501.500000 Q 459.500000 488.500000 451.500000 475.500000 Z" />
</g>
<g fill="rgb(245.652955, 250.640788, 241.863268)">
<!--fid=30-->
<path d="M 467.500000 501.500000 Q 446.000000 516.500000 424.500000 531.500000 Q 441.000000 559.500000 457.500000 587.500000 Q 462.500000 544.500000 467.500000 501.500000 Z" />
</g>
<g fill="rgb(73.594969, 169.842110, 9.654463)">
<!--fid=31-->
<path d="M 484.500000 431.500000 Q 476.000000 466.500000 467.500000 501.500000 Q 481.000000 468.500000 494.500000 435.500000 Q 489.500000 433.500000 484.500000 431.500000 Z" />
</g>
<g fill="rgb(68.006347, 169.995613, 0.015005)">
<!--fid=32-->
<path d="M 338.500000 368.500000 Q 281.000000 451.500000 223.500000 534.500000 Q 324.000000 533.000000 424.500000 531.500000 Q 381.500000 450.000000 338.500000 368.500000 Z" />
</g>
<g fill="rgb(251.813514, 253.735135, 250.109189)">
<!--fid=33-->
<path d="M 478.500000 507.500000 Q 474.000000 546.000000 469.500000 584.500000 Q 495.500000 567.000000 521.500000 549.500000 Q 500.000000 528.500000 478.500000 507.500000 Z" />
</g>
<g fill="rgb(246.718682, 252.035165, 242.176924)">
<!--fid=34-->
<path d="M 506.500000 491.500000 Q 500.500000 463.500000 494.500000 435.500000 Q 486.500000 471.500000 478.500000 507.500000 Q 492.500000 499.500000 506.500000 491.500000 Z" />
</g>
<g fill="rgb(86.003979, 175.226645, 26.075547)">
<!--fid=35-->
<path d="M 467.500000 501.500000 Q 473.000000 504.500000 478.500000 507.500000 Q 486.500000 471.500000 494.500000 435.500000 Q 481.000000 468.500000 467.500000 501.500000 Z" />
</g>
<g fill="rgb(76.738223, 170.802797, 13.905760)">
<!--fid=36-->
<path d="M 478.500000 507.500000 Q 473.000000 504.500000 467.500000 501.500000 Q 462.500000 544.500000 457.500000 587.500000 Q 468.000000 547.500000 478.500000 507.500000 Z" />
</g>
<g fill="rgb(89.555121, 176.783469, 31.000001)">
<!--fid=37-->
<path d="M 478.500000 507.500000 Q 468.000000 547.500000 457.500000 587.500000 Q 463.500000 586.000000 469.500000 584.500000 Q 474.000000 546.000000 478.500000 507.500000 Z" />
</g>
<g fill="rgb(69.469448, 170.077386, 2.350000)">
<!--fid=38-->
<path d="M 424.500000 531.500000 Q 438.000000 503.500000 451.500000 475.500000 Q 428.000000 429.000000 404.500000 382.500000 Q 414.500000 457.000000 424.500000 531.500000 Z" />
</g>
<g fill="rgb(68.964056, 169.803927, 1.882353)">
<!--fid=39-->
<path d="M 514.500000 412.500000 Q 505.500000 409.000000 496.500000 405.500000 Q 495.500000 420.500000 494.500000 435.500000 Q 504.500000 424.000000 514.500000 412.500000 Z" />
</g>
<g fill="rgb(254.916288, 254.961170, 254.885023)">
<!--fid=40-->
<path d="M 385.833333 687.500000 Q 422.166667 679.000000 458.500000 670.500000 Q 416.500000 653.000000 374.500000 635.500000 Q 380.166667 661.500000 385.833333 687.500000 Z" />
</g>
<g fill="rgb(254.997496, 254.998732, 254.996894)">
<!--fid=41-->
<path d="M 162.333333 779.000000 Q 337.416667 901.500000 512.500000 1024.000000 Q 504.000000 927.250000 495.500000 830.500000 Q 328.916667 804.750000 162.333333 779.000000 Z" />
</g>
<g fill="rgb(237.527094, 246.858375, 230.517242)">
<!--fid=42-->
<path d="M 484.500000 431.500000 Q 468.000000 453.500000 451.500000 475.500000 Q 459.500000 488.500000 467.500000 501.500000 Q 476.000000 466.500000 484.500000 431.500000 Z" />
</g>
<g fill="rgb(227.339639, 242.030428, 217.254523)">
<!--fid=43-->
<path d="M 180.000000 326.000000 Q 169.250000 366.250000 158.500000 406.500000 Q 194.000000 387.000000 229.500000 367.500000 Q 204.750000 346.750000 180.000000 326.000000 Z" />
</g>
<g fill="rgb(68.127276, 169.992386, 0.223030)">
<!--fid=44-->
<path d="M 229.500000 367.500000 Q 194.000000 387.000000 158.500000 406.500000 Q 191.000000 470.500000 223.500000 534.500000 Q 226.500000 451.000000 229.500000 367.500000 Z" />
</g>
<g fill="rgb(247.424276, 251.620267, 244.116927)">
<!--fid=45-->
<path d="M 307.500000 335.500000 Q 284.000000 325.500000 260.500000 315.500000 Q 272.500000 339.500000 284.500000 363.500000 Q 296.000000 349.500000 307.500000 335.500000 Z" />
</g>
<g fill="rgb(248.418655, 252.017354, 245.749096)">
<!--fid=46-->
<path d="M 229.500000 367.500000 Q 257.000000 365.500000 284.500000 363.500000 Q 272.500000 339.500000 260.500000 315.500000 Q 245.000000 341.500000 229.500000 367.500000 Z" />
</g>
<g fill="rgb(249.694175, 252.974515, 246.690534)">
<!--fid=47-->
<path d="M 338.500000 368.500000 Q 323.000000 352.000000 307.500000 335.500000 Q 296.000000 349.500000 284.500000 363.500000 Q 311.500000 366.000000 338.500000 368.500000 Z" />
</g>
<g fill="rgb(68.033442, 169.973419, 0.079211)">
<!--fid=48-->
<path d="M 260.500000 315.500000 Q 292.000000 228.500000 323.500000 141.500000 Q 262.500000 193.500000 201.500000 245.500000 Q 231.000000 280.500000 260.500000 315.500000 Z" />
</g>
<g fill="rgb(68.183175, 169.912411, 0.328803)">
<!--fid=49-->
<path d="M 223.500000 534.500000 Q 254.000000 449.000000 284.500000 363.500000 Q 257.000000 365.500000 229.500000 367.500000 Q 226.500000 451.000000 223.500000 534.500000 Z" />
</g>
<g fill="rgb(254.958248, 254.992471, 254.938398)">
<!--fid=50-->
<path d="M 229.500000 367.500000 Q 221.750000 331.583333 214.000000 295.666667 Q 197.000000 310.833333 180.000000 326.000000 Q 204.750000 346.750000 229.500000 367.500000 Z" />
</g>
<g fill="rgb(255.000000, 255.000000, 255.000000)">
<!--fid=51-->
<path d="M 0.000000 511.500000 Q 48.875000 305.125000 97.750000 98.750000 Q 48.875000 49.375000 0.000000 0.000000 Q 0.000000 255.750000 0.000000 511.500000 Z" />
</g>
<g fill="rgb(255.000000, 255.000000, 255.000000)">
<!--fid=52-->
<path d="M 97.750000 98.750000 Q 48.875000 305.125000 0.000000 511.500000 Q 39.625000 485.250000 79.250000 459.000000 Q 88.500000 278.875000 97.750000 98.750000 Z" />
</g>
<g fill="rgb(68.593970, 169.827158, 1.059711)">
<!--fid=53-->
<path d="M 252.500000 137.500000 Q 224.000000 167.500000 195.500000 197.500000 Q 198.500000 221.500000 201.500000 245.500000 Q 227.000000 191.500000 252.500000 137.500000 Z" />
</g>
<g fill="rgb(254.961113, 254.991923, 254.947054)">
<!--fid=54-->
<path d="M 216.250000 106.250000 Q 157.000000 102.500000 97.750000 98.750000 Q 153.125000 130.125000 208.500000 161.500000 Q 212.375000 133.875000 216.250000 106.250000 Z" />
</g>
<g fill="rgb(254.974047, 254.997700, 254.968463)">
<!--fid=55-->
<path d="M 216.250000 106.250000 Q 269.375000 91.375000 322.500000 76.500000 Q 302.062500 53.062500 281.625000 29.625000 Q 248.937500 67.937500 216.250000 106.250000 Z" />
</g>
<g fill="rgb(70.191620, 169.898209, 3.408683)">
<!--fid=56-->
<path d="M 195.500000 197.500000 Q 224.000000 167.500000 252.500000 137.500000 Q 230.500000 149.500000 208.500000 161.500000 Q 202.000000 179.500000 195.500000 197.500000 Z" />
</g>
<g fill="rgb(68.168288, 169.983406, 0.279622)">
<!--fid=57-->
<path d="M 201.500000 245.500000 Q 262.500000 193.500000 323.500000 141.500000 Q 288.000000 139.500000 252.500000 137.500000 Q 227.000000 191.500000 201.500000 245.500000 Z" />
</g>
<g fill="rgb(255.000000, 255.000000, 255.000000)">
<!--fid=58-->
<path d="M 97.750000 98.750000 Q 157.000000 102.500000 216.250000 106.250000 Q 202.000000 53.125000 187.750000 0.000000 Q 142.750000 49.375000 97.750000 98.750000 Z" />
</g>
<g fill="rgb(208.024350, 233.101240, 190.766340)">
<!--fid=59-->
<path d="M 322.500000 76.500000 Q 287.500000 107.000000 252.500000 137.500000 Q 288.000000 139.500000 323.500000 141.500000 Q 323.000000 109.000000 322.500000 76.500000 Z" />
</g>
<g fill="rgb(255.000000, 255.000000, 255.000000)">
<!--fid=60-->
<path d="M 97.750000 98.750000 Q 142.750000 49.375000 187.750000 0.000000 Q 93.875000 0.000000 0.000000 0.000000 Q 48.875000 49.375000 97.750000 98.750000 Z" />
</g>
<g fill="rgb(68.267635, 169.870946, 0.528852)">
<!--fid=61-->
<path d="M 307.500000 335.500000 Q 315.500000 238.500000 323.500000 141.500000 Q 292.000000 228.500000 260.500000 315.500000 Q 284.000000 325.500000 307.500000 335.500000 Z" />
</g>
<g fill="rgb(255.000000, 255.000000, 255.000000)">
<!--fid=62-->
<path d="M 97.750000 98.750000 Q 88.500000 278.875000 79.250000 459.000000 Q 129.625000 392.500000 180.000000 326.000000 Q 138.875000 212.375000 97.750000 98.750000 Z" />
</g>
<g fill="rgb(240.199427, 249.220947, 233.271163)">
<!--fid=63-->
<path d="M 485.500000 407.500000 Q 451.000000 389.000000 416.500000 370.500000 Q 410.500000 376.500000 404.500000 382.500000 Q 445.000000 395.000000 485.500000 407.500000 Z" />
</g>
<g fill="rgb(68.548818, 169.920108, 0.952574)">
<!--fid=64-->
<path d="M 424.500000 531.500000 Q 414.500000 457.000000 404.500000 382.500000 Q 371.500000 375.500000 338.500000 368.500000 Q 381.500000 450.000000 424.500000 531.500000 Z" />
</g>
<g fill="rgb(76.791350, 172.376928, 12.927885)">
<!--fid=65-->
<path d="M 484.500000 431.500000 Q 485.000000 419.500000 485.500000 407.500000 Q 445.000000 395.000000 404.500000 382.500000 Q 444.500000 407.000000 484.500000 431.500000 Z" />
</g>
<g fill="rgb(247.334802, 252.548458, 243.204846)">
<!--fid=66-->
<path d="M 362.500000 352.500000 Q 383.500000 367.500000 404.500000 382.500000 Q 410.500000 376.500000 416.500000 370.500000 Q 389.500000 361.500000 362.500000 352.500000 Z" />
</g>
<g fill="rgb(70.628575, 169.457148, 5.371429)">
<!--fid=67-->
<path d="M 497.500000 401.500000 Q 491.500000 404.500000 485.500000 407.500000 Q 491.000000 406.500000 496.500000 405.500000 Q 497.000000 403.500000 497.500000 401.500000 Z" />
</g>
<g fill="rgb(69.923570, 170.082808, 3.031847)">
<!--fid=68-->
<path d="M 484.500000 431.500000 Q 490.500000 418.500000 496.500000 405.500000 Q 491.000000 406.500000 485.500000 407.500000 Q 485.000000 419.500000 484.500000 431.500000 Z" />
</g>
<g fill="rgb(98.699045, 180.337898, 47.369358)">
<!--fid=69-->
<path d="M 514.500000 412.500000 Q 515.000000 375.500000 515.500000 338.500000 Q 506.000000 372.000000 496.500000 405.500000 Q 505.500000 409.000000 514.500000 412.500000 Z" />
</g>
<g fill="rgb(68.630852, 169.765815, 1.164524)">
<!--fid=70-->
<path d="M 497.500000 401.500000 Q 504.000000 356.000000 510.500000 310.500000 Q 463.500000 340.500000 416.500000 370.500000 Q 457.000000 386.000000 497.500000 401.500000 Z" />
</g>
<g fill="rgb(68.543482, 169.217396, 2.565217)">
<!--fid=71-->
<path d="M 496.500000 405.500000 Q 490.500000 418.500000 484.500000 431.500000 Q 489.500000 433.500000 494.500000 435.500000 Q 495.500000 420.500000 496.500000 405.500000 Z" />
</g>
<g fill="rgb(69.823997, 170.348282, 2.851391)">
<!--fid=72-->
<path d="M 416.500000 370.500000 Q 463.500000 340.500000 510.500000 310.500000 Q 436.500000 331.500000 362.500000 352.500000 Q 389.500000 361.500000 416.500000 370.500000 Z" />
</g>
<g fill="rgb(68.352902, 169.895050, 0.647102)">
<!--fid=73-->
<path d="M 323.500000 141.500000 Q 315.500000 238.500000 307.500000 335.500000 Q 335.000000 344.000000 362.500000 352.500000 Q 343.000000 247.000000 323.500000 141.500000 Z" />
</g>
<g fill="rgb(250.428354, 253.766768, 247.518293)">
<!--fid=74-->
<path d="M 338.500000 368.500000 Q 350.500000 360.500000 362.500000 352.500000 Q 335.000000 344.000000 307.500000 335.500000 Q 323.000000 352.000000 338.500000 368.500000 Z" />
</g>
<g fill="rgb(246.018081, 251.475661, 241.623088)">
<!--fid=75-->
<path d="M 404.500000 382.500000 Q 383.500000 367.500000 362.500000 352.500000 Q 350.500000 360.500000 338.500000 368.500000 Q 371.500000 375.500000 404.500000 382.500000 Z" />
</g>
<g fill="rgb(68.191778, 169.885783, 0.396432)">
<!--fid=76-->
<path d="M 506.500000 166.500000 Q 500.500000 143.500000 494.500000 120.500000 Q 409.000000 131.000000 323.500000 141.500000 Q 415.000000 154.000000 506.500000 166.500000 Z" />
</g>
<g fill="rgb(68.146660, 169.994288, 0.244345)">
<!--fid=77-->
<path d="M 375.500000 39.500000 Q 349.500000 90.500000 323.500000 141.500000 Q 385.500000 97.500000 447.500000 53.500000 Q 411.500000 46.500000 375.500000 39.500000 Z" />
</g>
<g fill="rgb(68.064509, 169.958748, 0.113785)">
<!--fid=78-->
<path d="M 494.500000 120.500000 Q 471.000000 87.000000 447.500000 53.500000 Q 385.500000 97.500000 323.500000 141.500000 Q 409.000000 131.000000 494.500000 120.500000 Z" />
</g>
<g fill="rgb(254.848819, 254.907087, 254.780315)">
<!--fid=79-->
<path d="M 495.500000 78.000000 Q 516.000000 96.250000 536.500000 114.500000 Q 540.500000 87.250000 544.500000 60.000000 Q 520.000000 69.000000 495.500000 78.000000 Z" />
</g>
<g fill="rgb(224.672451, 240.848922, 213.696149)">
<!--fid=80-->
<path d="M 512.500000 0.000000 Q 444.000000 19.750000 375.500000 39.500000 Q 411.500000 46.500000 447.500000 53.500000 Q 480.000000 26.750000 512.500000 0.000000 Z" />
</g>
<g fill="rgb(68.005922, 169.995524, 0.007578)">
<!--fid=81-->
<path d="M 362.500000 352.500000 Q 437.500000 288.000000 512.500000 223.500000 Q 418.000000 182.500000 323.500000 141.500000 Q 343.000000 247.000000 362.500000 352.500000 Z" />
</g>
<g fill="rgb(68.495236, 170.035900, 0.912507)">
<!--fid=82-->
<path d="M 322.500000 76.500000 Q 323.000000 109.000000 323.500000 141.500000 Q 349.500000 90.500000 375.500000 39.500000 Q 349.000000 58.000000 322.500000 76.500000 Z" />
</g>
<g fill="rgb(206.908525, 232.222455, 189.548858)">
<!--fid=83-->
<path d="M 515.500000 338.500000 Q 513.000000 324.500000 510.500000 310.500000 Q 504.000000 356.000000 497.500000 401.500000 Q 506.500000 370.000000 515.500000 338.500000 Z" />
</g>
<g fill="rgb(68.471963, 169.956107, 0.779248)">
<!--fid=84-->
<path d="M 338.500000 368.500000 Q 311.500000 366.000000 284.500000 363.500000 Q 254.000000 449.000000 223.500000 534.500000 Q 281.000000 451.500000 338.500000 368.500000 Z" />
</g>
<g fill="rgb(75.831121, 173.145431, 10.887412)">
<!--fid=85-->
<path d="M 451.500000 475.500000 Q 468.000000 453.500000 484.500000 431.500000 Q 444.500000 407.000000 404.500000 382.500000 Q 428.000000 429.000000 451.500000 475.500000 Z" />
</g>
<g fill="rgb(254.954505, 254.982159, 254.909307)">
<!--fid=86-->
<path d="M 312.500000 677.500000 Q 264.472222 687.416667 216.444444 697.333333 Q 189.388889 738.166667 162.333333 779.000000 Q 237.416667 728.250000 312.500000 677.500000 Z" />
</g>
<g fill="rgb(72.648652, 169.835591, 7.754505)">
<!--fid=87-->
<path d="M 470.500000 749.500000 Q 483.000000 790.000000 495.500000 830.500000 Q 497.000000 817.500000 498.500000 804.500000 Q 484.500000 777.000000 470.500000 749.500000 Z" />
</g>
<g fill="rgb(72.857146, 169.716797, 8.263158)">
<!--fid=88-->
<path d="M 495.500000 830.500000 Q 511.500000 863.500000 527.500000 896.500000 Q 528.500000 886.000000 529.500000 875.500000 Q 512.500000 853.000000 495.500000 830.500000 Z" />
</g>
<g fill="rgb(252.289921, 253.781117, 251.055859)">
<!--fid=89-->
<path d="M 571.500000 960.500000 Q 549.500000 928.500000 527.500000 896.500000 Q 520.000000 960.250000 512.500000 1024.000000 Q 542.000000 992.250000 571.500000 960.500000 Z" />
</g>
<g fill="rgb(90.838210, 177.567256, 32.625732)">
<!--fid=90-->
<path d="M 529.500000 875.500000 Q 528.500000 886.000000 527.500000 896.500000 Q 550.000000 919.500000 572.500000 942.500000 Q 551.000000 909.000000 529.500000 875.500000 Z" />
</g>
<g fill="rgb(72.648151, 169.937505, 8.081019)">
<!--fid=91-->
<path d="M 571.500000 960.500000 Q 572.000000 951.500000 572.500000 942.500000 Q 550.000000 919.500000 527.500000 896.500000 Q 549.500000 928.500000 571.500000 960.500000 Z" />
</g>
<g fill="rgb(254.769124, 254.913397, 254.604637)">
<!--fid=92-->
<path d="M 645.000000 818.000000 Q 587.250000 846.750000 529.500000 875.500000 Q 551.000000 909.000000 572.500000 942.500000 Q 608.750000 880.250000 645.000000 818.000000 Z" />
</g>
<g fill="rgb(254.766558, 254.911215, 254.596099)">
<!--fid=93-->
<path d="M 645.000000 818.000000 Q 571.750000 811.250000 498.500000 804.500000 Q 514.000000 840.000000 529.500000 875.500000 Q 587.250000 846.750000 645.000000 818.000000 Z" />
</g>
<g fill="rgb(251.172566, 253.227507, 249.553835)">
<!--fid=94-->
<path d="M 571.500000 960.500000 Q 542.000000 992.250000 512.500000 1024.000000 Q 564.000000 1014.750000 615.500000 1005.500000 Q 593.500000 983.000000 571.500000 960.500000 Z" />
</g>
<g fill="rgb(84.729252, 174.365617, 24.723321)">
<!--fid=95-->
<path d="M 498.500000 804.500000 Q 497.000000 817.500000 495.500000 830.500000 Q 512.500000 853.000000 529.500000 875.500000 Q 514.000000 840.000000 498.500000 804.500000 Z" />
</g>
<g fill="rgb(251.935094, 254.077008, 249.788779)">
<!--fid=96-->
<path d="M 478.500000 507.500000 Q 500.000000 528.500000 521.500000 549.500000 Q 514.000000 520.500000 506.500000 491.500000 Q 492.500000 499.500000 478.500000 507.500000 Z" />
</g>
<g fill="rgb(249.409586, 252.388526, 247.095861)">
<!--fid=97-->
<path d="M 521.500000 549.500000 Q 495.500000 567.000000 469.500000 584.500000 Q 513.000000 609.000000 556.500000 633.500000 Q 539.000000 591.500000 521.500000 549.500000 Z" />
</g>
<g fill="rgb(68.544136, 169.829757, 0.966942)">
<!--fid=98-->
<path d="M 591.500000 418.500000 Q 549.000000 455.000000 506.500000 491.500000 Q 514.000000 520.500000 521.500000 549.500000 Q 556.500000 484.000000 591.500000 418.500000 Z" />
</g>
<g fill="rgb(79.411609, 173.684215, 16.063428)">
<!--fid=99-->
<path d="M 514.500000 412.500000 Q 504.500000 424.000000 494.500000 435.500000 Q 500.500000 463.500000 506.500000 491.500000 Q 510.500000 452.000000 514.500000 412.500000 Z" />
</g>
<g fill="rgb(68.086977, 169.965824, 0.174452)">
<!--fid=100-->
<path d="M 556.500000 633.500000 Q 643.500000 614.500000 730.500000 595.500000 Q 626.000000 572.500000 521.500000 549.500000 Q 539.000000 591.500000 556.500000 633.500000 Z" />
</g>
<g fill="rgb(242.229692, 248.922970, 237.353642)">
<!--fid=101-->
<path d="M 597.500000 686.500000 Q 577.000000 660.000000 556.500000 633.500000 Q 550.666667 660.000000 544.833333 686.500000 Q 571.166667 686.500000 597.500000 686.500000 Z" />
</g>
<g fill="rgb(68.089357, 169.958940, 0.229278)">
<!--fid=102-->
<path d="M 597.500000 686.500000 Q 664.000000 641.000000 730.500000 595.500000 Q 643.500000 614.500000 556.500000 633.500000 Q 577.000000 660.000000 597.500000 686.500000 Z" />
</g>
<g fill="rgb(68.792740, 169.971514, 1.298173)">
<!--fid=103-->
<path d="M 663.500000 413.500000 Q 627.500000 416.000000 591.500000 418.500000 Q 556.500000 484.000000 521.500000 549.500000 Q 592.500000 481.500000 663.500000 413.500000 Z" />
</g>
<g fill="rgb(254.979848, 254.990249, 254.960672)">
<!--fid=104-->
<path d="M 645.000000 818.000000 Q 621.250000 752.250000 597.500000 686.500000 Q 548.000000 745.500000 498.500000 804.500000 Q 571.750000 811.250000 645.000000 818.000000 Z" />
</g>
<g fill="rgb(74.644362, 172.495964, 9.075978)">
<!--fid=105-->
<path d="M 514.500000 412.500000 Q 510.500000 452.000000 506.500000 491.500000 Q 549.000000 455.000000 591.500000 418.500000 Q 553.000000 415.500000 514.500000 412.500000 Z" />
</g>
<g fill="rgb(95.083848, 179.730066, 38.586913)">
<!--fid=106-->
<path d="M 623.500000 997.500000 Q 598.000000 970.000000 572.500000 942.500000 Q 572.000000 951.500000 571.500000 960.500000 Q 597.500000 979.000000 623.500000 997.500000 Z" />
</g>
<g fill="rgb(252.551710, 253.984306, 251.219316)">
<!--fid=107-->
<path d="M 512.500000 1024.000000 Q 520.000000 960.250000 527.500000 896.500000 Q 511.500000 863.500000 495.500000 830.500000 Q 504.000000 927.250000 512.500000 1024.000000 Z" />
</g>
<g fill="rgb(254.801847, 254.896114, 254.656983)">
<!--fid=108-->
<path d="M 645.000000 818.000000 Q 608.750000 880.250000 572.500000 942.500000 Q 598.000000 970.000000 623.500000 997.500000 Q 634.250000 907.750000 645.000000 818.000000 Z" />
</g>
<g fill="rgb(252.501178, 253.762600, 251.594913)">
<!--fid=109-->
<path d="M 1024.000000 1024.000000 Q 823.750000 1010.750000 623.500000 997.500000 Q 619.500000 1001.500000 615.500000 1005.500000 Q 819.750000 1014.750000 1024.000000 1024.000000 Z" />
</g>
<g fill="rgb(247.999544, 251.673963, 245.416781)">
<!--fid=110-->
<path d="M 597.500000 686.500000 Q 621.250000 752.250000 645.000000 818.000000 Q 642.250000 764.250000 639.500000 710.500000 Q 618.500000 698.500000 597.500000 686.500000 Z" />
</g>
<g fill="rgb(72.090414, 169.602745, 7.131507)">
<!--fid=111-->
<path d="M 615.500000 1005.500000 Q 619.500000 1001.500000 623.500000 997.500000 Q 597.500000 979.000000 571.500000 960.500000 Q 593.500000 983.000000 615.500000 1005.500000 Z" />
</g>
<g fill="rgb(255.000000, 255.000000, 255.000000)">
<!--fid=112-->
<path d="M 1024.000000 511.500000 Q 904.041667 617.791667 784.083333 724.083333 Q 835.166667 779.166667 886.250000 834.250000 Q 955.125000 672.875000 1024.000000 511.500000 Z" />
</g>
<g fill="rgb(254.999944, 254.999944, 254.999944)">
<!--fid=113-->
<path d="M 886.250000 834.250000 Q 754.875000 915.875000 623.500000 997.500000 Q 823.750000 1010.750000 1024.000000 1024.000000 Q 955.125000 929.125000 886.250000 834.250000 Z" />
</g>
<g fill="rgb(254.991829, 254.994243, 254.987929)">
<!--fid=114-->
<path d="M 784.083333 724.083333 Q 904.041667 617.791667 1024.000000 511.500000 Q 910.750000 543.500000 797.500000 575.500000 Q 790.791667 649.791667 784.083333 724.083333 Z" />
</g>
<g fill="rgb(68.176731, 169.960945, 0.243922)">
<!--fid=115-->
<path d="M 730.500000 595.500000 Q 685.000000 653.000000 639.500000 710.500000 Q 678.500000 702.000000 717.500000 693.500000 Q 724.000000 644.500000 730.500000 595.500000 Z" />
</g>
<g fill="rgb(254.840601, 254.929453, 254.768202)">
<!--fid=116-->
<path d="M 1024.000000 1024.000000 Q 819.750000 1014.750000 615.500000 1005.500000 Q 564.000000 1014.750000 512.500000 1024.000000 Q 768.250000 1024.000000 1024.000000 1024.000000 Z" />
</g>
<g fill="rgb(68.829740, 169.974426, 1.262190)">
<!--fid=117-->
<path d="M 748.500000 644.500000 Q 739.500000 620.000000 730.500000 595.500000 Q 724.000000 644.500000 717.500000 693.500000 Q 733.000000 669.000000 748.500000 644.500000 Z" />
</g>
<g fill="rgb(68.111515, 169.981010, 0.205338)">
<!--fid=118-->
<path d="M 797.500000 575.500000 Q 766.500000 493.000000 735.500000 410.500000 Q 733.000000 503.000000 730.500000 595.500000 Q 764.000000 585.500000 797.500000 575.500000 Z" />
</g>
<g fill="rgb(216.415385, 236.870331, 202.336814)">
<!--fid=119-->
<path d="M 797.500000 575.500000 Q 764.000000 585.500000 730.500000 595.500000 Q 739.500000 620.000000 748.500000 644.500000 Q 773.000000 610.000000 797.500000 575.500000 Z" />
</g>
<g fill="rgb(68.130481, 169.995100, 0.310007)">
<!--fid=120-->
<path d="M 822.500000 458.500000 Q 800.500000 438.500000 778.500000 418.500000 Q 788.000000 497.000000 797.500000 575.500000 Q 810.000000 517.000000 822.500000 458.500000 Z" />
</g>
<g fill="rgb(68.010625, 170.002025, 0.016047)">
<!--fid=121-->
<path d="M 663.500000 413.500000 Q 592.500000 481.500000 521.500000 549.500000 Q 626.000000 572.500000 730.500000 595.500000 Q 697.000000 504.500000 663.500000 413.500000 Z" />
</g>
<g fill="rgb(254.991095, 254.986756, 254.984816)">
<!--fid=122-->
<path d="M 830.000000 373.000000 Q 927.000000 442.250000 1024.000000 511.500000 Q 930.750000 399.500000 837.500000 287.500000 Q 833.750000 330.250000 830.000000 373.000000 Z" />
</g>
<g fill="rgb(68.413637, 169.873599, 0.894772)">
<!--fid=123-->
<path d="M 797.500000 575.500000 Q 815.000000 552.000000 832.500000 528.500000 Q 827.500000 493.500000 822.500000 458.500000 Q 810.000000 517.000000 797.500000 575.500000 Z" />
</g>
<g fill="rgb(254.803857, 254.934862, 254.697416)">
<!--fid=124-->
<path d="M 893.000000 499.500000 Q 845.250000 537.500000 797.500000 575.500000 Q 910.750000 543.500000 1024.000000 511.500000 Q 958.500000 505.500000 893.000000 499.500000 Z" />
</g>
<g fill="rgb(235.053141, 245.652174, 227.723189)">
<!--fid=125-->
<path d="M 830.000000 373.000000 Q 804.250000 395.750000 778.500000 418.500000 Q 800.500000 438.500000 822.500000 458.500000 Q 826.250000 415.750000 830.000000 373.000000 Z" />
</g>
<g fill="rgb(254.950062, 254.985112, 254.944169)">
<!--fid=126-->
<path d="M 784.083333 724.083333 Q 790.791667 649.791667 797.500000 575.500000 Q 773.000000 610.000000 748.500000 644.500000 Q 766.291667 684.291667 784.083333 724.083333 Z" />
</g>
<g fill="rgb(254.951761, 254.974294, 254.883212)">
<!--fid=127-->
<path d="M 830.000000 373.000000 Q 826.250000 415.750000 822.500000 458.500000 Q 857.750000 479.000000 893.000000 499.500000 Q 861.500000 436.250000 830.000000 373.000000 Z" />
</g>
<g fill="rgb(68.114743, 169.975586, 0.230656)">
<!--fid=128-->
<path d="M 639.500000 710.500000 Q 685.000000 653.000000 730.500000 595.500000 Q 664.000000 641.000000 597.500000 686.500000 Q 618.500000 698.500000 639.500000 710.500000 Z" />
</g>
<g fill="rgb(68.329412, 169.940507, 0.615742)">
<!--fid=129-->
<path d="M 797.500000 575.500000 Q 788.000000 497.000000 778.500000 418.500000 Q 757.000000 414.500000 735.500000 410.500000 Q 766.500000 493.000000 797.500000 575.500000 Z" />
</g>
<g fill="rgb(112.532392, 188.087049, 61.406883)">
<!--fid=130-->
<path d="M 485.500000 407.500000 Q 491.500000 404.500000 497.500000 401.500000 Q 457.000000 386.000000 416.500000 370.500000 Q 451.000000 389.000000 485.500000 407.500000 Z" />
</g>
<g fill="rgb(213.607596, 236.265824, 200.265824)">
<!--fid=131-->
<path d="M 497.500000 401.500000 Q 497.000000 403.500000 496.500000 405.500000 Q 506.000000 372.000000 515.500000 338.500000 Q 506.500000 370.000000 497.500000 401.500000 Z" />
</g>
<g fill="rgb(69.989079, 169.559669, 4.304622)">
<!--fid=132-->
<path d="M 578.500000 407.500000 Q 547.000000 373.000000 515.500000 338.500000 Q 515.000000 375.500000 514.500000 412.500000 Q 546.500000 410.000000 578.500000 407.500000 Z" />
</g>
<g fill="rgb(73.172693, 171.176498, 8.675162)">
<!--fid=133-->
<path d="M 581.500000 328.500000 Q 551.000000 293.500000 520.500000 258.500000 Q 518.000000 298.500000 515.500000 338.500000 Q 548.500000 333.500000 581.500000 328.500000 Z" />
</g>
<g fill="rgb(249.404459, 253.101911, 246.958599)">
<!--fid=134-->
<path d="M 510.500000 310.500000 Q 513.000000 324.500000 515.500000 338.500000 Q 518.000000 298.500000 520.500000 258.500000 Q 515.500000 284.500000 510.500000 310.500000 Z" />
</g>
<g fill="rgb(68.964853, 169.447082, 2.601896)">
<!--fid=135-->
<path d="M 581.500000 328.500000 Q 580.000000 368.000000 578.500000 407.500000 Q 610.500000 403.000000 642.500000 398.500000 Q 612.000000 363.500000 581.500000 328.500000 Z" />
</g>
<g fill="rgb(245.623787, 251.400486, 243.366505)">
<!--fid=136-->
<path d="M 642.500000 398.500000 Q 610.500000 403.000000 578.500000 407.500000 Q 585.000000 413.000000 591.500000 418.500000 Q 617.000000 408.500000 642.500000 398.500000 Z" />
</g>
<g fill="rgb(68.178306, 169.931160, 0.377296)">
<!--fid=137-->
<path d="M 709.500000 102.500000 Q 649.500000 153.500000 589.500000 204.500000 Q 657.000000 191.000000 724.500000 177.500000 Q 717.000000 140.000000 709.500000 102.500000 Z" />
</g>
<g fill="rgb(246.879717, 252.476415, 242.686321)">
<!--fid=138-->
<path d="M 514.500000 412.500000 Q 553.000000 415.500000 591.500000 418.500000 Q 585.000000 413.000000 578.500000 407.500000 Q 546.500000 410.000000 514.500000 412.500000 Z" />
</g>
<g fill="rgb(68.418667, 169.896529, 0.686558)">
<!--fid=139-->
<path d="M 510.500000 310.500000 Q 511.500000 267.000000 512.500000 223.500000 Q 437.500000 288.000000 362.500000 352.500000 Q 436.500000 331.500000 510.500000 310.500000 Z" />
</g>
<g fill="rgb(254.810307, 254.921053, 254.764254)">
<!--fid=140-->
<path d="M 536.500000 114.500000 Q 516.000000 96.250000 495.500000 78.000000 Q 495.000000 99.250000 494.500000 120.500000 Q 515.500000 117.500000 536.500000 114.500000 Z" />
</g>
<g fill="rgb(68.250535, 169.873966, 0.469360)">
<!--fid=141-->
<path d="M 512.500000 223.500000 Q 509.500000 195.000000 506.500000 166.500000 Q 415.000000 154.000000 323.500000 141.500000 Q 418.000000 182.500000 512.500000 223.500000 Z" />
</g>
<g fill="rgb(243.152578, 250.220619, 237.360825)">
<!--fid=142-->
<path d="M 512.500000 223.500000 Q 518.000000 200.500000 523.500000 177.500000 Q 515.000000 172.000000 506.500000 166.500000 Q 509.500000 195.000000 512.500000 223.500000 Z" />
</g>
<g fill="rgb(251.068360, 253.466797, 249.199219)">
<!--fid=143-->
<path d="M 506.500000 166.500000 Q 521.500000 140.500000 536.500000 114.500000 Q 515.500000 117.500000 494.500000 120.500000 Q 500.500000 143.500000 506.500000 166.500000 Z" />
</g>
<g fill="rgb(68.137955, 169.879225, 0.343714)">
<!--fid=144-->
<path d="M 589.500000 204.500000 Q 587.000000 135.000000 584.500000 65.500000 Q 560.500000 90.000000 536.500000 114.500000 Q 563.000000 159.500000 589.500000 204.500000 Z" />
</g>
<g fill="rgb(237.967817, 246.682759, 234.016093)">
<!--fid=145-->
<path d="M 520.500000 258.500000 Q 522.000000 218.000000 523.500000 177.500000 Q 518.000000 200.500000 512.500000 223.500000 Q 516.500000 241.000000 520.500000 258.500000 Z" />
</g>
<g fill="rgb(254.895764, 254.932413, 254.792956)">
<!--fid=146-->
<path d="M 495.500000 78.000000 Q 504.000000 39.000000 512.500000 0.000000 Q 480.000000 26.750000 447.500000 53.500000 Q 471.500000 65.750000 495.500000 78.000000 Z" />
</g>
<g fill="rgb(225.369566, 238.950311, 218.590063)">
<!--fid=147-->
<path d="M 506.500000 166.500000 Q 515.000000 172.000000 523.500000 177.500000 Q 530.000000 146.000000 536.500000 114.500000 Q 521.500000 140.500000 506.500000 166.500000 Z" />
</g>
<g fill="rgb(68.363801, 169.571877, 1.342059)">
<!--fid=148-->
<path d="M 589.500000 204.500000 Q 563.000000 159.500000 536.500000 114.500000 Q 530.000000 146.000000 523.500000 177.500000 Q 556.500000 191.000000 589.500000 204.500000 Z" />
</g>
<g fill="rgb(255.000000, 255.000000, 255.000000)">
<!--fid=149-->
<path d="M 544.500000 60.000000 Q 567.000000 45.625000 589.500000 31.250000 Q 551.000000 15.625000 512.500000 0.000000 Q 528.500000 30.000000 544.500000 60.000000 Z" />
</g>
<g fill="rgb(68.007681, 169.999639, 0.017183)">
<!--fid=150-->
<path d="M 589.500000 204.500000 Q 585.500000 266.500000 581.500000 328.500000 Q 653.000000 253.000000 724.500000 177.500000 Q 657.000000 191.000000 589.500000 204.500000 Z" />
</g>
<g fill="rgb(220.949452, 238.870331, 207.217583)">
<!--fid=151-->
<path d="M 510.500000 310.500000 Q 515.500000 284.500000 520.500000 258.500000 Q 516.500000 241.000000 512.500000 223.500000 Q 511.500000 267.000000 510.500000 310.500000 Z" />
</g>
<g fill="rgb(245.049157, 250.426266, 241.004402)">
<!--fid=152-->
<path d="M 733.500000 373.500000 Q 698.500000 393.500000 663.500000 413.500000 Q 699.500000 412.000000 735.500000 410.500000 Q 734.500000 392.000000 733.500000 373.500000 Z" />
</g>
<g fill="rgb(68.145727, 169.894559, 0.310907)">
<!--fid=153-->
<path d="M 730.500000 595.500000 Q 733.000000 503.000000 735.500000 410.500000 Q 699.500000 412.000000 663.500000 413.500000 Q 697.000000 504.500000 730.500000 595.500000 Z" />
</g>
<g fill="rgb(243.659628, 249.700621, 239.212423)">
<!--fid=154-->
<path d="M 733.500000 373.500000 Q 734.500000 392.000000 735.500000 410.500000 Q 757.000000 414.500000 778.500000 418.500000 Q 756.000000 396.000000 733.500000 373.500000 Z" />
</g>
<g fill="rgb(67.999797, 169.982278, 0.017452)">
<!--fid=155-->
<path d="M 581.500000 328.500000 Q 657.500000 351.000000 733.500000 373.500000 Q 729.000000 275.500000 724.500000 177.500000 Q 653.000000 253.000000 581.500000 328.500000 Z" />
</g>
<g fill="rgb(68.042032, 169.912513, 0.200849)">
<!--fid=156-->
<path d="M 837.500000 287.500000 Q 781.000000 232.500000 724.500000 177.500000 Q 761.000000 258.000000 797.500000 338.500000 Q 817.500000 313.000000 837.500000 287.500000 Z" />
</g>
<g fill="rgb(254.913357, 254.974128, 254.870036)">
<!--fid=157-->
<path d="M 778.500000 418.500000 Q 804.250000 395.750000 830.000000 373.000000 Q 813.750000 355.750000 797.500000 338.500000 Q 788.000000 378.500000 778.500000 418.500000 Z" />
</g>
<g fill="rgb(254.994169, 254.996216, 254.992740)">
<!--fid=158-->
<path d="M 933.250000 120.750000 Q 885.375000 204.125000 837.500000 287.500000 Q 930.750000 399.500000 1024.000000 511.500000 Q 978.625000 316.125000 933.250000 120.750000 Z" />
</g>
<g fill="rgb(68.087311, 169.887028, 0.278244)">
<!--fid=159-->
<path d="M 724.500000 177.500000 Q 729.000000 275.500000 733.500000 373.500000 Q 765.500000 356.000000 797.500000 338.500000 Q 761.000000 258.000000 724.500000 177.500000 Z" />
</g>
<g fill="rgb(247.417830, 250.822152, 245.714993)">
<!--fid=160-->
<path d="M 733.500000 373.500000 Q 756.000000 396.000000 778.500000 418.500000 Q 788.000000 378.500000 797.500000 338.500000 Q 765.500000 356.000000 733.500000 373.500000 Z" />
</g>
<g fill="rgb(68.299864, 169.876492, 0.638908)">
<!--fid=161-->
<path d="M 724.500000 177.500000 Q 781.000000 232.500000 837.500000 287.500000 Q 840.000000 264.500000 842.500000 241.500000 Q 783.500000 209.500000 724.500000 177.500000 Z" />
</g>
<g fill="rgb(68.086505, 169.980996, 0.200732)">
<!--fid=162-->
<path d="M 589.500000 204.500000 Q 628.000000 133.500000 666.500000 62.500000 Q 625.500000 64.000000 584.500000 65.500000 Q 587.000000 135.000000 589.500000 204.500000 Z" />
</g>
<g fill="rgb(68.042729, 169.930768, 0.147020)">
<!--fid=163-->
<path d="M 666.500000 62.500000 Q 628.000000 133.500000 589.500000 204.500000 Q 649.500000 153.500000 709.500000 102.500000 Q 688.000000 82.500000 666.500000 62.500000 Z" />
</g>
<g fill="rgb(219.968289, 237.179334, 210.197376)">
<!--fid=164-->
<path d="M 771.500000 162.500000 Q 740.500000 132.500000 709.500000 102.500000 Q 717.000000 140.000000 724.500000 177.500000 Q 748.000000 170.000000 771.500000 162.500000 Z" />
</g>
<g fill="rgb(237.352549, 246.018104, 232.120057)">
<!--fid=165-->
<path d="M 755.875000 46.875000 Q 711.187500 54.687500 666.500000 62.500000 Q 688.000000 82.500000 709.500000 102.500000 Q 732.687500 74.687500 755.875000 46.875000 Z" />
</g>
<g fill="rgb(255.000000, 255.000000, 255.000000)">
<!--fid=166-->
<path d="M 812.750000 129.416667 Q 873.000000 125.083333 933.250000 120.750000 Q 889.250000 60.375000 845.250000 0.000000 Q 829.000000 64.708333 812.750000 129.416667 Z" />
</g>
<g fill="rgb(68.635649, 169.669891, 1.498683)">
<!--fid=167-->
<path d="M 724.500000 177.500000 Q 773.000000 186.000000 821.500000 194.500000 Q 796.500000 178.500000 771.500000 162.500000 Q 748.000000 170.000000 724.500000 177.500000 Z" />
</g>
<g fill="rgb(255.000000, 255.000000, 255.000000)">
<!--fid=168-->
<path d="M 845.250000 0.000000 Q 889.250000 60.375000 933.250000 120.750000 Q 978.625000 60.375000 1024.000000 0.000000 Q 934.625000 0.000000 845.250000 0.000000 Z" />
</g>
<g fill="rgb(254.875423, 254.911984, 254.729858)">
<!--fid=169-->
<path d="M 865.750000 185.583333 Q 839.250000 157.500000 812.750000 129.416667 Q 817.125000 161.958333 821.500000 194.500000 Q 843.625000 190.041667 865.750000 185.583333 Z" />
</g>
<g fill="rgb(68.270210, 169.782900, 0.762688)">
<!--fid=170-->
<path d="M 821.500000 194.500000 Q 773.000000 186.000000 724.500000 177.500000 Q 783.500000 209.500000 842.500000 241.500000 Q 832.000000 218.000000 821.500000 194.500000 Z" />
</g>
<g fill="rgb(255.000000, 255.000000, 255.000000)">
<!--fid=171-->
<path d="M 512.500000 0.000000 Q 551.000000 15.625000 589.500000 31.250000 Q 672.687500 39.062500 755.875000 46.875000 Q 634.187500 23.437500 512.500000 0.000000 Z" />
</g>
<g fill="rgb(255.000000, 255.000000, 255.000000)">
<!--fid=172-->
<path d="M 1024.000000 0.000000 Q 978.625000 60.375000 933.250000 120.750000 Q 978.625000 316.125000 1024.000000 511.500000 Q 1024.000000 255.750000 1024.000000 0.000000 Z" />
</g>
<g fill="rgb(236.115676, 244.694055, 231.987027)">
<!--fid=173-->
<path d="M 733.500000 373.500000 Q 688.000000 386.000000 642.500000 398.500000 Q 653.000000 406.000000 663.500000 413.500000 Q 698.500000 393.500000 733.500000 373.500000 Z" />
</g>
<g fill="rgb(248.697793, 253.044143, 244.889644)">
<!--fid=174-->
<path d="M 591.500000 418.500000 Q 627.500000 416.000000 663.500000 413.500000 Q 653.000000 406.000000 642.500000 398.500000 Q 617.000000 408.500000 591.500000 418.500000 Z" />
</g>
<g fill="rgb(254.906270, 254.955351, 254.852438)">
<!--fid=175-->
<path d="M 544.833333 686.500000 Q 521.666667 745.500000 498.500000 804.500000 Q 548.000000 745.500000 597.500000 686.500000 Q 571.166667 686.500000 544.833333 686.500000 Z" />
</g>
<g fill="rgb(255.000000, 255.000000, 255.000000)">
<!--fid=176-->
<path d="M 784.083333 724.083333 Q 714.541667 771.041667 645.000000 818.000000 Q 765.625000 826.125000 886.250000 834.250000 Q 835.166667 779.166667 784.083333 724.083333 Z" />
</g>
<g fill="rgb(255.000000, 255.000000, 255.000000)">
<!--fid=177-->
<path d="M 1024.000000 1024.000000 Q 1024.000000 767.750000 1024.000000 511.500000 Q 955.125000 672.875000 886.250000 834.250000 Q 955.125000 929.125000 1024.000000 1024.000000 Z" />
</g>
<g fill="rgb(254.999492, 254.999862, 254.999123)">
<!--fid=178-->
<path d="M 886.250000 834.250000 Q 765.625000 826.125000 645.000000 818.000000 Q 634.250000 907.750000 623.500000 997.500000 Q 754.875000 915.875000 886.250000 834.250000 Z" />
</g>
<g fill="rgb(189.896675, 224.711962, 166.423921)">
<!--fid=179-->
<path d="M 717.500000 693.500000 Q 678.500000 702.000000 639.500000 710.500000 Q 653.416667 725.583333 667.333333 740.666667 Q 692.416667 717.083333 717.500000 693.500000 Z" />
</g>
<g fill="rgb(254.971530, 254.990214, 254.945285)">
<!--fid=180-->
<path d="M 812.750000 129.416667 Q 761.125000 115.958333 709.500000 102.500000 Q 740.500000 132.500000 771.500000 162.500000 Q 792.125000 145.958333 812.750000 129.416667 Z" />
</g>
<g fill="rgb(232.637562, 244.382208, 224.250412)">
<!--fid=181-->
<path d="M 209.500000 604.500000 Q 212.972222 650.916667 216.444444 697.333333 Q 220.472222 670.416667 224.500000 643.500000 Q 217.000000 624.000000 209.500000 604.500000 Z" />
</g>
<g fill="rgb(232.053181, 244.205269, 223.723658)">
<!--fid=182-->
<path d="M 375.500000 39.500000 Q 328.562500 34.562500 281.625000 29.625000 Q 302.062500 53.062500 322.500000 76.500000 Q 349.000000 58.000000 375.500000 39.500000 Z" />
</g>
<g fill="rgb(254.890726, 254.967742, 254.757661)">
<!--fid=183-->
<path d="M 281.625000 29.625000 Q 328.562500 34.562500 375.500000 39.500000 Q 444.000000 19.750000 512.500000 0.000000 Q 397.062500 14.812500 281.625000 29.625000 Z" />
</g>
<g fill="rgb(254.942887, 254.971270, 254.830045)">
<!--fid=184-->
<path d="M 216.444444 697.333333 Q 212.972222 650.916667 209.500000 604.500000 Q 185.916667 691.750000 162.333333 779.000000 Q 189.388889 738.166667 216.444444 697.333333 Z" />
</g>
<g fill="rgb(255.000000, 255.000000, 255.000000)">
<!--fid=185-->
<path d="M 512.500000 1024.000000 Q 337.416667 901.500000 162.333333 779.000000 Q 81.166667 901.500000 0.000000 1024.000000 Q 256.250000 1024.000000 512.500000 1024.000000 Z" />
</g>
<g fill="rgb(235.630174, 245.881620, 228.434357)">
<!--fid=186-->
<path d="M 822.500000 458.500000 Q 827.500000 493.500000 832.500000 528.500000 Q 862.750000 514.000000 893.000000 499.500000 Q 857.750000 479.000000 822.500000 458.500000 Z" />
</g>
<g fill="rgb(210.514595, 233.904866, 194.576216)">
<!--fid=187-->
<path d="M 797.500000 575.500000 Q 845.250000 537.500000 893.000000 499.500000 Q 862.750000 514.000000 832.500000 528.500000 Q 815.000000 552.000000 797.500000 575.500000 Z" />
</g>
<g fill="rgb(252.343101, 253.925383, 251.039864)">
<!--fid=188-->
<path d="M 458.500000 670.500000 Q 422.166667 679.000000 385.833333 687.500000 Q 428.166667 718.500000 470.500000 749.500000 Q 464.500000 710.000000 458.500000 670.500000 Z" />
</g>
<g fill="rgb(216.073617, 236.865127, 201.918324)">
<!--fid=189-->
<path d="M 374.500000 635.500000 Q 343.500000 656.500000 312.500000 677.500000 Q 349.166667 682.500000 385.833333 687.500000 Q 380.166667 661.500000 374.500000 635.500000 Z" />
</g>
<g fill="rgb(238.643882, 247.235660, 232.602295)">
<!--fid=190-->
<path d="M 748.500000 644.500000 Q 733.000000 669.000000 717.500000 693.500000 Q 750.791667 708.791667 784.083333 724.083333 Q 766.291667 684.291667 748.500000 644.500000 Z" />
</g>
<g fill="rgb(254.847688, 254.938481, 254.719983)">
<!--fid=191-->
<path d="M 667.333333 740.666667 Q 725.708333 732.375000 784.083333 724.083333 Q 750.791667 708.791667 717.500000 693.500000 Q 692.416667 717.083333 667.333333 740.666667 Z" />
</g>
<g fill="rgb(239.589520, 246.761573, 235.709171)">
<!--fid=192-->
<path d="M 821.500000 194.500000 Q 832.000000 218.000000 842.500000 241.500000 Q 854.125000 213.541667 865.750000 185.583333 Q 843.625000 190.041667 821.500000 194.500000 Z" />
</g>
<g fill="rgb(254.485306, 254.769528, 254.354602)">
<!--fid=193-->
<path d="M 865.750000 185.583333 Q 851.625000 236.541667 837.500000 287.500000 Q 885.375000 204.125000 933.250000 120.750000 Q 899.500000 153.166667 865.750000 185.583333 Z" />
</g>
<g fill="rgb(254.757635, 254.877843, 254.545159)">
<!--fid=194-->
<path d="M 214.000000 295.666667 Q 221.750000 331.583333 229.500000 367.500000 Q 245.000000 341.500000 260.500000 315.500000 Q 237.250000 305.583333 214.000000 295.666667 Z" />
</g>
<g fill="rgb(250.158879, 252.746680, 248.282833)">
<!--fid=195-->
<path d="M 97.750000 98.750000 Q 149.625000 172.125000 201.500000 245.500000 Q 198.500000 221.500000 195.500000 197.500000 Q 146.625000 148.125000 97.750000 98.750000 Z" />
</g>
<g fill="rgb(254.943487, 254.974500, 254.929014)">
<!--fid=196-->
<path d="M 639.500000 710.500000 Q 642.250000 764.250000 645.000000 818.000000 Q 656.166667 779.333333 667.333333 740.666667 Q 653.416667 725.583333 639.500000 710.500000 Z" />
</g>
<g fill="rgb(255.000000, 255.000000, 255.000000)">
<!--fid=197-->
<path d="M 784.083333 724.083333 Q 725.708333 732.375000 667.333333 740.666667 Q 656.166667 779.333333 645.000000 818.000000 Q 714.541667 771.041667 784.083333 724.083333 Z" />
</g>
<g fill="rgb(227.312389, 242.088682, 217.253120)">
<!--fid=198-->
<path d="M 142.500000 473.500000 Q 150.500000 440.000000 158.500000 406.500000 Q 118.875000 432.750000 79.250000 459.000000 Q 110.875000 466.250000 142.500000 473.500000 Z" />
</g>
<g fill="rgb(254.912109, 254.949830, 254.800453)">
<!--fid=199-->
<path d="M 158.500000 406.500000 Q 169.250000 366.250000 180.000000 326.000000 Q 129.625000 392.500000 79.250000 459.000000 Q 118.875000 432.750000 158.500000 406.500000 Z" />
</g>
<g fill="rgb(255.000000, 255.000000, 255.000000)">
<!--fid=200-->
<path d="M 755.875000 46.875000 Q 784.312500 88.145833 812.750000 129.416667 Q 829.000000 64.708333 845.250000 0.000000 Q 800.562500 23.437500 755.875000 46.875000 Z" />
</g>
<g fill="rgb(231.054923, 242.760885, 224.246484)">
<!--fid=201-->
<path d="M 771.500000 162.500000 Q 796.500000 178.500000 821.500000 194.500000 Q 817.125000 161.958333 812.750000 129.416667 Q 792.125000 145.958333 771.500000 162.500000 Z" />
</g>
<g fill="rgb(68.094676, 169.975091, 0.167880)">
<!--fid=202-->
<path d="M 578.500000 407.500000 Q 580.000000 368.000000 581.500000 328.500000 Q 548.500000 333.500000 515.500000 338.500000 Q 547.000000 373.000000 578.500000 407.500000 Z" />
</g>
<g fill="rgb(68.213573, 169.781038, 0.691339)">
<!--fid=203-->
<path d="M 733.500000 373.500000 Q 657.500000 351.000000 581.500000 328.500000 Q 612.000000 363.500000 642.500000 398.500000 Q 688.000000 386.000000 733.500000 373.500000 Z" />
</g>
<g fill="rgb(254.973196, 254.994582, 254.953522)">
<!--fid=204-->
<path d="M 812.750000 129.416667 Q 784.312500 88.145833 755.875000 46.875000 Q 732.687500 74.687500 709.500000 102.500000 Q 761.125000 115.958333 812.750000 129.416667 Z" />
</g>
<g fill="rgb(255.000000, 255.000000, 255.000000)">
<!--fid=205-->
<path d="M 845.250000 0.000000 Q 678.875000 0.000000 512.500000 0.000000 Q 634.187500 23.437500 755.875000 46.875000 Q 800.562500 23.437500 845.250000 0.000000 Z" />
</g>
<g fill="rgb(255.000000, 255.000000, 255.000000)">
<!--fid=206-->
<path d="M 512.500000 0.000000 Q 350.125000 0.000000 187.750000 0.000000 Q 234.687500 14.812500 281.625000 29.625000 Q 397.062500 14.812500 512.500000 0.000000 Z" />
</g>
<g fill="rgb(255.000000, 255.000000, 255.000000)">
<!--fid=207-->
<path d="M 216.250000 106.250000 Q 248.937500 67.937500 281.625000 29.625000 Q 234.687500 14.812500 187.750000 0.000000 Q 202.000000 53.125000 216.250000 106.250000 Z" />
</g>
<g fill="rgb(70.310587, 169.719348, 4.659124)">
<!--fid=208-->
<path d="M 523.500000 177.500000 Q 522.000000 218.000000 520.500000 258.500000 Q 555.000000 231.500000 589.500000 204.500000 Q 556.500000 191.000000 523.500000 177.500000 Z" />
</g>
<g fill="rgb(68.035955, 169.988185, 0.091111)">
<!--fid=209-->
<path d="M 581.500000 328.500000 Q 585.500000 266.500000 589.500000 204.500000 Q 555.000000 231.500000 520.500000 258.500000 Q 551.000000 293.500000 581.500000 328.500000 Z" />
</g>
<g fill="rgb(254.966246, 254.989696, 254.946527)">
<!--fid=210-->
<path d="M 201.500000 245.500000 Q 149.625000 172.125000 97.750000 98.750000 Q 138.875000 212.375000 180.000000 326.000000 Q 190.750000 285.750000 201.500000 245.500000 Z" />
</g>
<g fill="rgb(249.745196, 252.519633, 247.822891)">
<!--fid=211-->
<path d="M 195.500000 197.500000 Q 202.000000 179.500000 208.500000 161.500000 Q 153.125000 130.125000 97.750000 98.750000 Q 146.625000 148.125000 195.500000 197.500000 Z" />
</g>
<g fill="rgb(155.574551, 208.698958, 119.660969)">
<!--fid=212-->
<path d="M 260.500000 315.500000 Q 231.000000 280.500000 201.500000 245.500000 Q 207.750000 270.583333 214.000000 295.666667 Q 237.250000 305.583333 260.500000 315.500000 Z" />
</g>
<g fill="rgb(254.789523, 254.840037, 254.522919)">
<!--fid=213-->
<path d="M 201.500000 245.500000 Q 190.750000 285.750000 180.000000 326.000000 Q 197.000000 310.833333 214.000000 295.666667 Q 207.750000 270.583333 201.500000 245.500000 Z" />
</g>
<g fill="rgb(201.468049, 228.592402, 185.136442)">
<!--fid=214-->
<path d="M 536.500000 114.500000 Q 560.500000 90.000000 584.500000 65.500000 Q 564.500000 62.750000 544.500000 60.000000 Q 540.500000 87.250000 536.500000 114.500000 Z" />
</g>
<g fill="rgb(254.937587, 254.979196, 254.909847)">
<!--fid=215-->
<path d="M 589.500000 31.250000 Q 567.000000 45.625000 544.500000 60.000000 Q 564.500000 62.750000 584.500000 65.500000 Q 587.000000 48.375000 589.500000 31.250000 Z" />
</g>
<g fill="rgb(254.917587, 254.984346, 254.886280)">
<!--fid=216-->
<path d="M 469.500000 657.500000 Q 507.166667 672.000000 544.833333 686.500000 Q 550.666667 660.000000 556.500000 633.500000 Q 513.000000 645.500000 469.500000 657.500000 Z" />
</g>
<g fill="rgb(254.239923, 254.759302, 253.736047)">
<!--fid=217-->
<path d="M 498.500000 804.500000 Q 521.666667 745.500000 544.833333 686.500000 Q 512.666667 713.000000 480.500000 739.500000 Q 489.500000 772.000000 498.500000 804.500000 Z" />
</g>
<g fill="rgb(255.000000, 255.000000, 255.000000)">
<!--fid=218-->
<path d="M 512.500000 0.000000 Q 504.000000 39.000000 495.500000 78.000000 Q 520.000000 69.000000 544.500000 60.000000 Q 528.500000 30.000000 512.500000 0.000000 Z" />
</g>
<g fill="rgb(200.908655, 229.619232, 181.212500)">
<!--fid=219-->
<path d="M 447.500000 53.500000 Q 471.000000 87.000000 494.500000 120.500000 Q 495.000000 99.250000 495.500000 78.000000 Q 471.500000 65.750000 447.500000 53.500000 Z" />
</g>
<g fill="rgb(232.335377, 244.328372, 224.168126)">
<!--fid=220-->
<path d="M 208.500000 161.500000 Q 230.500000 149.500000 252.500000 137.500000 Q 234.375000 121.875000 216.250000 106.250000 Q 212.375000 133.875000 208.500000 161.500000 Z" />
</g>
<g fill="rgb(254.926762, 254.959466, 254.858130)">
<!--fid=221-->
<path d="M 322.500000 76.500000 Q 269.375000 91.375000 216.250000 106.250000 Q 234.375000 121.875000 252.500000 137.500000 Q 287.500000 107.000000 322.500000 76.500000 Z" />
</g>
<g fill="rgb(206.577378, 230.905622, 191.794587)">
<!--fid=222-->
<path d="M 584.500000 65.500000 Q 625.500000 64.000000 666.500000 62.500000 Q 628.000000 46.875000 589.500000 31.250000 Q 587.000000 48.375000 584.500000 65.500000 Z" />
</g>
<g fill="rgb(254.820000, 254.911220, 254.717561)">
<!--fid=223-->
<path d="M 666.500000 62.500000 Q 711.187500 54.687500 755.875000 46.875000 Q 672.687500 39.062500 589.500000 31.250000 Q 628.000000 46.875000 666.500000 62.500000 Z" />
</g>
<g fill="rgb(255.000000, 255.000000, 255.000000)">
<!--fid=224-->
<path d="M 1024.000000 511.500000 Q 927.000000 442.250000 830.000000 373.000000 Q 861.500000 436.250000 893.000000 499.500000 Q 958.500000 505.500000 1024.000000 511.500000 Z" />
</g>
<g fill="rgb(235.002611, 244.571149, 229.783290)">
<!--fid=225-->
<path d="M 837.500000 287.500000 Q 817.500000 313.000000 797.500000 338.500000 Q 813.750000 355.750000 830.000000 373.000000 Q 833.750000 330.250000 837.500000 287.500000 Z" />
</g>
<g fill="rgb(220.168832, 236.225109, 211.891775)">
<!--fid=226-->
<path d="M 837.500000 287.500000 Q 851.625000 236.541667 865.750000 185.583333 Q 854.125000 213.541667 842.500000 241.500000 Q 840.000000 264.500000 837.500000 287.500000 Z" />
</g>
<g fill="rgb(255.000000, 255.000000, 255.000000)">
<!--fid=227-->
<path d="M 812.750000 129.416667 Q 839.250000 157.500000 865.750000 185.583333 Q 899.500000 153.166667 933.250000 120.750000 Q 873.000000 125.083333 812.750000 129.416667 Z" />
</g>
</svg>
