<svg xmlns="http://www.w3.org/2000/svg" xmlns:xlink="http://www.w3.org/1999/xlink"
  width="535" height="345" viewBox="0 0 535 345">
<metadata>
  Created by Xiao, Yanyang (yanyangxiaoxyy@gmail.com)
  All copyrights reserved
</metadata>
<g fill="none" stroke="rgb(50.000000, 250.000000, 50.000000)" stroke-width="3.000000" stroke-linecap="round">
<line x1="10.000000" y1="335.000000" x2="267.500000" y2="335.000000"/>
<line x1="267.500000" y1="335.000000" x2="525.000000" y2="335.000000"/>
<line x1="525.000000" y1="335.000000" x2="525.000000" y2="172.500000"/>
<line x1="525.000000" y1="172.500000" x2="525.000000" y2="10.000000"/>
<line x1="525.000000" y1="10.000000" x2="267.500000" y2="10.000000"/>
<line x1="267.500000" y1="10.000000" x2="10.000000" y2="10.000000"/>
<line x1="10.000000" y1="10.000000" x2="10.000000" y2="172.500000"/>
<line x1="10.000000" y1="172.500000" x2="10.000000" y2="335.000000"/>
<line x1="435.500000" y1="174.500000" x2="444.500000" y2="159.500000"/>
<line x1="444.500000" y1="159.500000" x2="447.500000" y2="148.500000"/>
<line x1="447.500000" y1="148.500000" x2="449.500000" y2="137.500000"/>
<line x1="449.500000" y1="137.500000" x2="448.500000" y2="125.500000"/>
<line x1="448.500000" y1="125.500000" x2="447.500000" y2="113.500000"/>
<line x1="447.500000" y1="113.500000" x2="444.500000" y2="101.500000"/>
<line x1="444.500000" y1="101.500000" x2="440.500000" y2="88.500000"/>
<line x1="440.500000" y1="88.500000" x2="432.500000" y2="73.500000"/>
<line x1="432.500000" y1="73.500000" x2="423.500000" y2="57.500000"/>
<line x1="423.500000" y1="57.500000" x2="416.500000" y2="48.500000"/>
<line x1="416.500000" y1="48.500000" x2="406.500000" y2="38.500000"/>
<line x1="406.500000" y1="38.500000" x2="388.500000" y2="27.500000"/>
<line x1="388.500000" y1="27.500000" x2="379.500000" y2="24.500000"/>
<line x1="379.500000" y1="24.500000" x2="369.500000" y2="21.500000"/>
<line x1="369.500000" y1="21.500000" x2="360.500000" y2="20.500000"/>
<line x1="360.500000" y1="20.500000" x2="350.500000" y2="19.500000"/>
<line x1="350.500000" y1="19.500000" x2="337.500000" y2="22.500000"/>
<line x1="337.500000" y1="22.500000" x2="323.500000" y2="26.500000"/>
<line x1="323.500000" y1="26.500000" x2="310.500000" y2="33.500000"/>
<line x1="310.500000" y1="33.500000" x2="296.500000" y2="42.500000"/>
<line x1="296.500000" y1="42.500000" x2="282.500000" y2="54.500000"/>
<line x1="282.500000" y1="54.500000" x2="267.500000" y2="69.500000"/>
<line x1="267.500000" y1="69.500000" x2="259.500000" y2="80.500000"/>
<line x1="259.500000" y1="80.500000" x2="253.500000" y2="92.500000"/>
<line x1="253.500000" y1="92.500000" x2="249.500000" y2="109.500000"/>
<line x1="249.500000" y1="109.500000" x2="250.500000" y2="119.500000"/>
<line x1="250.500000" y1="119.500000" x2="252.500000" y2="130.500000"/>
<line x1="252.500000" y1="130.500000" x2="259.500000" y2="137.500000"/>
<line x1="259.500000" y1="137.500000" x2="256.500000" y2="153.500000"/>
<line x1="256.500000" y1="153.500000" x2="253.500000" y2="169.500000"/>
<line x1="253.500000" y1="169.500000" x2="256.500000" y2="174.500000"/>
<line x1="256.500000" y1="174.500000" x2="263.500000" y2="164.500000"/>
<line x1="263.500000" y1="164.500000" x2="271.500000" y2="154.500000"/>
<line x1="271.500000" y1="154.500000" x2="272.500000" y2="145.500000"/>
<line x1="272.500000" y1="145.500000" x2="273.500000" y2="135.500000"/>
<line x1="273.500000" y1="135.500000" x2="275.500000" y2="125.500000"/>
<line x1="275.500000" y1="125.500000" x2="278.500000" y2="115.500000"/>
<line x1="278.500000" y1="115.500000" x2="268.500000" y2="117.500000"/>
<line x1="268.500000" y1="117.500000" x2="257.500000" y2="134.500000"/>
<line x1="210.500000" y1="333.500000" x2="213.500000" y2="318.500000"/>
<line x1="213.500000" y1="318.500000" x2="218.500000" y2="303.500000"/>
<line x1="218.500000" y1="303.500000" x2="225.500000" y2="288.500000"/>
<line x1="225.500000" y1="288.500000" x2="230.500000" y2="273.500000"/>
<line x1="230.500000" y1="273.500000" x2="230.500000" y2="258.500000"/>
<line x1="230.500000" y1="258.500000" x2="225.500000" y2="249.500000"/>
<line x1="225.500000" y1="249.500000" x2="218.500000" y2="239.500000"/>
<line x1="218.500000" y1="239.500000" x2="212.500000" y2="230.500000"/>
<line x1="212.500000" y1="230.500000" x2="204.500000" y2="220.500000"/>
<line x1="204.500000" y1="220.500000" x2="197.500000" y2="211.500000"/>
<line x1="197.500000" y1="211.500000" x2="189.500000" y2="201.500000"/>
<line x1="189.500000" y1="201.500000" x2="181.500000" y2="191.500000"/>
<line x1="181.500000" y1="191.500000" x2="173.500000" y2="181.500000"/>
<line x1="173.500000" y1="181.500000" x2="166.500000" y2="174.500000"/>
<line x1="166.500000" y1="174.500000" x2="153.500000" y2="173.500000"/>
<line x1="153.500000" y1="173.500000" x2="147.500000" y2="165.500000"/>
<line x1="147.500000" y1="165.500000" x2="147.500000" y2="160.500000"/>
<line x1="147.500000" y1="160.500000" x2="162.500000" y2="157.500000"/>
<line x1="162.500000" y1="157.500000" x2="179.500000" y2="146.500000"/>
<line x1="179.500000" y1="146.500000" x2="192.500000" y2="134.500000"/>
<line x1="192.500000" y1="134.500000" x2="201.500000" y2="122.500000"/>
<line x1="327.500000" y1="216.500000" x2="314.500000" y2="211.500000"/>
<line x1="314.500000" y1="211.500000" x2="301.500000" y2="200.500000"/>
<line x1="301.500000" y1="200.500000" x2="297.500000" y2="189.500000"/>
<line x1="297.500000" y1="189.500000" x2="296.500000" y2="177.500000"/>
<line x1="296.500000" y1="177.500000" x2="280.500000" y2="164.500000"/>
<line x1="280.500000" y1="164.500000" x2="277.500000" y2="167.500000"/>
<line x1="277.500000" y1="167.500000" x2="284.500000" y2="177.500000"/>
<line x1="284.500000" y1="177.500000" x2="293.500000" y2="187.500000"/>
<line x1="293.500000" y1="187.500000" x2="293.500000" y2="193.500000"/>
<line x1="293.500000" y1="193.500000" x2="285.500000" y2="189.500000"/>
<line x1="285.500000" y1="189.500000" x2="278.500000" y2="184.500000"/>
<line x1="278.500000" y1="184.500000" x2="273.500000" y2="167.500000"/>
<line x1="273.500000" y1="167.500000" x2="269.500000" y2="175.500000"/>
<line x1="269.500000" y1="175.500000" x2="270.500000" y2="185.500000"/>
<line x1="270.500000" y1="185.500000" x2="277.500000" y2="195.500000"/>
<line x1="277.500000" y1="195.500000" x2="280.500000" y2="205.500000"/>
<line x1="280.500000" y1="205.500000" x2="290.500000" y2="211.500000"/>
<line x1="290.500000" y1="211.500000" x2="299.500000" y2="215.500000"/>
<line x1="385.500000" y1="61.500000" x2="385.500000" y2="78.500000"/>
<line x1="385.500000" y1="78.500000" x2="377.500000" y2="82.500000"/>
<line x1="377.500000" y1="82.500000" x2="374.500000" y2="71.500000"/>
<line x1="374.500000" y1="71.500000" x2="372.500000" y2="58.500000"/>
<line x1="372.500000" y1="58.500000" x2="360.500000" y2="66.500000"/>
<line x1="360.500000" y1="66.500000" x2="354.500000" y2="52.500000"/>
<line x1="354.500000" y1="52.500000" x2="348.500000" y2="62.500000"/>
<line x1="348.500000" y1="62.500000" x2="341.500000" y2="73.500000"/>
<line x1="341.500000" y1="73.500000" x2="334.500000" y2="65.500000"/>
<line x1="334.500000" y1="65.500000" x2="344.500000" y2="53.500000"/>
<line x1="344.500000" y1="53.500000" x2="355.500000" y2="41.500000"/>
<line x1="355.500000" y1="41.500000" x2="363.500000" y2="54.500000"/>
<line x1="363.500000" y1="54.500000" x2="375.500000" y2="47.500000"/>
<line x1="375.500000" y1="47.500000" x2="379.500000" y2="49.500000"/>
<line x1="379.500000" y1="49.500000" x2="381.500000" y2="60.500000"/>
<line x1="381.500000" y1="60.500000" x2="384.500000" y2="72.500000"/>
<line x1="411.500000" y1="212.500000" x2="408.500000" y2="201.500000"/>
<line x1="408.500000" y1="201.500000" x2="405.500000" y2="186.500000"/>
<line x1="405.500000" y1="186.500000" x2="414.500000" y2="168.500000"/>
<line x1="414.500000" y1="168.500000" x2="416.500000" y2="159.500000"/>
<line x1="416.500000" y1="159.500000" x2="416.500000" y2="149.500000"/>
<line x1="416.500000" y1="149.500000" x2="403.500000" y2="135.500000"/>
<line x1="403.500000" y1="135.500000" x2="399.500000" y2="143.500000"/>
<line x1="399.500000" y1="143.500000" x2="395.500000" y2="133.500000"/>
<line x1="395.500000" y1="133.500000" x2="386.500000" y2="127.500000"/>
<line x1="386.500000" y1="127.500000" x2="375.500000" y2="127.500000"/>
<line x1="375.500000" y1="127.500000" x2="364.500000" y2="129.500000"/>
<line x1="364.500000" y1="129.500000" x2="375.500000" y2="117.500000"/>
<line x1="375.500000" y1="117.500000" x2="388.500000" y2="113.500000"/>
<line x1="388.500000" y1="113.500000" x2="399.500000" y2="119.500000"/>
<line x1="399.500000" y1="119.500000" x2="403.500000" y2="135.500000"/>
<line x1="87.500000" y1="101.500000" x2="83.500000" y2="100.500000"/>
<line x1="83.500000" y1="100.500000" x2="78.500000" y2="110.500000"/>
<line x1="78.500000" y1="110.500000" x2="69.500000" y2="104.500000"/>
<line x1="69.500000" y1="104.500000" x2="84.500000" y2="96.500000"/>
<line x1="84.500000" y1="96.500000" x2="97.500000" y2="97.500000"/>
<line x1="97.500000" y1="97.500000" x2="110.500000" y2="103.500000"/>
<line x1="110.500000" y1="103.500000" x2="123.500000" y2="110.500000"/>
<line x1="123.500000" y1="110.500000" x2="131.500000" y2="118.500000"/>
<line x1="131.500000" y1="118.500000" x2="128.500000" y2="136.500000"/>
<line x1="128.500000" y1="136.500000" x2="140.500000" y2="137.500000"/>
<line x1="140.500000" y1="137.500000" x2="152.500000" y2="138.500000"/>
<line x1="152.500000" y1="138.500000" x2="164.500000" y2="134.500000"/>
<line x1="164.500000" y1="134.500000" x2="169.500000" y2="124.500000"/>
<line x1="299.500000" y1="215.500000" x2="307.500000" y2="222.500000"/>
<line x1="307.500000" y1="222.500000" x2="324.500000" y2="222.500000"/>
<line x1="324.500000" y1="222.500000" x2="335.500000" y2="229.500000"/>
<line x1="335.500000" y1="229.500000" x2="351.500000" y2="224.500000"/>
<line x1="351.500000" y1="224.500000" x2="369.500000" y2="228.500000"/>
<line x1="369.500000" y1="228.500000" x2="379.500000" y2="217.500000"/>
<line x1="379.500000" y1="217.500000" x2="393.500000" y2="211.500000"/>
<line x1="393.500000" y1="211.500000" x2="396.500000" y2="193.500000"/>
<line x1="396.500000" y1="193.500000" x2="392.500000" y2="190.500000"/>
<line x1="392.500000" y1="190.500000" x2="379.500000" y2="195.500000"/>
<line x1="379.500000" y1="195.500000" x2="366.500000" y2="196.500000"/>
<line x1="392.500000" y1="58.500000" x2="381.500000" y2="43.500000"/>
<line x1="381.500000" y1="43.500000" x2="372.500000" y2="39.500000"/>
<line x1="372.500000" y1="39.500000" x2="362.500000" y2="36.500000"/>
<line x1="362.500000" y1="36.500000" x2="346.500000" y2="38.500000"/>
<line x1="346.500000" y1="38.500000" x2="332.500000" y2="49.500000"/>
<line x1="332.500000" y1="49.500000" x2="328.500000" y2="67.500000"/>
<line x1="328.500000" y1="67.500000" x2="334.500000" y2="78.500000"/>
<line x1="334.500000" y1="78.500000" x2="344.500000" y2="79.500000"/>
<line x1="344.500000" y1="79.500000" x2="354.500000" y2="81.500000"/>
<line x1="354.500000" y1="81.500000" x2="364.500000" y2="84.500000"/>
<line x1="364.500000" y1="84.500000" x2="374.500000" y2="87.500000"/>
<line x1="371.500000" y1="258.500000" x2="381.500000" y2="253.500000"/>
<line x1="381.500000" y1="253.500000" x2="392.500000" y2="246.500000"/>
<line x1="392.500000" y1="246.500000" x2="404.500000" y2="233.500000"/>
<line x1="404.500000" y1="233.500000" x2="419.500000" y2="233.500000"/>
<line x1="419.500000" y1="233.500000" x2="435.500000" y2="219.500000"/>
<line x1="435.500000" y1="219.500000" x2="441.500000" y2="208.500000"/>
<line x1="441.500000" y1="208.500000" x2="445.500000" y2="197.500000"/>
<line x1="445.500000" y1="197.500000" x2="445.500000" y2="183.500000"/>
<line x1="445.500000" y1="183.500000" x2="435.500000" y2="174.500000"/>
<line x1="319.500000" y1="247.500000" x2="308.500000" y2="240.500000"/>
<line x1="308.500000" y1="240.500000" x2="307.500000" y2="232.500000"/>
<line x1="307.500000" y1="232.500000" x2="319.500000" y2="240.500000"/>
<line x1="319.500000" y1="240.500000" x2="329.500000" y2="240.500000"/>
<line x1="329.500000" y1="240.500000" x2="338.500000" y2="243.500000"/>
<line x1="338.500000" y1="243.500000" x2="345.500000" y2="234.500000"/>
<line x1="345.500000" y1="234.500000" x2="334.500000" y2="232.500000"/>
<line x1="334.500000" y1="232.500000" x2="323.500000" y2="231.500000"/>
<line x1="323.500000" y1="231.500000" x2="312.500000" y2="227.500000"/>
<line x1="312.500000" y1="227.500000" x2="301.500000" y2="222.500000"/>
<line x1="101.500000" y1="87.500000" x2="117.500000" y2="92.500000"/>
<line x1="117.500000" y1="92.500000" x2="133.500000" y2="100.500000"/>
<line x1="133.500000" y1="100.500000" x2="136.500000" y2="97.500000"/>
<line x1="136.500000" y1="97.500000" x2="124.500000" y2="91.500000"/>
<line x1="124.500000" y1="91.500000" x2="111.500000" y2="86.500000"/>
<line x1="111.500000" y1="86.500000" x2="102.500000" y2="84.500000"/>
<line x1="102.500000" y1="84.500000" x2="92.500000" y2="83.500000"/>
<line x1="92.500000" y1="83.500000" x2="82.500000" y2="82.500000"/>
<line x1="82.500000" y1="82.500000" x2="72.500000" y2="82.500000"/>
<line x1="269.500000" y1="231.500000" x2="284.500000" y2="246.500000"/>
<line x1="284.500000" y1="246.500000" x2="297.500000" y2="261.500000"/>
<line x1="297.500000" y1="261.500000" x2="309.500000" y2="271.500000"/>
<line x1="309.500000" y1="271.500000" x2="325.500000" y2="285.500000"/>
<line x1="325.500000" y1="285.500000" x2="335.500000" y2="285.500000"/>
<line x1="335.500000" y1="285.500000" x2="344.500000" y2="282.500000"/>
<line x1="344.500000" y1="282.500000" x2="342.500000" y2="266.500000"/>
<line x1="331.500000" y1="122.500000" x2="317.500000" y2="110.500000"/>
<line x1="317.500000" y1="110.500000" x2="306.500000" y2="110.500000"/>
<line x1="306.500000" y1="110.500000" x2="295.500000" y2="115.500000"/>
<line x1="295.500000" y1="115.500000" x2="300.500000" y2="102.500000"/>
<line x1="300.500000" y1="102.500000" x2="308.500000" y2="96.500000"/>
<line x1="308.500000" y1="96.500000" x2="323.500000" y2="98.500000"/>
<line x1="323.500000" y1="98.500000" x2="331.500000" y2="111.500000"/>
<line x1="331.500000" y1="111.500000" x2="334.500000" y2="121.500000"/>
<line x1="307.500000" y1="161.500000" x2="308.500000" y2="148.500000"/>
<line x1="308.500000" y1="148.500000" x2="314.500000" y2="141.500000"/>
<line x1="314.500000" y1="141.500000" x2="320.500000" y2="141.500000"/>
<line x1="320.500000" y1="141.500000" x2="325.500000" y2="152.500000"/>
<line x1="325.500000" y1="152.500000" x2="328.500000" y2="148.500000"/>
<line x1="328.500000" y1="148.500000" x2="324.500000" y2="136.500000"/>
<line x1="324.500000" y1="136.500000" x2="309.500000" y2="137.500000"/>
<line x1="309.500000" y1="137.500000" x2="301.500000" y2="152.500000"/>
<line x1="301.500000" y1="152.500000" x2="302.500000" y2="165.500000"/>
<line x1="156.500000" y1="68.500000" x2="165.500000" y2="53.500000"/>
<line x1="165.500000" y1="53.500000" x2="180.500000" y2="57.500000"/>
<line x1="180.500000" y1="57.500000" x2="181.500000" y2="67.500000"/>
<line x1="181.500000" y1="67.500000" x2="182.500000" y2="77.500000"/>
<line x1="182.500000" y1="77.500000" x2="189.500000" y2="88.500000"/>
<line x1="189.500000" y1="88.500000" x2="196.500000" y2="100.500000"/>
<line x1="196.500000" y1="100.500000" x2="198.500000" y2="110.500000"/>
<line x1="198.500000" y1="110.500000" x2="201.500000" y2="122.500000"/>
<line x1="210.500000" y1="139.500000" x2="221.500000" y2="152.500000"/>
<line x1="221.500000" y1="152.500000" x2="232.500000" y2="165.500000"/>
<line x1="232.500000" y1="165.500000" x2="242.500000" y2="178.500000"/>
<line x1="242.500000" y1="178.500000" x2="252.500000" y2="191.500000"/>
<line x1="252.500000" y1="191.500000" x2="255.500000" y2="202.500000"/>
<line x1="255.500000" y1="202.500000" x2="258.500000" y2="213.500000"/>
<line x1="258.500000" y1="213.500000" x2="269.500000" y2="231.500000"/>
<line x1="369.500000" y1="154.500000" x2="372.500000" y2="166.500000"/>
<line x1="372.500000" y1="166.500000" x2="365.500000" y2="179.500000"/>
<line x1="365.500000" y1="179.500000" x2="352.500000" y2="164.500000"/>
<line x1="352.500000" y1="164.500000" x2="338.500000" y2="162.500000"/>
<line x1="338.500000" y1="162.500000" x2="323.500000" y2="157.500000"/>
<line x1="323.500000" y1="157.500000" x2="313.500000" y2="160.500000"/>
<line x1="313.500000" y1="160.500000" x2="302.500000" y2="165.500000"/>
<line x1="301.500000" y1="130.500000" x2="309.500000" y2="126.500000"/>
<line x1="309.500000" y1="126.500000" x2="327.500000" y2="134.500000"/>
<line x1="327.500000" y1="134.500000" x2="342.500000" y2="133.500000"/>
<line x1="342.500000" y1="133.500000" x2="356.500000" y2="138.500000"/>
<line x1="356.500000" y1="138.500000" x2="354.500000" y2="150.500000"/>
<line x1="354.500000" y1="150.500000" x2="352.500000" y2="164.500000"/>
<line x1="410.500000" y1="333.500000" x2="404.500000" y2="319.500000"/>
<line x1="404.500000" y1="319.500000" x2="399.500000" y2="304.500000"/>
<line x1="399.500000" y1="304.500000" x2="394.500000" y2="289.500000"/>
<line x1="394.500000" y1="289.500000" x2="388.500000" y2="274.500000"/>
<line x1="388.500000" y1="274.500000" x2="371.500000" y2="258.500000"/>
<line x1="147.500000" y1="160.500000" x2="130.500000" y2="150.500000"/>
<line x1="130.500000" y1="150.500000" x2="115.500000" y2="138.500000"/>
<line x1="115.500000" y1="138.500000" x2="100.500000" y2="124.500000"/>
<line x1="100.500000" y1="124.500000" x2="85.500000" y2="115.500000"/>
<line x1="85.500000" y1="115.500000" x2="87.500000" y2="101.500000"/>
<line x1="354.500000" y1="316.500000" x2="367.500000" y2="311.500000"/>
<line x1="367.500000" y1="311.500000" x2="364.500000" y2="294.500000"/>
<line x1="364.500000" y1="294.500000" x2="352.500000" y2="289.500000"/>
<line x1="352.500000" y1="289.500000" x2="343.500000" y2="296.500000"/>
<line x1="343.500000" y1="296.500000" x2="345.500000" y2="308.500000"/>
<line x1="345.500000" y1="308.500000" x2="354.500000" y2="316.500000"/>
<line x1="366.500000" y1="196.500000" x2="366.500000" y2="185.500000"/>
<line x1="366.500000" y1="185.500000" x2="377.500000" y2="168.500000"/>
<line x1="377.500000" y1="168.500000" x2="376.500000" y2="153.500000"/>
<line x1="376.500000" y1="153.500000" x2="365.500000" y2="146.500000"/>
<line x1="365.500000" y1="146.500000" x2="369.500000" y2="154.500000"/>
<line x1="391.500000" y1="168.500000" x2="394.500000" y2="165.500000"/>
<line x1="394.500000" y1="165.500000" x2="387.500000" y2="158.500000"/>
<line x1="387.500000" y1="158.500000" x2="380.500000" y2="148.500000"/>
<line x1="380.500000" y1="148.500000" x2="366.500000" y2="142.500000"/>
<line x1="366.500000" y1="142.500000" x2="356.500000" y2="155.500000"/>
<line x1="356.500000" y1="155.500000" x2="369.500000" y2="154.500000"/>
<line x1="323.500000" y1="261.500000" x2="306.500000" y2="256.500000"/>
<line x1="306.500000" y1="256.500000" x2="315.500000" y2="257.500000"/>
<line x1="315.500000" y1="257.500000" x2="325.500000" y2="256.500000"/>
<line x1="325.500000" y1="256.500000" x2="337.500000" y2="250.500000"/>
<line x1="337.500000" y1="250.500000" x2="334.500000" y2="246.500000"/>
<line x1="334.500000" y1="246.500000" x2="326.500000" y2="250.500000"/>
<line x1="326.500000" y1="250.500000" x2="310.500000" y2="247.500000"/>
<line x1="310.500000" y1="247.500000" x2="302.500000" y2="236.500000"/>
<line x1="302.500000" y1="236.500000" x2="301.500000" y2="222.500000"/>
<line x1="302.500000" y1="165.500000" x2="293.500000" y2="164.500000"/>
<line x1="293.500000" y1="164.500000" x2="295.500000" y2="147.500000"/>
<line x1="295.500000" y1="147.500000" x2="301.500000" y2="130.500000"/>
<line x1="253.500000" y1="297.500000" x2="269.500000" y2="288.500000"/>
<line x1="269.500000" y1="288.500000" x2="271.500000" y2="278.500000"/>
<line x1="271.500000" y1="278.500000" x2="262.500000" y2="270.500000"/>
<line x1="262.500000" y1="270.500000" x2="252.500000" y2="272.500000"/>
<line x1="169.500000" y1="173.500000" x2="182.500000" y2="166.500000"/>
<line x1="182.500000" y1="166.500000" x2="195.500000" y2="157.500000"/>
<line x1="195.500000" y1="157.500000" x2="210.500000" y2="139.500000"/>
<line x1="411.500000" y1="212.500000" x2="419.500000" y2="196.500000"/>
<line x1="419.500000" y1="196.500000" x2="425.500000" y2="179.500000"/>
<line x1="425.500000" y1="179.500000" x2="435.500000" y2="174.500000"/>
<line x1="252.500000" y1="272.500000" x2="254.500000" y2="262.500000"/>
<line x1="254.500000" y1="262.500000" x2="259.500000" y2="252.500000"/>
<line x1="259.500000" y1="252.500000" x2="263.500000" y2="242.500000"/>
<line x1="263.500000" y1="242.500000" x2="269.500000" y2="231.500000"/>
<line x1="327.500000" y1="216.500000" x2="339.500000" y2="216.500000"/>
<line x1="339.500000" y1="216.500000" x2="350.500000" y2="213.500000"/>
<line x1="350.500000" y1="213.500000" x2="366.500000" y2="196.500000"/>
<line x1="128.500000" y1="118.500000" x2="110.500000" y2="106.500000"/>
<line x1="110.500000" y1="106.500000" x2="99.500000" y2="102.500000"/>
<line x1="99.500000" y1="102.500000" x2="87.500000" y2="101.500000"/>
<line x1="291.500000" y1="167.500000" x2="290.500000" y2="157.500000"/>
<line x1="290.500000" y1="157.500000" x2="291.500000" y2="147.500000"/>
<line x1="291.500000" y1="147.500000" x2="301.500000" y2="130.500000"/>
<line x1="342.500000" y1="266.500000" x2="356.500000" y2="262.500000"/>
<line x1="356.500000" y1="262.500000" x2="371.500000" y2="258.500000"/>
<line x1="249.500000" y1="296.500000" x2="242.500000" y2="284.500000"/>
<line x1="242.500000" y1="284.500000" x2="252.500000" y2="272.500000"/>
<line x1="374.500000" y1="87.500000" x2="390.500000" y2="80.500000"/>
<line x1="390.500000" y1="80.500000" x2="393.500000" y2="69.500000"/>
<line x1="317.500000" y1="269.500000" x2="329.500000" y2="269.500000"/>
<line x1="329.500000" y1="269.500000" x2="342.500000" y2="266.500000"/>
<line x1="201.500000" y1="122.500000" x2="210.500000" y2="126.500000"/>
<line x1="210.500000" y1="126.500000" x2="210.500000" y2="139.500000"/>
<line x1="319.500000" y1="247.500000" x2="334.500000" y2="246.500000"/>
<line x1="364.500000" y1="161.500000" x2="367.500000" y2="157.500000"/>
<line x1="393.500000" y1="69.500000" x2="392.500000" y2="58.500000"/>
</g>
<g fill="rgb(250.000000, 50.000000, 50.000000)">
<circle cx="10.000000" cy="335.000000" r="5.000000"/>
<circle cx="525.000000" cy="335.000000" r="5.000000"/>
<circle cx="525.000000" cy="10.000000" r="5.000000"/>
<circle cx="10.000000" cy="10.000000" r="5.000000"/>
<circle cx="267.500000" cy="335.000000" r="5.000000"/>
<circle cx="525.000000" cy="172.500000" r="5.000000"/>
<circle cx="267.500000" cy="10.000000" r="5.000000"/>
<circle cx="10.000000" cy="172.500000" r="5.000000"/>
<circle cx="435.500000" cy="174.500000" r="5.000000"/>
<circle cx="444.500000" cy="159.500000" r="5.000000"/>
<circle cx="447.500000" cy="148.500000" r="5.000000"/>
<circle cx="449.500000" cy="137.500000" r="5.000000"/>
<circle cx="448.500000" cy="125.500000" r="5.000000"/>
<circle cx="447.500000" cy="113.500000" r="5.000000"/>
<circle cx="444.500000" cy="101.500000" r="5.000000"/>
<circle cx="440.500000" cy="88.500000" r="5.000000"/>
<circle cx="432.500000" cy="73.500000" r="5.000000"/>
<circle cx="423.500000" cy="57.500000" r="5.000000"/>
<circle cx="416.500000" cy="48.500000" r="5.000000"/>
<circle cx="406.500000" cy="38.500000" r="5.000000"/>
<circle cx="388.500000" cy="27.500000" r="5.000000"/>
<circle cx="379.500000" cy="24.500000" r="5.000000"/>
<circle cx="369.500000" cy="21.500000" r="5.000000"/>
<circle cx="360.500000" cy="20.500000" r="5.000000"/>
<circle cx="350.500000" cy="19.500000" r="5.000000"/>
<circle cx="337.500000" cy="22.500000" r="5.000000"/>
<circle cx="323.500000" cy="26.500000" r="5.000000"/>
<circle cx="310.500000" cy="33.500000" r="5.000000"/>
<circle cx="296.500000" cy="42.500000" r="5.000000"/>
<circle cx="282.500000" cy="54.500000" r="5.000000"/>
<circle cx="267.500000" cy="69.500000" r="5.000000"/>
<circle cx="259.500000" cy="80.500000" r="5.000000"/>
<circle cx="253.500000" cy="92.500000" r="5.000000"/>
<circle cx="249.500000" cy="109.500000" r="5.000000"/>
<circle cx="250.500000" cy="119.500000" r="5.000000"/>
<circle cx="252.500000" cy="130.500000" r="5.000000"/>
<circle cx="259.500000" cy="137.500000" r="5.000000"/>
<circle cx="256.500000" cy="153.500000" r="5.000000"/>
<circle cx="253.500000" cy="169.500000" r="5.000000"/>
<circle cx="256.500000" cy="174.500000" r="5.000000"/>
<circle cx="263.500000" cy="164.500000" r="5.000000"/>
<circle cx="271.500000" cy="154.500000" r="5.000000"/>
<circle cx="272.500000" cy="145.500000" r="5.000000"/>
<circle cx="273.500000" cy="135.500000" r="5.000000"/>
<circle cx="275.500000" cy="125.500000" r="5.000000"/>
<circle cx="278.500000" cy="115.500000" r="5.000000"/>
<circle cx="268.500000" cy="117.500000" r="5.000000"/>
<circle cx="257.500000" cy="134.500000" r="5.000000"/>
<circle cx="210.500000" cy="333.500000" r="5.000000"/>
<circle cx="213.500000" cy="318.500000" r="5.000000"/>
<circle cx="218.500000" cy="303.500000" r="5.000000"/>
<circle cx="225.500000" cy="288.500000" r="5.000000"/>
<circle cx="230.500000" cy="273.500000" r="5.000000"/>
<circle cx="230.500000" cy="258.500000" r="5.000000"/>
<circle cx="225.500000" cy="249.500000" r="5.000000"/>
<circle cx="218.500000" cy="239.500000" r="5.000000"/>
<circle cx="212.500000" cy="230.500000" r="5.000000"/>
<circle cx="204.500000" cy="220.500000" r="5.000000"/>
<circle cx="197.500000" cy="211.500000" r="5.000000"/>
<circle cx="189.500000" cy="201.500000" r="5.000000"/>
<circle cx="181.500000" cy="191.500000" r="5.000000"/>
<circle cx="173.500000" cy="181.500000" r="5.000000"/>
<circle cx="166.500000" cy="174.500000" r="5.000000"/>
<circle cx="153.500000" cy="173.500000" r="5.000000"/>
<circle cx="147.500000" cy="165.500000" r="5.000000"/>
<circle cx="147.500000" cy="160.500000" r="5.000000"/>
<circle cx="162.500000" cy="157.500000" r="5.000000"/>
<circle cx="179.500000" cy="146.500000" r="5.000000"/>
<circle cx="192.500000" cy="134.500000" r="5.000000"/>
<circle cx="201.500000" cy="122.500000" r="5.000000"/>
<circle cx="327.500000" cy="216.500000" r="5.000000"/>
<circle cx="314.500000" cy="211.500000" r="5.000000"/>
<circle cx="301.500000" cy="200.500000" r="5.000000"/>
<circle cx="297.500000" cy="189.500000" r="5.000000"/>
<circle cx="296.500000" cy="177.500000" r="5.000000"/>
<circle cx="280.500000" cy="164.500000" r="5.000000"/>
<circle cx="277.500000" cy="167.500000" r="5.000000"/>
<circle cx="284.500000" cy="177.500000" r="5.000000"/>
<circle cx="293.500000" cy="187.500000" r="5.000000"/>
<circle cx="293.500000" cy="193.500000" r="5.000000"/>
<circle cx="285.500000" cy="189.500000" r="5.000000"/>
<circle cx="278.500000" cy="184.500000" r="5.000000"/>
<circle cx="273.500000" cy="167.500000" r="5.000000"/>
<circle cx="269.500000" cy="175.500000" r="5.000000"/>
<circle cx="270.500000" cy="185.500000" r="5.000000"/>
<circle cx="277.500000" cy="195.500000" r="5.000000"/>
<circle cx="280.500000" cy="205.500000" r="5.000000"/>
<circle cx="290.500000" cy="211.500000" r="5.000000"/>
<circle cx="299.500000" cy="215.500000" r="5.000000"/>
<circle cx="385.500000" cy="61.500000" r="5.000000"/>
<circle cx="385.500000" cy="78.500000" r="5.000000"/>
<circle cx="377.500000" cy="82.500000" r="5.000000"/>
<circle cx="374.500000" cy="71.500000" r="5.000000"/>
<circle cx="372.500000" cy="58.500000" r="5.000000"/>
<circle cx="360.500000" cy="66.500000" r="5.000000"/>
<circle cx="354.500000" cy="52.500000" r="5.000000"/>
<circle cx="348.500000" cy="62.500000" r="5.000000"/>
<circle cx="341.500000" cy="73.500000" r="5.000000"/>
<circle cx="334.500000" cy="65.500000" r="5.000000"/>
<circle cx="344.500000" cy="53.500000" r="5.000000"/>
<circle cx="355.500000" cy="41.500000" r="5.000000"/>
<circle cx="363.500000" cy="54.500000" r="5.000000"/>
<circle cx="375.500000" cy="47.500000" r="5.000000"/>
<circle cx="379.500000" cy="49.500000" r="5.000000"/>
<circle cx="381.500000" cy="60.500000" r="5.000000"/>
<circle cx="384.500000" cy="72.500000" r="5.000000"/>
<circle cx="411.500000" cy="212.500000" r="5.000000"/>
<circle cx="408.500000" cy="201.500000" r="5.000000"/>
<circle cx="405.500000" cy="186.500000" r="5.000000"/>
<circle cx="414.500000" cy="168.500000" r="5.000000"/>
<circle cx="416.500000" cy="159.500000" r="5.000000"/>
<circle cx="416.500000" cy="149.500000" r="5.000000"/>
<circle cx="403.500000" cy="135.500000" r="5.000000"/>
<circle cx="399.500000" cy="143.500000" r="5.000000"/>
<circle cx="395.500000" cy="133.500000" r="5.000000"/>
<circle cx="386.500000" cy="127.500000" r="5.000000"/>
<circle cx="375.500000" cy="127.500000" r="5.000000"/>
<circle cx="364.500000" cy="129.500000" r="5.000000"/>
<circle cx="375.500000" cy="117.500000" r="5.000000"/>
<circle cx="388.500000" cy="113.500000" r="5.000000"/>
<circle cx="399.500000" cy="119.500000" r="5.000000"/>
<circle cx="87.500000" cy="101.500000" r="5.000000"/>
<circle cx="83.500000" cy="100.500000" r="5.000000"/>
<circle cx="78.500000" cy="110.500000" r="5.000000"/>
<circle cx="69.500000" cy="104.500000" r="5.000000"/>
<circle cx="84.500000" cy="96.500000" r="5.000000"/>
<circle cx="97.500000" cy="97.500000" r="5.000000"/>
<circle cx="110.500000" cy="103.500000" r="5.000000"/>
<circle cx="123.500000" cy="110.500000" r="5.000000"/>
<circle cx="131.500000" cy="118.500000" r="5.000000"/>
<circle cx="128.500000" cy="136.500000" r="5.000000"/>
<circle cx="140.500000" cy="137.500000" r="5.000000"/>
<circle cx="152.500000" cy="138.500000" r="5.000000"/>
<circle cx="164.500000" cy="134.500000" r="5.000000"/>
<circle cx="169.500000" cy="124.500000" r="5.000000"/>
<circle cx="307.500000" cy="222.500000" r="5.000000"/>
<circle cx="324.500000" cy="222.500000" r="5.000000"/>
<circle cx="335.500000" cy="229.500000" r="5.000000"/>
<circle cx="351.500000" cy="224.500000" r="5.000000"/>
<circle cx="369.500000" cy="228.500000" r="5.000000"/>
<circle cx="379.500000" cy="217.500000" r="5.000000"/>
<circle cx="393.500000" cy="211.500000" r="5.000000"/>
<circle cx="396.500000" cy="193.500000" r="5.000000"/>
<circle cx="392.500000" cy="190.500000" r="5.000000"/>
<circle cx="379.500000" cy="195.500000" r="5.000000"/>
<circle cx="366.500000" cy="196.500000" r="5.000000"/>
<circle cx="392.500000" cy="58.500000" r="5.000000"/>
<circle cx="381.500000" cy="43.500000" r="5.000000"/>
<circle cx="372.500000" cy="39.500000" r="5.000000"/>
<circle cx="362.500000" cy="36.500000" r="5.000000"/>
<circle cx="346.500000" cy="38.500000" r="5.000000"/>
<circle cx="332.500000" cy="49.500000" r="5.000000"/>
<circle cx="328.500000" cy="67.500000" r="5.000000"/>
<circle cx="334.500000" cy="78.500000" r="5.000000"/>
<circle cx="344.500000" cy="79.500000" r="5.000000"/>
<circle cx="354.500000" cy="81.500000" r="5.000000"/>
<circle cx="364.500000" cy="84.500000" r="5.000000"/>
<circle cx="374.500000" cy="87.500000" r="5.000000"/>
<circle cx="371.500000" cy="258.500000" r="5.000000"/>
<circle cx="381.500000" cy="253.500000" r="5.000000"/>
<circle cx="392.500000" cy="246.500000" r="5.000000"/>
<circle cx="404.500000" cy="233.500000" r="5.000000"/>
<circle cx="419.500000" cy="233.500000" r="5.000000"/>
<circle cx="435.500000" cy="219.500000" r="5.000000"/>
<circle cx="441.500000" cy="208.500000" r="5.000000"/>
<circle cx="445.500000" cy="197.500000" r="5.000000"/>
<circle cx="445.500000" cy="183.500000" r="5.000000"/>
<circle cx="319.500000" cy="247.500000" r="5.000000"/>
<circle cx="308.500000" cy="240.500000" r="5.000000"/>
<circle cx="307.500000" cy="232.500000" r="5.000000"/>
<circle cx="319.500000" cy="240.500000" r="5.000000"/>
<circle cx="329.500000" cy="240.500000" r="5.000000"/>
<circle cx="338.500000" cy="243.500000" r="5.000000"/>
<circle cx="345.500000" cy="234.500000" r="5.000000"/>
<circle cx="334.500000" cy="232.500000" r="5.000000"/>
<circle cx="323.500000" cy="231.500000" r="5.000000"/>
<circle cx="312.500000" cy="227.500000" r="5.000000"/>
<circle cx="301.500000" cy="222.500000" r="5.000000"/>
<circle cx="101.500000" cy="87.500000" r="5.000000"/>
<circle cx="117.500000" cy="92.500000" r="5.000000"/>
<circle cx="133.500000" cy="100.500000" r="5.000000"/>
<circle cx="136.500000" cy="97.500000" r="5.000000"/>
<circle cx="124.500000" cy="91.500000" r="5.000000"/>
<circle cx="111.500000" cy="86.500000" r="5.000000"/>
<circle cx="102.500000" cy="84.500000" r="5.000000"/>
<circle cx="92.500000" cy="83.500000" r="5.000000"/>
<circle cx="82.500000" cy="82.500000" r="5.000000"/>
<circle cx="72.500000" cy="82.500000" r="5.000000"/>
<circle cx="269.500000" cy="231.500000" r="5.000000"/>
<circle cx="284.500000" cy="246.500000" r="5.000000"/>
<circle cx="297.500000" cy="261.500000" r="5.000000"/>
<circle cx="309.500000" cy="271.500000" r="5.000000"/>
<circle cx="325.500000" cy="285.500000" r="5.000000"/>
<circle cx="335.500000" cy="285.500000" r="5.000000"/>
<circle cx="344.500000" cy="282.500000" r="5.000000"/>
<circle cx="342.500000" cy="266.500000" r="5.000000"/>
<circle cx="331.500000" cy="122.500000" r="5.000000"/>
<circle cx="317.500000" cy="110.500000" r="5.000000"/>
<circle cx="306.500000" cy="110.500000" r="5.000000"/>
<circle cx="295.500000" cy="115.500000" r="5.000000"/>
<circle cx="300.500000" cy="102.500000" r="5.000000"/>
<circle cx="308.500000" cy="96.500000" r="5.000000"/>
<circle cx="323.500000" cy="98.500000" r="5.000000"/>
<circle cx="331.500000" cy="111.500000" r="5.000000"/>
<circle cx="334.500000" cy="121.500000" r="5.000000"/>
<circle cx="307.500000" cy="161.500000" r="5.000000"/>
<circle cx="308.500000" cy="148.500000" r="5.000000"/>
<circle cx="314.500000" cy="141.500000" r="5.000000"/>
<circle cx="320.500000" cy="141.500000" r="5.000000"/>
<circle cx="325.500000" cy="152.500000" r="5.000000"/>
<circle cx="328.500000" cy="148.500000" r="5.000000"/>
<circle cx="324.500000" cy="136.500000" r="5.000000"/>
<circle cx="309.500000" cy="137.500000" r="5.000000"/>
<circle cx="301.500000" cy="152.500000" r="5.000000"/>
<circle cx="302.500000" cy="165.500000" r="5.000000"/>
<circle cx="156.500000" cy="68.500000" r="5.000000"/>
<circle cx="165.500000" cy="53.500000" r="5.000000"/>
<circle cx="180.500000" cy="57.500000" r="5.000000"/>
<circle cx="181.500000" cy="67.500000" r="5.000000"/>
<circle cx="182.500000" cy="77.500000" r="5.000000"/>
<circle cx="189.500000" cy="88.500000" r="5.000000"/>
<circle cx="196.500000" cy="100.500000" r="5.000000"/>
<circle cx="198.500000" cy="110.500000" r="5.000000"/>
<circle cx="210.500000" cy="139.500000" r="5.000000"/>
<circle cx="221.500000" cy="152.500000" r="5.000000"/>
<circle cx="232.500000" cy="165.500000" r="5.000000"/>
<circle cx="242.500000" cy="178.500000" r="5.000000"/>
<circle cx="252.500000" cy="191.500000" r="5.000000"/>
<circle cx="255.500000" cy="202.500000" r="5.000000"/>
<circle cx="258.500000" cy="213.500000" r="5.000000"/>
<circle cx="369.500000" cy="154.500000" r="5.000000"/>
<circle cx="372.500000" cy="166.500000" r="5.000000"/>
<circle cx="365.500000" cy="179.500000" r="5.000000"/>
<circle cx="352.500000" cy="164.500000" r="5.000000"/>
<circle cx="338.500000" cy="162.500000" r="5.000000"/>
<circle cx="323.500000" cy="157.500000" r="5.000000"/>
<circle cx="313.500000" cy="160.500000" r="5.000000"/>
<circle cx="301.500000" cy="130.500000" r="5.000000"/>
<circle cx="309.500000" cy="126.500000" r="5.000000"/>
<circle cx="327.500000" cy="134.500000" r="5.000000"/>
<circle cx="342.500000" cy="133.500000" r="5.000000"/>
<circle cx="356.500000" cy="138.500000" r="5.000000"/>
<circle cx="354.500000" cy="150.500000" r="5.000000"/>
<circle cx="410.500000" cy="333.500000" r="5.000000"/>
<circle cx="404.500000" cy="319.500000" r="5.000000"/>
<circle cx="399.500000" cy="304.500000" r="5.000000"/>
<circle cx="394.500000" cy="289.500000" r="5.000000"/>
<circle cx="388.500000" cy="274.500000" r="5.000000"/>
<circle cx="130.500000" cy="150.500000" r="5.000000"/>
<circle cx="115.500000" cy="138.500000" r="5.000000"/>
<circle cx="100.500000" cy="124.500000" r="5.000000"/>
<circle cx="85.500000" cy="115.500000" r="5.000000"/>
<circle cx="354.500000" cy="316.500000" r="5.000000"/>
<circle cx="367.500000" cy="311.500000" r="5.000000"/>
<circle cx="364.500000" cy="294.500000" r="5.000000"/>
<circle cx="352.500000" cy="289.500000" r="5.000000"/>
<circle cx="343.500000" cy="296.500000" r="5.000000"/>
<circle cx="345.500000" cy="308.500000" r="5.000000"/>
<circle cx="366.500000" cy="185.500000" r="5.000000"/>
<circle cx="377.500000" cy="168.500000" r="5.000000"/>
<circle cx="376.500000" cy="153.500000" r="5.000000"/>
<circle cx="365.500000" cy="146.500000" r="5.000000"/>
<circle cx="391.500000" cy="168.500000" r="5.000000"/>
<circle cx="394.500000" cy="165.500000" r="5.000000"/>
<circle cx="387.500000" cy="158.500000" r="5.000000"/>
<circle cx="380.500000" cy="148.500000" r="5.000000"/>
<circle cx="366.500000" cy="142.500000" r="5.000000"/>
<circle cx="356.500000" cy="155.500000" r="5.000000"/>
<circle cx="323.500000" cy="261.500000" r="5.000000"/>
<circle cx="306.500000" cy="256.500000" r="5.000000"/>
<circle cx="315.500000" cy="257.500000" r="5.000000"/>
<circle cx="325.500000" cy="256.500000" r="5.000000"/>
<circle cx="337.500000" cy="250.500000" r="5.000000"/>
<circle cx="334.500000" cy="246.500000" r="5.000000"/>
<circle cx="326.500000" cy="250.500000" r="5.000000"/>
<circle cx="310.500000" cy="247.500000" r="5.000000"/>
<circle cx="302.500000" cy="236.500000" r="5.000000"/>
<circle cx="293.500000" cy="164.500000" r="5.000000"/>
<circle cx="295.500000" cy="147.500000" r="5.000000"/>
<circle cx="253.500000" cy="297.500000" r="5.000000"/>
<circle cx="269.500000" cy="288.500000" r="5.000000"/>
<circle cx="271.500000" cy="278.500000" r="5.000000"/>
<circle cx="262.500000" cy="270.500000" r="5.000000"/>
<circle cx="252.500000" cy="272.500000" r="5.000000"/>
<circle cx="169.500000" cy="173.500000" r="5.000000"/>
<circle cx="182.500000" cy="166.500000" r="5.000000"/>
<circle cx="195.500000" cy="157.500000" r="5.000000"/>
<circle cx="419.500000" cy="196.500000" r="5.000000"/>
<circle cx="425.500000" cy="179.500000" r="5.000000"/>
<circle cx="254.500000" cy="262.500000" r="5.000000"/>
<circle cx="259.500000" cy="252.500000" r="5.000000"/>
<circle cx="263.500000" cy="242.500000" r="5.000000"/>
<circle cx="339.500000" cy="216.500000" r="5.000000"/>
<circle cx="350.500000" cy="213.500000" r="5.000000"/>
<circle cx="128.500000" cy="118.500000" r="5.000000"/>
<circle cx="110.500000" cy="106.500000" r="5.000000"/>
<circle cx="99.500000" cy="102.500000" r="5.000000"/>
<circle cx="291.500000" cy="167.500000" r="5.000000"/>
<circle cx="290.500000" cy="157.500000" r="5.000000"/>
<circle cx="291.500000" cy="147.500000" r="5.000000"/>
<circle cx="356.500000" cy="262.500000" r="5.000000"/>
<circle cx="249.500000" cy="296.500000" r="5.000000"/>
<circle cx="242.500000" cy="284.500000" r="5.000000"/>
<circle cx="390.500000" cy="80.500000" r="5.000000"/>
<circle cx="393.500000" cy="69.500000" r="5.000000"/>
<circle cx="317.500000" cy="269.500000" r="5.000000"/>
<circle cx="329.500000" cy="269.500000" r="5.000000"/>
<circle cx="210.500000" cy="126.500000" r="5.000000"/>
<circle cx="316.500000" cy="149.500000" r="5.000000"/>
<circle cx="364.500000" cy="161.500000" r="5.000000"/>
<circle cx="367.500000" cy="157.500000" r="5.000000"/>
</g>
</svg>
